<svg width="68" height="144" viewBox="0 0 68 144" fill="none" xmlns="http://www.w3.org/2000/svg">
<path d="M63.9507 97.2078C63.8953 97.0547 63.828 96.9061 63.7494 96.7635C63.6962 96.6799 63.6393 96.6077 63.5823 96.5318C63.494 96.4127 63.3962 96.3009 63.2899 96.1976C63.2131 96.1255 63.1319 96.0583 63.0468 95.9963C62.9898 95.9507 62.9443 95.8976 62.8797 95.852C62.8174 95.8182 62.7526 95.789 62.686 95.7646C62.6359 95.7278 62.5839 95.6936 62.5303 95.6621L44.1643 87.3146C53.5486 73.8895 67.532 50.9927 67.532 33.766C67.532 24.8107 63.9745 16.2222 57.6422 9.88983C51.3098 3.55748 42.7213 0 33.766 0C24.8107 0 16.2222 3.55748 9.88983 9.88983C3.55748 16.2222 0 24.8107 0 33.766C0 51.0041 13.9834 73.9009 23.3715 87.3146L5.00167 95.6697C4.9485 95.6925 4.90672 95.7381 4.85355 95.7646C4.80038 95.7912 4.71683 95.8178 4.65227 95.8596C4.59277 95.906 4.53573 95.9554 4.48137 96.0077C4.39784 96.0673 4.31911 96.1333 4.24591 96.2052C4.13639 96.3079 4.03718 96.4211 3.94968 96.5432C3.89272 96.6191 3.83575 96.6951 3.78638 96.771C3.70501 96.9141 3.63639 97.0641 3.5813 97.2192C3.54664 97.2916 3.51744 97.3665 3.49395 97.4433C3.4211 97.6899 3.38402 97.9457 3.38381 98.2028V128.27C3.38458 128.8 3.53743 129.318 3.82421 129.764C4.11099 130.21 4.51966 130.564 5.00167 130.784L32.6267 143.343C32.6684 143.366 32.7178 143.343 32.7596 143.377C33.0772 143.52 33.4215 143.594 33.7698 143.594C34.118 143.594 34.4623 143.52 34.78 143.377C34.8264 143.37 34.8721 143.358 34.9167 143.343L62.5341 130.757C63.0157 130.537 63.4239 130.183 63.71 129.737C63.9961 129.291 64.1482 128.773 64.1482 128.243V98.1762C64.1493 97.9193 64.1134 97.6635 64.0418 97.4167C64.0191 97.3559 63.9773 97.2875 63.9507 97.2078ZM5.52576 33.7356C5.52576 26.2458 8.50106 19.0628 13.7971 13.7668C19.0932 8.47068 26.2762 5.49538 33.766 5.49538C41.2558 5.49538 48.4388 8.47068 53.7349 13.7668C59.0309 19.0628 62.0062 26.2458 62.0062 33.7356C62.0062 53.4499 40.6969 83.0459 33.7698 92.1378C26.8389 83.0459 5.52576 53.4499 5.52576 33.7356ZM31.005 136.541L8.90957 126.462V102.472L12.1567 103.953L31.005 112.539V136.541ZM33.766 107.728L12.8023 98.1762L26.649 91.8719C29.3948 95.6127 31.3164 98.0053 31.6203 98.3813C31.8787 98.7016 32.2055 98.9599 32.5768 99.1374C32.9481 99.3149 33.3545 99.4071 33.766 99.4071C34.1775 99.4071 34.5839 99.3149 34.9552 99.1374C35.3265 98.9599 35.6533 98.7016 35.9117 98.3813C36.2156 98.0015 38.141 95.6127 40.8868 91.8757L54.7259 98.18L33.766 107.728ZM58.6186 126.462L36.527 136.541V112.539L45.334 108.525L58.6262 102.472L58.6186 126.462Z" fill="#C7DBC5"/>
<path d="M50.8253 34.0243C50.826 30.6501 49.8261 27.3514 47.952 24.5455C46.078 21.7396 43.4139 19.5524 40.2967 18.2606C37.1795 16.9688 33.7493 16.6305 30.4398 17.2883C27.1303 17.9461 24.0903 19.5706 21.704 21.9562C19.3178 24.3419 17.6927 27.3816 17.0341 30.691C16.3756 34.0003 16.7132 37.4306 18.0043 40.5481C19.2954 43.6655 21.4819 46.3301 24.2875 48.2048C27.093 50.0795 30.3914 51.0801 33.7657 51.0801C38.287 51.0721 42.621 49.2727 45.8184 46.076C49.0158 42.8792 50.8162 38.5457 50.8253 34.0243ZM22.2318 34.0243C22.2281 31.7424 22.9013 29.5105 24.1664 27.6113C25.4315 25.7121 27.2315 24.2308 29.3387 23.3549C31.4459 22.4791 33.7655 22.2479 36.0041 22.6908C38.2427 23.1337 40.2996 24.2307 41.9146 25.843C43.5295 27.4553 44.6299 29.5104 45.0765 31.7482C45.523 33.9861 45.2957 36.3061 44.4233 38.4148C43.5509 40.5234 42.0726 42.3259 40.1755 43.5941C38.2783 44.8622 36.0476 45.5392 33.7657 45.5392C30.7109 45.5362 27.7818 44.3227 25.62 42.1644C23.4582 40.0061 22.2399 37.0791 22.2318 34.0243Z" fill="#C7DBC5"/>
</svg>
