<svg width="59" height="100" viewBox="0 0 59 100" fill="none" xmlns="http://www.w3.org/2000/svg">
<circle cx="28.2048" cy="83.3327" r="16.6667" fill="#FF9EAB" fill-opacity="0.52"/>
<circle cx="28.205" cy="83.3329" r="7.69231" fill="#FC7486"/>
<path d="M29.2143 0C13.088 0 0 13.088 0 29.2143C0 41.1571 15.9861 67.5434 24.3063 80.4912C26.6201 84.067 31.8319 84.067 34.1457 80.4912C42.4659 67.5434 58.4519 41.1571 58.4519 29.2143C58.4286 13.0646 45.3406 0 29.2143 0ZM29.2143 44.8264C20.5902 44.8264 13.6022 37.8383 13.6022 29.2143C13.6022 20.5902 20.5902 13.6022 29.2143 13.6022C37.8383 13.6022 44.8264 20.5902 44.8264 29.2143C44.8264 37.8383 37.8383 44.8264 29.2143 44.8264Z" fill="#E6001E"/>
</svg>
