<svg width="23" height="25" viewBox="0 0 23 25" fill="none" xmlns="http://www.w3.org/2000/svg">
<path d="M19.4286 15V8.33335C19.4286 3.73081 15.8043 0 11.3333 0C6.86233 0 3.23811 3.73081 3.23811 8.33335V15L0 21.6667H7.36747C7.74229 23.5683 9.3751 25 11.3333 25C13.2915 25 14.9244 23.5683 15.2992 21.6667H22.6666L19.4286 15ZM11.3333 23.3333C10.2777 23.3333 9.38806 22.6358 9.05369 21.6667H13.6137C13.2786 22.6358 12.3889 23.3333 11.3333 23.3333ZM2.42859 20L4.85714 15V8.33335C4.85714 4.65168 7.75684 1.66669 11.3333 1.66669C14.9098 1.66669 17.8095 4.65168 17.8095 8.33335V15L20.2381 20H2.42859V20Z" fill="#090B12"/>
</svg>
