<svg width="4" height="17" viewBox="0 0 4 17" fill="none" xmlns="http://www.w3.org/2000/svg">
<path d="M1 14.5C1 15.0523 1.44772 15.5 2 15.5C2.55228 15.5 3 15.0523 3 14.5C3 13.9477 2.55228 13.5 2 13.5C1.44772 13.5 1 13.9477 1 14.5Z" stroke="#A6C8A8" stroke-width="2" stroke-linecap="round" stroke-linejoin="round"/>
<path d="M1 8.5C1 9.05228 1.44772 9.5 2 9.5C2.55228 9.5 3 9.05228 3 8.5C3 7.94772 2.55228 7.5 2 7.5C1.44772 7.5 1 7.94772 1 8.5Z" stroke="#A6C8A8" stroke-width="2" stroke-linecap="round" stroke-linejoin="round"/>
<path d="M1 2.5C1 3.05228 1.44772 3.5 2 3.5C2.55228 3.5 3 3.05228 3 2.5C3 1.94772 2.55228 1.5 2 1.5C1.44772 1.5 1 1.94772 1 2.5Z" stroke="#A6C8A8" stroke-width="2" stroke-linecap="round" stroke-linejoin="round"/>
</svg>
