<svg width="95" height="95" viewBox="0 0 95 95" fill="none" xmlns="http://www.w3.org/2000/svg">
<g clip-path="url(#clip0_2166_7552)">
<path d="M47.5 95C73.7335 95 95 73.7335 95 47.5C95 21.2665 73.7335 0 47.5 0C21.2665 0 0 21.2665 0 47.5C0 73.7335 21.2665 95 47.5 95Z" fill="url(#paint0_linear_2166_7552)"/>
<path d="M27.7329 6.66677C27.7329 6.66677 30.0251 4.04685 31.4989 4.86548C32.9727 5.68448 31.8262 5.52083 34.7738 6.33928C37.7212 7.15791 40.9961 5.84814 40.9961 5.84814C40.9961 5.84814 42.6334 4.53781 43.9435 5.35699C45.2537 6.17563 47.7096 8.30441 45.5808 9.28688C43.4522 10.2693 42.3059 11.5795 42.4695 13.2168C42.6334 14.8542 43.4522 15.1817 45.0896 15.8367C46.7269 16.4917 48.0371 16.983 48.6919 15.673C49.347 14.3631 48.3646 12.2343 49.5107 12.2343C50.657 12.2343 52.1306 13.0531 53.6044 13.3806C55.0778 13.7083 56.5514 14.5269 57.3704 15.1819C58.1891 15.8369 60.4817 16.6557 60.4817 17.4745C60.4817 18.293 58.5167 18.7843 56.8791 19.4393C55.2418 20.0942 55.897 21.0769 55.897 21.7317C55.897 22.3865 53.2767 22.223 52.4579 24.0241C51.6396 25.825 51.4758 27.4627 50.1657 29.1001C48.8555 30.7374 46.8908 31.5562 46.8908 32.8662C46.8908 34.176 49.5107 37.1237 47.3821 37.1237C45.2533 37.1237 39.3583 29.7553 35.2646 35.8136C31.171 41.8719 39.031 42.5269 39.031 42.5269C39.031 42.5269 41.978 44.1647 42.4694 45.4745C42.9607 46.7842 44.107 47.7667 45.0895 48.7492C46.0719 49.7316 49.838 50.7143 53.6044 49.2403C57.3704 47.7667 61.6278 48.9132 63.1014 50.0591C64.5752 51.2053 66.8678 51.5329 68.9964 52.8431C71.1252 54.1529 69.3239 56.1174 72.7625 57.1001C76.201 58.0827 81.6049 58.2464 79.1486 63.4861C76.6924 68.7261 77.6752 71.6737 73.2538 73.9657C68.8326 76.2582 69.8151 78.0595 68.014 79.6969C66.2129 81.3344 64.9027 81.1709 63.4289 82.317C61.9555 83.463 59.499 84.282 58.1891 85.7556C56.8791 87.2292 51.4756 91.9779 51.4756 91.9779C51.4756 91.9779 49.1832 90.5043 51.3118 87.5567C53.4406 84.6093 56.2241 75.4394 56.2241 73.8021C56.2241 72.1646 52.7858 70.8547 51.9668 69.0532C51.1481 67.2521 49.6743 63.4859 49.0193 62.5036C48.3646 61.5211 49.347 56.7726 50.1657 55.6265C50.9843 54.4803 47.0544 53.334 44.2708 51.0416C43.1184 50.0924 40.6682 45.4741 37.8847 45.3102C33.4681 45.0503 28.6472 41.8821 28.5511 39.5793C28.3873 35.6492 26.2587 32.3743 25.2762 31.3918C24.2937 30.4093 20.6912 26.4795 22.6565 23.3684C24.6214 20.2572 26.9135 17.4736 26.9135 14.6898C26.9135 11.9062 25.1122 7.97599 23.6388 8.63097C22.1653 9.28669 27.7329 6.66677 27.7329 6.66677Z" fill="white"/>
<path d="M73.2551 73.9667C77.6763 71.6745 76.6935 68.7271 79.1499 63.4871C81.6062 58.2474 76.2024 58.0837 72.7638 57.1011C70.6107 56.4858 70.5118 55.4855 70.2164 54.502C69.5442 65.1282 67.3818 74.6073 64.3906 81.7182C65.5072 81.158 66.6122 80.9734 68.0153 79.6979C69.8164 78.0603 68.8339 76.2592 73.2551 73.9667Z" fill="white"/>
<path d="M86.3359 20.1465C86.7067 22.1023 88.0519 29.5873 87.3238 31.6673C86.4842 34.0664 86.6041 34.9062 87.8036 36.7052C89.003 38.5043 88.0435 40.0642 89.123 41.7432C90.2025 43.4222 91.4019 46.7804 92.8416 45.9412C93.6231 45.4853 94.3677 44.783 94.8863 44.2351C94.2796 35.302 91.2049 27.0466 86.3359 20.1465Z" fill="#CBE0CC"/>
<path d="M94.8629 51.1325C94.8962 50.6938 94.9219 50.2531 94.9433 49.8112C92.0371 51.6132 88.7071 53.1364 84.8514 54.3884C84.7514 45.7785 82.9757 37.5645 79.5613 29.9404C84.2009 28.6514 87.5453 27.2431 89.8209 25.9105C89.6563 25.5884 89.4875 25.2689 89.3156 24.951C87.0546 26.2733 83.6602 27.6916 79.1063 28.9475C79.0638 28.8585 79.025 28.7679 78.9827 28.6787C75.8635 22.1209 70.7088 14.7901 65.0493 9.48794C67.8575 8.68081 69.7612 7.66531 71.3397 6.40897C70.9998 6.21137 70.6572 6.01766 70.3123 5.82821C68.7869 6.9671 66.9101 7.88927 64.1451 8.62385C60.3828 5.08677 56.7084 2.36331 53.7502 0.409316C52.9572 0.305039 52.1578 0.22043 51.3529 0.155859C54.3636 2.02042 58.5403 4.92367 62.8823 8.93204C60.4716 9.47291 57.4517 9.89911 53.5548 10.2262C51.7884 5.79927 50.0719 2.37704 48.7662 0.0168848C48.3475 0.00612305 47.9279 0 47.5064 0C48.7911 2.27295 50.5653 5.73062 52.4119 10.3179C49.5214 10.5367 46.1736 10.7059 42.2749 10.8313C43.4364 6.08353 44.5616 2.4687 45.393 0.0487988C44.9983 0.0660547 44.6055 0.0881348 44.2137 0.114854C43.3713 2.60619 42.2695 6.20858 41.1397 10.8653C36.4801 10.9929 32.6283 10.7129 29.4573 10.2025C29.6029 10.0468 29.749 9.88779 29.8935 9.73602C34.1075 5.31202 38.3483 2.29058 41.5483 0.370166C40.6319 0.484834 39.7243 0.626777 38.8252 0.792842C35.9485 2.71195 30.3132 7.18215 28.1813 9.97853C25.2886 9.42615 23.019 8.68118 21.2567 7.9056C20.8936 8.14681 20.5334 8.3921 20.1772 8.64296C21.9725 9.49258 24.3132 10.3157 27.3343 10.9313C23.1216 15.7676 18.8837 22.2547 15.9031 30.6917C10.8347 29.555 7.23602 28.153 4.71592 26.8438C4.55895 27.1683 4.40605 27.4953 4.25632 27.8241C7.36961 29.4417 11.139 30.7503 15.5472 31.7443C13.0446 39.2411 11.7687 47.5119 11.7554 56.4051C6.82429 55.3748 3.09368 54.1596 0.320312 53.0089C0.370039 53.4399 0.425332 53.8693 0.486562 54.2968C3.2976 55.4165 6.98293 56.5667 11.7658 57.5412C11.8879 66.259 13.6159 73.8391 16.9082 80.0947C15.193 79.8332 13.6185 79.5473 12.171 79.2471C12.5942 79.7178 13.0273 80.1791 13.4691 80.6325C14.7453 80.8702 16.1092 81.0959 17.5697 81.3033C18.9312 83.6729 20.5297 85.8401 22.3505 87.7986C23.6055 88.5832 24.8991 89.3113 26.2291 89.9787C23.3682 87.5766 20.9492 84.7387 18.9899 81.4959C24.0031 82.1418 30.065 82.5776 37.3529 82.6249C38.3042 88.1832 39.5889 91.9724 40.9497 94.548C41.4008 94.6102 41.8535 94.6668 42.3086 94.7161C40.9627 92.3936 39.5414 88.6543 38.4875 82.63C45.9363 82.6773 53.2335 82.4483 58.9051 82.0769C57.1682 88.65 54.7377 92.4942 52.4651 94.7421C53.0281 94.6838 53.5871 94.6131 54.1445 94.535C56.2874 92.0509 58.4657 88.1433 60.0477 81.9989C65.0921 81.6399 71.0925 81.0758 77.3796 79.6829C74.3938 84.3927 70.3663 88.355 65.3075 91.5459C67.1359 90.8059 68.9075 89.9555 70.6146 89.0028C73.8685 86.2491 76.8805 82.717 78.8224 79.3491C80.6866 78.8956 82.4268 78.3878 84.0632 77.8215C84.4918 77.3053 84.9082 76.7789 85.3151 76.2446C83.6477 76.8964 81.7542 77.5167 79.5425 78.0874C83.0189 71.7133 84.8035 64.1397 84.8564 55.5455C88.6156 54.3524 91.9083 52.895 94.8629 51.1325ZM63.82 9.81376C69.7085 15.6117 74.389 21.6199 77.9984 29.2446C73.7841 30.3375 67.8336 31.499 59.8829 32.2421C58.3323 24.133 55.3864 14.4688 53.964 11.2684C58.1236 10.9072 61.3025 10.4287 63.82 9.81376ZM61.3022 58.4586C54.205 58.9687 46.1112 59.1152 36.8567 58.9269C36.8766 49.6889 37.4141 41.3823 38.2305 34.0727C46.0637 34.256 54.0586 33.8335 58.9863 33.4036C60.3158 40.6426 61.2405 49.0352 61.3022 58.4586ZM42.0132 11.9164C46.1949 11.785 49.7624 11.6024 52.8253 11.3621C54.2788 15.1475 57.2498 24.3462 58.7848 32.3414C53.0192 32.8405 46.2402 33.117 38.3537 32.9984C39.3388 24.577 40.6857 17.5166 42.0132 11.9164ZM28.5806 11.1662C31.4308 11.662 36.2416 12.147 40.8814 11.9474C39.5603 17.565 38.2279 24.607 37.2519 32.978C28.8238 32.8026 22.1994 32.0081 17.0182 30.9325C20.1013 22.2756 24.4601 15.8064 28.5806 11.1662ZM12.852 56.546C12.852 46.9324 14.3527 38.8027 16.651 31.984C22.444 33.1938 29.2853 33.8851 37.1289 34.0523C36.3142 41.3701 35.7794 49.6755 35.7587 58.902C26.2566 58.6692 18.7438 57.7845 12.8527 56.6283C12.8527 56.6005 12.852 56.5732 12.852 56.546ZM18.2933 80.2967C14.8622 74.0933 13.0208 66.5093 12.865 57.7587C18.785 58.8911 26.2946 59.7485 35.7579 59.9784C35.7781 69.0691 36.3218 76.1065 37.176 81.5473C29.6109 81.4909 23.3821 81.0022 18.2933 80.2967ZM59.1825 80.981C53.3572 81.3699 46.484 81.5777 38.3073 81.5536C37.4518 76.221 36.8784 69.2123 36.8563 60.0031C45.3826 60.3504 56.1506 59.8964 61.3083 59.5301C61.3036 68.6937 60.4639 75.6701 59.1825 80.981ZM78.1379 78.432C73.6251 79.4901 67.8831 80.3531 60.3175 80.9018C61.5855 75.5228 62.4067 68.5347 62.4067 59.4546C62.4067 59.4526 62.4067 59.4509 62.4067 59.4494C67.5744 59.0494 74.8608 58.5217 83.7544 55.8851C83.6546 64.6215 81.7743 72.1542 78.1379 78.432ZM62.3998 58.376C62.3336 48.956 61.4105 40.5589 60.0835 33.3044C68.1739 32.5429 74.208 31.3513 78.4599 30.2378C81.562 37.1096 83.6947 45.2651 83.7569 54.7315C77.8949 56.5146 70.8727 57.7127 62.3998 58.376Z" fill="#E6E7E8"/>
<path d="M65.3068 91.5459C67.1352 90.8059 68.9068 89.9556 70.6138 89.0028C73.8677 86.2491 76.8797 82.717 78.8216 79.3491C80.6858 78.8957 82.4261 78.3878 84.0624 77.8215C84.491 77.3053 84.9074 76.7789 85.3143 76.2446C83.647 76.8964 81.7535 77.5167 79.5417 78.0874C83.0182 71.7133 84.8027 64.1397 84.8556 55.5455C88.6152 54.3526 91.9079 52.8954 94.8625 51.1328C94.8958 50.6942 94.9215 50.2535 94.9429 49.8116C92.0367 51.6136 88.7066 53.1367 84.851 54.3888C84.751 45.7789 82.9753 37.5649 79.5609 29.9408C84.2005 28.6518 87.5449 27.2435 89.8205 25.9109C89.6559 25.5888 89.4871 25.2693 89.3152 24.9514C87.0542 26.2736 83.6598 27.692 79.1059 28.9479C79.0634 28.8589 79.0246 28.7683 78.9823 28.6791C75.8631 22.1213 70.7084 14.7905 65.0489 9.48833C67.8571 8.6812 69.7608 7.6657 71.3393 6.40937C70.9994 6.21176 70.6568 6.01805 70.3119 5.8286C68.7865 6.96749 66.9097 7.88966 64.1447 8.62424C60.3824 5.08716 56.708 2.3637 53.7498 0.409707C52.9568 0.30543 52.1574 0.22082 51.3525 0.15625C54.3632 2.02081 58.5399 4.92406 62.8819 8.93243C61.4801 9.24693 59.8704 9.52247 58.004 9.76257C58.2174 10.0884 58.431 10.4198 58.6445 10.758C60.639 10.4875 62.3442 10.1743 63.8198 9.81378C69.7083 15.6117 74.3887 21.6199 77.9982 29.2446C75.3419 29.9334 71.9941 30.6494 67.892 31.2708C67.9939 31.6178 68.0928 31.9657 68.1896 32.3141C72.3705 31.6762 75.772 30.9416 78.4596 30.2379C81.5618 37.1096 83.6945 45.2651 83.7566 54.7315C79.7394 55.9535 75.1766 56.9006 69.9759 57.5891C69.9401 57.9767 69.9024 58.3623 69.8627 58.746C73.872 58.2512 78.5335 57.4325 83.7542 55.8849C83.6546 64.6215 81.7741 72.1542 78.1377 78.432C74.5808 79.266 70.2553 79.978 64.8798 80.511C64.729 80.894 64.5761 81.2712 64.421 81.6418C68.421 81.2653 72.8238 80.6923 77.379 79.6829C74.3928 84.3927 70.3653 88.3552 65.3068 91.5459Z" fill="#A6A8AB"/>
</g>
<defs>
<linearGradient id="paint0_linear_2166_7552" x1="47.5" y1="-1.22016" x2="47.5" y2="95.4076" gradientUnits="userSpaceOnUse">
<stop stop-color="#8BC53F"/>
<stop offset="1" stop-color="#D5F7A9"/>
</linearGradient>
<clipPath id="clip0_2166_7552">
<rect width="95" height="95" fill="white"/>
</clipPath>
</defs>
</svg>
