<svg width="62" height="91" viewBox="0 0 62 91" fill="none" xmlns="http://www.w3.org/2000/svg">
<path d="M28.512 3.30814C29.1298 2.75625 29.1833 1.80801 28.6314 1.19018C28.0795 0.572348 27.1313 0.518886 26.5134 1.07077L28.512 3.30814ZM62 84.1895L48.5455 73.2818L45.8264 90.3875L62 84.1895ZM26.5134 1.07077C20.428 6.50662 14.1439 13.3969 9.27904 20.9202C4.42403 28.4283 0.912649 36.6754 0.533934 44.8002C0.151632 53.0018 2.97167 60.9716 10.5563 67.7536C18.0806 74.4816 30.2186 79.9779 48.3836 83.5428L48.9613 80.599C31.0596 77.0857 19.5158 71.7406 12.556 65.5172C5.65632 59.3478 3.18965 52.2562 3.53068 44.9399C3.8753 37.5466 7.09729 29.8191 11.7982 22.5492C16.4893 15.2946 22.5838 8.60358 28.512 3.30814L26.5134 1.07077Z" fill="#A78FE6"/>
</svg>
