<svg width="159" height="199" viewBox="0 0 159 199" fill="none" xmlns="http://www.w3.org/2000/svg">
<rect x="0.269531" y="0.892578" width="158.108" height="197.297" rx="10" fill="#F5F9F5"/>
<rect x="0.769531" y="1.39258" width="157.108" height="196.297" rx="9.5" stroke="#B8D9BA" stroke-opacity="0.53"/>
<path d="M106.313 145.492C21.4205 146.406 24.7787 150.403 43.8625 67.248H115.324L126.803 119.792C127.479 122.881 127.459 126.084 126.744 129.165C126.028 132.246 124.636 135.125 122.67 137.591C120.704 140.058 118.213 142.048 115.382 143.415C112.551 144.783 109.452 145.492 106.313 145.492Z" fill="#8BA8AF"/>
<path d="M58.2562 75.2637L55.1484 75.1184C55.2043 73.8738 56.8141 44.6579 70.9673 34.4014C90.108 24.3176 100.009 47.2651 103.247 73.6011L100.149 73.9101C97.9899 52.8249 91.5974 42.6864 86.6098 37.9079C65.2637 21.2106 56.8046 75.2637 58.2562 75.2637Z" fill="#8BA8AF"/>
<path d="M106.639 145.81H90.418C125.79 145.755 115.804 70.2749 115.429 67.248L115.546 67.3399L126.809 120.035C127.475 123.134 127.455 126.346 126.751 129.436C126.046 132.525 124.676 135.413 122.741 137.886C120.805 140.36 118.353 142.356 115.567 143.727C112.78 145.098 109.729 145.81 106.639 145.81Z" fill="#8BA8AF"/>
</svg>
