<svg width="137" height="120" viewBox="0 0 137 120" fill="none" xmlns="http://www.w3.org/2000/svg">
<g filter="url(#filter0_d_2166_22099)">
<rect x="20.1621" y="10" width="95.9459" height="79.7297" rx="9" fill="white"/>
</g>
<path d="M104.045 38.5477H92.4363L80.1994 21.3385C79.7981 20.7741 79.0161 20.6419 78.4501 21.0429C77.8856 21.4444 77.7532 22.2278 78.1551 22.7923L89.3583 38.5477H48.2668L59.4701 22.7923C59.8719 22.2278 59.7395 21.4446 59.1751 21.0429C58.6093 20.6411 57.8266 20.7737 57.4258 21.3385L45.1888 38.5477H33.5805C32.8878 38.5477 32.3262 39.1093 32.3262 39.802C32.3262 40.4948 32.8878 41.0564 33.5805 41.0564H37.7587L47.2465 76.42C47.2562 76.4565 47.2714 76.4897 47.2842 76.5245C47.2933 76.5496 47.3006 76.5753 47.3113 76.5996C47.3406 76.6666 47.3749 76.7302 47.4145 76.7895C47.4162 76.7917 47.4172 76.7945 47.4188 76.7968C47.4617 76.8605 47.5109 76.9188 47.5642 76.9729C47.5777 76.9867 47.5931 76.9982 47.6073 77.0114C47.6476 77.0488 47.6893 77.0842 47.734 77.1158C47.7563 77.1316 47.7793 77.1454 47.8026 77.1598C47.8435 77.1849 47.8852 77.2077 47.9288 77.2282C47.9549 77.2403 47.981 77.2521 48.0083 77.2624C48.0557 77.2806 48.1041 77.295 48.1537 77.3075C48.178 77.3136 48.2013 77.3211 48.2262 77.3258C48.3021 77.3401 48.379 77.3494 48.4578 77.3494C48.4584 77.3494 48.459 77.3492 48.4596 77.3492H58.6319C58.6329 77.3492 58.6337 77.3494 58.6346 77.3494C58.6358 77.3494 58.637 77.3492 58.6382 77.3492H78.9877C78.989 77.3492 78.9902 77.3494 78.9914 77.3494C78.9924 77.3494 78.993 77.3492 78.994 77.3492H89.1658C89.1664 77.3492 89.167 77.3494 89.1676 77.3494C89.2461 77.3494 89.3233 77.3401 89.399 77.3258C89.4239 77.3211 89.4476 77.3136 89.4717 77.3073C89.5209 77.295 89.5693 77.2806 89.6164 77.2624C89.644 77.2517 89.6705 77.2399 89.6972 77.2276C89.7399 77.2075 89.7812 77.1849 89.8215 77.1602C89.8452 77.1456 89.8691 77.1314 89.8917 77.1154C89.9357 77.0843 89.9766 77.0494 90.0162 77.0126C90.0312 76.9988 90.0474 76.9867 90.0616 76.9723C90.1146 76.9184 90.1634 76.8603 90.2063 76.7968C90.2083 76.7937 90.2098 76.7901 90.2118 76.7871C90.2507 76.7283 90.2845 76.6656 90.3136 76.5996C90.3244 76.5751 90.3318 76.549 90.341 76.5235C90.3535 76.4889 90.3687 76.4559 90.3784 76.4196L99.8663 41.056H104.045C104.738 41.056 105.299 40.4944 105.299 39.8016C105.299 39.1089 104.737 38.5477 104.045 38.5477ZM91.4502 62.7409H82.0465L83.3329 53.1524H94.0229L91.4502 62.7409ZM88.2038 74.8407H80.4233L81.7099 65.2498H90.777L88.2038 74.8407ZM70.0665 74.8407V65.2498H79.1789L77.8923 74.8407H70.0665ZM59.7326 74.8407L58.4461 65.2498H67.5578V74.8407H59.7326ZM49.4206 74.8407L46.8473 65.2498H55.9149L57.2014 74.8407H49.4206ZM67.5578 53.1524V62.7409H58.1096L56.8233 53.1524H67.5578ZM56.4866 50.6435L55.2004 41.0564H67.5576V50.6435H56.4866ZM55.5784 62.7409H46.1742L43.6017 53.1524H54.2921L55.5784 62.7409ZM79.5153 62.7409H70.0665V53.1524H80.8017L79.5153 62.7409ZM70.0665 50.6435V41.0564H82.4243L81.1382 50.6435H70.0665ZM52.6697 41.0564L53.9558 50.6435H42.9287L40.3564 41.0564H52.6697ZM94.6958 50.6435H83.6693L84.9555 41.0564H97.2681L94.6958 50.6435Z" fill="#474747"/>
<circle cx="97.4" cy="39.4" r="16.4" fill="#E6001E" stroke="white" stroke-width="2"/>
<path d="M106.475 38.9229V40.809C106.475 41.6712 106.388 42.4077 106.213 43.0184C106.039 43.6291 105.787 44.1295 105.459 44.5195C105.131 44.9044 104.738 45.1893 104.281 45.374C103.824 45.5537 103.316 45.6435 102.757 45.6435C102.31 45.6435 101.895 45.587 101.51 45.4741C101.125 45.3561 100.779 45.1764 100.471 44.9352C100.168 44.6889 99.9061 44.3758 99.6854 43.9961C99.4698 43.6163 99.303 43.1621 99.185 42.6335C99.0721 42.1049 99.0156 41.4967 99.0156 40.809V38.9229C99.0156 38.0607 99.1029 37.3268 99.2774 36.7212C99.457 36.1157 99.711 35.6204 100.039 35.2355C100.368 34.8506 100.761 34.5709 101.217 34.3964C101.674 34.2168 102.182 34.127 102.742 34.127C103.193 34.127 103.609 34.1834 103.989 34.2963C104.374 34.4092 104.717 34.5863 105.02 34.8275C105.328 35.0636 105.59 35.3715 105.805 35.7513C106.021 36.1259 106.185 36.5775 106.298 37.1062C106.416 37.6296 106.475 38.2352 106.475 38.9229ZM104.443 41.0861V38.6381C104.443 38.207 104.417 37.8324 104.366 37.5142C104.32 37.1908 104.25 36.9163 104.158 36.6905C104.066 36.4646 103.95 36.2825 103.812 36.1439C103.673 36.0002 103.514 35.895 103.334 35.8283C103.155 35.7615 102.957 35.7282 102.742 35.7282C102.475 35.7282 102.236 35.7821 102.026 35.8898C101.815 35.9925 101.638 36.1567 101.494 36.3825C101.351 36.6083 101.24 36.9086 101.163 37.2832C101.092 37.6527 101.056 38.1044 101.056 38.6381V41.0861C101.056 41.5172 101.079 41.8944 101.125 42.2178C101.176 42.5411 101.248 42.8182 101.34 43.0492C101.438 43.2801 101.553 43.47 101.687 43.6188C101.825 43.7625 101.985 43.8703 102.164 43.9422C102.344 44.0089 102.541 44.0422 102.757 44.0422C103.029 44.0422 103.268 43.9884 103.473 43.8806C103.683 43.7728 103.86 43.6034 104.004 43.3725C104.148 43.1364 104.256 42.8311 104.327 42.4564C104.404 42.0766 104.443 41.6199 104.443 41.0861Z" fill="white"/>
<path d="M97.6399 43.8882V45.4894H90.0494V44.1191L93.6907 40.1853C94.0705 39.7542 94.3707 39.3796 94.5914 39.0614C94.812 38.7432 94.9686 38.4558 95.061 38.1992C95.1585 37.9375 95.2072 37.6885 95.2072 37.4525C95.2072 37.1086 95.1456 36.8084 95.0225 36.5518C94.8993 36.29 94.7197 36.0873 94.4836 35.9436C94.2526 35.7999 93.9678 35.7281 93.6291 35.7281C93.2544 35.7281 92.9337 35.8153 92.6668 35.9898C92.4051 36.1592 92.2049 36.3952 92.0664 36.698C91.9329 37.0008 91.8662 37.3473 91.8662 37.7373H89.8262C89.8262 37.0753 89.9801 36.4722 90.2881 35.9282C90.596 35.3791 91.0374 34.9403 91.6122 34.6118C92.187 34.2834 92.8695 34.1191 93.6599 34.1191C94.4297 34.1191 95.0815 34.2474 95.6152 34.5041C96.149 34.7555 96.5544 35.1148 96.8315 35.5818C97.1087 36.0488 97.2472 36.6057 97.2472 37.2523C97.2472 37.6116 97.1882 37.9657 97.0702 38.3147C96.9521 38.6636 96.7854 39.0101 96.5698 39.3539C96.3594 39.6926 96.1079 40.0365 95.8154 40.3855C95.5228 40.7345 95.197 41.0912 94.8377 41.4555L92.6514 43.8882H97.6399Z" fill="white"/>
<defs>
<filter id="filter0_d_2166_22099" x="0.162109" y="0" width="135.945" height="119.73" filterUnits="userSpaceOnUse" color-interpolation-filters="sRGB">
<feFlood flood-opacity="0" result="BackgroundImageFix"/>
<feColorMatrix in="SourceAlpha" type="matrix" values="0 0 0 0 0 0 0 0 0 0 0 0 0 0 0 0 0 0 127 0" result="hardAlpha"/>
<feOffset dy="10"/>
<feGaussianBlur stdDeviation="10"/>
<feComposite in2="hardAlpha" operator="out"/>
<feColorMatrix type="matrix" values="0 0 0 0 0 0 0 0 0 0 0 0 0 0 0 0 0 0 0.08 0"/>
<feBlend mode="normal" in2="BackgroundImageFix" result="effect1_dropShadow_2166_22099"/>
<feBlend mode="normal" in="SourceGraphic" in2="effect1_dropShadow_2166_22099" result="shape"/>
</filter>
</defs>
</svg>
