<svg width="190" height="95" viewBox="0 0 190 95" fill="none" xmlns="http://www.w3.org/2000/svg">
<path d="M147.67 63.2576C150.791 65.1743 153.742 67.3456 156.756 69.4221C159.438 71.2699 162.186 73.0013 165.079 74.4988C167.632 75.8196 170.265 76.9996 172.974 77.9613C175.707 78.9317 178.544 79.6895 181.44 79.9492C183.996 80.1784 186.668 79.9825 189.011 78.8611C189.275 78.7352 189.531 78.5969 189.782 78.4476C190.289 78.1455 189.828 77.3517 189.319 77.655C188.299 78.2625 187.235 78.6363 186.049 78.8682C184.845 79.1039 183.565 79.1545 182.297 79.0914C179.501 78.9521 176.735 78.2607 174.076 77.3721C171.386 76.4733 168.778 75.3406 166.247 74.0658C163.458 72.6614 160.792 71.0546 158.207 69.3044C155.216 67.2799 152.314 65.1259 149.272 63.1789C148.895 62.9374 148.515 62.6995 148.133 62.4651C147.629 62.1551 147.167 62.9487 147.67 63.2576Z" fill="#2C2F4C"/>
<path d="M0.908786 84.5223C2.06366 81.6863 3.38982 78.9069 4.88028 76.2259C6.38097 73.5265 8.05317 70.9209 9.90654 68.4499C11.7292 66.0199 13.7374 63.7241 15.9199 61.6105C18.0948 59.5043 20.4431 57.5859 22.9639 55.9104C25.8104 54.0185 28.859 52.4444 32.0782 51.2907C32.4945 51.1414 32.9134 50.9992 33.3342 50.8629C33.8936 50.6817 33.6543 49.7951 33.0903 49.9778C29.7106 51.0726 26.4859 52.5928 23.4796 54.4847C20.8536 56.1372 18.391 58.0516 16.1162 60.1607C13.8467 62.265 11.7627 64.5662 9.86233 67.0084C7.93595 69.484 6.19008 72.0955 4.62479 74.8138C3.07317 77.5085 1.69638 80.3031 0.48564 83.167C0.329443 83.5365 0.175301 83.9068 0.0239961 84.2783C-0.0695052 84.5079 0.125563 84.7827 0.344417 84.8429C0.60711 84.9151 0.814911 84.7528 0.908786 84.5223Z" fill="#2C2F4C"/>
<path d="M61.6594 14.3854L48.6278 27.3196C45.6377 24.3048 41.512 22.418 36.955 22.3609C36.8847 22.3599 36.8154 22.3599 36.745 22.3599C36.48 22.3599 36.217 22.366 35.955 22.3782C27.0848 22.7923 19.9965 30.1416 19.9965 39.1146C19.9965 40.983 20.3044 42.78 20.8702 44.4598L3.4723 50.317C2.26018 46.7188 1.64648 42.9626 1.64648 39.1146C1.64648 34.3782 2.5762 29.7796 4.40918 25.444C6.17693 21.2625 8.70617 17.5083 11.9266 14.2865C15.1471 11.0646 18.8997 8.5343 23.0804 6.76482C26.2754 5.41348 29.615 4.55271 33.0465 4.19472C34.2679 4.06621 35.5024 4.00195 36.7451 4.00195C37.3456 4.00195 37.944 4.01727 38.5393 4.04682C42.6406 4.25284 46.6256 5.16461 50.4098 6.76482C54.5895 8.5343 58.3421 11.0647 61.5626 14.2865C61.5952 14.3191 61.6268 14.3527 61.6594 14.3854Z" fill="#FB7B88"/>
<path d="M96.381 52.1641H78.5469V94.0915H96.381V52.1641Z" fill="#FB7B88"/>
<path d="M144.906 15.2207H127.072V94.0919H144.906V15.2207Z" fill="#FB7B88"/>
<path d="M169.168 0.984375H151.334V94.0922H169.168V0.984375Z" fill="#B8D9BA"/>
<path d="M69.0826 25.4442C67.3322 21.3042 64.835 17.5846 61.661 14.3848L48.6295 27.3197C51.6349 30.3498 53.4944 34.5188 53.4944 39.1146C53.4944 42.6772 52.3764 45.983 50.4742 48.701C50.7045 48.7299 50.9342 48.7617 51.1636 48.795C50.934 48.7617 50.7042 48.7301 50.4738 48.7012C50.3565 48.8685 50.2362 49.0337 50.1129 49.1969C47.0535 53.2468 42.2009 55.87 36.7468 55.87C33.2104 55.87 29.9267 54.7665 27.2201 52.8879C26.7674 53.1173 26.3179 53.354 25.8744 53.6007C20.7976 56.4207 16.3477 60.1688 12.5176 64.5186C15.6035 67.4671 19.1542 69.8026 23.0822 71.464C27.4148 73.2978 32.0125 74.228 36.7468 74.228C41.4812 74.228 46.0779 73.2978 50.4116 71.464C54.5913 69.6956 58.3439 67.1652 61.5644 63.9434C63.2862 62.2208 64.8103 60.3453 66.1264 58.333C66.2936 58.076 66.4587 57.817 66.6188 57.5559C66.9246 57.0622 67.2172 56.5605 67.4975 56.0505C67.0564 55.6818 66.6067 55.3237 66.1488 54.9756C66.6067 55.3238 67.0565 55.6818 67.4975 56.0503C68.079 54.9935 68.609 53.9052 69.0826 52.785C70.9153 48.4502 71.8446 43.8508 71.8446 39.1146C71.8446 34.3784 70.9153 29.779 69.0826 25.4442ZM52.7238 49.0562C53.4521 49.1952 54.1751 49.3573 54.8916 49.5424C54.4137 49.419 53.9329 49.3057 53.4495 49.203C53.2082 49.1514 52.9663 49.1026 52.7238 49.0562ZM52.0123 48.9283C52.2355 48.9661 52.4581 49.0061 52.6804 49.0482C52.4581 49.006 52.2354 48.9661 52.0123 48.9283ZM60.6634 51.6264C61.0715 51.82 61.4757 52.0226 61.8758 52.2345C61.4757 52.0226 61.0715 51.82 60.6634 51.6264ZM54.9438 49.5559C55.1767 49.6165 55.409 49.6793 55.6404 49.7448C55.4089 49.6793 55.1767 49.6165 54.9438 49.5559ZM55.668 49.7528C55.8906 49.816 56.1125 49.8816 56.3336 49.9495C56.1124 49.8817 55.8906 49.816 55.668 49.7528ZM59.9358 51.2922C60.1367 51.3812 60.3367 51.4727 60.5358 51.5661C60.3367 51.4727 60.1367 51.3812 59.9358 51.2922ZM64.5534 53.8333C64.361 53.7043 64.167 53.5785 63.9722 53.4544C64.167 53.5785 64.361 53.7041 64.5533 53.833C64.8967 54.0632 65.2332 54.302 65.5665 54.5445C65.2332 54.3021 64.8968 54.0634 64.5534 53.8333ZM61.997 52.2988C62.1931 52.4038 62.3884 52.5108 62.5825 52.6202C62.3884 52.5108 62.1931 52.4039 61.997 52.2988Z" fill="#A78FE6"/>
<path d="M25.8713 53.6001C26.3145 53.3539 26.7634 53.1169 27.2165 52.8872C24.285 50.8514 22.0311 47.9045 20.8689 44.459L3.4707 50.3167C3.75087 51.1482 4.063 51.9711 4.40699 52.7848C6.17519 56.9671 8.70462 60.7213 11.925 63.9431C12.1194 64.1375 12.3159 64.3292 12.5141 64.5186C16.3442 60.1686 20.7935 56.4208 25.8713 53.6001Z" fill="#A78FE6"/>
<path d="M66.6153 57.5558C66.4552 57.8169 66.2901 58.076 66.1229 58.3329C62.511 54.6012 58.1794 51.769 53.1687 50.079C52.1616 49.7394 51.1401 49.4457 50.1094 49.1969C50.2327 49.0337 50.353 48.8685 50.4703 48.7012C51.4704 48.8266 52.4633 48.9929 53.446 49.2029C54.5175 49.564 55.5706 49.976 56.6022 50.4411C60.4527 52.1769 63.7496 54.6165 66.6153 57.5558Z" fill="#725CA4"/>
<path d="M33.3361 50.8627C42.2513 48.0052 52.3394 48.0324 60.8442 52.2218C69.8114 56.6388 75.1769 65.3391 82.0632 72.1943C85.3619 75.478 89.1057 78.4354 93.4862 80.1193C97.2785 81.5772 101.629 81.9074 105.55 80.7667C107.439 80.2168 109.217 79.3073 110.724 78.0364C112.383 76.637 113.594 74.8046 114.571 72.8844C116.504 69.0877 117.713 64.7481 120.985 61.8169C123.976 59.1376 128.056 58.0948 131.997 58.1131C136.319 58.1333 140.473 59.3818 144.295 61.3481C145.445 61.9397 146.566 62.5842 147.669 63.2584C148.174 63.5672 148.636 62.7737 148.132 62.4658C144.213 60.0704 140.041 58.1144 135.459 57.461C131.533 56.9012 127.401 57.1806 123.777 58.8902C122.054 59.7027 120.483 60.8576 119.225 62.2901C117.767 63.9496 116.748 65.9204 115.84 67.9195C114.051 71.8588 112.472 76.0857 108.595 78.4459C105.022 80.6208 100.538 80.9648 96.5164 80.0723C91.918 79.0519 87.8884 76.331 84.4491 73.2015C77.2138 66.618 72.0526 57.7538 63.518 52.6334C55.4554 47.7962 45.5149 46.9339 36.4676 49.0411C35.3297 49.3061 34.2047 49.621 33.0921 49.9775C32.5321 50.1571 32.7715 51.0436 33.3361 50.8627Z" fill="#2C2F4C"/>
<path d="M120.643 37.4121H102.809V94.0929H120.643V37.4121Z" fill="white"/>
</svg>
