<svg width="130" height="74" viewBox="0 0 130 74" fill="none" xmlns="http://www.w3.org/2000/svg">
<path d="M7.46982 49.6811C0.648759 42.049 -1.05753 32.7494 0.57493 23.2666C2.55449 11.7681 9.98258 4.36683 21.4416 1.29708C23.3355 0.789831 25.3025 0.552027 27.236 0.189453C51.7185 0.205783 76.2013 0.220581 100.684 0.239973C114.719 0.2512 126.496 10.2846 128.647 24.0471C130.126 33.5041 128.185 42.089 121.558 49.1892C117.092 53.9743 111.567 57.0689 104.805 57.4651C103.885 57.8011 102.929 57.6348 101.992 57.6353C83.4948 57.6465 64.9976 57.6401 46.5001 57.6539C45.5675 57.6547 44.6065 57.4485 43.7005 57.8644C40.0852 59.4377 37.1881 62.0956 33.9955 64.2979C30.0269 67.0354 26.2028 69.9801 22.2958 72.8072C20.8412 73.8597 21.115 72.4789 20.9255 71.7797C20.5797 67.9409 20.8776 64.0932 20.7576 60.2521C20.7289 59.3326 21.0266 58.3704 20.4941 57.4952C15.5014 55.9666 10.8857 53.8144 7.46982 49.6811Z" fill="#96C0BE"/>
</svg>
