<svg width="158" height="199" viewBox="0 0 158 199" fill="none" xmlns="http://www.w3.org/2000/svg">
<rect x="0.351562" y="0.892578" width="156.757" height="197.297" rx="10" fill="#F5F9F5"/>
<rect x="0.851562" y="1.39258" width="155.757" height="196.297" rx="9.5" stroke="#B8D9BA" stroke-opacity="0.53"/>
<path d="M79.9522 42.1751V34.9794V34.1406V33.2325C79.9522 33.2325 79.1134 33.2261 78.6659 33.2261C76.2326 33.2261 74.253 31.2466 74.253 28.8133C74.253 26.3799 76.2326 24.3998 78.6659 24.3998C80.9984 24.3998 82.9091 26.2201 83.0638 28.5142L83.0787 28.505H84.9494C84.7873 25.175 82.0354 22.5137 78.6653 22.5137C75.1915 22.5137 72.3657 25.3395 72.3657 28.8133C72.3657 31.8459 74.52 34.3841 77.3785 34.9794V42.1751C62.4067 43.6796 55.0064 49.2865 51.8958 52.5524C51.1017 53.3854 50.8915 54.5617 51.3452 55.6217C51.7956 56.6719 52.824 57.3503 53.9654 57.3503H75.1542H77.5761H79.7545H81.1628H103.365C104.507 57.3503 105.535 56.6719 105.985 55.6217C106.439 54.5617 106.228 53.386 105.435 52.5524C102.324 49.2865 94.924 43.6796 79.9522 42.1751ZM103.673 54.6305C103.633 54.7233 103.547 54.8344 103.365 54.8344H81.1628H75.1542H53.9654C53.7832 54.8344 53.6972 54.7233 53.6571 54.6305C53.6021 54.5021 53.6227 54.3864 53.7173 54.2867C56.6554 51.2019 63.7995 45.8494 78.6653 44.5815C93.5305 45.8488 100.675 51.2019 103.613 54.2867C103.708 54.3864 103.728 54.5021 103.673 54.6305Z" fill="#B5D6FB"/>
<path d="M97.7421 46.5742C97.7421 46.5742 95.1867 44.2984 89.7242 43.7363C89.7242 43.7363 89.9442 63.2488 81.7 64.2268H78.6261H75.5522C67.308 63.2488 67.528 43.7363 67.528 43.7363C62.0655 44.2984 59.5102 46.5742 59.5102 46.5742C64.1018 79.9692 61.9979 92.1725 61.9979 92.1725C50.0742 115.461 47.6523 172.842 47.6523 172.842C58.983 174.982 75.6307 175.676 90.4094 174.924L91.541 154.553L94.4745 174.847C98.81 174.461 106.076 173.508 109.599 172.842C109.599 172.842 107.177 115.461 95.2532 92.1725C95.2532 92.1725 93.1504 79.9686 97.7421 46.5742Z" fill="#6AA2E5"/>
<path d="M79.2791 68.5957C78.9405 68.5957 78.666 68.8701 78.666 69.2087C78.666 69.5473 78.9405 69.8218 79.2791 69.8218C79.6177 69.8218 79.8921 69.5473 79.8921 69.2087C79.8921 68.8701 79.6177 68.5957 79.2791 68.5957Z" fill="#D7E4F7"/>
<path d="M79.2791 73.457C78.9405 73.457 78.666 73.7315 78.666 74.0701C78.666 74.4087 78.9405 74.6832 79.2791 74.6832C79.6177 74.6832 79.8921 74.4087 79.8921 74.0701C79.8921 73.7321 79.6177 73.457 79.2791 73.457Z" fill="#D7E4F7"/>
<path d="M79.2791 78.3164C78.9405 78.3164 78.666 78.5909 78.666 78.9295C78.666 79.2681 78.9405 79.5425 79.2791 79.5425C79.6177 79.5425 79.8921 79.2681 79.8921 78.9295C79.8921 78.5909 79.6177 78.3164 79.2791 78.3164Z" fill="#D7E4F7"/>
<path d="M79.2791 83.1777C78.9405 83.1777 78.666 83.4522 78.666 83.7908C78.666 84.1294 78.9405 84.4039 79.2791 84.4039C79.6177 84.4039 79.8921 84.1294 79.8921 83.7908C79.8921 83.4522 79.6177 83.1777 79.2791 83.1777Z" fill="#D7E4F7"/>
<path d="M79.2791 88.0371C78.9405 88.0371 78.666 88.3116 78.666 88.6502C78.666 88.9888 78.9405 89.2632 79.2791 89.2632C79.6177 89.2632 79.8921 88.9888 79.8921 88.6502C79.8921 88.3116 79.6177 88.0371 79.2791 88.0371Z" fill="#D7E4F7"/>
</svg>
