<svg width="22" height="19" viewBox="0 0 22 19" fill="none" xmlns="http://www.w3.org/2000/svg">
<path d="M14.7993 11.7188L13.945 11.8588L13.5944 11.6167C14.4822 10.1662 14.8185 8.44503 14.5419 6.7673C14.314 5.37804 13.6789 4.08753 12.717 3.05897C11.7552 2.03042 10.5097 1.31001 9.13816 0.988841C7.7666 0.667677 6.33055 0.760184 5.0116 1.25466C3.69266 1.74914 2.55005 2.62339 1.72827 3.76684C0.906499 4.9103 0.442465 6.27161 0.394852 7.67862C0.347238 9.08564 0.718184 10.4752 1.46078 11.6715C2.20338 12.8678 3.28427 13.8172 4.56678 14.3996C5.84929 14.982 7.2758 15.1713 8.66594 14.9434C10.4069 14.6581 11.9026 13.7583 12.9616 12.4972L13.3032 12.7519L13.4433 13.6056L19.7348 18.112L21.0817 16.2378L14.7993 11.7188ZM8.31128 12.7821C5.61877 13.2234 3.08887 11.4075 2.64732 8.71668C2.20578 6.02586 4.02282 3.49754 6.71533 3.05627C9.40784 2.615 11.9377 4.43091 12.3793 7.12173C12.8208 9.81256 11.0038 12.3409 8.31128 12.7821Z" fill="#4E4E4E"/>
</svg>
