<svg width="150" height="46" viewBox="0 0 150 46" fill="none" xmlns="http://www.w3.org/2000/svg">
<path d="M143.156 0.189453H6C2.68629 0.189453 0 2.87575 0 6.18946V39.5335C0 42.8472 2.68629 45.5335 6 45.5335H143.156C146.47 45.5335 149.156 42.8472 149.156 39.5335V6.18945C149.156 2.87574 146.47 0.189453 143.156 0.189453Z" fill="#494949"/>
<path d="M110.584 18.3641H55.4463C55.1332 18.3641 54.8329 18.2383 54.6114 18.0142C54.39 17.7901 54.2656 17.4863 54.2656 17.1694C54.2656 16.8525 54.39 16.5486 54.6114 16.3246C54.8329 16.1005 55.1332 15.9746 55.4463 15.9746H110.584C110.898 15.9746 111.198 16.1005 111.419 16.3246C111.641 16.5486 111.765 16.8525 111.765 17.1694C111.765 17.4863 111.641 17.7901 111.419 18.0142C111.198 18.2383 110.898 18.3641 110.584 18.3641Z" fill="white"/>
<path d="M136.887 32.1416H55.4463C55.1332 32.1416 54.8329 32.0157 54.6114 31.7916C54.39 31.5676 54.2656 31.2636 54.2656 30.9468C54.2656 30.6299 54.39 30.326 54.6114 30.1019C54.8329 29.8778 55.1332 29.752 55.4463 29.752H136.887C137.2 29.7529 137.499 29.8793 137.72 30.1032C137.94 30.3272 138.064 30.6305 138.064 30.9468C138.064 31.263 137.94 31.5663 137.72 31.7903C137.499 32.0143 137.2 32.1406 136.887 32.1416Z" fill="white"/>
<path d="M45.0993 9.7793H12.7469C11.1867 9.7793 9.92188 11.0592 9.92188 12.6381V33.0866C9.92188 34.6655 11.1867 35.9454 12.7469 35.9454H45.0993C46.6595 35.9454 47.9243 34.6655 47.9243 33.0866V12.6381C47.9243 11.0592 46.6595 9.7793 45.0993 9.7793Z" fill="white"/>
<path d="M28.5554 23.5867C28.4009 23.5871 28.2497 23.5419 28.1202 23.4568L14.1698 14.1007C14.0833 14.0431 14.0089 13.9688 13.9509 13.882C13.893 13.7952 13.8526 13.6976 13.832 13.5949C13.8115 13.4923 13.8112 13.3865 13.8312 13.2838C13.8512 13.181 13.8911 13.0832 13.9486 12.9961C14.0639 12.8261 14.2397 12.7079 14.4391 12.6662C14.6386 12.6245 14.8464 12.6624 15.0187 12.7723L28.5518 21.8469L42.9445 12.7614C43.1198 12.6525 43.3305 12.6179 43.5309 12.6652C43.7312 12.7125 43.905 12.838 44.0146 13.0142C44.1213 13.1918 44.155 13.4047 44.1083 13.6072C44.0616 13.8097 43.9383 13.9856 43.7649 14.0971L28.9441 23.4532C28.8282 23.5311 28.6942 23.577 28.5554 23.5867Z" fill="#494949"/>
<path d="M14.6002 32.9425C14.4674 32.9447 14.3362 32.9127 14.2189 32.8496C14.1016 32.7865 14.0021 32.6942 13.9296 32.5815C13.8232 32.4034 13.7901 32.1902 13.8375 31.9876C13.8849 31.7851 14.0089 31.6096 14.1829 31.4986L23.696 25.4922C23.8722 25.3854 24.0827 25.3525 24.2825 25.4004C24.4824 25.4482 24.6559 25.5732 24.7661 25.7485C24.8716 25.9269 24.9042 26.1397 24.8569 26.342C24.8096 26.5442 24.6861 26.7199 24.5128 26.8314L14.9997 32.8342C14.879 32.907 14.7407 32.9445 14.6002 32.9425Z" fill="#494949"/>
<path d="M43.3761 32.9436C43.2297 32.945 43.086 32.9036 42.9623 32.8244L33.4492 26.8217C33.2759 26.7101 33.1525 26.5345 33.1052 26.3322C33.0579 26.13 33.0905 25.9171 33.196 25.7388C33.3062 25.5634 33.4797 25.4385 33.6795 25.3906C33.8794 25.3427 34.0898 25.3757 34.266 25.4824L43.7792 31.4889C43.9526 31.6004 44.0759 31.7762 44.1225 31.9787C44.1692 32.1812 44.1356 32.3941 44.0288 32.5718C43.9598 32.6843 43.8637 32.7774 43.7496 32.8424C43.6355 32.9074 43.507 32.9422 43.3761 32.9436Z" fill="#494949"/>
</svg>
