<svg width="459" height="137" viewBox="0 0 459 137" fill="none" xmlns="http://www.w3.org/2000/svg">
<path d="M306.58 13.8535H232.91V60.9254H306.58V13.8535Z" fill="#B8D9BA"/>
<path d="M343.916 74.3415H232.91V65.4547L311.25 65.5912V36.3926H337.464L343.916 56.6268V74.3415Z" fill="white"/>
<path d="M343.918 75.1505H232.911C232.805 75.1505 232.7 75.1294 232.601 75.0886C232.503 75.0478 232.414 74.9879 232.339 74.9125C232.264 74.8371 232.204 74.7476 232.164 74.6492C232.124 74.5507 232.103 74.4452 232.104 74.3388V65.452C232.104 65.2377 232.189 65.0322 232.34 64.8802C232.413 64.8013 232.502 64.7393 232.601 64.6985C232.701 64.6578 232.808 64.6391 232.915 64.6441L310.444 64.7769V36.3936C310.443 36.2872 310.464 36.1817 310.504 36.0832C310.544 35.9848 310.604 35.8953 310.679 35.8199C310.754 35.7445 310.843 35.6846 310.941 35.6438C311.04 35.603 311.145 35.582 311.251 35.582H337.466C337.638 35.5817 337.806 35.6362 337.945 35.7377C338.085 35.8391 338.188 35.9822 338.24 36.1464L344.689 56.3807C344.715 56.4592 344.729 56.5413 344.729 56.6241V74.3314C344.73 74.4386 344.71 74.545 344.67 74.6443C344.629 74.7436 344.57 74.8339 344.494 74.9101C344.419 74.9862 344.329 75.0467 344.23 75.088C344.131 75.1292 344.025 75.1505 343.918 75.1505ZM233.723 73.5309H343.106V56.7533L336.875 37.2015H312.063V65.6069C312.063 65.7137 312.043 65.8194 312.002 65.9182C311.962 66.0169 311.902 66.1068 311.827 66.1824C311.674 66.3338 311.467 66.4185 311.251 66.4185L233.723 66.2857V73.5309Z" fill="black"/>
<path d="M342.241 57.1781H321.276C321.17 57.1786 321.064 57.158 320.965 57.1174C320.867 57.0768 320.777 57.017 320.701 56.9415C320.626 56.866 320.566 56.7764 320.526 56.6777C320.485 56.579 320.464 56.4733 320.465 56.3665V38.1613C320.464 38.0546 320.485 37.9488 320.526 37.8501C320.566 37.7514 320.626 37.6618 320.701 37.5863C320.777 37.5108 320.867 37.451 320.965 37.4104C321.064 37.3698 321.17 37.3491 321.276 37.3496C321.492 37.3496 321.698 37.4352 321.85 37.5874C322.003 37.7396 322.088 37.946 322.088 38.1613V55.5587H342.241C342.456 55.5587 342.663 55.6441 342.815 55.7963C342.967 55.9485 343.053 56.155 343.053 56.3702C343.053 56.4766 343.032 56.582 342.991 56.6802C342.95 56.7785 342.89 56.8678 342.815 56.9429C342.739 57.0179 342.65 57.0773 342.551 57.1177C342.453 57.1581 342.348 57.1786 342.241 57.1781Z" fill="black"/>
<path d="M335.225 77.6451C336.215 73.4532 333.619 69.253 329.427 68.2637C325.235 67.2743 321.035 69.8704 320.045 74.0622C319.056 78.2541 321.652 82.4544 325.844 83.4438C330.036 84.4331 334.236 81.8369 335.225 77.6451Z" fill="black"/>
<path d="M253.217 76.1418C257.179 74.5051 259.065 69.9662 257.428 66.0037C255.791 62.0412 251.252 60.1557 247.29 61.7924C243.327 63.4291 241.442 67.9681 243.079 71.9306C244.715 75.8931 249.254 77.7785 253.217 76.1418Z" fill="black"/>
<path d="M249.076 83.5938H220.833C220.618 83.5938 220.411 83.5084 220.259 83.3562C220.107 83.204 220.021 82.9975 220.021 82.7823C220.022 82.5673 220.108 82.3615 220.26 82.2095C220.412 82.0575 220.618 81.9717 220.833 81.9707H249.076C249.291 81.9717 249.496 82.0575 249.648 82.2096C249.799 82.3617 249.884 82.5677 249.884 82.7823C249.885 82.8887 249.864 82.9941 249.824 83.0925C249.783 83.191 249.724 83.2805 249.649 83.3559C249.574 83.4313 249.484 83.4911 249.386 83.532C249.288 83.5728 249.183 83.5938 249.076 83.5938Z" fill="black"/>
<path d="M237.165 75.1508H208.925C208.819 75.1508 208.713 75.1297 208.615 75.0889C208.517 75.0481 208.428 74.9883 208.353 74.9128C208.277 74.8374 208.218 74.7479 208.178 74.6495C208.137 74.551 208.117 74.4455 208.117 74.3391C208.117 74.1249 208.202 73.9194 208.354 73.7679C208.505 73.6163 208.711 73.5313 208.925 73.5313H237.165C237.271 73.5308 237.376 73.5513 237.475 73.5917C237.573 73.6321 237.663 73.6915 237.738 73.7666C237.814 73.8417 237.873 73.9309 237.914 74.0291C237.955 74.1274 237.976 74.2327 237.976 74.3391C237.977 74.4458 237.956 74.5516 237.915 74.6503C237.875 74.749 237.815 74.8386 237.74 74.9141C237.664 74.9896 237.574 75.0494 237.476 75.09C237.377 75.1306 237.271 75.1513 237.165 75.1508Z" fill="black"/>
<path d="M417.367 72.9792H364.364C364.092 72.9792 363.832 72.9148 363.64 72.8001C363.448 72.6853 363.34 72.5298 363.34 72.3675C363.339 72.2871 363.365 72.2074 363.417 72.133C363.468 72.0587 363.543 71.9911 363.638 71.9342C363.734 71.8773 363.847 71.8323 363.971 71.8017C364.096 71.7711 364.229 71.7555 364.364 71.7559H417.367C417.502 71.7555 417.635 71.7711 417.76 71.8017C417.884 71.8323 417.997 71.8773 418.093 71.9342C418.188 71.9911 418.263 72.0587 418.314 72.133C418.366 72.2074 418.392 72.2871 418.391 72.3675C418.391 72.4479 418.365 72.5274 418.313 72.6016C418.262 72.6758 418.186 72.7433 418.091 72.8001C417.996 72.8569 417.883 72.9019 417.759 72.9327C417.635 72.9634 417.502 72.9792 417.367 72.9792Z" fill="black"/>
<path d="M196.21 74.2038H157.341C157.142 74.2038 156.951 74.1394 156.81 74.0247C156.669 73.91 156.59 73.7544 156.59 73.5921C156.589 73.5117 156.608 73.432 156.646 73.3576C156.684 73.2833 156.739 73.2157 156.809 73.1588C156.879 73.1019 156.962 73.0569 157.053 73.0263C157.144 72.9957 157.242 72.9801 157.341 72.9805H196.21C196.309 72.9801 196.406 72.9957 196.498 73.0263C196.589 73.0569 196.672 73.1019 196.742 73.1588C196.812 73.2157 196.867 73.2833 196.905 73.3576C196.942 73.432 196.961 73.5117 196.961 73.5921C196.961 73.6725 196.941 73.752 196.904 73.8262C196.866 73.9004 196.811 73.9679 196.741 74.0247C196.671 74.0815 196.588 74.1265 196.497 74.1573C196.406 74.188 196.308 74.2038 196.21 74.2038Z" fill="black"/>
<path d="M458.999 29.045C458.999 42.617 434.041 72.4767 434.041 72.4767C434.041 72.4767 409.084 42.617 409.084 29.045C409.082 25.8186 409.726 22.6234 410.979 19.642C412.232 16.6606 414.07 13.9514 416.388 11.6693C418.706 9.38716 421.458 7.57679 424.487 6.34163C427.516 5.10646 430.763 4.4707 434.041 4.4707C437.32 4.4707 440.567 5.10646 443.596 6.34163C446.625 7.57679 449.377 9.38716 451.695 11.6693C454.012 13.9514 455.85 16.6606 457.104 19.642C458.357 22.6234 459.001 25.8186 458.999 29.045Z" fill="#B8D9BA"/>
<path d="M434.047 42.1522C440.937 42.1522 446.523 36.6507 446.523 29.8642C446.523 23.0777 440.937 17.5762 434.047 17.5762C427.158 17.5762 421.572 23.0777 421.572 29.8642C421.572 36.6507 427.158 42.1522 434.047 42.1522Z" fill="white"/>
<path d="M35.4449 65.0277H29.3933C27.3482 65.0277 25.6219 63.4959 25.3788 61.4616L24.7331 56.3934C23.4444 55.9746 22.2017 55.4586 21.0211 54.8562L16.9849 57.9927C15.3477 59.2598 13.0433 59.1139 11.6223 57.6523L7.36724 53.3973C5.91649 51.9898 5.7706 49.6853 7.03765 48.0509L10.1742 44.012C9.56904 42.8314 9.05304 41.5887 8.63699 40.3L3.558 39.6543C1.5318 39.4058 0 37.6795 0 35.6343V29.5828C0 27.5377 1.5318 25.8114 3.5661 25.5682L8.63429 24.9225C9.05304 23.6339 9.56904 22.3911 10.1715 21.2105L7.03765 17.1744C5.7679 15.5372 5.91649 13.23 7.38075 11.809L11.6358 7.55399C13.0433 6.10324 15.3504 5.96005 16.9822 7.2244L21.0184 10.3637C22.199 9.7612 23.4417 9.24519 24.7331 8.82644L25.3788 3.74745C25.6219 1.72126 27.3482 0.189453 29.3933 0.189453H35.4449C37.49 0.189453 39.2163 1.72126 39.4595 3.75556L40.1051 8.82374C41.3965 9.24249 42.6392 9.75849 43.8198 10.3609L47.856 7.2244C49.4959 5.95735 51.7976 6.10324 53.2187 7.5675L57.4737 11.8225C58.9244 13.23 59.0703 15.5345 57.8033 17.169L54.6667 21.2078C55.2719 22.3884 55.7879 23.6312 56.2039 24.9198L61.2829 25.5655C63.3064 25.8114 64.8382 27.5377 64.8382 29.5828V35.6343C64.8382 37.6795 63.3064 39.4058 61.2721 39.6489L56.2039 40.2946C55.7852 41.5833 55.2692 42.826 54.6667 44.0066L57.8033 48.0428C59.073 49.6799 58.9244 51.9844 57.4602 53.4054L53.2052 57.6604C51.7976 59.1112 49.4905 59.2598 47.8587 57.99L43.8198 54.8535C42.6392 55.4586 41.3965 55.9746 40.1078 56.3907L39.4622 61.4697C39.2163 63.4959 37.49 65.0277 35.4449 65.0277ZM20.8833 51.8979C21.1075 51.8979 21.3372 51.9547 21.5425 52.0681C23.0311 52.9002 24.6439 53.5702 26.3351 54.0565C26.8538 54.2051 27.2348 54.6482 27.3023 55.1831L28.0587 61.1266C28.1398 61.8047 28.726 62.3261 29.3933 62.3261H35.4449C36.1122 62.3261 36.6984 61.8047 36.7768 61.1401L37.5359 55.1858C37.6035 54.6509 37.9844 54.2078 38.5031 54.0592C40.1943 53.5729 41.8071 52.9029 43.2957 52.0708C43.7685 51.8061 44.3574 51.852 44.7816 52.1843L49.5094 55.8585C50.0524 56.2799 50.8143 56.2448 51.2789 55.7666L55.5609 51.4846C56.0499 51.0091 56.0878 50.2473 55.6663 49.7015L51.9921 44.9738C51.6599 44.5469 51.6139 43.9607 51.8787 43.4879C52.7108 41.9993 53.3808 40.3864 53.8671 38.6953C54.0156 38.1765 54.4587 37.7956 54.9936 37.7281L60.9371 36.9716C61.6152 36.8879 62.1366 36.3016 62.1366 35.6343V29.5828C62.1366 28.9155 61.6152 28.3292 60.9506 28.2509L54.9963 27.4917C54.4614 27.4242 54.0183 27.0433 53.8698 26.5246C53.3835 24.8334 52.7135 23.2205 51.8814 21.732C51.6166 21.2592 51.6599 20.6729 51.9949 20.2461L55.669 15.5183C56.0932 14.9726 56.0553 14.2107 55.5799 13.7514L51.2978 9.46942C50.8251 8.97773 50.0605 8.93991 49.5148 9.36406L44.787 13.0382C44.3574 13.3705 43.7712 13.4165 43.2984 13.1517C41.8153 12.3196 40.2024 11.6523 38.5058 11.1633C37.9871 11.0147 37.6062 10.5717 37.5386 10.0368L36.7822 4.09325C36.6984 3.41245 36.1122 2.89105 35.4449 2.89105H29.3933C28.726 2.89105 28.1398 3.41245 28.0614 4.07704L27.3023 10.0314C27.2348 10.5663 26.8538 11.0093 26.3351 11.1606C24.6385 11.6469 23.0257 12.3169 21.5425 13.1463C21.0697 13.4137 20.4835 13.3651 20.0539 13.0355L15.3261 9.36136C14.7804 8.93721 14.0213 8.97503 13.5593 9.45051L9.27727 13.7352C8.78828 14.2107 8.75046 14.9726 9.17191 15.5183L12.8461 20.2461C13.1784 20.6729 13.2243 21.2592 12.9595 21.732C12.1247 23.2205 11.4575 24.8334 10.9712 26.5246C10.8226 27.0433 10.3795 27.4242 9.8446 27.4917L3.9011 28.2482C3.223 28.3292 2.70159 28.9155 2.70159 29.5828V35.6343C2.70159 36.3016 3.223 36.8879 3.88759 36.9662L9.8419 37.7254C10.3768 37.7929 10.8199 38.1738 10.9685 38.6925C11.4548 40.3837 12.1247 41.9966 12.9568 43.4852C13.2216 43.958 13.1784 44.5442 12.8434 44.9711L9.16921 49.6988C8.74506 50.2446 8.78288 51.0064 9.25836 51.4657L13.5404 55.7477C14.0132 56.2367 14.7723 56.2745 15.3234 55.8531L20.0512 52.1789C20.2971 51.9952 20.5888 51.8979 20.8833 51.8979Z" fill="black"/>
<path d="M32.4181 46.1155C24.9698 46.1155 18.9102 40.0559 18.9102 32.6076C18.9102 25.1593 24.9698 19.0996 32.4181 19.0996C39.8664 19.0996 45.9261 25.1593 45.9261 32.6076C45.9261 40.0559 39.8664 46.1155 32.4181 46.1155ZM32.4181 21.8012C26.4584 21.8012 21.6117 26.6479 21.6117 32.6076C21.6117 38.5673 26.4584 43.4139 32.4181 43.4139C38.3778 43.4139 43.2245 38.5673 43.2245 32.6076C43.2245 26.6479 38.3778 21.8012 32.4181 21.8012Z" fill="black"/>
<path d="M86.8594 58.5088V136.594L63.9337 125.783L52.287 120.284L29.3613 109.47V31.3848L52.816 42.4515L64.8013 48.106L86.8594 58.5088Z" fill="white"/>
<path d="M86.8594 136.594L145.578 109.473L145.581 31.3848L86.8594 58.5088V136.594Z" fill="white"/>
<path d="M87.4385 136.594C87.3267 136.595 87.2171 136.562 87.1238 136.5C87.0421 136.446 86.9749 136.372 86.9287 136.285C86.8824 136.198 86.8586 136.101 86.8594 136.002V58.7921C86.8599 58.6786 86.8922 58.5677 86.9527 58.4723C87.0131 58.377 87.0991 58.3013 87.2004 58.254L144.761 31.4377C144.85 31.3969 144.947 31.3792 145.044 31.3863C145.141 31.3933 145.234 31.4249 145.316 31.478C145.397 31.5323 145.464 31.6062 145.51 31.693C145.556 31.7799 145.581 31.877 145.581 31.9757V109.186C145.581 109.299 145.549 109.411 145.488 109.506C145.428 109.601 145.341 109.677 145.24 109.724L87.6817 136.537C87.606 136.575 87.5227 136.594 87.4385 136.594ZM88.0202 59.1848V135.079L144.415 108.806V32.9093L88.0202 59.1848Z" fill="black"/>
<path d="M145.581 32.6093L87.4296 59.5233L65.1528 49.201L53.0487 43.5903L29.3613 32.6093L87.4296 5.69531L105.865 14.2328L119.388 20.4861L145.581 32.6093Z" fill="white"/>
<path d="M119.89 19.3167L65.3184 48.1612L64.4339 48.625V125.585L52.6055 120.103V45.0123C52.6043 44.1529 52.7877 43.3035 53.1431 42.5225C53.6897 41.3208 54.6164 40.3362 55.7777 39.7235L106.293 13.0352L119.89 19.3167Z" fill="#CBE0CC" fill-opacity="0.42"/>
<path d="M86.8227 59.522C86.7379 59.5218 86.654 59.5034 86.5768 59.468L28.4808 32.5333C28.3788 32.4855 28.2924 32.4093 28.2318 32.3136C28.1712 32.2179 28.1389 32.1067 28.1387 31.993C28.1386 31.8793 28.1708 31.768 28.2314 31.6722C28.292 31.5764 28.3786 31.5003 28.4808 31.4527L86.5742 4.52348C86.6511 4.48868 86.7344 4.4707 86.8186 4.4707C86.9029 4.4707 86.9863 4.48868 87.0632 4.52348L145.239 31.4527C145.342 31.5003 145.428 31.5764 145.489 31.6722C145.549 31.768 145.582 31.8793 145.581 31.993C145.581 32.1067 145.549 32.2179 145.488 32.3136C145.428 32.4093 145.341 32.4855 145.239 32.5333L87.0632 59.4626C86.988 59.4992 86.9061 59.5194 86.8227 59.522ZM30.1404 31.9957L86.8227 58.2712L143.585 31.9957L86.8227 5.72298L30.1404 31.9957Z" fill="black"/>
<path d="M87.4942 136.594C87.4082 136.595 87.3231 136.577 87.2454 136.54L28.4847 109.724C28.3813 109.676 28.2938 109.601 28.2325 109.505C28.1711 109.41 28.1386 109.299 28.1387 109.186V31.9757C28.1384 31.8769 28.163 31.7796 28.2102 31.6927C28.2574 31.6057 28.3258 31.5319 28.409 31.478C28.4933 31.4249 28.5895 31.3933 28.6891 31.3863C28.7886 31.3792 28.8884 31.3969 28.9794 31.4377L87.7347 58.254C87.8388 58.3007 87.927 58.3763 87.9889 58.4718C88.0508 58.5672 88.0836 58.6785 88.0834 58.7921V136.002C88.0842 136.101 88.0598 136.198 88.0125 136.285C87.9653 136.372 87.8967 136.446 87.8131 136.5C87.7185 136.562 87.6075 136.595 87.4942 136.594ZM29.3307 108.806L86.9075 135.079V59.1848L29.3307 32.912V108.806Z" fill="black"/>
<path d="M64.2269 77.8731C64.1466 77.8731 64.0671 77.8579 63.9929 77.8283C63.9186 77.7987 63.8512 77.7554 63.7944 77.7007C63.7376 77.6461 63.6925 77.5812 63.6618 77.5098C63.6311 77.4384 63.6152 77.3619 63.6152 77.2846V47.8776C63.6152 47.7215 63.6797 47.5718 63.7944 47.4614C63.9091 47.3511 64.0647 47.2891 64.2269 47.2891C64.3891 47.2891 64.5447 47.3511 64.6595 47.4614C64.7742 47.5718 64.8386 47.7215 64.8386 47.8776V77.2846C64.8386 77.3619 64.8228 77.4384 64.792 77.5098C64.7613 77.5812 64.7163 77.6461 64.6595 77.7007C64.6027 77.7554 64.5352 77.7987 64.461 77.8283C64.3868 77.8579 64.3072 77.8731 64.2269 77.8731Z" fill="black"/>
<path d="M127.229 112.126C127.068 112.127 126.909 112.112 126.76 112.082C126.611 112.053 126.476 112.009 126.363 111.955C126.249 111.9 126.159 111.835 126.098 111.763C126.036 111.692 126.005 111.615 126.006 111.538V100.481C126.005 100.404 126.036 100.327 126.098 100.255C126.159 100.184 126.249 100.119 126.363 100.064C126.476 100.009 126.611 99.9661 126.76 99.9367C126.909 99.9072 127.068 99.8922 127.229 99.8926C127.554 99.8926 127.865 99.9546 128.094 100.065C128.324 100.175 128.453 100.325 128.453 100.481V111.538C128.453 111.694 128.324 111.843 128.094 111.954C127.865 112.064 127.554 112.126 127.229 112.126Z" fill="black"/>
<path d="M126.006 102.34L127.841 100.353L129.676 102.34V100.654L127.841 98.6699L126.006 100.654V102.34Z" fill="black"/>
<path d="M135.793 98.6701L137.629 96.6835L139.463 98.6701V96.984L137.629 95L135.793 96.984V98.6701Z" fill="black"/>
<path d="M144.357 46.0651C151.789 46.0651 157.814 39.7663 157.814 31.9964C157.814 24.2265 151.789 17.9277 144.357 17.9277C136.925 17.9277 130.9 24.2265 130.9 31.9964C130.9 39.7663 136.925 46.0651 144.357 46.0651Z" fill="#B8D9BA"/>
<path d="M143.099 39.9486C142.956 39.9486 142.815 39.9108 142.688 39.8385C142.562 39.7662 142.454 39.6618 142.375 39.5345L137.163 31.178C137.1 31.0761 137.056 30.9619 137.034 30.8418C137.012 30.7218 137.012 30.5983 137.035 30.4784C137.058 30.3586 137.103 30.2447 137.167 30.1433C137.231 30.0419 137.313 29.955 137.409 29.8876C137.504 29.8195 137.611 29.7721 137.723 29.7483C137.836 29.7244 137.951 29.7246 138.064 29.7487C138.176 29.7728 138.283 29.8204 138.378 29.8887C138.473 29.9571 138.554 30.0448 138.617 30.1468L143.11 37.351L151.326 24.4528C151.457 24.2488 151.658 24.1081 151.885 24.0616C152.112 24.0151 152.348 24.0666 152.539 24.2049C152.634 24.2736 152.716 24.3616 152.778 24.4638C152.841 24.5661 152.885 24.6805 152.906 24.8006C152.927 24.9207 152.926 25.0442 152.903 25.1639C152.879 25.2835 152.834 25.3971 152.769 25.4981L143.826 39.5429C143.745 39.6686 143.636 39.7712 143.51 39.8419C143.383 39.9126 143.242 39.9493 143.099 39.9486Z" fill="white"/>
</svg>
