<svg width="21" height="21" viewBox="0 0 21 21" fill="none" xmlns="http://www.w3.org/2000/svg">
<path d="M0 9.86957C0.131896 9.08192 0.507126 8.39226 0.882894 7.70474C1.17737 7.16636 1.23605 6.57414 1.33134 5.98192C1.37925 5.68473 1.43309 5.38969 1.50738 5.0952C1.74425 4.16864 2.3289 3.50266 3.17626 3.11395C4.19912 2.64394 5.06479 1.99196 5.83032 1.1677C6.62116 0.315978 7.63486 0.0537855 8.77347 0.252449C9.15678 0.319746 9.54116 0.378432 9.92608 0.436578C10.4957 0.522719 11.048 0.385431 11.603 0.294444C12.2916 0.181384 12.9742 0.121623 13.6488 0.384892C14.0976 0.553138 14.5001 0.825696 14.8229 1.18008C15.5444 1.99499 16.431 2.64721 17.4237 3.09349C18.6355 3.64641 19.1695 4.68549 19.2993 5.96415C19.3789 6.74857 19.5771 7.49046 19.9905 8.17152C20.1207 8.39832 20.2363 8.63317 20.3367 8.87465C20.7264 9.75113 20.7264 10.6308 20.3367 11.5068C20.2341 11.7547 20.1156 11.9956 19.9819 12.2282C19.5754 12.8969 19.3843 13.628 19.2987 14.3968C19.2618 14.6963 19.2037 14.9928 19.1248 15.2841C19.0334 15.6571 18.8682 16.0081 18.6388 16.3162C18.4095 16.6243 18.1208 16.8833 17.7897 17.078C17.4463 17.2858 17.0899 17.4742 16.7265 17.6476C16.2265 17.8806 15.7774 18.2099 15.4049 18.6167C15.2159 18.8256 15.0102 19.0194 14.8127 19.2191C13.9847 20.0504 12.9887 20.3298 11.8437 20.1252C11.4668 20.0579 11.09 20.0019 10.7131 19.9454C10.15 19.8609 9.60468 19.9949 9.05611 20.0843C8.52422 20.1704 7.99179 20.2361 7.45506 20.1322C6.82861 20.0138 6.25869 19.6921 5.83355 19.217C5.09212 18.3928 4.18883 17.7303 3.18003 17.2707C1.98436 16.7205 1.46485 15.6836 1.33672 14.4221C1.25651 13.6307 1.04978 12.8851 0.636871 12.197C0.327819 11.6783 0.113449 11.1088 0.00377212 10.5151L0 9.86957ZM12.5473 18.5989C12.9033 18.5995 13.2462 18.4647 13.5066 18.222C13.7292 18.028 13.9411 17.822 14.1414 17.6051C14.6948 16.9892 15.3694 16.4943 16.123 16.1514C16.4139 16.0139 16.697 15.8604 16.9709 15.6916C17.1226 15.6034 17.2541 15.4843 17.357 15.3422C17.4599 15.2 17.5319 15.0379 17.5685 14.8663C17.6365 14.5862 17.6904 14.3028 17.73 14.0173C17.8296 13.1962 18.0325 12.4113 18.4503 11.6893C18.5773 11.4691 18.6813 11.2355 18.7997 11.0099C19.0872 10.4629 19.0829 9.91857 18.7959 9.37319C18.6882 9.16537 18.5854 8.95325 18.4729 8.74651C18.1757 8.19521 17.9249 7.62668 17.8269 7.00107C17.7687 6.62421 17.7009 6.24734 17.6508 5.87047C17.5679 5.24918 17.2557 4.79909 16.6904 4.52452C16.4972 4.43084 16.3136 4.32316 16.1155 4.2354C15.3606 3.89513 14.6858 3.39986 14.1349 2.78177C13.9465 2.57288 13.7381 2.38121 13.5303 2.18955C13.3871 2.05149 13.2152 1.94664 13.0269 1.88244C12.8386 1.81824 12.6385 1.79626 12.4407 1.81807C12.2792 1.83422 12.1204 1.85198 11.9616 1.87836C11.1611 2.01296 10.3616 2.16963 9.54385 2.01942C9.24722 1.96558 8.94467 1.93812 8.65127 1.87083C7.92396 1.70447 7.31347 1.87783 6.81657 2.44474C6.6443 2.64125 6.44996 2.81838 6.27015 3.00897C5.84457 3.45835 5.34188 3.82778 4.78592 4.09973C4.44353 4.26878 4.10545 4.44753 3.76952 4.6295C3.35338 4.85454 3.10843 5.20826 3.02229 5.67127C2.97761 5.9087 2.93023 6.14559 2.90116 6.38517C2.80318 7.19866 2.59915 7.97609 2.18785 8.69429C2.02635 8.97263 1.89607 9.26767 1.76041 9.55893C1.66208 9.75867 1.61095 9.97832 1.61095 10.201C1.61095 10.4236 1.66208 10.6432 1.76041 10.843C1.89984 11.1402 2.04519 11.4352 2.19862 11.7254C2.4791 12.2562 2.70897 12.8021 2.80211 13.4014C2.86025 13.7723 2.92593 14.1422 2.97492 14.5147C3.05567 15.135 3.36037 15.5915 3.92887 15.8607C4.15874 15.9684 4.38055 16.097 4.6115 16.2047C5.28286 16.5173 5.88642 16.9585 6.38805 17.5033C6.61093 17.7445 6.85103 17.9701 7.0879 18.1962C7.4276 18.5192 7.83729 18.6269 8.29542 18.5666C8.50161 18.5397 8.7078 18.5128 8.91183 18.4735C9.64775 18.3367 10.3842 18.2473 11.132 18.3771C11.6063 18.4552 12.0773 18.5235 12.5473 18.5989Z" fill="#A78FE6"/>
<path d="M9.42601 11.0607C9.48792 11.0026 9.54175 10.9531 9.5929 10.903C10.675 9.82084 11.7569 8.7387 12.8386 7.65655C13.0749 7.41966 13.3463 7.31037 13.6779 7.40512C13.8046 7.43966 13.9209 7.50497 14.0164 7.59525C14.1118 7.68553 14.1835 7.79798 14.225 7.92263C14.2666 8.04727 14.2767 8.18024 14.2545 8.30974C14.2323 8.43924 14.1785 8.56125 14.0978 8.66494C14.0425 8.73183 13.9826 8.7948 13.9185 8.85337C12.6477 10.1254 11.3761 11.3972 10.1038 12.6689C9.63919 13.133 9.2112 13.1335 8.74769 12.6689C8.04029 11.9618 7.33327 11.2546 6.6266 10.5471C6.38864 10.3086 6.30359 10.0249 6.41126 9.70025C6.45421 9.55747 6.53764 9.43022 6.65144 9.3339C6.76524 9.23758 6.90452 9.17633 7.05242 9.15756C7.33936 9.1091 7.57785 9.21624 7.77973 9.41813C8.27214 9.91237 8.76563 10.4059 9.26019 10.8987C9.31134 10.9531 9.36518 11.001 9.42601 11.0607Z" fill="#A78FE6"/>
</svg>
