<svg width="225" height="226" viewBox="0 0 225 226" fill="none" xmlns="http://www.w3.org/2000/svg">
<path d="M168.746 168.922C199.811 137.859 199.811 87.4964 168.746 56.4336C137.68 25.3708 87.3137 25.3708 56.2485 56.4336C25.1833 87.4964 25.1833 137.859 56.2485 168.922C87.3137 199.985 137.68 199.985 168.746 168.922Z" fill="white"/>
<path d="M112.506 192.898C68.2679 192.898 32.2773 156.91 32.2773 112.675C32.2773 68.4406 68.2679 32.4531 112.506 32.4531C156.744 32.4531 192.734 68.4406 192.734 112.675C192.734 156.91 156.744 192.898 112.506 192.898ZM112.506 33.8133C69.0178 33.8133 33.6376 69.1907 33.6376 112.675C33.6376 156.16 69.0178 191.537 112.506 191.537C155.994 191.537 191.374 156.16 191.374 112.675C191.374 69.1907 155.994 33.8133 112.506 33.8133Z" fill="#A78FE6"/>
<path d="M112.504 137.364C87.8709 137.364 67.8301 120.946 67.8301 100.765C67.8301 80.5842 87.8712 64.166 112.504 64.166C137.138 64.166 157.178 80.5842 157.178 100.765C157.178 120.946 137.138 137.364 112.504 137.364ZM112.504 65.5262C88.6207 65.5262 69.1903 81.334 69.1903 100.765C69.1903 120.196 88.621 136.003 112.504 136.003C136.387 136.003 155.818 120.196 155.818 100.765C155.818 81.334 136.387 65.5262 112.504 65.5262Z" fill="#A78FE6"/>
<path d="M68.2586 118.34H62.8283C62.0624 118.34 61.4414 117.719 61.4414 116.953V86.5567C61.4414 85.7908 62.0624 85.1699 62.8283 85.1699H68.2586C69.0246 85.1699 69.6454 85.7908 69.6454 86.5567V116.953C69.6454 117.719 69.0246 118.34 68.2586 118.34Z" fill="#494949"/>
<path d="M161.819 118.34H156.389C155.623 118.34 155.002 117.719 155.002 116.953V86.5567C155.002 85.7908 155.623 85.1699 156.389 85.1699H161.819C162.585 85.1699 163.206 85.7908 163.206 86.5567V116.953C163.206 117.719 162.585 118.34 161.819 118.34Z" fill="#494949"/>
<path d="M137.802 109.241H87.2085C86.2443 109.241 85.4629 108.46 85.4629 107.496V94.0365C85.4629 93.0724 86.2446 92.291 87.2085 92.291H137.802C138.766 92.291 139.547 93.0724 139.547 94.0365V107.496C139.547 108.46 138.766 109.241 137.802 109.241Z" fill="#A78FE6"/>
<path d="M65.2005 90.4357C65.1714 90.4357 65.1414 90.4339 65.1114 90.4299C64.7388 90.381 64.4765 90.0393 64.5254 89.6668C67.2725 68.7698 87.7893 53.0117 112.248 53.0117C123.743 53.0117 134.865 56.5626 143.565 63.01C152.198 69.4083 157.925 78.2403 159.689 87.879C159.757 88.2485 159.512 88.6028 159.142 88.6702C158.776 88.7385 158.419 88.493 158.351 88.1238C154.771 68.5666 135.382 54.3719 112.248 54.3719C88.4693 54.3719 68.5323 69.6216 65.8736 89.8442C65.8297 90.1868 65.5366 90.4357 65.2005 90.4357Z" fill="#494949"/>
<path d="M98.9438 104.666C101.098 104.666 102.845 102.92 102.845 100.766C102.845 98.6116 101.098 96.8652 98.9438 96.8652C96.7894 96.8652 95.043 98.6116 95.043 100.766C95.043 102.92 96.7894 104.666 98.9438 104.666Z" fill="white"/>
<path d="M126.067 104.666C128.221 104.666 129.968 102.92 129.968 100.766C129.968 98.6116 128.221 96.8652 126.067 96.8652C123.912 96.8652 122.166 98.6116 122.166 100.766C122.166 102.92 123.912 104.666 126.067 104.666Z" fill="white"/>
<path d="M112.504 172.78C95.5596 172.78 79.3025 165.542 67.9017 152.922C67.7375 152.74 67.6839 152.483 67.7616 152.251C69.6107 146.702 74.7794 142.975 80.6237 142.975H145.884C151.213 142.975 156.07 146.123 158.256 150.996C158.364 151.236 158.323 151.517 158.152 151.717C146.684 165.103 130.046 172.78 112.504 172.78ZM69.1821 152.308C80.3114 164.459 96.0779 171.42 112.504 171.42C129.503 171.42 145.633 164.043 156.832 151.164C154.786 147.001 150.535 144.335 145.884 144.335H80.6237C75.498 144.335 70.949 147.523 69.1821 152.308Z" fill="#A78FE6"/>
<path d="M124.053 204.443C123.677 204.443 123.373 204.139 123.373 203.763C123.373 203.388 123.677 203.083 124.053 203.083C167.541 203.083 202.921 167.706 202.921 124.221C202.921 123.846 203.225 123.541 203.601 123.541C203.977 123.541 204.281 123.846 204.281 124.221C204.281 168.456 168.291 204.443 124.053 204.443Z" fill="#A78FE6"/>
<path d="M21.4086 101.807C21.0326 101.807 20.7285 101.502 20.7285 101.127C20.7285 56.8918 56.7191 20.9043 100.957 20.9043C101.333 20.9043 101.637 21.2089 101.637 21.5842C101.637 21.9599 101.333 22.2645 100.957 22.2645C57.469 22.2645 22.0888 57.6419 22.0888 101.127C22.0888 101.502 21.7846 101.807 21.4086 101.807Z" fill="#A78FE6"/>
</svg>
