<svg width="90" height="72" viewBox="0 0 90 72" fill="none" xmlns="http://www.w3.org/2000/svg">
<path d="M21.6471 20.7268L19.6183 11.4965L18.604 6.89062H0.302734V11.4965H14.8971L16.9258 20.7268L17.9402 25.3327L19.9905 34.6519L21.0048 39.2578L22.9166 47.9538H21.1985C17.2856 47.9538 14.1011 51.135 14.1011 55.044C14.1011 58.9561 17.2856 62.137 21.1985 62.137H23.6175C23.3531 62.8708 23.2086 63.657 23.2086 64.48C23.2086 68.312 26.3316 71.4289 30.1647 71.4289C34.0006 71.4289 37.1205 68.3123 37.1205 64.48C37.1205 63.657 36.9759 62.871 36.7116 62.137H46.9228C46.6584 62.8708 46.5139 63.657 46.5139 64.48C46.5139 68.312 49.6338 71.4289 53.4697 71.4289C57.3057 71.4289 60.4258 68.3123 60.4258 64.48C60.4258 63.657 60.2812 62.871 60.0168 62.137H64.3295V57.5311H21.1983C19.8273 57.5311 18.7115 56.4164 18.7115 55.044C18.7115 53.6744 19.8273 52.5597 21.1983 52.5597H64.6491L65.7094 47.9538L67.7134 39.2578L68.7738 34.6519L70.9192 25.3327L71.9799 20.7268H21.6471ZM53.47 62.1373C54.7639 62.1373 55.8153 63.1874 55.8153 64.4803C55.8153 65.7729 54.7642 66.823 53.47 66.823C52.176 66.823 51.1245 65.7729 51.1245 64.4803C51.1245 63.1874 52.1757 62.1373 53.47 62.1373ZM30.1644 62.1373C31.4584 62.1373 32.5095 63.1874 32.5095 64.4803C32.5095 65.7729 31.4584 66.823 30.1644 66.823C28.8733 66.823 27.819 65.7729 27.819 64.4803C27.8193 63.1874 28.8733 62.1373 30.1644 62.1373ZM22.6612 25.3327H34.0003L34.8334 34.6519H24.7115L22.6612 25.3327ZM27.6379 47.9538L25.723 39.2578H35.2457L36.0233 47.9538H27.6379ZM38.6296 25.3327H49.7383L49.1174 34.6519H39.4627L38.6296 25.3327ZM40.6521 47.9538L39.8745 39.2578H48.813L48.2352 47.9538H40.6521ZM60.9792 47.9538H52.855L53.4329 39.2578H62.9801L60.9792 47.9538ZM64.0436 34.6519H53.7403L54.3613 25.3327H66.1893L64.0436 34.6519Z" fill="#B8D9BA"/>
<path d="M67.797 42.9853C55.9856 42.9853 46.377 33.3862 46.377 21.5872C46.377 9.78851 55.9856 0.189453 67.797 0.189453C79.6084 0.189453 89.217 9.78851 89.217 21.5872C89.217 33.3865 79.6084 42.9853 67.797 42.9853Z" fill="white"/>
<path d="M67.797 36.7932C76.2032 36.7932 83.0178 29.9856 83.0178 21.588C83.0178 13.1904 76.2032 6.38281 67.797 6.38281C59.3907 6.38281 52.5762 13.1904 52.5762 21.588C52.5762 29.9856 59.3907 36.7932 67.797 36.7932Z" fill="#FF9326"/>
<path d="M64.571 28.8265L58.9844 23.2458L61.4383 20.7944L64.571 23.9239L74.1569 14.3477L76.6108 16.7991L64.571 28.8265Z" fill="white"/>
</svg>
