<svg width="52" height="22" viewBox="0 0 52 22" fill="none" xmlns="http://www.w3.org/2000/svg">
<path d="M51.3055 18.0131C49.1031 19.8342 37.6746 21.0223 31.5742 21.2634C29.5045 21.3419 24.3696 21.4022 18.9028 21.3961C10.7389 21.384 1.83869 21.2332 1.26538 20.8052L1.24132 20.7809C0.426772 19.3576 0.438804 16.3909 0.837123 13.3395C3.71542 13.5929 42.5199 16.8552 48.6626 10.3848C50.503 11.1206 51.3176 13.5083 51.5409 15.426C51.6916 16.7166 51.565 17.796 51.3055 18.0131Z" fill="white"/>
<path d="M48.6614 10.3851C42.5188 16.8555 3.71424 13.5932 0.835938 13.3398C1.20407 10.5298 1.89788 7.6474 2.5799 5.84419C2.78508 5.30755 3.29801 5.01201 3.81094 5.04218C4.04629 5.0542 4.2814 5.13268 4.4927 5.28941C5.73576 6.21799 7.84762 7.4664 10.1224 7.3396C11.818 7.24297 13.1696 6.39875 14.1228 5.53664C14.5935 5.10865 14.9675 4.67428 15.2392 4.33066C15.5892 3.87839 15.7701 3.56468 15.7701 3.56468C17.0794 1.41196 17.4053 0.591797 18.3646 0.591797C18.8656 0.591797 19.8008 0.766669 21.2248 1.17062C21.6592 1.29718 22.1419 1.44803 22.673 1.61089C23.2706 1.81005 23.9222 2.02685 24.6403 2.28021C25.0747 2.43694 25.5393 2.60593 26.0279 2.78669C26.7522 3.05207 27.5304 3.34762 28.3631 3.67309C28.7975 3.84183 29.2501 4.02285 29.7146 4.20999C30.3603 4.46923 31.036 4.74663 31.7421 5.04218C32.1161 5.19302 32.5083 5.35588 32.9005 5.53075C32.9547 5.55479 33.0151 5.57907 33.0693 5.6031C33.4556 5.75983 33.8539 5.92882 34.2581 6.1037C34.5114 6.21235 34.7529 6.31487 34.9941 6.41126C35.2295 6.51378 35.4649 6.61042 35.6879 6.70681C35.9113 6.79731 36.1224 6.88169 36.3337 6.96017C37.0034 7.23757 37.6309 7.47278 38.2163 7.68984C38.711 7.86471 39.1756 8.02757 39.6159 8.17227C44.6426 9.84819 46.3081 9.46828 48.6614 10.3851Z" fill="#A2C6A4"/>
<path d="M24.6496 2.27344C25.0843 2.43016 25.5488 2.59915 26.0375 2.77992L22.9844 5.82516C22.7731 6.03609 22.4293 6.03609 22.2182 5.82516L22.0432 5.65028C21.8319 5.43935 21.8319 5.09548 22.0432 4.88455L22.1277 4.80018" fill="#F6F6F6"/>
<path d="M29.7236 4.20266L26.6343 7.29009C26.4232 7.50715 26.0791 7.50715 25.8681 7.29009L25.6872 7.11521C25.4941 6.92218 25.4759 6.62688 25.633 6.41571C25.645 6.39167 25.6631 6.36739 25.6872 6.34948L28.3723 3.66602C28.8063 3.83476 29.2588 4.01576 29.7236 4.20266Z" fill="#F6F6F6"/>
<path d="M33.0813 5.59608L30.4264 8.24938C30.2153 8.46031 29.8712 8.46031 29.6602 8.24938L29.4852 8.07452C29.268 7.86359 29.268 7.51971 29.4852 7.30854L31.7538 5.03516C32.1701 5.20415 32.5986 5.38491 33.0391 5.57794C33.0511 5.58407 33.0693 5.58995 33.0813 5.59608Z" fill="#F6F6F6"/>
</svg>
