<svg width="198" height="239" viewBox="0 0 198 239" fill="none" xmlns="http://www.w3.org/2000/svg">
<g filter="url(#filter0_d_2166_22138)">
<rect x="20.5391" y="10.8926" width="156.757" height="197.297" rx="10" fill="white"/>
</g>
<path d="M48.4428 132.545H149.436C150.156 132.55 150.868 132.395 151.521 132.09C152.173 131.786 152.75 131.341 153.209 130.786C153.668 130.231 153.997 129.581 154.174 128.884C154.351 128.186 154.37 127.457 154.23 126.751C147.734 110.922 113.855 117.336 100.347 107.076C96.3553 104.911 92.7231 102.14 89.5794 98.863C87.3393 96.399 85.5175 93.166 81.7914 93.3302H52.1691C50.9609 93.3262 49.7738 93.6479 48.7331 94.2616C47.6923 94.8752 46.8365 95.758 46.2552 96.8171C42.88 99.8038 44.2385 121.069 43.6337 125.101C43.0736 128.506 44.4031 132.598 48.4428 132.545Z" fill="#888888"/>
<path d="M48.4418 132.546H149.435C150.155 132.551 150.867 132.395 151.52 132.091C152.172 131.787 152.749 131.341 153.208 130.787C153.667 130.232 153.996 129.582 154.173 128.884C154.35 128.187 154.369 127.458 154.229 126.752C152.198 117.18 130.961 114.865 125.301 114.417C124.196 113.954 118.745 117.127 118.977 125.124H43.6552C43.0504 128.514 44.4021 132.591 48.4418 132.546Z" fill="#696969"/>
<path d="M54.5947 109.011C54.4678 117.918 68.4608 117.918 68.3339 109.011C68.4608 100.095 54.4603 100.095 54.5947 109.011Z" fill="#272727"/>
<path d="M55.6921 109.009C55.5876 116.476 67.3409 116.476 67.2363 109.009C67.3409 101.52 55.6025 101.52 55.6921 109.009Z" fill="#696969"/>
<path d="M82.3418 102.783C85.0463 102.122 87.5373 100.78 89.5778 98.8858C89.1597 98.4378 88.7788 98.0122 88.4278 97.6016C86.8967 99.8397 84.7955 101.629 82.3418 102.783Z" fill="white"/>
<path d="M87.6523 107.546C90.4017 106.919 92.9413 105.589 95.0225 103.686C94.5521 103.335 94.0964 102.992 93.6633 102.641C92.1132 104.764 90.0434 106.453 87.6523 107.546Z" fill="white"/>
<path d="M94.2168 112.675C96.692 111.348 98.7985 109.426 100.347 107.083C99.862 106.814 99.3839 106.538 98.921 106.262C97.9141 108.759 96.2967 110.965 94.2168 112.675Z" fill="white"/>
<path d="M100.713 115.813C103.234 114.475 105.382 112.53 106.963 110.153C106.44 109.952 105.94 109.75 105.47 109.541C104.416 111.986 102.783 114.139 100.713 115.813Z" fill="white"/>
<path d="M107.529 120.271C110.699 118.475 113.334 115.87 115.168 112.722C114.6 112.58 114.048 112.438 113.51 112.289C112.221 115.411 110.164 118.157 107.529 120.271Z" fill="white"/>
<path d="M160.47 26.8862C155.145 23.322 151.896 29.2075 151.181 30.6988C150.354 29.267 146.662 23.6492 141.627 27.6129C134.864 32.9364 145.49 46.148 151.926 50.0821H151.931C158.046 45.6638 167.622 31.6729 160.47 26.8862Z" fill="#F7597F"/>
<defs>
<filter id="filter0_d_2166_22138" x="0.539062" y="0.892578" width="196.756" height="237.297" filterUnits="userSpaceOnUse" color-interpolation-filters="sRGB">
<feFlood flood-opacity="0" result="BackgroundImageFix"/>
<feColorMatrix in="SourceAlpha" type="matrix" values="0 0 0 0 0 0 0 0 0 0 0 0 0 0 0 0 0 0 127 0" result="hardAlpha"/>
<feOffset dy="10"/>
<feGaussianBlur stdDeviation="10"/>
<feComposite in2="hardAlpha" operator="out"/>
<feColorMatrix type="matrix" values="0 0 0 0 0.0583333 0 0 0 0 0.0583333 0 0 0 0 0.0583333 0 0 0 0.08 0"/>
<feBlend mode="normal" in2="BackgroundImageFix" result="effect1_dropShadow_2166_22138"/>
<feBlend mode="normal" in="SourceGraphic" in2="effect1_dropShadow_2166_22138" result="shape"/>
</filter>
</defs>
</svg>
