<svg width="44" height="48" viewBox="0 0 44 48" fill="none" xmlns="http://www.w3.org/2000/svg">
<path d="M40.2774 9.82991C40.2774 9.82124 40.2684 9.82124 40.2684 9.81257L37.832 6.12024C37.0097 4.87172 35.8331 3.87165 34.4394 3.23584L29.7901 1.11461C29.7908 1.11389 29.7916 1.11318 29.7924 1.11222C29.7916 1.11294 29.7908 1.11365 29.7898 1.11438L28.5931 0.568359C28.5931 0.568359 28.3939 0.784555 28.0043 1.07851C27.0262 1.85684 24.8704 3.22307 21.8816 3.22307C17.7242 3.22307 15.1791 0.568359 15.1791 0.568359L14.0517 1.08284C14.051 1.08236 14.0505 1.08163 14.0497 1.08115C14.0505 1.08187 14.0512 1.08212 14.0517 1.08284L9.30052 3.25077C7.92751 3.87719 6.7648 4.85751 5.94402 6.08099L1.10783 13.2892C1.10581 13.2873 1.10379 13.2853 1.10203 13.2832C1.10379 13.2853 1.1058 13.2875 1.10757 13.2897L0.388672 14.3612C1.68377 15.8139 3.32331 16.9122 5.18905 17.7163C6.58375 18.3215 8.09646 18.7626 9.68154 19.0739V19.0825C10.0439 23.0517 10.207 27.5224 9.90798 32.0882C9.67246 35.8585 9.11998 39.7066 8.12369 43.399C8.12369 43.399 8.33198 43.6756 8.83025 44.0995C10.2343 45.3016 14.0021 47.6623 22.0177 47.9303C25.0068 47.9303 27.3797 47.5843 29.2547 47.0829C34.1638 45.7686 35.6493 43.399 35.6493 43.399C34.6621 39.7584 34.1096 35.9796 33.865 32.261C33.865 32.2177 33.8559 32.1746 33.8559 32.1313C33.7021 29.7532 33.6658 27.4011 33.7291 25.1354C33.7745 23.3972 33.8879 20.7035 34.0148 19.0864C34.3423 19.0416 34.8794 18.9612 35.2599 18.8574C35.6041 18.771 35.9393 18.6846 36.2744 18.5808C36.4375 18.5375 36.6004 18.4857 36.7636 18.4251C37.3796 18.2262 37.9863 17.9927 38.5569 17.7418C40.3773 16.9117 41.9808 15.8048 43.2668 14.3694L40.2774 9.82991Z" fill="#A2C6A4"/>
</svg>
