<svg width="30" height="52" viewBox="0 0 30 52" fill="none" xmlns="http://www.w3.org/2000/svg">
<path d="M25.0235 8.94043C20.9213 8.81853 19.34 5.55547 19.2598 3.81481C21.0047 3.72504 22.7366 3.59041 24.4526 3.41406L25.0235 8.94043Z" fill="#A2C6A4"/>
<path d="M25.1556 10.2399C19.9146 10.1438 18.1216 6.09862 17.9355 3.87404C18.3751 3.8581 18.8176 3.83873 19.2571 3.81641C19.3374 5.55682 20.9186 8.8201 25.0209 8.94199L25.1556 10.2399Z" fill="#92AA93"/>
<path d="M9.77402 3.87431C9.60394 6.08613 7.82071 10.1441 2.55078 10.2402L2.61164 8.9452C6.77178 8.86181 8.36898 5.56982 8.44923 3.81641C8.89197 3.83897 9.33152 3.85837 9.77402 3.87431Z" fill="#92AA93"/>
<path d="M29.0225 50.2036C26.0256 51.5249 22.6729 52.0799 19.4044 51.1469L13.6706 16.8438C13.6449 16.7028 13.4429 16.7091 13.4269 16.8502L9.57678 51.1467C6.48153 51.3647 3.47315 51.1756 0.570312 50.4896L2.55257 10.239C7.82225 10.1428 9.60573 6.08462 9.77581 3.87305C12.5118 3.97557 15.235 3.97876 17.9356 3.87305C18.1216 6.09762 19.9146 10.1428 25.1556 10.239L29.0225 50.2036Z" fill="#A2C6A4"/>
<path d="M8.45087 3.8156C8.37062 5.56902 6.77342 8.861 2.61328 8.94439L2.88593 3.40234H2.88913C4.74304 3.58507 6.59696 3.72289 8.45087 3.8156Z" fill="#A2C6A4"/>
<path d="M6.95876 0.962385L6.73421 3.71578C6.54499 3.70302 6.35257 3.69024 6.16016 3.67724L6.38473 0.914062C6.57689 0.933439 6.76635 0.949632 6.95876 0.962385Z" fill="#92AA93"/>
<path d="M3.02879 0.568359C4.14816 0.7062 5.26752 0.821478 6.38689 0.914434L6.16233 3.67762C5.07168 3.6006 3.98128 3.51086 2.89062 3.40196L3.02879 0.568359Z" fill="#92AA93"/>
<path d="M21.0314 3.70593C20.8486 3.72187 20.6657 3.73167 20.4797 3.74443L20.252 0.962116C20.4412 0.949362 20.6336 0.933193 20.826 0.914062L21.0314 3.70593Z" fill="#92AA93"/>
<path d="M20.2492 0.962891L20.477 3.7452C20.0728 3.77096 19.6656 3.79327 19.2582 3.81559C15.6915 3.99832 12.0767 3.99513 8.45231 3.81559C7.88146 3.78665 7.31037 3.75479 6.73633 3.71628L6.96088 0.962891C11.3998 1.30896 15.8294 1.30896 20.2492 0.962891Z" fill="#92AA93"/>
<path d="M24.4479 3.41468C23.3158 3.5302 22.1738 3.62928 21.0255 3.7063L20.8203 0.914434C21.9301 0.821478 23.0431 0.7062 24.1529 0.568359L24.4479 3.41468Z" fill="#92AA93"/>
<path d="M2.89198 3.40234H2.88867" stroke="black" stroke-width="1.3069" stroke-miterlimit="10"/>
<path d="M14.9821 3.95141C14.9247 6.46663 15.3956 15.1486 13.5488 14.7871L13.6428 3.95117" fill="#92AA93"/>
<path d="M2.54924 10.2402C2.5465 10.2402 2.54376 10.2402 2.54102 10.2402" stroke="black" stroke-width="1.3069" stroke-miterlimit="10"/>
</svg>
