<svg width="60" height="53" viewBox="0 0 60 53" fill="none" xmlns="http://www.w3.org/2000/svg">
<path fill-rule="evenodd" clip-rule="evenodd" d="M26.01 52.0203C11.6629 52.0203 0 40.3573 0 26.0102C0 11.6631 11.6629 0 26.01 0C32.5891 0 38.7629 2.38952 43.573 6.79874C41.9731 7.74478 40.4291 8.79269 38.9441 9.92696C35.2995 6.9867 30.7678 5.36785 26.01 5.36785C14.6397 5.36785 5.36785 14.6399 5.36785 26.0102C5.36785 37.3805 14.6397 46.6525 26.01 46.6525C41.8308 46.6525 51.2236 29.7413 44.4189 16.5927C45.4502 15.6336 46.5117 14.7041 47.6013 13.8055C47.923 13.5402 48.2474 13.2773 48.5742 13.0171C50.8505 16.9487 52.0206 21.4063 52.0206 26.01C52.0203 40.3573 40.3573 52.0203 26.01 52.0203Z" fill="#CBE0CC"/>
<path fill-rule="evenodd" clip-rule="evenodd" d="M26.6935 39.3803C26.4008 39.3803 26.1567 39.1852 26.0592 38.9412C26.0104 38.8436 21.8136 28.01 15.3232 23.9108C14.0544 23.1301 13.0786 22.3004 13.4689 20.446C13.8592 18.6404 15.0793 17.6156 17.2752 17.1276C21.1791 16.298 25.3758 22.3492 26.9375 24.8381C32.403 16.8837 43.3341 4.3909 59.2428 2.92693C60.0102 2.83696 60.294 3.97456 59.5844 4.29332C59.3403 4.3909 36.5996 14.7854 27.3766 38.99C27.2303 39.2339 26.9862 39.3803 26.6935 39.3803Z" fill="#CBE0CC"/>
</svg>
