<svg width="27" height="23" viewBox="0 0 27 23" fill="none" xmlns="http://www.w3.org/2000/svg">
<path fill-rule="evenodd" clip-rule="evenodd" d="M11.6952 22.8798C5.38796 22.8798 0.260742 17.7525 0.260742 11.4452C0.260742 5.13802 5.38796 0.0107422 11.6952 0.0107422C14.5875 0.0107422 17.3016 1.06122 19.4162 2.99958C18.7128 3.41548 18.0341 3.87616 17.3812 4.3748C15.779 3.08221 13.7868 2.37054 11.6952 2.37054C6.69661 2.37054 2.62054 6.44667 2.62054 11.4452C2.62054 16.4438 6.69661 20.52 11.6952 20.52C18.6503 20.52 22.7795 13.0855 19.7881 7.30517C20.2414 6.88356 20.7081 6.4749 21.1871 6.07988C21.3285 5.96323 21.4711 5.84768 21.6148 5.73329C22.6155 7.46167 23.1299 9.42133 23.1299 11.4452C23.1298 17.7525 18.0025 22.8798 11.6952 22.8798Z" fill="#CBE0CC"/>
<path fill-rule="evenodd" clip-rule="evenodd" d="M11.9961 17.3237C11.8674 17.3237 11.7601 17.2379 11.7172 17.1306C11.6958 17.0877 9.85077 12.3251 6.9975 10.523C6.4397 10.1798 6.01073 9.81504 6.18232 8.9998C6.35391 8.20604 6.89028 7.75553 7.85563 7.54098C9.57184 7.17625 11.4168 9.83646 12.1034 10.9306C14.506 7.43376 19.3116 1.94171 26.3053 1.29812C26.6427 1.25857 26.7674 1.75868 26.4554 1.89881C26.3482 1.94171 16.3509 6.51131 12.2964 17.1521C12.232 17.2593 12.1248 17.3237 11.9961 17.3237Z" fill="#CBE0CC"/>
</svg>
