<svg width="314" height="420" viewBox="0 0 314 420" fill="none" xmlns="http://www.w3.org/2000/svg">
<path d="M279.711 418.75H34.2125C16.0071 418.75 1.24854 403.974 1.24854 385.747V34.2512C1.24854 16.0245 16.0071 1.24805 34.2125 1.24805H279.711C297.917 1.24805 312.675 16.0238 312.675 34.2512V385.747C312.675 403.974 297.917 418.75 279.711 418.75Z" fill="white"/>
<path d="M279.711 420H34.2123C15.3474 420 0 404.635 0 385.748V34.2521C0 15.3652 15.3474 0 34.2123 0H279.711C298.576 0 313.923 15.3652 313.923 34.2521V385.748C313.923 404.635 298.576 420 279.711 420ZM34.213 2.49858C16.7237 2.49858 2.49581 16.7431 2.49581 34.2528V385.749C2.49581 403.258 16.7237 417.503 34.213 417.503H279.712C297.201 417.503 311.429 403.258 311.429 385.749V34.2528C311.429 16.7431 297.201 2.49858 279.712 2.49858H34.213Z" fill="#2C2837"/>
<path d="M156.318 374.937C176.561 374.937 192.971 358.508 192.971 338.241C192.971 317.974 176.561 301.545 156.318 301.545C136.075 301.545 119.665 317.974 119.665 338.241C119.665 358.508 136.075 374.937 156.318 374.937Z" fill="#FB7B88"/>
<path d="M156.318 376.186C135.42 376.186 118.418 359.164 118.418 338.241C118.418 317.318 135.42 300.297 156.318 300.297C177.216 300.297 194.219 317.318 194.219 338.241C194.219 359.164 177.216 376.186 156.318 376.186ZM156.318 302.795C136.795 302.795 120.913 318.696 120.913 338.241C120.913 357.787 136.795 373.688 156.318 373.688C175.841 373.688 191.724 357.787 191.724 338.241C191.724 318.696 175.841 302.795 156.318 302.795Z" fill="#2C2837"/>
<path d="M143.204 352.66V323.821C143.204 322.391 144.707 321.46 145.984 322.1L174.79 336.52C176.207 337.229 176.207 339.252 174.79 339.961L145.984 354.381C144.707 355.02 143.204 354.09 143.204 352.66Z" fill="white"/>
<path d="M145.123 355.836C144.545 355.836 143.971 355.676 143.458 355.36C142.518 354.777 141.956 353.769 141.956 352.662V323.822C141.956 322.714 142.518 321.705 143.459 321.123C144.399 320.541 145.553 320.489 146.541 320.985L175.348 335.406C176.428 335.946 177.099 337.033 177.099 338.243C177.099 339.452 176.428 340.539 175.348 341.08L146.541 355.5C146.091 355.724 145.606 355.836 145.123 355.836ZM145.126 323.144C144.96 323.144 144.832 323.209 144.77 323.248C144.674 323.307 144.451 323.482 144.451 323.822V352.662C144.451 353.001 144.674 353.176 144.77 353.235C144.866 353.296 145.121 353.417 145.426 353.265L174.232 338.846C174.568 338.677 174.605 338.368 174.605 338.242C174.605 338.116 174.568 337.807 174.232 337.638L145.425 323.218C145.318 323.164 145.217 323.144 145.126 323.144Z" fill="#2C2837"/>
<path d="M218.359 351.959C218.19 351.959 218.021 351.914 217.873 351.821C217.6 351.653 217.434 351.355 217.434 351.033V325.449C217.434 325.124 217.604 324.822 217.882 324.655C218.163 324.49 218.509 324.478 218.793 324.632L243.454 337.786C243.758 337.947 243.948 338.267 243.944 338.613C243.94 338.959 243.744 339.274 243.435 339.43L218.775 351.86C218.643 351.927 218.501 351.959 218.359 351.959Z" fill="#A78FE6"/>
<path d="M218.358 353.207C217.949 353.207 217.553 353.094 217.21 352.879C216.583 352.493 216.186 351.784 216.186 351.033V325.45C216.186 324.688 216.591 323.974 217.243 323.583C217.905 323.194 218.723 323.175 219.385 323.534L244.039 336.684C244.759 337.067 245.201 337.812 245.191 338.629C245.182 339.442 244.724 340.178 243.996 340.546L219.334 352.977C219.029 353.128 218.693 353.207 218.358 353.207ZM218.681 325.987V350.51L242.319 338.594L218.681 325.987ZM218.206 325.734L218.209 325.736L218.206 325.734Z" fill="#2C2837"/>
<path d="M231.897 351.959C231.728 351.959 231.559 351.914 231.411 351.821C231.138 351.653 230.972 351.355 230.972 351.033V325.449C230.972 325.124 231.141 324.822 231.42 324.655C231.7 324.49 232.047 324.478 232.331 324.632L256.992 337.786C257.297 337.947 257.487 338.267 257.482 338.613C257.479 338.959 257.282 339.274 256.973 339.43L232.314 351.86C232.181 351.927 232.039 351.959 231.897 351.959Z" fill="#A78FE6"/>
<path d="M231.897 353.208C231.487 353.208 231.09 353.094 230.747 352.878C230.123 352.496 229.725 351.785 229.725 351.034V325.451C229.725 324.689 230.131 323.974 230.782 323.584C231.443 323.193 232.262 323.175 232.925 323.534L257.578 336.684C258.299 337.068 258.741 337.815 258.729 338.632C258.722 339.441 258.265 340.178 257.535 340.546L232.874 352.977C232.566 353.13 232.23 353.208 231.897 353.208ZM232.219 325.988V350.511L255.857 338.595L232.219 325.988ZM231.746 325.735C231.746 325.735 231.748 325.736 231.749 325.736L231.746 325.735Z" fill="#2C2837"/>
<path d="M93.9661 351.862L69.3057 339.432C68.9971 339.276 68.8006 338.961 68.7969 338.615C68.7926 338.269 68.9817 337.95 69.2874 337.788L93.9478 324.634C94.2324 324.48 94.5781 324.492 94.859 324.657C95.1378 324.824 95.3075 325.126 95.3075 325.451V351.035C95.3075 351.357 95.1408 351.655 94.8679 351.823C94.7201 351.915 94.5513 351.961 94.3824 351.961C94.2405 351.961 94.0979 351.929 93.9661 351.862Z" fill="#A78FE6"/>
<path d="M94.3836 353.209C94.0488 353.209 93.7124 353.13 93.4118 352.98C93.4096 352.98 93.4076 352.979 93.4061 352.977L68.7456 340.547C68.0149 340.178 67.5578 339.441 67.5505 338.624C67.5389 337.815 67.9807 337.068 68.7026 336.685L93.3617 323.531C94.0189 323.177 94.8369 323.194 95.4934 323.581C96.1499 323.974 96.5553 324.69 96.5553 325.45V351.033C96.5553 351.785 96.1578 352.495 95.5195 352.886C95.1906 353.095 94.7933 353.209 94.3836 353.209ZM70.4232 338.597L94.0611 350.512V325.989L70.4232 338.597ZM94.5406 325.732L94.5371 325.734C94.5385 325.734 94.5392 325.733 94.5406 325.732Z" fill="#2C2837"/>
<path d="M80.4281 351.86L55.7676 339.43C55.459 339.274 55.2625 338.959 55.2589 338.613C55.2538 338.267 55.4438 337.948 55.7488 337.786L80.409 324.632C80.6936 324.478 81.0402 324.49 81.3204 324.655C81.5992 324.822 81.7687 325.124 81.7687 325.449V351.033C81.7687 351.355 81.602 351.653 81.3291 351.821C81.1814 351.914 81.0125 351.959 80.8437 351.959C80.7017 351.959 80.5598 351.927 80.4281 351.86Z" fill="#A78FE6"/>
<path d="M80.8443 353.209C80.511 353.209 80.1754 353.13 79.8749 352.981C79.8719 352.979 79.8698 352.978 79.8669 352.976L55.2071 340.545C54.4786 340.178 54.0202 339.443 54.0115 338.626C53.9998 337.814 54.4423 337.066 55.165 336.683L79.8224 323.53C80.4789 323.174 81.2991 323.192 81.9549 323.581C82.6106 323.973 83.016 324.688 83.016 325.449V351.032C83.016 351.783 82.6188 352.494 81.9805 352.885C81.6515 353.094 81.2548 353.209 80.8443 353.209ZM56.8849 338.596L80.5218 350.512V325.989L56.8849 338.596ZM81.0023 325.732L80.9986 325.734C80.9986 325.734 81.0008 325.732 81.0023 325.732Z" fill="#2C2837"/>
<path d="M275.135 271.494H37.1929C33.3471 271.494 30.23 268.373 30.23 264.523V263.088C30.23 259.238 33.3471 256.117 37.1929 256.117H275.135C278.98 256.117 282.098 259.239 282.098 263.088V264.523C282.098 268.373 278.98 271.494 275.135 271.494Z" fill="white"/>
<path d="M275.135 272.744H37.1929C32.6651 272.744 28.9824 269.056 28.9824 264.524V263.089C28.9824 258.556 32.6659 254.869 37.1929 254.869H275.135C279.662 254.869 283.345 258.557 283.345 263.089V264.524C283.345 269.056 279.662 272.744 275.135 272.744ZM37.1929 257.366C34.0407 257.366 31.4766 259.933 31.4766 263.089V264.524C31.4766 267.68 34.04 270.247 37.1929 270.247H275.135C278.287 270.247 280.851 267.68 280.851 264.524V263.089C280.851 259.933 278.287 257.366 275.135 257.366H37.1929Z" fill="#2C2837"/>
<path d="M100.878 271.494H37.1929C33.3471 271.494 30.23 268.373 30.23 264.523V263.088C30.23 259.238 33.3471 256.117 37.1929 256.117H100.878V271.494Z" fill="#A78FE6"/>
<path d="M100.878 272.744H37.1929C32.6651 272.744 28.9824 269.056 28.9824 264.524V263.089C28.9824 258.556 32.6659 254.869 37.1929 254.869H100.878C101.566 254.869 102.125 255.429 102.125 256.118V271.496C102.125 272.184 101.567 272.744 100.878 272.744ZM37.1929 257.366C34.0407 257.366 31.4766 259.933 31.4766 263.089V264.524C31.4766 267.68 34.04 270.247 37.1929 270.247H99.6303V257.367H37.1929V257.366Z" fill="#2C2837"/>
<path d="M99.3488 275.792H95.1827C88.5712 275.792 83.2109 270.426 83.2109 263.806C83.2109 257.187 88.5705 251.82 95.1827 251.82H99.3488C105.96 251.82 111.32 257.186 111.32 263.806C111.32 270.426 105.96 275.792 99.3488 275.792Z" fill="white"/>
<path d="M99.3487 277.041H95.182C87.8929 277.041 81.9634 271.104 81.9634 263.806C81.9634 256.509 87.8929 250.572 95.182 250.572H99.3487C106.638 250.572 112.567 256.509 112.567 263.806C112.567 271.104 106.637 277.041 99.3487 277.041ZM95.182 253.07C89.2685 253.07 84.4585 257.886 84.4585 263.806C84.4585 269.727 89.2685 274.543 95.182 274.543H99.3487C105.262 274.543 110.072 269.727 110.072 263.806C110.072 257.886 105.262 253.07 99.3487 253.07H95.182Z" fill="#2C2837"/>
<path d="M266.809 222.279H47.1132C38.6698 222.279 31.8247 215.426 31.8247 206.973V57.2887C31.8247 48.8348 38.6698 41.9824 47.1132 41.9824H266.809C275.253 41.9824 282.098 48.8355 282.098 57.2887V206.973C282.099 215.426 275.253 222.279 266.809 222.279Z" fill="#FB7B88"/>
<path d="M266.81 223.528H47.114C37.9967 223.528 30.5781 216.102 30.5781 206.972V57.2883C30.5781 48.1597 37.996 40.7324 47.114 40.7324H266.81C275.927 40.7324 283.346 48.159 283.346 57.2883V206.972C283.345 216.101 275.927 223.528 266.81 223.528ZM47.1133 43.2303C39.3708 43.2303 33.0723 49.5361 33.0723 57.2883V206.972C33.0723 214.725 39.3708 221.03 47.1133 221.03H266.809C274.552 221.03 280.85 214.725 280.85 206.972V57.2883C280.85 49.5361 274.552 43.2303 266.809 43.2303H47.1133Z" fill="#2C2837"/>
<path d="M209.211 62.2729C208.495 61.69 207.56 61.4677 206.641 61.663L138.009 76.551C136.596 76.8577 135.592 78.1038 135.592 79.5502V103.566V168.432C132.02 164.998 127.181 162.874 121.848 162.874C110.888 162.874 101.974 171.798 101.974 182.771C101.974 193.743 110.888 202.667 121.848 202.667C132.808 202.667 141.721 193.743 141.721 182.771V106.041L204.223 92.4824V153.543C200.65 150.109 195.812 147.984 190.478 147.984C179.519 147.984 170.605 156.909 170.605 167.881C170.605 178.853 179.519 187.778 190.478 187.778C201.437 187.778 210.352 178.853 210.352 167.881V88.6774V64.6614C210.353 63.7338 209.935 62.8558 209.211 62.2729Z" fill="white"/>
<path d="M121.849 203.916C110.203 203.916 100.728 194.43 100.728 182.77C100.728 171.111 110.203 161.625 121.849 161.625C126.383 161.625 130.732 163.072 134.346 165.747V79.5498C134.346 77.5001 135.745 75.7652 137.747 75.3309L206.377 60.4422C207.67 60.1646 208.988 60.4808 209.999 61.3034C211.017 62.1261 211.601 63.3502 211.601 64.6618V167.881C211.601 179.541 202.126 189.027 190.48 189.027C178.834 189.027 169.358 179.541 169.358 167.881C169.358 156.222 178.834 146.735 190.48 146.735C195.014 146.735 199.364 148.184 202.977 150.858V94.0298L142.97 107.047V182.769C142.969 194.43 133.495 203.916 121.849 203.916ZM121.849 164.122C111.579 164.122 103.223 172.487 103.223 182.77C103.223 193.053 111.578 201.418 121.849 201.418C132.12 201.418 140.475 193.053 140.475 182.77V106.041C140.475 105.453 140.885 104.945 141.458 104.82L203.961 91.2624C204.33 91.1815 204.715 91.274 205.008 91.5108C205.301 91.7476 205.472 92.1046 205.472 92.4828V153.544C205.472 154.045 205.174 154.498 204.714 154.693C204.254 154.89 203.722 154.793 203.362 154.445C199.866 151.085 195.292 149.234 190.481 149.234C180.21 149.234 171.854 157.599 171.854 167.882C171.854 178.165 180.209 186.531 190.481 186.531C200.751 186.531 209.107 178.166 209.107 167.882V64.6633C209.107 64.1088 208.861 63.593 208.431 63.2469C208.429 63.2454 208.428 63.2447 208.426 63.2432C208.004 62.8993 207.447 62.7681 206.901 62.8854L138.276 77.7733C137.431 77.9562 136.841 78.6879 136.841 79.5513V168.432C136.841 168.933 136.543 169.385 136.083 169.581C135.622 169.778 135.091 169.68 134.731 169.333C131.233 165.972 126.659 164.122 121.849 164.122Z" fill="#2C2837"/>
</svg>
