<svg width="90" height="105" viewBox="0 0 90 105" fill="none" xmlns="http://www.w3.org/2000/svg">
<path d="M59.7425 95.8596C58.9351 95.8596 58.2714 95.2103 58.2714 94.3959C58.2714 79.4175 66.3018 70.0629 68.9232 67.4106L52.4754 31.5219L36.0497 67.4106C38.6601 70.0629 46.7015 79.4175 46.7015 94.3959C46.7015 95.1993 46.0489 95.8596 45.2304 95.8596C44.4119 95.8596 43.7593 95.2103 43.7593 94.3959C43.7593 78.1849 33.4172 68.9293 33.3066 68.8413C32.8199 68.4121 32.6761 67.7298 32.9416 67.1355L51.137 27.3838C51.3804 26.8666 51.9002 26.5254 52.4754 26.5254C53.0506 26.5254 53.5705 26.8556 53.8138 27.3838L72.0314 67.1355C72.2969 67.7187 72.1531 68.4121 71.6664 68.8413C71.5668 68.9293 61.2137 78.2509 61.2137 94.3959C61.2137 95.1993 60.5611 95.8596 59.7425 95.8596Z" fill="#A78FE6"/>
<path d="M52.4757 68.5666C51.8231 68.5666 51.3032 68.0383 51.3032 67.4V28.0006C51.3032 27.3512 51.8342 26.834 52.4757 26.834C53.1172 26.834 53.6482 27.3622 53.6482 28.0006V67.389C53.6482 68.0383 53.1172 68.5556 52.4757 68.5556V68.5666Z" fill="#A78FE6"/>
<path d="M57.1207 67.3886C57.1207 69.9309 55.0413 71.9999 52.4862 71.9999C49.931 71.9999 47.8516 69.9309 47.8516 67.3886C47.8516 64.8464 49.931 62.7773 52.4862 62.7773C55.0413 62.7773 57.1207 64.8464 57.1207 67.3886Z" fill="#A78FE6"/>
<path d="M8.11015 48.4268H8.09909C7.44648 48.4268 6.92661 47.8986 6.93767 47.2493C6.93767 46.9191 7.09253 38.9952 14.061 32.7551C20.6202 26.8892 30.8185 24.5781 44.3794 25.9097C59.2566 27.3624 70.7822 24.9522 77.6954 18.9323C83.4361 13.9358 84.4869 7.94885 84.5975 4.8233C84.6196 4.17398 85.1395 3.66773 85.8142 3.70075C86.4668 3.72276 86.9645 4.26202 86.9424 4.91134C86.8097 8.41107 85.6483 15.1244 79.2439 20.7041C71.8219 27.1533 59.6879 29.7726 44.1471 28.2429C31.3052 26.9883 21.7153 29.0793 15.6649 34.472C9.44854 40.0077 9.28262 47.2163 9.28262 47.2823C9.28262 47.9206 8.75169 48.4379 8.11015 48.4379V48.4268Z" fill="#A78FE6"/>
<path d="M89.6848 0.970703H78.7344V11.8661H89.6848V0.970703Z" fill="#A78FE6"/>
<path d="M15.786 39.6211H0.444336V54.8856H15.786V39.6211Z" fill="#A78FE6"/>
<path d="M79.9404 45.9841C79.9404 45.9841 79.8298 45.9731 79.7855 45.9401L27.4777 9.97434C27.356 9.88629 27.3228 9.72121 27.4113 9.60015C27.4998 9.47909 27.6657 9.44607 27.7874 9.53412L80.0952 45.4999C80.2169 45.5879 80.2501 45.753 80.1616 45.8741C80.1063 45.9511 80.0288 45.9951 79.9404 45.9951V45.9841Z" fill="#A78FE6"/>
<path d="M82.8167 45.7188C82.8167 47.2926 81.5226 48.5802 79.9408 48.5802C78.3591 48.5802 77.0649 47.3036 77.0649 45.7188C77.0649 44.1341 78.348 42.8574 79.9408 42.8574C81.5336 42.8574 82.8167 44.1341 82.8167 45.7188Z" fill="#A78FE6"/>
<path d="M31.2059 9.86337C31.2059 11.4371 29.9228 12.7248 28.33 12.7248C26.7372 12.7248 25.4541 11.4481 25.4541 9.86337C25.4541 8.27858 26.7372 7.00195 28.33 7.00195C29.9228 7.00195 31.2059 8.27858 31.2059 9.86337Z" fill="#A78FE6"/>
<path d="M71.7881 95.8594H33.2734V104.552H71.7881V95.8594Z" fill="#A78FE6"/>
</svg>
