<svg width="115" height="17" viewBox="0 0 115 17" fill="none" xmlns="http://www.w3.org/2000/svg">
<path d="M99.5366 14.8047L103.638 9.47266L97.603 7.71484L98.6382 4.45312L104.634 6.77734L104.361 0H107.779L107.466 6.89453L113.345 4.60938L114.4 7.91016L108.267 9.66797L112.232 14.9023L109.458 16.9336L105.865 11.2695L102.33 16.7578L99.5366 14.8047Z" fill="#A78FE6"/>
<path d="M67.0024 14.8047L71.104 9.47266L65.0688 7.71484L66.104 4.45312L72.1001 6.77734L71.8267 0H75.2446L74.9321 6.89453L80.811 4.60938L81.8657 7.91016L75.7329 9.66797L79.6978 14.9023L76.9243 16.9336L73.3306 11.2695L69.7954 16.7578L67.0024 14.8047Z" fill="#A78FE6"/>
<path d="M34.4678 14.8047L38.5693 9.47266L32.5342 7.71484L33.5693 4.45312L39.5654 6.77734L39.292 0H42.71L42.3975 6.89453L48.2764 4.60938L49.3311 7.91016L43.1982 9.66797L47.1631 14.9023L44.3896 16.9336L40.7959 11.2695L37.2607 16.7578L34.4678 14.8047Z" fill="#A78FE6"/>
<path d="M1.93359 14.8047L6.03516 9.47266L0 7.71484L1.03516 4.45312L7.03125 6.77734L6.75781 0H10.1758L9.86328 6.89453L15.7422 4.60938L16.7969 7.91016L10.6641 9.66797L14.6289 14.9023L11.8555 16.9336L8.26172 11.2695L4.72656 16.7578L1.93359 14.8047Z" fill="#A78FE6"/>
</svg>
