<svg width="95" height="85" viewBox="0 0 95 85" fill="none" xmlns="http://www.w3.org/2000/svg">
<path d="M85.6015 6.57308H49.8637C47.7945 6.57308 45.7723 5.95585 44.0556 4.8004L39.5871 1.79263C37.8511 0.62417 35.8061 0 33.7136 0H5.52353C2.47298 0 0 2.47298 0 5.52353V34.6292H91.125V12.0966C91.125 9.04598 88.652 6.57308 85.6015 6.57308Z" fill="#FF9700"/>
<path d="M77.814 14.2012H14.8379C12.7174 14.2012 10.9985 15.9201 10.9985 18.0405V22.1137H81.6533V18.0405C81.6533 15.9201 79.9345 14.2012 77.814 14.2012Z" fill="white"/>
<path d="M91.1253 27.6376V66.1656L82.2841 75.0067H1.1367C0.519474 75.0067 0.016688 74.5138 0.00136507 73.8993C0.00048719 73.8894 0.000488281 73.8795 0.000488281 73.8695V27.6376C0.000488281 24.5867 2.47299 22.1133 5.52394 22.1133H85.6019C88.6519 22.1133 91.1253 24.5867 91.1253 27.6376Z" fill="#FFC41F"/>
<path d="M85.771 71.5208L76.1973 81.0945H5.5227C3.42592 81.0945 1.60224 79.9267 0.666904 78.2048C0.24249 77.4227 0.00195312 76.5253 0.00195312 75.5729V71.082C13.2437 72.2552 28.3165 72.9418 45.5635 72.9418C60.5281 72.9418 73.8564 72.4246 85.771 71.5208Z" fill="#F9AF0B"/>
<path d="M94.4628 48.8584C94.4628 43.8896 90.4343 39.848 85.4851 39.848H48.2162L38.9842 31.5137L38.9644 75.0032C38.9644 79.9524 42.9929 83.9809 47.9484 83.9809L85.4328 84.0266C90.3883 84.0266 94.4239 79.9982 94.4239 75.0424L94.4628 48.8584Z" fill="white"/>
<path d="M86.2054 75.1572L80.4766 69.4284C82.023 66.9763 82.9207 64.0748 82.9207 60.9614C82.9207 52.1803 75.8029 45.0625 67.0218 45.0625C58.2414 45.0625 51.1235 52.1803 51.1235 60.9614C51.1235 69.7417 58.2414 76.8603 67.0218 76.8603C70.1351 76.8603 73.0367 75.9619 75.4881 74.4162L81.2175 80.145C81.9067 80.8342 82.8091 81.1781 83.7114 81.1781C84.6137 81.1781 85.5175 80.8342 86.2053 80.145C87.5832 78.7686 87.5832 76.5343 86.2054 75.1572ZM67.0218 71.7159C61.082 71.7159 56.2674 66.9007 56.2674 60.9614C56.2674 55.0222 61.0819 50.207 67.0218 50.207C72.9611 50.207 77.777 55.0222 77.777 60.9614C77.777 66.9007 72.9611 71.7159 67.0218 71.7159Z" fill="#6256CC"/>
</svg>
