<svg width="99" height="100" viewBox="0 0 99 100" fill="none" xmlns="http://www.w3.org/2000/svg">
<g clip-path="url(#clip0_2166_7945)">
<path d="M96.8714 51.0082C96.8714 77.4516 75.6488 98.8886 49.4698 98.8886C23.29 98.8886 2.06738 77.4516 2.06738 51.0082C2.06738 24.564 23.29 3.12695 49.4698 3.12695C75.6488 3.12695 96.8714 24.564 96.8714 51.0082Z" fill="#CBE0CC"/>
<path d="M25.9243 77.2891H29.9267V83.0874H25.9243V77.2891Z" fill="#1B0D59"/>
<path d="M69.0127 77.2891H73.0143V83.0874H69.0127V77.2891Z" fill="#1B0D59"/>
<path d="M34.4571 89.0666C34.4571 85.4228 31.5325 82.4688 27.9252 82.4688C24.3186 82.4688 21.394 85.4228 21.394 89.0666C21.394 89.2482 21.4031 89.4267 21.4175 89.6053C24.3005 91.7461 27.4312 93.5664 30.7591 95.0122C32.9472 93.9456 34.4571 91.6843 34.4571 89.0666Z" fill="#6843AF"/>
<path d="M86.8402 66.9489L24.1225 67.1778C22.7538 67.1832 21.5657 66.2242 21.2689 64.8745L11.7014 21.4557C11.2981 19.6216 12.675 17.8806 14.5346 17.8737L96.0754 17.5762C97.935 17.5693 99.3247 19.3004 98.9342 21.1368L89.6779 64.625C89.3902 65.977 88.2089 66.9436 86.8402 66.9489Z" fill="#EF3A50"/>
<path d="M25.0447 21.5618C24.6406 19.6735 26.0175 17.8806 27.8771 17.8737L96.5807 17.6227C96.4168 17.5945 96.2491 17.5754 96.0754 17.5762L14.5346 17.8737C12.675 17.8806 11.2981 19.6216 11.7014 21.4557L21.2689 64.8745C21.5657 66.2242 22.7538 67.1832 24.1225 67.1778L34.9445 67.1382C34.7965 66.8742 34.6824 66.5843 34.616 66.273L25.0447 21.5618Z" fill="#CE2844"/>
<path d="M92.1348 66.8604C90.7216 65.439 88.8477 64.6562 86.8537 64.6562C86.8446 64.6562 86.8355 64.6562 86.8265 64.657L79.9517 64.6814L24.5687 64.8836C24.5657 64.8836 24.5619 64.8836 24.5589 64.8836C23.2227 64.8836 22.0429 63.9299 21.7521 62.6116L10.1302 9.99861C9.39076 6.65161 6.39597 4.22852 3.00237 4.22852C2.99406 4.22852 2.98499 4.22852 2.97669 4.22852H2.26216C1.00835 4.23309 -0.0045167 5.26306 1.51484e-05 6.52954C0.004547 7.79296 1.01968 8.81453 2.26972 8.81453H2.27802H2.99255H3.00237C4.28639 8.81453 5.41935 9.73082 5.69957 10.9973L17.3207 63.6103C18.0715 67.0099 21.1131 69.4696 24.5589 69.4696H24.5853L77.966 69.2751L86.8423 69.2423H86.8537C87.6369 69.2423 88.3741 69.5497 88.93 70.109C89.4882 70.6705 89.7948 71.4182 89.7948 72.2139C89.7948 73.8527 88.4753 75.1855 86.8529 75.1855H22.1011C20.8473 75.1855 19.8306 76.2125 19.8306 77.4789C19.8306 78.7446 20.8473 79.7716 22.1011 79.7716H86.8529C87.0312 79.7716 87.2072 79.7632 87.3816 79.751C89.8764 76.3994 91.9445 72.7068 93.5072 68.754C93.1545 68.0643 92.6952 67.4249 92.1348 66.8604Z" fill="#50309E"/>
<path d="M71.0134 82.4688C67.406 82.4688 64.4814 85.4228 64.4814 89.0666C64.4814 91.6843 65.9913 93.9464 68.1794 95.0122C71.5073 93.5664 74.6381 91.7468 77.5211 89.6053C77.5354 89.4275 77.5445 89.2482 77.5445 89.0666C77.5445 85.4228 74.6207 82.4688 71.0134 82.4688Z" fill="#6843AF"/>
<path d="M29.9268 82.7854C29.7742 82.7365 29.6201 82.6931 29.463 82.6549C29.4487 82.6511 29.4343 82.648 29.4192 82.6442C29.2674 82.6084 29.1125 82.5771 28.9562 82.5519C28.9539 82.5511 28.9517 82.5504 28.9494 82.5504C28.7976 82.526 28.6435 82.5084 28.4887 82.4947C28.4562 82.4924 28.4245 82.4901 28.392 82.4878C28.2379 82.4764 28.0823 82.4688 27.9252 82.4688C26.7983 82.4688 25.7378 82.7571 24.8126 83.2653C24.6268 83.3667 24.4478 83.4766 24.274 83.5956C24.1872 83.6551 24.1018 83.7162 24.018 83.7795C23.8503 83.9061 23.6887 84.0404 23.5338 84.1823C23.4568 84.2533 23.3813 84.3265 23.3072 84.4013C23.0119 84.6996 22.7445 85.0269 22.5096 85.3778C22.3926 85.5533 22.283 85.7349 22.1826 85.921C21.6795 86.8564 21.394 87.9276 21.394 89.0659C21.394 89.1605 21.3978 89.2536 21.4016 89.3466C21.4054 89.4328 21.4107 89.5191 21.4175 89.6045C23.0912 90.8473 24.8503 91.978 26.6804 92.9942C25.8738 91.8971 25.3964 90.5383 25.3964 89.0666C25.3957 86.1278 27.2983 83.6391 29.9268 82.7854Z" fill="#50309E"/>
<path d="M68.4838 89.0666C68.4838 86.1278 70.3857 83.6391 73.0142 82.7854C72.8623 82.7365 72.7075 82.6931 72.5504 82.6549C72.5361 82.6511 72.5217 82.648 72.5074 82.6442C72.3548 82.6084 72.2007 82.5771 72.0443 82.5519C72.0413 82.5511 72.0391 82.5504 72.0368 82.5504C71.885 82.526 71.7309 82.5084 71.5761 82.4947C71.5443 82.4924 71.5119 82.4901 71.4801 82.4878C71.3253 82.4764 71.1705 82.4688 71.0134 82.4688C69.9438 82.4688 68.9355 82.7304 68.0442 83.1905C67.9619 83.2332 67.8803 83.2775 67.8003 83.3232C67.6862 83.3881 67.5744 83.4568 67.4649 83.5285C67.3426 83.6086 67.2225 83.6917 67.1054 83.7795C66.977 83.8771 66.8531 83.9801 66.7315 84.0869C66.5374 84.2571 66.3516 84.4379 66.1786 84.6309C66.0381 84.7866 65.9044 84.9498 65.7791 85.1192C65.5283 85.4579 65.3093 85.8219 65.1257 86.2064C64.7133 87.0716 64.4814 88.042 64.4814 89.0666C64.4814 89.2124 64.4882 89.3566 64.4973 89.5C64.4996 89.5389 64.5033 89.577 64.5064 89.616C64.5162 89.7373 64.529 89.8578 64.5449 89.9776C64.5479 90.0005 64.5502 90.0234 64.554 90.0462C64.5743 90.1851 64.6 90.3217 64.6287 90.4575C64.6363 90.4926 64.6446 90.5261 64.6521 90.5605C64.6771 90.6703 64.705 90.7794 64.736 90.887C64.7443 90.9183 64.7526 90.9496 64.7617 90.9801C64.8009 91.1113 64.844 91.241 64.8908 91.3684C64.9006 91.3944 64.9112 91.4203 64.921 91.4455C64.9618 91.5515 65.0049 91.656 65.0509 91.7598C65.0653 91.7918 65.0796 91.8247 65.0948 91.8567C65.1514 91.9803 65.2111 92.1016 65.276 92.2214C65.2821 92.2321 65.2881 92.2427 65.2942 92.2534C65.3538 92.3625 65.4173 92.4693 65.483 92.5746C65.5019 92.6051 65.5215 92.6364 65.5411 92.6662C65.6076 92.7692 65.6763 92.8706 65.7481 92.9698C65.7564 92.9805 65.764 92.992 65.7715 93.0026C65.8516 93.111 65.9354 93.2163 66.0215 93.3193C66.0442 93.346 66.0668 93.3719 66.0895 93.3978C66.162 93.4818 66.2368 93.5649 66.3138 93.6458C66.3327 93.6649 66.3501 93.6847 66.369 93.7038C66.4619 93.7991 66.5585 93.8915 66.6575 93.9815C66.6801 94.0013 66.7028 94.0204 66.7247 94.0402C66.8078 94.1127 66.8924 94.1837 66.9785 94.2516C67.0042 94.2722 67.0291 94.2935 67.0555 94.3134C67.1613 94.395 67.27 94.4743 67.3811 94.5499C67.3969 94.5605 67.4136 94.5705 67.4302 94.5811C67.5276 94.646 67.6273 94.7086 67.7285 94.7681C67.7587 94.7856 67.7897 94.8039 67.8199 94.8207C67.9377 94.8878 68.0571 94.9519 68.1787 95.0114H68.1794C68.9861 94.6613 69.7822 94.2874 70.5655 93.893C69.2852 92.6898 68.4838 90.9732 68.4838 89.0666Z" fill="#50309E"/>
<path d="M31.6097 89.0654C31.6097 91.12 29.9601 92.7862 27.9253 92.7862C25.8913 92.7862 24.2417 91.12 24.2417 89.0654C24.2417 87.01 25.8913 85.3438 27.9253 85.3438C29.9601 85.3438 31.6097 87.01 31.6097 89.0654Z" fill="#1B0D59"/>
<path d="M74.6971 89.0654C74.6971 91.12 73.0483 92.7862 71.0135 92.7862C68.9787 92.7862 67.3291 91.12 67.3291 89.0654C67.3291 87.01 68.9787 85.3438 71.0135 85.3438C73.0483 85.3438 74.6971 87.01 74.6971 89.0654Z" fill="#1B0D59"/>
<path d="M78.2552 33.3281H32.3755C31.4133 33.3281 30.6338 34.1155 30.6338 35.0867C30.6338 36.0579 31.4133 36.8453 32.3755 36.8453H78.2552C79.2167 36.8453 79.9962 36.0579 79.9962 35.0867C79.9962 34.1155 79.2167 33.3281 78.2552 33.3281Z" fill="#CE2844"/>
<path d="M75.6059 44.1621H35.0254C34.0632 44.1621 33.2837 44.9495 33.2837 45.9207C33.2837 46.8919 34.0632 47.6793 35.0254 47.6793H75.6059C76.5674 47.6793 77.3469 46.8919 77.3469 45.9207C77.3469 44.9495 76.5674 44.1621 75.6059 44.1621Z" fill="#CE2844"/>
<path d="M72.9561 54.9961H37.6748C36.7133 54.9961 35.9331 55.7834 35.9331 56.7547C35.9331 57.7259 36.7133 58.5132 37.6748 58.5132H72.9561C73.9176 58.5132 74.6978 57.7259 74.6978 56.7547C74.6978 55.7834 73.9176 54.9961 72.9561 54.9961Z" fill="#CE2844"/>
<path d="M96.0754 17.5762L67.9085 17.6792C68.3178 19.4179 69.0233 21.0407 69.9652 22.4941H29.7261C28.7646 22.4941 27.9844 23.2814 27.9844 24.2527C27.9844 25.2239 28.7646 26.0112 29.7261 26.0112H73.1065C75.7108 28.1482 79.0296 29.4292 82.646 29.4292C89.7376 29.4292 95.6895 24.5082 97.3421 17.8631C96.9614 17.6792 96.5324 17.5747 96.0754 17.5762Z" fill="#CE2844"/>
<path d="M95.6605 14.122C95.6605 21.3821 89.8333 27.2682 82.6466 27.2682C75.459 27.2682 69.6318 21.3821 69.6318 14.122C69.6318 6.86186 75.459 0.976562 82.6466 0.976562C89.8333 0.976562 95.6605 6.86186 95.6605 14.122Z" fill="white"/>
<path fill-rule="evenodd" clip-rule="evenodd" d="M83.25 7C83.25 6.58579 82.9142 6.25 82.5 6.25C82.0858 6.25 81.75 6.58579 81.75 7V13.75H75C74.5858 13.75 74.25 14.0858 74.25 14.5C74.25 14.9142 74.5858 15.25 75 15.25H81.75V22C81.75 22.4142 82.0858 22.75 82.5 22.75C82.9142 22.75 83.25 22.4142 83.25 22V15.25H90C90.4142 15.25 90.75 14.9142 90.75 14.5C90.75 14.0858 90.4142 13.75 90 13.75H83.25V7Z" fill="#EF3A50"/>
</g>
<defs>
<clipPath id="clip0_2166_7945">
<rect width="99" height="100" fill="white"/>
</clipPath>
</defs>
</svg>
