<svg width="147" height="25" viewBox="0 0 147 25" fill="none" xmlns="http://www.w3.org/2000/svg">
<path d="M11.5 2L14.0819 9.9463H22.4371L15.6776 14.8574L18.2595 22.8037L11.5 17.8926L4.74047 22.8037L7.32238 14.8574L0.56285 9.9463H8.91809L11.5 2Z" fill="#989898"/>
<path d="M42.5 2L45.0819 9.9463H53.4371L46.6776 14.8574L49.2595 22.8037L42.5 17.8926L35.7405 22.8037L38.3224 14.8574L31.5628 9.9463H39.9181L42.5 2Z" fill="#989898"/>
<path d="M73.5 0L76.0819 7.9463H84.4371L77.6776 12.8574L80.2595 20.8037L73.5 15.8926L66.7405 20.8037L69.3224 12.8574L62.5628 7.9463H70.9181L73.5 0Z" fill="#989898"/>
<path d="M104.5 0L107.082 7.9463H115.437L108.678 12.8574L111.26 20.8037L104.5 15.8926L97.7405 20.8037L100.322 12.8574L93.5628 7.9463H101.918L104.5 0Z" fill="#989898"/>
<path d="M135.5 0L138.082 7.9463H146.437L139.678 12.8574L142.26 20.8037L135.5 15.8926L128.74 20.8037L131.322 12.8574L124.563 7.9463H132.918L135.5 0Z" fill="#989898"/>
</svg>
