<svg width="238" height="13" viewBox="0 0 238 13" fill="none" xmlns="http://www.w3.org/2000/svg">
<path d="M4.48037 7.6505V1.9509H5.54179V7.6505C5.54179 8.18121 5.43307 8.629 5.21562 8.99386C4.99818 9.35873 4.69781 9.63698 4.31452 9.82862C3.93492 10.0166 3.49819 10.1106 3.00433 10.1106C2.51048 10.1106 2.0719 10.0258 1.68861 9.85627C1.30532 9.68673 1.00495 9.42875 0.787511 9.08231C0.570067 8.73588 0.461345 8.29915 0.461345 7.77212H1.52829C1.52829 8.11119 1.59095 8.38944 1.71625 8.60689C1.84156 8.82433 2.01478 8.98465 2.23591 9.08784C2.46072 9.19104 2.71686 9.24263 3.00433 9.24263C3.28443 9.24263 3.53504 9.18366 3.75617 9.06573C3.98098 8.94411 4.15789 8.76536 4.28688 8.52949C4.41587 8.28993 4.48037 7.99694 4.48037 7.6505ZM10.7217 8.97728V5.89805C10.7217 5.66218 10.6738 5.45764 10.578 5.28442C10.4859 5.10752 10.3458 4.97115 10.1579 4.87533C9.9699 4.77951 9.73771 4.7316 9.4613 4.7316C9.20332 4.7316 8.97666 4.77582 8.78133 4.86427C8.58969 4.95273 8.43858 5.06882 8.32802 5.21255C8.22114 5.35629 8.1677 5.51108 8.1677 5.67692H7.14497C7.14497 5.46317 7.20026 5.25125 7.31082 5.04118C7.42139 4.83111 7.57986 4.6413 7.78625 4.47177C7.99632 4.29855 8.24694 4.16219 8.53809 4.06268C8.83293 3.95949 9.16094 3.90789 9.52211 3.90789C9.957 3.90789 10.3403 3.9816 10.672 4.12902C11.0074 4.27644 11.269 4.49941 11.457 4.79794C11.6486 5.09278 11.7445 5.46317 11.7445 5.90911V8.69534C11.7445 8.89435 11.761 9.10627 11.7942 9.33108C11.8311 9.5559 11.8845 9.74939 11.9545 9.91155V10H10.8876C10.836 9.88206 10.7954 9.72543 10.766 9.5301C10.7365 9.33108 10.7217 9.14681 10.7217 8.97728ZM10.8986 6.37348L10.9097 7.09215H9.87592C9.58477 7.09215 9.32494 7.11611 9.09644 7.16402C8.86794 7.20824 8.67629 7.27643 8.5215 7.36856C8.36671 7.4607 8.24878 7.57679 8.1677 7.71684C8.08662 7.8532 8.04608 8.01352 8.04608 8.1978C8.04608 8.38576 8.08846 8.55713 8.17323 8.71192C8.25799 8.86671 8.38514 8.99018 8.55467 9.08231C8.72789 9.17077 8.93981 9.21499 9.19042 9.21499C9.50369 9.21499 9.7801 9.14865 10.0197 9.01598C10.2592 8.8833 10.449 8.72114 10.5891 8.52949C10.7328 8.33785 10.8102 8.15173 10.8212 7.97114L11.258 8.46315C11.2322 8.61794 11.1622 8.78932 11.0479 8.97728C10.9337 9.16524 10.7807 9.34583 10.5891 9.51904C10.4011 9.68858 10.1763 9.83047 9.91462 9.94472C9.65663 10.0553 9.36548 10.1106 9.04116 10.1106C8.63575 10.1106 8.2801 10.0313 7.97421 9.87285C7.672 9.71437 7.43613 9.50246 7.2666 9.2371C7.10075 8.96806 7.01783 8.6677 7.01783 8.336C7.01783 8.01537 7.08048 7.73343 7.20579 7.49018C7.33109 7.24326 7.51168 7.03871 7.74755 6.87655C7.98342 6.7107 8.26721 6.5854 8.5989 6.50063C8.93059 6.41586 9.30098 6.37348 9.71007 6.37348H10.8986ZM14.3759 5.29548V10H13.3532V4.01846H14.3206L14.3759 5.29548ZM14.1327 6.78257L13.707 6.76599C13.7107 6.3569 13.7715 5.97913 13.8894 5.6327C14.0073 5.28258 14.1732 4.97853 14.387 4.72054C14.6007 4.46256 14.855 4.26354 15.1499 4.12349C15.4484 3.97976 15.7782 3.90789 16.1394 3.90789C16.4342 3.90789 16.6996 3.94843 16.9355 4.02951C17.1713 4.10691 17.3722 4.23221 17.538 4.40543C17.7076 4.57865 17.8366 4.80346 17.925 5.07988C18.0135 5.3526 18.0577 5.68614 18.0577 6.08049V10H17.0294V6.06943C17.0294 5.75616 16.9834 5.50555 16.8912 5.31759C16.7991 5.12594 16.6646 4.98774 16.4877 4.90297C16.3108 4.81452 16.0933 4.7703 15.8354 4.7703C15.5811 4.7703 15.3489 4.82373 15.1388 4.93061C14.9324 5.03749 14.7537 5.18491 14.6026 5.37287C14.4551 5.56083 14.339 5.77643 14.2543 6.01967C14.1732 6.25923 14.1327 6.51353 14.1327 6.78257Z" fill="#4E4E4E"/>
<path d="M45.4085 1.9509V10H44.3415V1.9509H45.4085ZM48.7807 5.57189V6.44535H45.1763V5.57189H48.7807ZM49.328 1.9509V2.82436H45.1763V1.9509H49.328ZM53.7837 8.97728V5.89805C53.7837 5.66218 53.7358 5.45764 53.64 5.28442C53.5479 5.10752 53.4078 4.97115 53.2198 4.87533C53.0319 4.77951 52.7997 4.7316 52.5233 4.7316C52.2653 4.7316 52.0387 4.77582 51.8433 4.86427C51.6517 4.95273 51.5006 5.06882 51.39 5.21255C51.2831 5.35629 51.2297 5.51108 51.2297 5.67692H50.207C50.207 5.46317 50.2622 5.25125 50.3728 5.04118C50.4834 4.83111 50.6419 4.6413 50.8482 4.47177C51.0583 4.29855 51.3089 4.16219 51.6001 4.06268C51.8949 3.95949 52.2229 3.90789 52.5841 3.90789C53.019 3.90789 53.4023 3.9816 53.734 4.12902C54.0694 4.27644 54.331 4.49941 54.519 4.79794C54.7106 5.09278 54.8065 5.46317 54.8065 5.90911V8.69534C54.8065 8.89435 54.823 9.10627 54.8562 9.33108C54.8931 9.5559 54.9465 9.74939 55.0165 9.91155V10H53.9496C53.898 9.88206 53.8574 9.72543 53.828 9.5301C53.7985 9.33108 53.7837 9.14681 53.7837 8.97728ZM53.9606 6.37348L53.9717 7.09215H52.9379C52.6468 7.09215 52.3869 7.11611 52.1584 7.16402C51.9299 7.20824 51.7383 7.27643 51.5835 7.36856C51.4287 7.4607 51.3108 7.57679 51.2297 7.71684C51.1486 7.8532 51.1081 8.01352 51.1081 8.1978C51.1081 8.38576 51.1504 8.55713 51.2352 8.71192C51.32 8.86671 51.4471 8.99018 51.6167 9.08231C51.7899 9.17077 52.0018 9.21499 52.2524 9.21499C52.5657 9.21499 52.8421 9.14865 53.0816 9.01598C53.3212 8.8833 53.511 8.72114 53.6511 8.52949C53.7948 8.33785 53.8722 8.15173 53.8832 7.97114L54.32 8.46315C54.2942 8.61794 54.2241 8.78932 54.1099 8.97728C53.9956 9.16524 53.8427 9.34583 53.6511 9.51904C53.4631 9.68858 53.2383 9.83047 52.9766 9.94472C52.7186 10.0553 52.4275 10.1106 52.1031 10.1106C51.6977 10.1106 51.3421 10.0313 51.0362 9.87285C50.734 9.71437 50.4981 9.50246 50.3286 9.2371C50.1627 8.96806 50.0798 8.6677 50.0798 8.336C50.0798 8.01537 50.1425 7.73343 50.2678 7.49018C50.3931 7.24326 50.5737 7.03871 50.8095 6.87655C51.0454 6.7107 51.3292 6.5854 51.6609 6.50063C51.9926 6.41586 52.363 6.37348 52.7721 6.37348H53.9606ZM56.4096 1.50864H57.4379V8.83907L57.3494 10H56.4096V1.50864ZM61.479 6.95947V7.07557C61.479 7.51045 61.4274 7.91401 61.3242 8.28625C61.221 8.6548 61.0699 8.97543 60.8709 9.24816C60.6719 9.52089 60.4287 9.7328 60.1412 9.88391C59.8537 10.035 59.5239 10.1106 59.1516 10.1106C58.772 10.1106 58.4385 10.0461 58.151 9.91708C57.8672 9.7844 57.6277 9.5946 57.4324 9.34767C57.237 9.10074 57.0804 8.80222 56.9625 8.4521C56.8482 8.10197 56.769 7.70763 56.7247 7.26905V6.76046C56.769 6.3182 56.8482 5.92201 56.9625 5.57189C57.0804 5.22177 57.237 4.92324 57.4324 4.67632C57.6277 4.4257 57.8672 4.2359 58.151 4.10691C58.4348 3.97423 58.7647 3.90789 59.1406 3.90789C59.5165 3.90789 59.85 3.9816 60.1412 4.12902C60.4323 4.27275 60.6756 4.47914 60.8709 4.74818C61.0699 5.01722 61.221 5.3397 61.3242 5.71562C61.4274 6.08786 61.479 6.50247 61.479 6.95947ZM60.4508 7.07557V6.95947C60.4508 6.66095 60.4231 6.38085 60.3678 6.11918C60.3126 5.85383 60.2241 5.62164 60.1025 5.42263C59.9809 5.21992 59.8206 5.06145 59.6215 4.9472C59.4225 4.82926 59.1774 4.7703 58.8863 4.7703C58.6283 4.7703 58.4035 4.81452 58.2118 4.90297C58.0239 4.99142 57.8636 5.1112 57.7309 5.26231C57.5982 5.40973 57.4895 5.57926 57.4047 5.7709C57.3236 5.95886 57.2628 6.1542 57.2223 6.3569V7.6892C57.2813 7.94718 57.3771 8.19595 57.5098 8.43551C57.6461 8.67138 57.8267 8.86487 58.0515 9.01598C58.28 9.16708 58.562 9.24263 58.8973 9.24263C59.1738 9.24263 59.4096 9.18735 59.605 9.07679C59.804 8.96254 59.9643 8.8059 60.0859 8.60689C60.2112 8.40787 60.3034 8.17753 60.3623 7.91586C60.4213 7.65419 60.4508 7.37409 60.4508 7.07557Z" fill="#4E4E4E"/>
<path d="M87.7316 1.9509H88.7654L91.4024 8.51291L94.0338 1.9509H95.0731L91.8004 10H90.9933L87.7316 1.9509ZM87.3944 1.9509H88.3066L88.4558 6.85997V10H87.3944V1.9509ZM94.4927 1.9509H95.4048V10H94.3434V6.85997L94.4927 1.9509ZM100.651 8.97728V5.89805C100.651 5.66218 100.603 5.45764 100.507 5.28442C100.415 5.10752 100.275 4.97115 100.087 4.87533C99.8993 4.77951 99.6671 4.7316 99.3907 4.7316C99.1327 4.7316 98.906 4.77582 98.7107 4.86427C98.5191 4.95273 98.368 5.06882 98.2574 5.21255C98.1505 5.35629 98.0971 5.51108 98.0971 5.67692H97.0743C97.0743 5.46317 97.1296 5.25125 97.2402 5.04118C97.3508 4.83111 97.5092 4.6413 97.7156 4.47177C97.9257 4.29855 98.1763 4.16219 98.4675 4.06268C98.7623 3.95949 99.0903 3.90789 99.4515 3.90789C99.8864 3.90789 100.27 3.9816 100.601 4.12902C100.937 4.27644 101.198 4.49941 101.386 4.79794C101.578 5.09278 101.674 5.46317 101.674 5.90911V8.69534C101.674 8.89435 101.69 9.10627 101.724 9.33108C101.76 9.5559 101.814 9.74939 101.884 9.91155V10H100.817C100.765 9.88206 100.725 9.72543 100.695 9.5301C100.666 9.33108 100.651 9.14681 100.651 8.97728ZM100.828 6.37348L100.839 7.09215H99.8053C99.5141 7.09215 99.2543 7.11611 99.0258 7.16402C98.7973 7.20824 98.6057 7.27643 98.4509 7.36856C98.2961 7.4607 98.1781 7.57679 98.0971 7.71684C98.016 7.8532 97.9754 8.01352 97.9754 8.1978C97.9754 8.38576 98.0178 8.55713 98.1026 8.71192C98.1874 8.86671 98.3145 8.99018 98.484 9.08231C98.6573 9.17077 98.8692 9.21499 99.1198 9.21499C99.4331 9.21499 99.7095 9.14865 99.949 9.01598C100.189 8.8833 100.378 8.72114 100.518 8.52949C100.662 8.33785 100.74 8.15173 100.751 7.97114L101.187 8.46315C101.162 8.61794 101.092 8.78932 100.977 8.97728C100.863 9.16524 100.71 9.34583 100.518 9.51904C100.33 9.68858 100.106 9.83047 99.844 9.94472C99.586 10.0553 99.2949 10.1106 98.9705 10.1106C98.5651 10.1106 98.2095 10.0313 97.9036 9.87285C97.6014 9.71437 97.3655 9.50246 97.196 9.2371C97.0301 8.96806 96.9472 8.6677 96.9472 8.336C96.9472 8.01537 97.0099 7.73343 97.1352 7.49018C97.2605 7.24326 97.4411 7.03871 97.6769 6.87655C97.9128 6.7107 98.1966 6.5854 98.5283 6.50063C98.86 6.41586 99.2304 6.37348 99.6394 6.37348H100.828ZM104.305 4.95825V10H103.283V4.01846H104.278L104.305 4.95825ZM106.174 3.98529L106.168 4.93614C106.084 4.91771 106.002 4.90666 105.925 4.90297C105.851 4.8956 105.767 4.89192 105.671 4.89192C105.435 4.89192 105.227 4.92877 105.046 5.00248C104.865 5.07619 104.713 5.17938 104.587 5.31206C104.462 5.44474 104.362 5.60321 104.289 5.78749C104.219 5.96808 104.173 6.16709 104.15 6.38454L103.863 6.55038C103.863 6.18921 103.898 5.85014 103.968 5.53319C104.042 5.21624 104.154 4.93614 104.305 4.6929C104.456 4.44597 104.648 4.25433 104.88 4.11796C105.116 3.97792 105.396 3.90789 105.72 3.90789C105.794 3.90789 105.879 3.91711 105.975 3.93553C106.071 3.95027 106.137 3.96686 106.174 3.98529Z" fill="#4E4E4E"/>
<path d="M134.724 2.66404L132.06 10H130.971L134.039 1.9509H134.741L134.724 2.66404ZM136.958 10L134.287 2.66404L134.271 1.9509H134.973L138.052 10H136.958ZM136.819 7.02028V7.89374H132.297V7.02028H136.819ZM139.998 5.16833V12.2997H138.97V4.01846H139.91L139.998 5.16833ZM144.028 6.95947V7.07557C144.028 7.51045 143.977 7.91401 143.873 8.28625C143.77 8.6548 143.619 8.97543 143.42 9.24816C143.225 9.52089 142.983 9.7328 142.696 9.88391C142.408 10.035 142.079 10.1106 141.706 10.1106C141.327 10.1106 140.991 10.0479 140.7 9.9226C140.409 9.7973 140.162 9.61487 139.959 9.37531C139.757 9.13575 139.595 8.84829 139.473 8.51291C139.355 8.17753 139.274 7.79976 139.23 7.37962V6.76046C139.274 6.3182 139.357 5.92201 139.478 5.57189C139.6 5.22177 139.76 4.92324 139.959 4.67632C140.162 4.4257 140.407 4.2359 140.695 4.10691C140.982 3.97423 141.314 3.90789 141.69 3.90789C142.066 3.90789 142.399 3.9816 142.69 4.12902C142.982 4.27275 143.227 4.47914 143.426 4.74818C143.625 5.01722 143.774 5.3397 143.873 5.71562C143.977 6.08786 144.028 6.50247 144.028 6.95947ZM143 7.07557V6.95947C143 6.66095 142.969 6.38085 142.906 6.11918C142.843 5.85383 142.746 5.62164 142.613 5.42263C142.484 5.21992 142.318 5.06145 142.115 4.9472C141.913 4.82926 141.671 4.7703 141.391 4.7703C141.133 4.7703 140.908 4.81452 140.717 4.90297C140.529 4.99142 140.369 5.1112 140.236 5.26231C140.103 5.40973 139.994 5.57926 139.91 5.7709C139.829 5.95886 139.768 6.1542 139.727 6.3569V7.78871C139.801 8.04669 139.904 8.28993 140.037 8.51843C140.17 8.74325 140.346 8.92568 140.568 9.06573C140.789 9.20209 141.067 9.27027 141.402 9.27027C141.679 9.27027 141.916 9.21315 142.115 9.0989C142.318 8.98096 142.484 8.82064 142.613 8.61794C142.746 8.41524 142.843 8.18306 142.906 7.92139C142.969 7.65603 143 7.37409 143 7.07557ZM146.356 4.95825V10H145.333V4.01846H146.328L146.356 4.95825ZM148.224 3.98529L148.219 4.93614C148.134 4.91771 148.053 4.90666 147.975 4.90297C147.902 4.8956 147.817 4.89192 147.721 4.89192C147.485 4.89192 147.277 4.92877 147.096 5.00248C146.916 5.07619 146.763 5.17938 146.638 5.31206C146.512 5.44474 146.413 5.60321 146.339 5.78749C146.269 5.96808 146.223 6.16709 146.201 6.38454L145.913 6.55038C145.913 6.18921 145.948 5.85014 146.018 5.53319C146.092 5.21624 146.204 4.93614 146.356 4.6929C146.507 4.44597 146.698 4.25433 146.931 4.11796C147.166 3.97792 147.446 3.90789 147.771 3.90789C147.845 3.90789 147.929 3.91711 148.025 3.93553C148.121 3.95027 148.187 3.96686 148.224 3.98529Z" fill="#4E4E4E"/>
<path d="M174.413 1.9509H175.447L178.084 8.51291L180.715 1.9509H181.754L178.482 10H177.675L174.413 1.9509ZM174.076 1.9509H174.988L175.137 6.85997V10H174.076V1.9509ZM181.174 1.9509H182.086V10H181.025V6.85997L181.174 1.9509ZM187.332 8.97728V5.89805C187.332 5.66218 187.284 5.45764 187.189 5.28442C187.096 5.10752 186.956 4.97115 186.768 4.87533C186.581 4.77951 186.348 4.7316 186.072 4.7316C185.814 4.7316 185.587 4.77582 185.392 4.86427C185.2 4.95273 185.049 5.06882 184.939 5.21255C184.832 5.35629 184.778 5.51108 184.778 5.67692H183.756C183.756 5.46317 183.811 5.25125 183.921 5.04118C184.032 4.83111 184.19 4.6413 184.397 4.47177C184.607 4.29855 184.858 4.16219 185.149 4.06268C185.444 3.95949 185.772 3.90789 186.133 3.90789C186.568 3.90789 186.951 3.9816 187.283 4.12902C187.618 4.27644 187.88 4.49941 188.068 4.79794C188.259 5.09278 188.355 5.46317 188.355 5.90911V8.69534C188.355 8.89435 188.372 9.10627 188.405 9.33108C188.442 9.5559 188.495 9.74939 188.565 9.91155V10H187.498C187.447 9.88206 187.406 9.72543 187.377 9.5301C187.347 9.33108 187.332 9.14681 187.332 8.97728ZM187.509 6.37348L187.52 7.09215H186.487C186.195 7.09215 185.936 7.11611 185.707 7.16402C185.479 7.20824 185.287 7.27643 185.132 7.36856C184.977 7.4607 184.859 7.57679 184.778 7.71684C184.697 7.8532 184.657 8.01352 184.657 8.1978C184.657 8.38576 184.699 8.55713 184.784 8.71192C184.869 8.86671 184.996 8.99018 185.165 9.08231C185.338 9.17077 185.55 9.21499 185.801 9.21499C186.114 9.21499 186.391 9.14865 186.63 9.01598C186.87 8.8833 187.06 8.72114 187.2 8.52949C187.343 8.33785 187.421 8.15173 187.432 7.97114L187.869 8.46315C187.843 8.61794 187.773 8.78932 187.659 8.97728C187.544 9.16524 187.391 9.34583 187.2 9.51904C187.012 9.68858 186.787 9.83047 186.525 9.94472C186.267 10.0553 185.976 10.1106 185.652 10.1106C185.246 10.1106 184.891 10.0313 184.585 9.87285C184.283 9.71437 184.047 9.50246 183.877 9.2371C183.711 8.96806 183.628 8.6677 183.628 8.336C183.628 8.01537 183.691 7.73343 183.816 7.49018C183.942 7.24326 184.122 7.03871 184.358 6.87655C184.594 6.7107 184.878 6.5854 185.21 6.50063C185.541 6.41586 185.912 6.37348 186.321 6.37348H187.509ZM191.556 9.38084L193.22 4.01846H194.314L191.915 10.9232C191.86 11.0706 191.786 11.2291 191.694 11.3986C191.606 11.5719 191.491 11.7359 191.351 11.8907C191.211 12.0454 191.042 12.1708 190.843 12.2666C190.647 12.3661 190.413 12.4158 190.141 12.4158C190.06 12.4158 189.956 12.4048 189.831 12.3827C189.706 12.3606 189.617 12.3421 189.566 12.3274L189.56 11.4982C189.59 11.5018 189.636 11.5055 189.698 11.5092C189.765 11.5166 189.811 11.5203 189.837 11.5203C190.069 11.5203 190.266 11.4889 190.428 11.4263C190.59 11.3673 190.727 11.266 190.837 11.1222C190.951 10.9822 191.049 10.7887 191.13 10.5418L191.556 9.38084ZM190.334 4.01846L191.888 8.66217L192.153 9.74017L191.418 10.1161L189.217 4.01846H190.334Z" fill="#4E4E4E"/>
<path d="M223.436 7.6505V1.9509H224.498V7.6505C224.498 8.18121 224.389 8.629 224.171 8.99386C223.954 9.35873 223.654 9.63698 223.27 9.82862C222.891 10.0166 222.454 10.1106 221.96 10.1106C221.466 10.1106 221.028 10.0258 220.644 9.85627C220.261 9.68673 219.961 9.42875 219.743 9.08231C219.526 8.73588 219.417 8.29915 219.417 7.77212H220.484C220.484 8.11119 220.547 8.38944 220.672 8.60689C220.797 8.82433 220.971 8.98465 221.192 9.08784C221.416 9.19104 221.673 9.24263 221.96 9.24263C222.24 9.24263 222.491 9.18366 222.712 9.06573C222.937 8.94411 223.114 8.76536 223.243 8.52949C223.372 8.28993 223.436 7.99694 223.436 7.6505ZM229.81 8.61794V4.01846H230.838V10H229.86L229.81 8.61794ZM230.004 7.35751L230.429 7.34645C230.429 7.74448 230.387 8.11303 230.302 8.4521C230.221 8.78748 230.088 9.07863 229.904 9.32556C229.72 9.57248 229.478 9.76597 229.18 9.90602C228.881 10.0424 228.518 10.1106 228.091 10.1106C227.8 10.1106 227.533 10.0682 227.289 9.98342C227.05 9.89865 226.843 9.76781 226.67 9.59091C226.497 9.41401 226.362 9.18366 226.267 8.89988C226.174 8.6161 226.128 8.27519 226.128 7.87716V4.01846H227.151V7.88822C227.151 8.15726 227.181 8.38023 227.24 8.55713C227.302 8.73035 227.385 8.86856 227.488 8.97175C227.595 9.07126 227.713 9.14128 227.842 9.18182C227.975 9.22236 228.111 9.24263 228.251 9.24263C228.686 9.24263 229.031 9.15971 229.285 8.99386C229.539 8.82433 229.722 8.59767 229.832 8.31389C229.947 8.02642 230.004 7.70763 230.004 7.35751ZM233.42 5.29548V10H232.397V4.01846H233.365L233.42 5.29548ZM233.177 6.78257L232.751 6.76599C232.755 6.3569 232.816 5.97913 232.934 5.6327C233.052 5.28258 233.217 4.97853 233.431 4.72054C233.645 4.46256 233.899 4.26354 234.194 4.12349C234.493 3.97976 234.822 3.90789 235.184 3.90789C235.478 3.90789 235.744 3.94843 235.98 4.02951C236.216 4.10691 236.416 4.23221 236.582 4.40543C236.752 4.57865 236.881 4.80346 236.969 5.07988C237.058 5.3526 237.102 5.68614 237.102 6.08049V10H236.074V6.06943C236.074 5.75616 236.028 5.50555 235.935 5.31759C235.843 5.12594 235.709 4.98774 235.532 4.90297C235.355 4.81452 235.138 4.7703 234.88 4.7703C234.625 4.7703 234.393 4.82373 234.183 4.93061C233.977 5.03749 233.798 5.18491 233.647 5.37287C233.499 5.56083 233.383 5.77643 233.299 6.01967C233.217 6.25923 233.177 6.51353 233.177 6.78257Z" fill="#4E4E4E"/>
</svg>
