<svg width="47" height="59" viewBox="0 0 47 59" fill="none" xmlns="http://www.w3.org/2000/svg">
<path d="M18.6836 59C17.5068 58.922 16.332 58.844 15.1593 58.766C11.2901 58.5212 7.44395 58.0979 3.679 57.1218C2.62232 56.8504 1.68638 56.2316 1.02022 55.364C0.354051 54.4964 -0.00404335 53.4298 0.0029284 52.334C0.0029284 51.2564 -0.0384492 50.1603 0.189869 49.1288C0.925391 45.7851 3.0676 43.7822 6.36213 43.0001C7.26927 42.7846 8.18713 42.6076 9.09581 42.3936C9.33555 42.3328 9.56487 42.2363 9.77616 42.1072C11.0235 41.3652 12.2723 40.6232 13.5028 39.8519C13.7528 39.6902 13.9533 39.4622 14.082 39.193C14.5678 38.1338 14.9922 37.0377 15.478 35.9832C15.668 35.569 15.6573 35.2827 15.3248 34.9348C14.6367 34.2158 14.0069 33.4415 13.345 32.6979C12.4133 31.648 11.8418 30.4456 11.7621 29.0262C11.7514 28.8369 11.7238 28.6491 11.7038 28.4612C10.527 28.4612 9.36397 28.5521 8.21778 28.4397C6.3989 28.2642 4.96617 26.64 4.92326 24.8127C4.88955 23.3732 4.87882 21.9323 4.92326 20.4929C4.97229 18.861 5.80435 17.7064 7.27693 17.0537C7.69525 16.8689 7.82856 16.6657 7.82243 16.2162C7.77339 12.2751 8.88434 8.70505 11.4433 5.69228C15.0734 1.42175 19.718 -0.505694 25.2895 0.113178C32.2678 0.882921 37.6907 6.06175 38.9396 13.0448C39.1342 14.1317 39.1296 15.2571 39.1832 16.3671C39.2001 16.695 39.2767 16.8566 39.6046 16.9952C41.1998 17.671 42.0564 18.8887 42.0931 20.6453C42.1146 21.8353 42.1008 23.0269 42.0931 24.2169C42.0931 26.3629 41.2412 27.6038 39.2568 28.3735C39.1802 29.1786 39.1924 29.9961 39.0131 30.7705C38.3083 33.8156 35.4045 35.5937 32.3705 34.8686C32.0073 34.7808 31.7928 34.8178 31.5292 35.101C31.2381 35.4089 31.3959 35.6429 31.5139 35.9201C31.9813 37.01 32.4333 38.1107 32.9175 39.1899C33.0525 39.4554 33.2523 39.6821 33.4983 39.8488C33.9488 40.169 34.4667 40.3938 34.9095 40.7232C36.7162 42.0703 38.8032 42.6291 40.9607 43.111C44.5863 43.9223 46.9905 47.0444 46.9966 50.7776C46.9966 51.7013 47.038 52.6435 46.8311 53.5225C46.3929 55.3884 45.1747 56.6815 43.319 57.0926C40.8489 57.6406 38.3451 58.0794 35.8351 58.3888C33.4692 58.6813 31.0848 58.7414 28.6959 58.9076C28.5668 58.9266 28.4392 58.9555 28.3144 58.9938L18.6836 59ZM23.5013 47.4616C23.3373 47.597 23.1948 47.7125 23.0416 47.8372C22.1063 48.6903 21.3372 49.7109 20.7737 50.8469C20.2466 51.8768 19.3946 52.1708 18.3327 51.7244C18.0339 51.5997 17.7382 51.4673 17.447 51.3241C14.3333 49.7846 11.8295 47.5124 9.70414 44.7952C9.44824 44.4704 9.2184 44.3918 8.84757 44.4873C8.07221 44.6828 7.28612 44.8414 6.51076 45.0384C4.11878 45.645 2.61248 47.1737 2.11447 49.5876C1.91987 50.5298 1.95205 51.5381 2.00262 52.5126C2.0777 53.9382 2.92203 54.8942 4.31493 55.2129C5.78137 55.5454 7.25088 55.8825 8.73571 56.1104C13.2193 56.8001 17.7412 56.9787 22.2678 57.0233C26.5859 57.0649 30.9071 56.9956 35.1961 56.466C37.7244 56.1581 40.2375 55.6809 42.7413 55.1975C44.079 54.9373 44.8697 53.9366 44.9862 52.5619C45.0398 51.8924 45.0429 51.2197 44.9954 50.5498C44.8039 47.6371 43.0784 45.6234 40.2559 44.9645C39.551 44.8029 38.84 44.6659 38.1382 44.4842C37.7582 44.3857 37.5375 44.4842 37.2862 44.8013C34.9877 47.711 32.2954 50.1372 28.8584 51.632C27.5007 52.2247 26.7851 51.9553 26.1001 50.6468C25.4723 49.4085 24.5846 48.3218 23.4982 47.4616H23.5013ZM33.2638 18.8579C31.2365 18.51 29.2797 18.2868 27.3858 17.8234C24.934 17.2246 22.7413 16.0946 21.1247 14.0424C21.0462 13.9694 20.9531 13.9141 20.8516 13.8804C20.7501 13.8467 20.6425 13.8353 20.5362 13.8469C17.847 14.2349 15.6328 15.4803 13.987 17.6648C13.8421 17.8593 13.7593 18.0933 13.7495 18.3361C13.7352 21.8256 13.7352 25.3192 13.7495 28.8169C13.7431 29.6316 14.0324 30.4208 14.5632 31.0368C15.9678 32.684 17.3898 34.3159 18.8292 35.9324C19.4697 36.6544 20.2819 37.1639 21.2442 37.2425C22.4961 37.3441 23.7587 37.3379 25.0168 37.3379C26.7851 37.3379 28.9457 35.8215 29.6245 34.1404C29.2368 34.0388 28.843 33.9603 28.4676 33.8325C28.1611 33.7247 28.0079 33.7663 27.8332 34.0711C27.3735 34.8809 26.661 35.2227 25.763 35.0379C24.7011 34.8209 23.6362 34.5915 22.5988 34.279C21.0955 33.8263 20.2727 32.2622 20.6512 30.7197C20.8333 29.9962 21.2839 29.37 21.9106 28.9693C22.5373 28.5686 23.2928 28.4238 24.0223 28.5644C25.0474 28.7691 26.0664 29.0262 27.087 29.2818C27.5181 29.3864 27.8998 29.6376 28.1674 29.9929C28.435 30.3482 28.5719 30.7856 28.555 31.2308V31.7727C29.0928 31.9266 29.649 32.0051 30.1455 32.2237C30.9454 32.5747 31.4143 32.3084 31.9613 31.6741C32.8807 30.6134 33.3496 29.4788 33.2868 28.0656C33.224 26.6524 33.273 25.2637 33.273 23.8628L33.2638 18.8579ZM13.938 14.5905L14.0468 14.649C14.2 14.5351 14.3395 14.4242 14.4835 14.3088C16.4541 12.7154 18.7128 11.9087 21.2258 11.7748C21.8234 11.7424 22.1973 11.9841 22.5375 12.4937C22.911 13.072 23.3769 13.5843 23.9166 14.0101C26.664 16.0915 29.8927 16.5102 33.2255 16.6903C33.3606 15.2188 33.1712 13.7355 32.6708 12.3459C30.9852 7.69052 25.8473 4.87943 21.3009 6.24495C17.7765 7.30565 15.573 9.83041 14.318 13.2404C14.1586 13.6776 14.0636 14.1394 13.938 14.5905ZM11.7192 16.7719C11.7345 16.5379 11.7529 16.3286 11.7621 16.1177C11.8469 14.2545 12.3314 12.4317 13.1826 10.7741C15.409 6.36964 20.0382 3.35841 24.9816 4.00038C30.429 4.707 34.8666 9.30852 35.2129 14.8183C35.2543 15.4803 35.2834 16.1423 35.3187 16.775L37.1881 16.6657C37.3168 11.1713 35.1961 6.88076 30.5623 3.95882C25.9653 1.05843 19.9723 1.30937 15.5224 4.58539C11.4786 7.56275 9.6689 11.647 9.83746 16.6688L11.7192 16.7719ZM29.8636 37.1055L29.4177 37.5288C28.4017 38.4941 27.2111 39.1576 25.8197 39.2607C24.3947 39.3639 22.9558 39.33 21.5292 39.2931C20.2282 39.2592 19.0774 38.7435 18.0707 37.9368C17.7642 37.6905 17.4716 37.4133 17.139 37.1208C16.7514 38.0322 16.3989 38.9174 15.9959 39.778C15.8427 40.1121 15.8963 40.3214 16.1124 40.5908C17.8894 42.8567 20.3767 44.4523 23.1703 45.1185C23.3538 45.1705 23.5466 45.18 23.7342 45.1462C26.6993 44.4303 29.1327 42.8754 30.996 40.4431C31.0415 40.379 31.0729 40.3058 31.088 40.2286C31.103 40.1513 31.1014 40.0717 31.0833 39.9951C30.7002 39.0483 30.2865 38.1061 29.8636 37.1116V37.1055ZM11.7284 22.6943C11.7284 21.7152 11.7406 20.7361 11.7284 19.757C11.7176 19.0704 11.3882 18.7148 10.7201 18.6794C10.0713 18.6447 9.42123 18.6447 8.77249 18.6794C7.6738 18.7502 6.89844 19.5415 6.88006 20.6114C6.85554 21.9354 6.85554 23.2598 6.88006 24.5848C6.89998 25.6933 7.7213 26.4815 8.82765 26.4999C9.41913 26.5107 10.0121 26.5076 10.6052 26.4999C11.3958 26.4922 11.7192 26.1813 11.7314 25.3884C11.7391 24.5063 11.7299 23.6026 11.7284 22.7005V22.6943ZM35.2742 22.6035C35.2742 23.5626 35.2605 24.5232 35.2742 25.4823C35.288 26.1736 35.6251 26.4984 36.3055 26.5123C36.8985 26.523 37.49 26.52 38.083 26.5123C39.3196 26.4984 40.1195 25.7009 40.1272 24.4555C40.1348 23.2101 40.1364 21.9923 40.1272 20.77C40.118 19.5476 39.3273 18.7179 38.0907 18.6794C37.5176 18.6609 36.9445 18.6624 36.3714 18.6794C35.6252 18.6994 35.2834 19.0381 35.2712 19.7786C35.262 20.7269 35.2742 21.669 35.2742 22.6097V22.6035ZM11.2472 43.559C13.3833 46.3069 15.9346 48.396 18.9564 49.8139L21.1599 46.7811C19.9631 46.096 18.653 45.4849 17.5068 44.6489C16.3606 43.813 15.3769 42.7507 14.272 41.7408L11.2472 43.559ZM35.7493 43.559L32.5957 41.6562C30.8442 43.9503 28.4745 45.6916 25.7676 46.6733C26.5338 47.7325 27.2709 48.7501 28.0462 49.8185C31.0793 48.384 33.724 46.237 35.7569 43.559H35.7493ZM35.2727 28.4443C35.2896 30.1916 34.6598 31.6772 33.4339 32.9673C35.7998 33.2937 37.7244 30.9029 37.0885 28.5844L35.2727 28.4443ZM26.1155 33.0905L26.5568 31.1969C25.5424 30.9598 24.6046 30.712 23.6545 30.5319C23.538 30.5017 23.4165 30.4959 23.2976 30.5148C23.1787 30.5337 23.0649 30.5768 22.9632 30.6416C22.8616 30.7064 22.7742 30.7914 22.7065 30.8914C22.6388 30.9914 22.5922 31.1043 22.5696 31.2231C22.4486 31.7927 22.703 32.2314 23.3036 32.3931C24.22 32.6425 25.1455 32.8549 26.1155 33.0905Z" fill="#FF3A54"/>
</svg>
