<svg width="51" height="49" viewBox="0 0 51 49" fill="none" xmlns="http://www.w3.org/2000/svg">
<path d="M6.94024 4.38136C6.94024 3.71935 6.94024 3.13728 6.94024 2.55521C6.95559 1.87555 7.23335 1.22884 7.71431 0.752931C8.19528 0.277027 8.84138 0.00958619 9.51489 0.00762499C10.1982 -0.00169556 10.8573 0.262689 11.3478 0.742874C11.8384 1.22306 12.1204 1.8799 12.1322 2.56956C12.1322 3.14958 12.1322 3.73165 12.1322 4.34651H17.3303C17.3303 3.75419 17.3303 3.17827 17.3303 2.6003C17.3329 1.91032 17.6069 1.24964 18.092 0.763477C18.5771 0.277313 19.2336 0.00544646 19.9171 0.00762499C20.6006 0.00160243 21.2586 0.269057 21.7472 0.75148C22.2358 1.2339 22.5152 1.89202 22.5243 2.58186C22.5243 3.15983 22.5243 3.73985 22.5243 4.34856H27.7244C27.7244 3.79109 27.7244 3.21721 27.7244 2.64334C27.7244 1.29474 28.7396 0.136746 29.9985 0.0137734C31.3752 -0.121497 32.6382 0.751613 32.8676 2.10431C32.9813 2.76017 32.9082 3.44881 32.9224 4.12311C32.9274 4.20013 32.9369 4.27679 32.9509 4.35267H38.1185C38.1185 3.80134 38.1185 3.24386 38.1185 2.68843C38.1185 1.15947 39.2495 0.0035259 40.7277 0.00762499C42.2059 0.0117241 43.3084 1.17177 43.3145 2.71098C43.3145 3.23976 43.3145 3.76649 43.3145 4.38136H49.2029C49.9522 4.38136 50.2405 4.67649 50.2405 5.44302V47.9281C50.2405 48.7172 49.9522 49 49.1582 49H1.08834C0.276144 49 0 48.7213 0 47.8789V5.50246C0 4.64165 0.265992 4.37931 1.1391 4.37931L6.94024 4.38136ZM48.4943 14.914H1.79294V47.2148H48.4943V14.914ZM48.5187 13.1042V6.16651H43.3206C43.3206 6.76498 43.3206 7.32656 43.3206 7.89018C43.3212 8.23646 43.2535 8.57939 43.1214 8.89898C42.9893 9.21856 42.7956 9.50842 42.5514 9.75164C42.3072 9.99487 42.0175 10.1866 41.6992 10.3157C41.3808 10.4447 41.0402 10.5085 40.6972 10.5034C40.0136 10.4996 39.3592 10.2228 38.8772 9.73352C38.3951 9.24425 38.1245 8.58227 38.1245 7.89223C38.1245 7.31631 38.1245 6.74039 38.1245 6.17062H32.9265C32.9265 6.75679 32.9265 7.30196 32.9265 7.84714C32.9335 8.19398 32.872 8.53875 32.7455 8.86132C32.619 9.18389 32.4301 9.47778 32.1899 9.72584C31.9496 9.97389 31.6628 10.1711 31.3461 10.306C31.0295 10.4409 30.6894 10.5108 30.3457 10.5116C29.9982 10.5155 29.6534 10.4487 29.3321 10.3151C29.0107 10.1815 28.7193 9.98386 28.4753 9.73397C28.2314 9.48409 28.0399 9.18711 27.9122 8.8608C27.7846 8.53449 27.7235 8.18555 27.7325 7.83485C27.7325 7.27737 27.7325 6.72194 27.7325 6.18291H22.5324C22.5324 6.73834 22.5324 7.24663 22.5324 7.75696C22.5324 9.34331 21.4319 10.5095 19.9395 10.5116C18.4471 10.5136 17.3404 9.34946 17.3364 7.76926V6.16651H12.1383C12.1383 6.78138 12.1383 7.3532 12.1383 7.93322C12.1303 8.62306 11.8519 9.2816 11.364 9.76479C10.8762 10.248 10.2187 10.5165 9.53521 10.5116C8.85178 10.5132 8.19549 10.2416 7.70995 9.75608C7.22441 9.27059 6.94913 8.61076 6.9443 7.92092C6.9443 7.34295 6.9443 6.76498 6.9443 6.17062H1.78481V13.1124L48.5187 13.1042ZM10.4042 5.31595C10.4042 4.47974 10.4042 3.64352 10.4042 2.80935C10.4042 2.17194 10.055 1.76818 9.54129 1.76613C9.02757 1.76408 8.67833 2.16579 8.6763 2.8032C8.66817 4.44284 8.66817 6.0777 8.6763 7.70778C8.6763 8.34519 9.02556 8.74895 9.53725 8.75099C10.0489 8.75304 10.3961 8.34108 10.4042 7.71187C10.4124 6.9105 10.4042 6.11733 10.4042 5.31185V5.31595ZM20.7984 5.25856C20.7984 4.43875 20.7984 3.61893 20.7984 2.79911C20.7984 2.15965 20.4471 1.75794 19.9354 1.75794C19.4237 1.75794 19.0724 2.16785 19.0704 2.79911C19.0623 4.43875 19.0623 6.07292 19.0704 7.70163C19.0704 8.33904 19.4217 8.74279 19.9334 8.74279C20.445 8.74279 20.7923 8.33289 20.7984 7.70163C20.8065 6.89001 20.7984 6.07224 20.7984 5.25447V5.25856ZM29.4604 5.25856C29.4604 6.07838 29.4604 6.8982 29.4604 7.71802C29.4604 8.35543 29.8137 8.75919 30.3274 8.75714C30.8412 8.75509 31.1863 8.34723 31.1904 7.71392C31.1904 6.07429 31.1904 4.44011 31.1904 2.8114C31.1904 2.17399 30.8371 1.77023 30.3234 1.77228C29.8097 1.77433 29.4686 2.1822 29.4604 2.81551C29.4544 3.62098 29.4604 4.43874 29.4604 5.25651V5.25856ZM39.8566 5.25856C39.8566 6.07838 39.8566 6.8982 39.8566 7.71802C39.8566 8.35543 40.2099 8.75919 40.7216 8.75714C41.2332 8.75509 41.5825 8.34723 41.5845 7.71597C41.5926 6.07633 41.5926 4.44148 41.5845 2.8114C41.5845 2.17399 41.2312 1.77228 40.7175 1.77228C40.2038 1.77228 39.8627 2.1822 39.8566 2.81346C39.8484 3.62098 39.8566 4.43874 39.8566 5.25651V5.25856Z" fill="#FF3A54"/>
<path d="M18.3285 21.9854C19.4659 22.4306 19.9554 21.8609 20.4408 20.9174C20.9207 20.0229 21.5509 19.2163 22.3041 18.5322C24.0009 16.9659 26.1913 17.0027 27.9559 18.4995C28.9843 19.3777 29.7041 20.4906 30.2635 21.7036C30.4075 22.0161 30.5556 22.0957 30.9052 22.1018C32.0138 22.1243 33.149 22.0835 34.2226 22.306C37.1329 22.9187 38.4779 25.2385 37.5462 28.0342C37.2007 29.0675 36.5899 30.0171 36.051 30.9789C35.8927 31.2628 35.8762 31.4282 36.0654 31.6937C36.8881 32.8413 37.5545 34.0605 37.7457 35.4818C38.0625 37.8363 36.9539 39.5415 34.6607 40.2603C33.4267 40.6545 32.1413 40.6443 30.864 40.5626C30.5185 40.5401 30.389 40.6565 30.2594 40.9383C29.7434 42.1457 28.9718 43.2287 27.997 44.1138C26.22 45.6658 24.0297 45.6679 22.2486 44.1138C21.2724 43.2315 20.5006 42.1495 19.9862 40.9424C19.8381 40.6157 19.6716 40.5666 19.3363 40.5585C18.2278 40.5319 17.0925 40.5748 16.0189 40.3543C13.1148 39.7416 11.7677 37.4197 12.7014 34.62C13.0469 33.5887 13.6619 32.6412 14.1966 31.6794C14.353 31.3996 14.3817 31.2321 14.1966 30.9646C13.4007 29.868 12.757 28.6877 12.5287 27.3399C12.1173 24.775 13.3822 22.9023 15.9551 22.3081C16.7428 22.1304 17.549 22.0896 18.3285 21.9854ZM18.0324 38.9085C18.8304 38.8268 19.4556 38.8084 20.0623 38.7042C25.2472 37.7302 29.6383 35.2817 33.3033 31.5446C34.5106 30.3193 35.5204 28.9368 35.94 27.2214C36.3163 25.6898 35.7096 24.6259 34.2082 24.1337C32.8858 23.7008 31.5345 23.7253 30.1997 23.9785C25.0148 24.9445 20.6258 27.3991 16.9588 31.1362C15.7535 32.3614 14.7375 33.7419 14.32 35.4573C13.9478 36.9909 14.5257 38.0732 16.0579 38.5368C16.71 38.7003 17.3714 38.8244 18.0385 38.9085H18.0324ZM20.5395 25.8512C23.0939 24.3441 25.7408 23.1433 28.6408 22.4531C28.1657 21.4218 27.6001 20.5233 26.7651 19.8167C25.6997 18.9182 24.5768 18.9202 23.5032 19.8167C23.3469 19.9416 23.2005 20.0782 23.0651 20.2251C21.6192 21.8241 20.9796 23.7845 20.5456 25.8532L20.5395 25.8512ZM29.7946 36.7949C28.431 37.4871 27.1661 38.206 25.8354 38.7798C24.5048 39.3536 23.0857 39.8009 21.7056 40.291C22.1206 41.3307 22.7917 42.2505 23.6574 42.9661C24.6734 43.7176 25.7264 43.7176 26.7013 42.8926C27.1414 42.5132 27.5324 42.0811 27.8654 41.6061C28.6737 40.4707 29.1549 39.1821 29.5293 37.8527C29.6239 37.5137 29.7 37.1686 29.7925 36.7949H29.7946ZM31.1685 38.8104C32.5218 38.9085 33.8195 38.8737 35.0042 38.1815C35.3184 38.0087 35.5798 37.7549 35.7608 37.4468C35.9418 37.1388 36.0356 36.788 36.0325 36.4314C36.0675 35.0223 35.4155 33.8828 34.6545 32.7801C33.9409 33.4295 33.2992 34.0809 32.5855 34.6425C32.3514 34.8083 32.1553 35.0214 32.01 35.2677C31.8647 35.5141 31.7734 35.7881 31.7423 36.072C31.6147 36.9725 31.3721 37.8608 31.1664 38.8104H31.1685ZM19.1142 23.8438C17.8411 23.7662 16.6462 23.7927 15.5294 24.3441C14.6368 24.7831 14.1966 25.4938 14.246 26.4903C14.3077 27.7871 14.9206 28.8551 15.624 29.8843C16.3294 29.2411 16.9711 28.5937 17.6807 28.0281C17.9143 27.8634 18.1108 27.6521 18.2574 27.4077C18.404 27.1633 18.4976 26.8912 18.5321 26.6088C18.6514 25.7021 18.9024 24.8117 19.1121 23.8438H19.1142Z" fill="#FF3A54"/>
</svg>
