<svg width="59" height="59" viewBox="0 0 59 59" fill="none" xmlns="http://www.w3.org/2000/svg">
<path fill-rule="evenodd" clip-rule="evenodd" d="M13.8416 44.8138H35.929V33.7176H13.8416V44.8138ZM36.5353 46.0265H13.2353C12.9006 46.0265 12.6289 45.7549 12.6289 45.4202L12.6289 33.1112C12.6289 32.7765 12.9005 32.5049 13.2352 32.5049H36.5353C36.8701 32.5049 37.1416 32.7765 37.1416 33.1112L37.1417 45.4202C37.1417 45.7549 36.87 46.0265 36.5353 46.0265Z" fill="#FF3A54"/>
<path fill-rule="evenodd" clip-rule="evenodd" d="M6.75171 23.7653V52.1308C6.75171 53.5835 7.96954 54.7657 9.46648 54.7657H49.5338C51.0307 54.7657 52.2485 53.5835 52.2485 52.1308V19.3378C52.2485 17.564 50.7642 16.1219 48.9389 16.1219H38.3111C36.9216 16.1219 36.3015 17.1293 35.4046 18.7735C35.2489 19.0578 35.0888 19.3525 34.9183 19.6441L32.6804 23.4653C32.5719 23.6516 32.3729 23.7654 32.1571 23.7654L6.75171 23.7653ZM49.5336 55.9783H9.46665C7.30137 55.9783 5.53906 54.2519 5.53906 52.1308L5.53916 23.159C5.53916 22.8243 5.81066 22.5527 6.14541 22.5527L31.8098 22.5526L33.8719 19.0304C34.033 18.7556 34.1887 18.4693 34.3403 18.1925C35.2205 16.5787 36.131 14.9092 38.311 14.9092H48.939C51.4327 14.9092 53.4612 16.8956 53.4612 19.3378V52.1308C53.4612 54.2519 51.6989 55.9783 49.5336 55.9783Z" fill="#FF3A54"/>
<path fill-rule="evenodd" clip-rule="evenodd" d="M46.5619 16.1225C46.2271 16.1225 45.9554 15.8509 45.9554 15.5161L45.9555 10.3885H40.5479C40.2132 10.3885 39.9415 10.1169 39.9415 9.78216C39.9415 9.44738 40.2131 9.17581 40.5478 9.17581L46.5619 9.17578C46.8965 9.17578 47.1681 9.44738 47.1681 9.78216L47.1682 15.5161C47.1682 15.8508 46.8965 16.1225 46.5619 16.1225ZM6.14551 23.7659C5.81073 23.7659 5.53906 23.4943 5.53906 23.1596L5.53916 9.78212C5.53916 9.44738 5.81066 9.17581 6.1454 9.17581L12.1594 9.17578C12.4941 9.17578 12.7657 9.44738 12.7657 9.78216C12.7658 10.1169 12.4941 10.3885 12.1594 10.3885L6.75185 10.3885V23.1596C6.75185 23.4943 6.48015 23.7659 6.14551 23.7659Z" fill="#FF3A54"/>
<path fill-rule="evenodd" clip-rule="evenodd" d="M12.1591 23.7655C11.8244 23.7655 11.5527 23.4939 11.5527 23.1592L11.5528 3.6288C11.5528 3.293 11.8243 3.02246 12.1591 3.02246H40.5477C40.8836 3.02246 41.154 3.29304 41.154 3.6288L41.1541 15.5157C41.1541 15.8504 40.8835 16.122 40.5477 16.122C40.213 16.122 39.9414 15.8504 39.9414 15.5157V4.23515H12.7655V23.1591C12.7655 23.4939 12.4938 23.7655 12.1591 23.7655Z" fill="#FF3A54"/>
<path fill-rule="evenodd" clip-rule="evenodd" d="M37.157 8.23124H15.5497C15.215 8.23124 14.9434 7.95964 14.9434 7.6249C14.9434 7.29015 15.215 7.01855 15.5497 7.01855H37.157C37.4918 7.01855 37.7633 7.29015 37.7633 7.6249C37.7633 7.95964 37.4917 8.23124 37.157 8.23124Z" fill="#FF3A54"/>
<path fill-rule="evenodd" clip-rule="evenodd" d="M37.157 12.0779H15.5497C15.215 12.0779 14.9434 11.8064 14.9434 11.4716C14.9434 11.1368 15.215 10.8653 15.5497 10.8653L37.157 10.8652C37.4918 10.8652 37.7633 11.1369 37.7633 11.4716C37.7633 11.8064 37.4917 12.078 37.157 12.0779Z" fill="#FF3A54"/>
<path fill-rule="evenodd" clip-rule="evenodd" d="M32.1568 15.9226H15.5497C15.215 15.9226 14.9434 15.6511 14.9434 15.3163C14.9434 14.9816 15.215 14.71 15.5497 14.71H32.1568C32.4926 14.71 32.7631 14.9816 32.7631 15.3163C32.7631 15.6511 32.4926 15.9226 32.1568 15.9226Z" fill="#FF3A54"/>
<path fill-rule="evenodd" clip-rule="evenodd" d="M29.0103 19.7683H15.5497C15.215 19.7683 14.9434 19.4978 14.9434 19.162C14.9434 18.8272 15.215 18.5557 15.5497 18.5557H29.0103C29.3451 18.5557 29.6166 18.8273 29.6166 19.162C29.6166 19.4978 29.345 19.7683 29.0103 19.7683Z" fill="#FF3A54"/>
<path fill-rule="evenodd" clip-rule="evenodd" d="M43.626 55.9782C43.2912 55.9782 43.0195 55.7066 43.0195 55.3718L43.0196 15.5155C43.0196 15.1807 43.2911 14.9092 43.6259 14.9092C43.9606 14.9092 44.2322 15.1807 44.2322 15.5155L44.2323 55.3718C44.2323 55.7066 43.9606 55.9782 43.626 55.9782Z" fill="#FF3A54"/>
<path fill-rule="evenodd" clip-rule="evenodd" d="M36.5353 29.6902H13.2353C12.9006 29.6902 12.6289 29.4186 12.6289 29.0839C12.6289 28.7491 12.9005 28.4775 13.2352 28.4775H36.5353C36.8701 28.4775 37.1416 28.7491 37.1416 29.0839C37.1417 29.4186 36.87 29.6902 36.5353 29.6902Z" fill="#FF3A54"/>
<path fill-rule="evenodd" clip-rule="evenodd" d="M36.5353 49.7586H13.2353C12.9006 49.7586 12.6289 49.487 12.6289 49.1523C12.6289 48.8175 12.9005 48.5459 13.2352 48.5459H36.5353C36.8701 48.5459 37.1416 48.8175 37.1416 49.1523C37.1417 49.487 36.87 49.7586 36.5353 49.7586Z" fill="#FF3A54"/>
<path fill-rule="evenodd" clip-rule="evenodd" d="M31.9254 42.9653C30 42.9653 28.4336 41.3063 28.4336 39.2683C28.4336 37.2292 30 35.5713 31.9253 35.5713C32.6864 35.5713 33.4401 35.8408 34.0454 36.3303C34.3054 36.5408 34.3465 36.9229 34.1359 37.1829C33.9245 37.444 33.5433 37.484 33.2822 37.2735C32.8865 36.9524 32.4169 36.783 31.9253 36.783C30.6685 36.7829 29.6463 37.8977 29.6463 39.2683C29.6463 40.6379 30.6684 41.7527 31.9253 41.7527C32.3264 41.7527 32.7138 41.64 33.058 41.4242L33.058 40.3757H31.9558C31.6201 40.3757 31.3495 40.1041 31.3495 39.7694C31.3495 39.4346 31.62 39.163 31.9558 39.163H33.6644C33.9992 39.163 34.2707 39.4346 34.2707 39.7694L34.2707 41.7337C34.2707 41.9168 34.1875 42.0906 34.0454 42.2053C33.4402 42.6958 32.6864 42.9653 31.9254 42.9653Z" fill="#FF3A54"/>
<path fill-rule="evenodd" clip-rule="evenodd" d="M24.3832 36.7791C23.2852 36.7791 22.3904 37.8949 22.3904 39.2666C22.3905 40.6372 23.2852 41.753 24.3832 41.753C25.4822 41.753 26.3759 40.6372 26.3759 39.2666C26.3759 37.8949 25.4822 36.7791 24.3832 36.7791ZM24.3832 42.9657C22.6157 42.9657 21.1777 41.3056 21.1777 39.2666C21.1778 37.2265 22.6157 35.5664 24.3832 35.5664C26.1507 35.5664 27.5886 37.2265 27.5886 39.2666C27.5886 41.3056 26.1506 42.9657 24.3832 42.9657Z" fill="#FF3A54"/>
<path fill-rule="evenodd" clip-rule="evenodd" d="M20.3518 42.9655H16.1063C15.7716 42.9655 15.5 42.6939 15.5 42.3592V36.1747C15.5 35.84 15.7716 35.5684 16.1063 35.5684C16.4412 35.5684 16.7127 35.84 16.7127 36.1747V41.7529H20.3518C20.6866 41.7529 20.9581 42.0244 20.9581 42.3592C20.9582 42.6939 20.6865 42.9655 20.3518 42.9655Z" fill="#FF3A54"/>
</svg>
