<svg width="49" height="58" viewBox="0 0 49 58" fill="none" xmlns="http://www.w3.org/2000/svg">
<path d="M39.0469 0C40.0312 0.387408 40.8265 0.973061 41.1002 2.06265C41.1681 2.35532 41.2005 2.65508 41.197 2.9555C41.2061 4.50211 41.197 6.04872 41.197 7.68763H41.8199C43.1959 7.68763 44.5734 7.68007 45.9508 7.68763C47.7275 7.70125 48.8842 8.86348 48.8857 10.6341C48.8857 21.7317 48.8827 32.8293 48.8766 43.9269C48.8873 44.8096 48.7179 45.6852 48.3789 46.5002C48.0399 47.3152 47.5384 48.0523 46.9049 48.6666C44.3183 51.1999 41.6824 53.6843 38.997 56.1197C37.6586 57.3433 35.9061 58.0129 34.0934 57.9932C26.2853 58.0023 18.4771 58.0023 10.6689 57.9932C8.8545 57.9932 7.69779 56.8522 7.69174 55.0392C7.69174 53.4926 7.69174 51.946 7.69174 50.3071H7.06575C5.6898 50.3071 4.31233 50.3146 2.93638 50.3071C1.15973 50.295 0 49.1297 0 47.3622C0 32.562 0 17.7628 0 2.96458C0 1.42857 0.824059 0.543279 2.15314 0H39.0469ZM34.8873 55.8685V55.1618C34.8873 53.1415 34.9447 51.1197 34.8721 49.1085C34.7769 46.4754 36.6231 44.5867 39.2344 44.7033C41.3799 44.8001 43.5331 44.732 45.6832 44.7184C46.7719 44.7184 46.7552 44.9681 46.7552 43.6712C46.7552 32.7431 46.7552 21.8149 46.7552 10.8868C46.7552 9.94852 46.6146 9.80173 45.6756 9.80173H10.8852C9.95223 9.80173 9.81312 9.95306 9.81312 10.8943V54.7804C9.81312 55.7762 9.91746 55.8776 10.9214 55.8776H34.8873V55.8685ZM7.69022 48.2005V47.4061C7.69022 35.2501 7.69022 23.0932 7.69022 10.9352C7.67189 10.5592 7.69726 10.1824 7.76583 9.81232C8.09696 8.45034 9.17202 7.6846 10.7067 7.6846C19.91 7.6846 29.1133 7.6846 38.3166 7.6846H39.0726C39.0726 6.15313 39.0726 4.70187 39.0726 3.2506C39.0726 2.22306 38.9743 2.12621 37.9355 2.12621H3.30984C2.20606 2.12621 2.12593 2.20641 2.12593 3.31567V43.9754C2.12593 45.0695 2.12593 46.1651 2.12593 47.2593C2.12593 48.0008 2.31341 48.1884 3.06641 48.199C3.72717 48.2081 4.38642 48.199 5.04718 48.199L7.69022 48.2005ZM45.6968 46.9278C45.6019 46.8944 45.5042 46.8691 45.405 46.8522C43.1823 46.8522 40.9581 46.8295 38.7339 46.8522C37.6996 46.8643 37.0207 47.6225 37.0147 48.703C37.0041 50.6824 37.0147 52.6633 37.0147 54.6442C37.0269 54.7778 37.0461 54.9106 37.0722 55.0422L45.6968 46.9278Z" fill="#FF3A54"/>
<path d="M28.2218 17.4004C31.5522 17.4004 34.8816 17.4004 38.2099 17.4004C38.6835 17.4004 39.1207 17.5241 39.2847 17.9505C39.3916 18.2847 39.3777 18.6436 39.2452 18.9692C39.063 19.3942 38.6 19.4699 38.1386 19.4684C36.0757 19.4611 34.0143 19.4684 31.953 19.4684H18.5024C18.3324 19.475 18.1621 19.4721 17.9924 19.4597C17.7158 19.4394 17.4576 19.3188 17.2704 19.1226C17.0832 18.9263 16.981 18.6691 16.9845 18.4031C16.9983 18.1468 17.1104 17.9045 17.2992 17.7226C17.4881 17.5408 17.7403 17.4322 18.0076 17.4179C18.1761 17.4033 18.3476 17.4179 18.5176 17.4179L28.2218 17.4004Z" fill="#FF3A54"/>
<path d="M28.1535 24.4493C31.4897 24.4493 34.8259 24.4493 38.1621 24.4493C39.058 24.4493 39.6126 25.1543 39.2363 25.8565C39.0973 26.1151 38.7725 26.3073 38.4899 26.4477C38.3071 26.5408 38.0487 26.5083 37.8236 26.5083C31.3769 26.5083 24.9301 26.5083 18.4834 26.5083C18.3139 26.5133 18.1442 26.5064 17.9757 26.4876C17.3714 26.4034 16.9543 25.9481 16.9861 25.4056C17.0178 24.8632 17.4575 24.4478 18.086 24.4463C20.4597 24.4375 22.835 24.4463 25.2087 24.4463L28.1535 24.4493Z" fill="#FF3A54"/>
<path d="M28.1623 33.5558C24.8256 33.5558 21.4894 33.5558 18.1537 33.5558C17.2727 33.5558 16.7242 32.8155 17.1095 32.124C17.2455 31.8797 17.5462 31.6917 17.8137 31.5555C17.9996 31.4622 18.255 31.4903 18.4802 31.4903C24.945 31.4903 31.4103 31.4903 37.8761 31.4903C37.9713 31.4903 38.065 31.4903 38.1587 31.4903C38.8796 31.5273 39.3677 31.9686 39.3556 32.5593C39.3435 33.1501 38.866 33.5558 38.1149 33.5573C34.7984 33.5582 31.4808 33.5578 28.1623 33.5558Z" fill="#FF3A54"/>
<path d="M23.6238 40.599C21.841 40.599 20.0571 40.599 18.2723 40.599C17.4884 40.599 17.0045 40.2131 16.9849 39.5908C16.9653 38.9686 17.4748 38.5283 18.2753 38.5283C21.842 38.5283 25.4096 38.5283 28.9783 38.5283C29.732 38.5283 30.243 38.9539 30.2415 39.5659C30.24 40.1778 29.735 40.5931 28.9768 40.5931C27.1929 40.599 25.4086 40.601 23.6238 40.599Z" fill="#FF3A54"/>
</svg>
