<svg width="57" height="58" viewBox="0 0 57 58" fill="none" xmlns="http://www.w3.org/2000/svg">
<path d="M0 56.3425V16.9234C0.35254 16.3968 0.844907 16.2526 1.46966 16.2526C13.6157 16.2655 25.7637 16.2689 37.9137 16.263H38.6575V15.5356C38.6575 12.1054 38.6441 8.67517 38.6575 5.24348C38.6679 3.21005 39.55 1.63924 41.335 0.632193C41.8393 0.345103 42.4283 0.206764 42.9713 0H44.6417C44.6834 0.0312378 44.7221 0.0818139 44.7697 0.093714C47.41 0.786895 48.8663 2.65818 48.8678 5.3729C48.8678 8.78525 48.8678 12.1986 48.8678 15.6129V16.2645H55.6419C56.6623 16.2645 57 16.6066 57 17.6345V55.6404C57 56.6965 56.7025 57.003 55.6538 57.003C37.5478 57.003 19.4418 57.0074 1.33579 57.0164C0.737806 57.0223 0.31089 56.8408 0 56.3425ZM48.8767 26.5224V27.1471C48.8767 31.211 48.8871 35.2749 48.8603 39.3447C48.8479 39.781 48.7185 40.2059 48.4855 40.5749C47.3029 42.4149 46.0549 44.2133 44.8693 46.0504C44.4811 46.6454 44.0081 46.8775 43.3045 46.876C32.0787 46.8591 20.8524 46.8552 9.6257 46.8641C8.63352 46.8641 8.14859 46.5294 8.13818 45.8407C8.12331 45.1207 8.60972 44.7741 9.63759 44.7741H41.814C41.6563 44.5183 41.5581 44.3472 41.4495 44.1791C40.6775 43.0218 39.9174 41.8586 39.1246 40.7162C38.8022 40.2652 38.6347 39.7219 38.6471 39.1677C38.6664 35.1782 38.6575 31.1887 38.6575 27.1992V26.5402H2.06913V54.913H54.9115V26.5224H48.8767ZM38.6322 18.3901H2.06616V24.3595H38.6322V18.3901ZM43.779 43.9515C44.7221 42.5354 45.619 41.219 46.4744 39.8758C46.6669 39.5699 46.7742 39.2181 46.7853 38.8568C46.8011 29.5261 46.8056 20.1955 46.7986 10.8648V10.2504H40.7623C40.7534 10.3888 40.743 10.4795 40.743 10.5703C40.743 20.0685 40.743 29.5663 40.743 39.0636C40.7269 39.2096 40.7495 39.3574 40.8084 39.492C41.7708 40.9587 42.7541 42.4164 43.779 43.9515ZM54.9175 24.3803V18.399H48.9109V24.3803H54.9175ZM46.7927 8.11587C46.7927 7.04783 46.8135 6.03335 46.7927 5.0144C46.751 3.41979 45.6518 2.24614 44.0824 2.08103C42.5414 1.91889 41.097 2.85156 40.8605 4.41196C40.6775 5.61536 40.8233 6.86785 40.8233 8.11587H46.7927Z" fill="#FF3A54"/>
<path d="M20.3228 40.7458C16.725 40.7458 13.1262 40.7458 9.5264 40.7458C9.30566 40.7552 9.08472 40.7326 8.87041 40.6789C8.65009 40.628 8.45536 40.4997 8.32161 40.3173C8.18786 40.135 8.12396 39.9107 8.14153 39.6852C8.13301 39.4693 8.19989 39.2571 8.3307 39.085C8.46152 38.9129 8.64812 38.7917 8.85851 38.7422C9.07191 38.6851 9.29213 38.6576 9.51301 38.6603C16.7522 38.6603 23.9865 38.6603 31.2158 38.6603C32.0905 38.6603 32.6275 39.0962 32.5873 39.7566C32.5516 40.3635 32.0786 40.7473 31.3408 40.7473C27.8917 40.7473 24.4417 40.7473 20.9907 40.7473L20.3228 40.7458Z" fill="#FF3A54"/>
<path d="M20.3165 34.6262H9.57817C9.41157 34.6262 9.24348 34.6351 9.07688 34.6187C8.82452 34.599 8.58839 34.4865 8.41399 34.3031C8.23959 34.1196 8.13925 33.8781 8.13231 33.6251C8.11913 33.3816 8.19622 33.1418 8.34882 32.9516C8.50142 32.7614 8.71881 32.6341 8.95936 32.5942C9.1787 32.5594 9.40083 32.5455 9.6228 32.5526H31.156C32.0694 32.5526 32.584 32.9274 32.587 33.5938C32.59 34.2602 32.0872 34.6351 31.1664 34.6351L20.3165 34.6262Z" fill="#FF3A54"/>
<path d="M5.09009 22.3859C4.95578 22.3889 4.82221 22.3653 4.69707 22.3164C4.57192 22.2676 4.45768 22.1944 4.3609 22.1012C4.26413 22.0081 4.18674 21.8967 4.13318 21.7735C4.07962 21.6503 4.05095 21.5177 4.04883 21.3834C4.05019 21.2492 4.07798 21.1167 4.13062 20.9933C4.18325 20.8699 4.2597 20.7581 4.35558 20.6643C4.45146 20.5705 4.5649 20.4965 4.6894 20.4466C4.81391 20.3967 4.94703 20.3718 5.08116 20.3733C5.21552 20.3702 5.34918 20.3937 5.47441 20.4425C5.59964 20.4912 5.71396 20.5644 5.81078 20.6576C5.90759 20.7508 5.98498 20.8623 6.03847 20.9856C6.09196 21.1089 6.12049 21.2415 6.12242 21.3759C6.12145 21.5102 6.09393 21.6429 6.04143 21.7665C5.98893 21.89 5.9125 22.002 5.81654 22.0959C5.72058 22.1897 5.60698 22.2637 5.4823 22.3135C5.35762 22.3633 5.22432 22.3879 5.09009 22.3859Z" fill="#FF3A54"/>
<path d="M9.15429 20.3735C9.2884 20.3695 9.42195 20.3926 9.54692 20.4414C9.67189 20.4903 9.78571 20.5639 9.88155 20.6578C9.97739 20.7517 10.0533 20.864 10.1047 20.9879C10.1561 21.1118 10.1819 21.2449 10.1807 21.3791C10.1817 21.5131 10.1557 21.646 10.1043 21.7698C10.0528 21.8935 9.97683 22.0056 9.88101 22.0994C9.78519 22.1931 9.67144 22.2665 9.54657 22.3153C9.4217 22.3641 9.28828 22.3871 9.15429 22.3831C9.02053 22.3863 8.88749 22.3626 8.76305 22.3134C8.63862 22.2643 8.52532 22.1906 8.42988 22.0968C8.33444 22.003 8.2588 21.8911 8.20744 21.7675C8.15608 21.644 8.13004 21.5114 8.13088 21.3776C8.13004 21.2438 8.15608 21.1113 8.20746 20.9878C8.25884 20.8644 8.3345 20.7525 8.42997 20.6588C8.52543 20.5652 8.63874 20.4916 8.76316 20.4426C8.88759 20.3936 9.0206 20.3701 9.15429 20.3735Z" fill="#FF3A54"/>
<path d="M13.2501 22.384C13.1164 22.3913 12.9826 22.3711 12.8569 22.3247C12.7313 22.2782 12.6166 22.2065 12.5198 22.1139C12.4231 22.0213 12.3463 21.9098 12.2944 21.7864C12.2424 21.663 12.2163 21.5302 12.2178 21.3963C12.2119 21.2629 12.2333 21.1297 12.2808 21.0049C12.3283 20.8801 12.4008 20.7664 12.4938 20.6707C12.5869 20.5749 12.6986 20.4993 12.822 20.4483C12.9454 20.3974 13.0779 20.3722 13.2114 20.3743C13.3455 20.3675 13.4795 20.3879 13.6054 20.4345C13.7313 20.481 13.8464 20.5526 13.9438 20.645C14.0412 20.7373 14.1187 20.8485 14.1718 20.9718C14.2249 21.0951 14.2524 21.2278 14.2527 21.362C14.2573 21.4959 14.2347 21.6292 14.1862 21.754C14.1377 21.8789 14.0644 21.9925 13.9706 22.0881C13.8768 22.1837 13.7646 22.2592 13.6407 22.3101C13.5169 22.3609 13.384 22.3861 13.2501 22.384Z" fill="#FF3A54"/>
</svg>
