<svg width="57" height="57" viewBox="0 0 57 57" fill="none" xmlns="http://www.w3.org/2000/svg">
<path d="M56.981 47.0961C56.6789 47.7651 56.4704 48.4987 56.0568 49.0873C54.4792 51.325 51.2426 51.6516 49.2056 49.8176C48.7095 49.3716 48.2513 48.8855 47.7785 48.4128C40.9486 41.5829 34.1197 34.751 27.292 27.9174C27.1381 27.7624 27.0389 27.5528 26.894 27.3398C25.6441 28.5885 24.5248 29.6957 23.4288 30.8251C23.3341 30.9232 23.3385 31.1952 23.3943 31.3513C24.2126 33.6057 23.0286 35.9158 20.7185 36.4498C19.3137 36.7742 18.0917 36.3617 17.0693 35.3349C14.9138 33.1653 12.7517 31.0012 10.5828 28.8427C9.41659 27.6754 8.22474 26.5326 7.08864 25.3352C5.03943 23.1756 6.03617 19.6848 8.9238 19.0371C9.63957 18.8776 10.4512 19.0783 11.2049 19.1954C11.4914 19.2389 11.662 19.2567 11.8739 19.0404C16.2465 14.6551 20.6256 10.2765 25.0109 5.90451C25.2439 5.67261 25.2762 5.49311 25.1569 5.18428C24.8392 4.38549 24.8046 3.50197 25.059 2.68081C25.3134 1.85965 25.8414 1.15039 26.555 0.67111C28.0267 -0.326737 29.9711 -0.220819 31.2589 1.04907C34.7039 4.44658 38.1252 7.86862 41.5227 11.3152C42.7793 12.5907 42.8796 14.5696 41.8851 16.0235C40.8906 17.4773 39.0554 18.0381 37.3608 17.4193C37.1935 17.358 36.9003 17.358 36.7922 17.4617C35.6683 18.5398 34.5724 19.6436 33.424 20.7853C33.5823 20.9547 33.7128 21.1008 33.851 21.239C40.8118 28.2006 47.7759 35.1595 54.7434 42.1158C55.7412 43.1092 56.6577 44.1226 56.9732 45.5397L56.981 47.0961ZM13.437 20.7964C16.2109 23.5714 19.0205 26.381 21.8111 29.1705L35.1599 15.8239L26.7858 7.45202L13.437 20.7964ZM33.1642 30.6077C33.23 30.6768 33.3058 30.7582 33.3872 30.8306C39.0718 36.5167 44.7579 42.2028 50.4454 47.8888C50.562 48.0072 50.6852 48.1188 50.8144 48.2233C51.1314 48.4735 51.5058 48.6404 51.9038 48.7089C52.3017 48.7773 52.7105 48.7452 53.0928 48.6153C53.4751 48.4854 53.8189 48.262 54.0927 47.9653C54.3666 47.6686 54.5619 47.3081 54.6609 46.9166C54.9106 45.9333 54.5817 45.1428 53.8916 44.4526C48.2174 38.7815 42.544 33.1088 36.8713 27.4346C36.7699 27.332 36.6573 27.2417 36.5893 27.1804L33.1642 30.6077ZM38.7154 15.5206C39.4345 15.398 39.9084 15.0847 40.1648 14.4871C40.448 13.8349 40.2885 13.2406 39.8024 12.7534C36.477 9.41761 33.1457 6.08736 29.8084 2.76269C29.1238 2.08148 28.2051 2.10712 27.5785 2.75377C26.9765 3.37366 26.9776 4.27897 27.6376 4.94234C30.9601 8.28039 34.2933 11.6088 37.6373 14.9275C37.9193 15.1984 38.3531 15.3211 38.7154 15.5151V15.5206ZM21.4008 32.6479C21.4432 32.2176 21.1109 31.8263 20.7318 31.4505C17.6495 28.3711 14.5675 25.2903 11.4859 22.2079C11.2573 21.9647 11.0166 21.7332 10.7645 21.5144C10.5714 21.3546 10.3419 21.2449 10.0963 21.195C9.85067 21.1451 9.59653 21.1566 9.3564 21.2284C9.11626 21.3001 8.89754 21.43 8.7196 21.6065C8.54165 21.783 8.40997 22.0007 8.33624 22.2402C8.0943 22.9839 8.42765 23.5224 8.92825 24.0241C12.1303 27.2202 15.3305 30.4185 18.5288 33.619C18.6798 33.7826 18.848 33.9295 19.0305 34.0572C19.2597 34.2183 19.5307 34.3095 19.8107 34.3198C20.0907 34.3301 20.3677 34.259 20.6081 34.1152C21.1232 33.8231 21.3829 33.3804 21.4008 32.6424V32.6479ZM31.435 28.8282L34.724 25.5426L31.8141 22.6438L28.5262 25.9206L31.435 28.8282Z" fill="#FF3A54"/>
<path d="M0.788438 57C0.212028 56.7135 -0.00760419 56.2608 0.000200205 55.6075C0.0269581 53.1792 0.00800188 50.752 0.0113466 48.3238C0.0113466 46.3916 1.40833 44.9902 3.3271 44.979C3.82658 44.979 4.33053 44.979 4.90694 44.979C4.90694 44.2967 4.90694 43.6411 4.90694 42.9789C4.90694 40.4647 6.61387 38.7422 9.1135 38.7422H33.1956C35.6975 38.7422 37.4 40.4569 37.4033 42.9722V44.979C37.9608 44.979 38.4681 44.979 38.9809 44.979C40.8986 44.9857 42.2956 46.3883 42.2978 48.3182C42.2978 50.7275 42.2811 53.138 42.3101 55.5473C42.319 56.2162 42.1306 56.7012 41.5207 56.9967L0.788438 57ZM40.0668 54.7635V54.1704C40.0668 52.3337 40.0668 50.4978 40.0668 48.6627C40.0668 47.5478 39.7257 47.2077 38.603 47.2077C34.5424 47.2077 30.4816 47.2077 26.4203 47.2077C26.1995 47.2193 25.9783 47.1959 25.7647 47.1386C25.5169 47.0516 25.3087 46.8784 25.1781 46.6505C25.0475 46.4227 25.0033 46.1555 25.0534 45.8977C25.1415 45.3559 25.5908 44.9902 26.2107 44.989C28.9928 44.9831 31.7741 44.9831 34.5547 44.989H35.1713V43.242C35.1713 41.6443 34.5023 40.9765 32.9113 40.9765H9.37997C9.23168 40.9765 9.0834 40.9765 8.934 40.9765C8.02312 41.0289 7.29842 41.5785 7.19139 42.4738C7.09328 43.2877 7.1702 44.1216 7.1702 44.9801H7.80683C10.5503 44.9801 13.2944 44.9801 16.0393 44.9801C16.8198 44.9801 17.2959 45.4629 17.2513 46.1753C17.2111 46.8164 16.7417 47.201 15.9814 47.2021C11.8465 47.2021 7.71131 47.2021 3.57572 47.2021C2.61021 47.2021 2.23783 47.5835 2.23783 48.5534C2.23783 50.4636 2.23783 52.3735 2.23783 54.283C2.23783 54.4413 2.2579 54.5985 2.27016 54.7579L40.0668 54.7635Z" fill="#FF3A54"/>
<path d="M21.1684 44.984C21.3163 44.9834 21.4627 45.0128 21.5988 45.0705C21.735 45.1282 21.8579 45.213 21.9603 45.3196C22.0627 45.4263 22.1424 45.5526 22.1944 45.691C22.2465 45.8293 22.2699 45.9768 22.2633 46.1245C22.2619 46.2725 22.2305 46.4186 22.171 46.5541C22.1115 46.6896 22.0252 46.8116 21.9172 46.9128C21.8093 47.0139 21.6819 47.0922 21.5429 47.1428C21.4038 47.1934 21.256 47.2153 21.1082 47.2071C20.8189 47.2007 20.544 47.0796 20.3439 46.8706C20.1439 46.6615 20.035 46.3815 20.0413 46.0922C20.0389 45.9444 20.0666 45.7977 20.1227 45.6609C20.1787 45.5242 20.262 45.4002 20.3674 45.2966C20.4728 45.1929 20.5982 45.1118 20.7358 45.0581C20.8735 45.0043 21.0207 44.9791 21.1684 44.984Z" fill="#FF3A54"/>
</svg>
