<svg width="50" height="49" viewBox="0 0 50 49" fill="none" xmlns="http://www.w3.org/2000/svg">
<g clip-path="url(#clip0_2166_25748)">
<path d="M17.971 36.2879H17.3208C12.9871 36.2879 8.65336 36.2879 4.31964 36.2879C2.13656 36.2879 0.460389 34.8922 0.0521597 32.7616C0.0129143 32.5128 -0.00338974 32.2609 0.00348203 32.0091C0.00348203 22.7544 0.00348203 13.5001 0.00348203 4.24629C0.00348203 1.85222 1.80402 0.00938392 4.19392 0.00803286C18.3711 -7.34553e-05 32.5483 -7.34553e-05 46.7255 0.00803286C48.599 0.00803286 50.0035 1.42799 50.0048 3.29244C50.0048 12.8831 50.0048 22.4756 50.0048 32.0699C50.0108 32.6254 49.9058 33.1765 49.6961 33.691C49.4863 34.2055 49.176 34.673 48.7833 35.0662C48.3905 35.4593 47.9233 35.7702 47.4089 35.9807C46.8944 36.1912 46.3432 36.297 45.7874 36.2919C41.3861 36.3081 36.9847 36.2919 32.5834 36.2919H31.863C31.9981 37.3728 32.0536 38.4131 32.2685 39.4156C32.5307 40.6207 32.9349 41.7961 33.2715 42.985C33.354 43.2782 33.531 43.3593 33.8271 43.3525C34.7003 43.3354 35.5735 43.3354 36.4468 43.3525C37.1846 43.3729 37.8854 43.6797 38.4007 44.2078C38.916 44.736 39.2052 45.4439 39.207 46.1816C39.2068 46.9207 38.9158 47.6301 38.3968 48.1566C37.8779 48.6831 37.1726 48.9845 36.4332 48.9959C28.8084 49.0058 21.1823 49.0058 13.5548 48.9959C12.0327 48.9959 10.7945 47.6908 10.7999 46.1587C10.8061 45.4211 11.0994 44.7148 11.6177 44.1897C12.136 43.6646 12.8386 43.3619 13.5764 43.3458C14.4497 43.3323 15.3243 43.3296 16.1961 43.3458C16.3107 43.3627 16.4275 43.3366 16.5238 43.2725C16.6202 43.2083 16.6894 43.1107 16.7179 42.9986C17.5318 40.854 17.9562 38.5815 17.971 36.2879ZM48.5814 27.9113V3.59238C48.5814 2.15486 47.8488 1.42259 46.4186 1.42259H4.49131C2.57047 1.42259 1.42147 2.56963 1.42147 4.49218C1.42147 12.1175 1.42147 19.742 1.42147 27.3655V27.9059L48.5814 27.9113ZM1.42418 29.3664C1.42418 30.3324 1.41202 31.239 1.43229 32.1442C1.44581 32.4285 1.50091 32.7094 1.59585 32.9778C2.01354 34.2194 3.03682 34.8531 4.6008 34.8531C18.2084 34.8531 31.8125 34.8531 45.4129 34.8531C45.6646 34.8519 45.9159 34.8365 46.1659 34.8071C47.2729 34.6801 48.3287 33.8614 48.4517 32.7805C48.5868 31.6632 48.4814 30.5202 48.4814 29.3718L1.42418 29.3664ZM30.4504 36.3189H19.4417C19.3484 38.7211 18.974 41.0571 18.144 43.3161H31.8386C31.0032 41.0709 30.5345 38.7061 30.4504 36.3122V36.3189ZM25.0069 44.7657H17.6533C16.3611 44.7657 15.0674 44.7576 13.7751 44.7657C12.8708 44.7738 12.2666 45.348 12.2639 46.1681C12.2639 47.0423 12.8884 47.5854 13.9157 47.5867H36.075C36.2104 47.5912 36.3458 47.5867 36.4806 47.5732C36.8356 47.5396 37.1642 47.3713 37.3988 47.1029C37.6334 46.8345 37.7561 46.4864 37.7417 46.1303C37.7201 45.3007 37.101 44.7644 36.1399 44.7644C32.428 44.7572 28.717 44.7554 25.0069 44.759V44.7657Z" fill="#E6001E"/>
<path d="M28.8698 18.5574C28.9523 19.5856 28.9658 19.5978 29.9147 19.5978C34.0979 19.5978 38.2812 19.5978 42.4644 19.5978C42.7829 19.5885 43.1013 19.6226 43.4106 19.6991C44.1771 19.922 44.6583 20.7421 44.5447 21.5581C44.4856 21.9431 44.2942 22.2954 44.0033 22.5545C43.7125 22.8137 43.3404 22.9634 42.951 22.9781C42.386 22.993 41.8196 22.9781 41.2181 22.9781C41.5236 24.0238 41.3776 24.8993 40.4787 25.5221C40.1471 25.7572 39.7499 25.8822 39.3433 25.8793C38.9367 25.8764 38.5414 25.7457 38.2131 25.5059C37.4548 24.9804 37.2264 24.2143 37.4886 22.9794H32.7331C33.0319 24.067 32.8683 24.9817 31.8761 25.5924C31.5368 25.7997 31.142 25.8978 30.7451 25.8737C30.3481 25.8495 29.9682 25.7042 29.6565 25.4573C28.8603 24.8101 28.663 23.9846 29.0226 23.0024C28.7806 22.9389 28.5535 22.8889 28.3318 22.8227C26.7395 22.3417 25.6864 20.9745 25.5067 19.2654C25.1998 16.3471 24.8524 13.4343 24.5253 10.5173C24.4081 9.46711 24.2968 8.41644 24.1914 7.36532C24.1116 6.56955 24.0562 6.50605 23.2627 6.44255C22.8324 6.40085 22.4331 6.20024 22.1428 5.87993C21.8526 5.55962 21.6924 5.14264 21.6934 4.7105C21.7245 3.76476 22.4936 3.05816 23.4952 3.0433C24.5056 3.03023 25.4832 3.40167 26.2297 4.08232C26.9762 4.76297 27.4358 5.70189 27.5154 6.70871C27.5316 6.90732 27.5654 7.10457 27.5992 7.35586H41.5141C43.074 7.35586 43.854 8.32727 43.5201 9.84991C43.0213 12.1224 42.5171 14.3935 42.0237 16.6673C41.7818 17.7792 41.091 18.5791 39.6919 18.5588C36.2828 18.5183 32.8724 18.5453 29.4619 18.5453L28.8698 18.5574ZM36.0084 21.5703H40.6436C41.333 21.5703 42.0224 21.5852 42.7091 21.5568C42.8442 21.55 42.9794 21.3771 43.1065 21.2798C42.9828 21.1968 42.8516 21.1258 42.7145 21.0677C42.5987 21.0485 42.4808 21.0462 42.3644 21.0609H29.816C28.2737 21.0609 27.5289 20.3665 27.4248 18.8317C27.4248 18.7317 27.4153 18.6304 27.4032 18.5304C26.9706 14.6826 26.538 10.8339 26.1055 6.98432C25.9419 5.51843 24.9822 4.53216 23.6723 4.53351C23.5088 4.53351 23.3465 4.66862 23.1843 4.73347C23.3438 4.83209 23.4979 5.00368 23.6656 5.01584C24.7943 5.12933 25.4891 5.81836 25.6013 6.96C25.704 7.99491 25.8162 9.02847 25.9311 10.0674C26.2596 12.9992 26.607 15.9296 26.9165 18.8641C27.1098 20.7016 28.0263 21.5743 29.8674 21.5757L36.0084 21.5703ZM37.6697 10.57C37.7292 9.9634 37.7846 9.40271 37.8428 8.82446H31.9126C31.9775 9.43108 32.0383 9.99177 32.1005 10.57H37.6697ZM32.2627 12.0562C32.333 12.6425 32.3979 13.2005 32.4682 13.7707H37.2885C37.3561 13.1884 37.4237 12.6331 37.4886 12.0562H32.2627ZM37.129 15.2528H32.6277L32.844 17.124H36.9168L37.129 15.2528ZM31.1705 15.2528H28.4859C28.5535 15.8918 28.6211 16.4984 28.6833 17.1172H31.3787C31.3084 16.4768 31.2408 15.8648 31.1719 15.2514L31.1705 15.2528ZM39.108 10.5943C39.9772 10.5943 40.8126 10.5943 41.6493 10.5849C41.7084 10.5736 41.7638 10.5482 41.8109 10.5108C41.858 10.4733 41.8953 10.4251 41.9196 10.3701C42.017 10.0336 42.0751 9.68643 42.144 9.34191C42.2049 9.03793 42.0778 8.815 41.775 8.80149C40.9639 8.77717 40.1529 8.79339 39.3229 8.79339C39.2486 9.41487 39.1823 9.97826 39.1093 10.5957L39.108 10.5943ZM30.4365 8.81635H27.7546C27.8222 9.42703 27.8898 9.99988 27.9493 10.5552H30.6528C30.5784 9.94854 30.5095 9.3865 30.4378 8.815L30.4365 8.81635ZM28.3142 13.7599H30.9934C30.9312 13.1721 30.8745 12.6304 30.8163 12.071H28.1128C28.1831 12.6506 28.248 13.1938 28.3156 13.7585L28.3142 13.7599ZM41.5493 12.0373C40.722 12.0373 39.9704 12.0305 39.2188 12.0454C39.1174 12.0454 38.9485 12.1548 38.9309 12.2305C38.8606 12.7358 38.8255 13.2451 38.7741 13.8004C39.546 13.8004 40.2462 13.8085 40.9464 13.7909C41.0058 13.7796 41.0616 13.7539 41.1087 13.7159C41.1559 13.678 41.193 13.629 41.2167 13.5734C41.3384 13.0911 41.4303 12.602 41.5506 12.0359L41.5493 12.0373ZM38.3713 17.1415C38.9309 17.1415 39.4067 17.1929 39.8582 17.1213C39.9901 17.096 40.1149 17.0424 40.2241 16.9643C40.3334 16.8861 40.4243 16.7853 40.4908 16.6687C40.6747 16.2336 40.7328 15.7446 40.8504 15.246H38.5903L38.3713 17.1415ZM31.0326 24.4291C31.134 24.294 31.3908 24.086 31.4219 23.8549C31.4638 23.5293 31.211 23.2902 30.8542 23.2983C30.782 23.294 30.7098 23.305 30.6422 23.3306C30.5747 23.3562 30.5133 23.3959 30.4622 23.447C30.4111 23.498 30.3714 23.5594 30.3458 23.6269C30.3202 23.6944 30.3091 23.7666 30.3135 23.8387C30.3054 24.1981 30.4933 24.3967 31.034 24.4278L31.0326 24.4291ZM38.7173 23.7266C38.8322 24.1954 38.9944 24.417 39.3635 24.4156C39.7001 24.4156 39.9042 24.2305 39.9177 23.8955C39.9366 23.5347 39.7203 23.278 39.3865 23.3145C39.1526 23.3375 38.9404 23.5793 38.7187 23.7252L38.7173 23.7266Z" fill="#E6001E"/>
<path d="M12.5719 25.209C11.189 25.2009 9.28441 24.9901 7.48658 24.1903C7.33387 24.1223 7.18495 24.0461 7.0405 23.962C5.74957 23.2122 5.27511 22.2462 5.46976 20.7708C5.95099 17.123 8.55852 14.4114 12.2285 13.9628C16.7339 13.4116 20.212 16.7082 20.7919 20.5479C21.1163 22.6893 20.0241 23.6891 18.5466 24.2998C16.8123 25.0158 14.9807 25.2117 12.5719 25.209ZM13.1802 23.7985C14.8293 23.7215 16.5203 23.631 18.1019 22.9217C19.3185 22.3813 19.5321 21.984 19.3482 20.6938C18.9211 17.6945 16.2716 15.3747 13.2221 15.3301C11.7413 15.324 10.3051 15.8364 9.16301 16.7785C8.02092 17.7206 7.24506 19.0328 6.9702 20.4871C6.69985 21.9732 6.93641 22.4137 8.3544 23C9.88458 23.6323 11.508 23.7323 13.1802 23.7985Z" fill="#E6001E"/>
<path d="M9.18555 9.55652C9.18798 8.50595 9.60449 7.49864 10.3448 6.75287C11.0852 6.00709 12.0897 5.58292 13.1408 5.57227C14.1836 5.5817 15.1813 5.99863 15.9205 6.73389C16.6596 7.46914 17.0816 8.46432 17.096 9.50653C17.1217 11.6601 15.3036 13.4921 13.1408 13.4908C12.0985 13.4796 11.1018 13.0622 10.363 12.3273C9.62418 11.5924 9.2017 10.5982 9.18555 9.55652ZM13.1651 7.04221C12.8382 7.03465 12.513 7.09248 12.2088 7.21233C11.9045 7.33217 11.6273 7.5116 11.3934 7.74006C11.1596 7.96852 10.9738 8.24141 10.8469 8.54268C10.7201 8.84395 10.6548 9.16752 10.6549 9.49437C10.6454 9.82595 10.7031 10.156 10.8246 10.4647C10.9461 10.7734 11.1289 11.0543 11.3619 11.2905C11.595 11.5266 11.8734 11.7132 12.1805 11.839C12.4876 11.9648 12.817 12.0271 13.1489 12.0222C13.4765 12.0265 13.8016 11.9654 14.1053 11.8426C14.4089 11.7197 14.685 11.5374 14.9172 11.3065C15.1495 11.0756 15.3333 10.8007 15.4579 10.4979C15.5826 10.1951 15.6454 9.87043 15.6429 9.54301C15.6492 9.21491 15.5896 8.88887 15.4677 8.58419C15.3457 8.27951 15.1638 8.00239 14.9328 7.76921C14.7018 7.53604 14.4263 7.35155 14.1227 7.22668C13.819 7.1018 13.4934 7.03908 13.1651 7.04221Z" fill="#E6001E"/>
<path d="M24.997 32.8257C24.4117 32.8257 23.8251 32.8406 23.2398 32.8257C22.6545 32.8109 22.3665 32.5366 22.3814 32.0678C22.3949 31.63 22.7018 31.3733 23.2452 31.3693C24.4167 31.3639 25.5882 31.3639 26.7597 31.3693C27.3004 31.3693 27.6073 31.6395 27.6181 32.0718C27.6289 32.5042 27.3477 32.8028 26.807 32.8217C26.2001 32.8419 25.5999 32.8257 24.997 32.8257Z" fill="#E6001E"/>
</g>
<defs>
<clipPath id="clip0_2166_25748">
<rect width="50" height="49" fill="white"/>
</clipPath>
</defs>
</svg>
