<svg width="60" height="58" viewBox="0 0 60 58" fill="none" xmlns="http://www.w3.org/2000/svg">
<path d="M34.6444 51.262C34.0138 54.4048 32.3374 56.604 29.3293 57.578C26.412 58.5234 23.7805 57.8645 21.5509 55.7597C21.4077 55.6137 21.2356 55.4993 21.0456 55.4238C20.8557 55.3484 20.6521 55.3135 20.4479 55.3216C15.3716 55.3317 10.2937 55.3485 5.21739 55.3064C2.59433 55.2845 0.497555 53.1022 0.492511 50.4717C0.479059 45.0882 0.479059 39.7042 0.492511 34.3195C0.492511 31.3756 2.62121 29.222 5.56542 29.2152C11.0621 29.2034 16.5587 29.2152 22.0554 29.2152H22.8961V28.5159C22.8961 26.6622 22.8961 24.8086 22.8961 22.9633C22.8961 19.1835 25.5864 16.3912 29.3529 16.3693C37.1357 16.33 44.9191 16.33 52.7031 16.3693C55.992 16.3828 58.4788 18.5044 59.0824 21.6978C59.1343 22.009 59.1569 22.3244 59.1497 22.6398C59.1497 30.0831 59.1783 37.5281 59.1497 44.9731C59.1329 48.5119 56.3383 51.2502 52.7955 51.2604C47.0046 51.2772 41.2137 51.2604 35.4228 51.2604L34.6444 51.262ZM49.2931 18.3747V19.288C49.2931 24.8591 49.2931 30.4308 49.2931 36.003C49.2931 36.5557 49.2073 37.0562 48.6205 37.3073C48.0337 37.5584 47.6671 37.2298 47.2922 36.8675C46.5075 36.1058 45.7228 35.3486 44.9382 34.5959C43.6535 33.3641 42.3655 32.1356 41.0557 30.8886C40.8875 31.0419 40.7362 31.1582 40.6017 31.2846C38.7073 33.1012 36.8123 34.9178 34.9167 36.7344C34.743 36.9163 34.5528 37.0816 34.3484 37.2281C34.2092 37.3219 34.0481 37.3781 33.8809 37.3912C33.7136 37.4044 33.5458 37.3741 33.3937 37.3033C33.2415 37.2325 33.1102 37.1235 33.0123 36.987C32.9145 36.8504 32.8535 36.6908 32.8351 36.5237C32.8113 36.2937 32.8034 36.0623 32.8116 35.8311C32.8116 30.3027 32.8116 24.7732 32.8116 19.2425V18.4488C31.4983 18.4488 30.2642 18.4269 29.0317 18.4488C27.0274 18.496 25.1812 20.0463 25.0517 22.0432C24.892 24.5137 24.9592 26.9993 24.9474 29.4781C24.9595 29.5656 24.9898 29.6496 25.0364 29.7245C25.0831 29.7994 25.145 29.8636 25.2182 29.9129C26.9702 31.015 27.663 32.6411 27.6462 34.6583C27.6243 37.0765 27.6462 39.4946 27.6327 41.9128C27.6327 42.3358 27.7101 42.5161 28.196 42.5869C30.0404 42.8611 31.716 43.8161 32.8939 45.2646C33.8153 46.3885 34.4166 47.741 34.6343 49.1792C34.8444 49.1893 35.0109 49.2045 35.1774 49.2045C40.9447 49.2045 46.7126 49.2045 52.4811 49.2045C52.7535 49.2045 53.0259 49.1809 53.2966 49.1539C54.3393 49.0525 55.3077 48.5681 56.0154 47.7941C56.7232 47.0201 57.1203 46.0111 57.1303 44.9613C57.1438 37.5185 57.1438 30.0752 57.1303 22.6314C57.1303 20.7254 55.8104 18.9409 53.9356 18.6123C52.4525 18.3578 50.9056 18.4454 49.2931 18.3747ZM7.74292 31.2913C6.94928 31.2913 6.23968 31.2913 5.52843 31.2913C3.7007 31.3183 2.51529 32.508 2.51193 34.3566C2.50408 39.6368 2.50408 44.9169 2.51193 50.197C2.51193 52.0895 3.74444 53.3011 5.6327 53.3028C10.1636 53.3028 14.6946 53.3028 19.2255 53.3028C19.4021 53.3028 19.5786 53.2808 19.7804 53.2674C19.7659 53.1671 19.7446 53.068 19.7165 52.9708C18.0216 48.4984 20.7775 43.689 25.1526 42.7065C25.5057 42.6273 25.5646 42.4453 25.5629 42.1336C25.5629 39.4373 25.5629 36.7512 25.5494 34.0584C25.541 32.8046 24.7339 31.6705 23.5065 31.4329C22.4976 31.2391 21.4467 31.3065 20.3689 31.2644V32.0884C20.3689 36.0204 20.3689 39.9524 20.3689 43.8845C20.3689 44.4321 20.2461 44.877 19.6963 45.1112C19.1465 45.3455 18.7782 45.0506 18.4167 44.7034C17.5087 43.8294 16.5997 42.9571 15.6894 42.0864L14.0618 40.5175C13.8936 40.6776 13.7658 40.7888 13.6464 40.9051C12.3103 42.1802 10.9735 43.4564 9.63623 44.7338C9.27136 45.0843 8.88964 45.3522 8.3499 45.1028C7.81016 44.8534 7.7261 44.4119 7.73955 43.8996C7.73955 43.7311 7.73955 43.5626 7.73955 43.3941V31.2913H7.74292ZM47.1728 33.9168V18.4808H34.8781V33.8983C35.1084 33.696 35.2816 33.5612 35.4397 33.4062C36.9563 31.9547 38.4696 30.5016 39.9796 29.0467C40.8623 28.2041 41.1919 28.2041 42.0831 29.0467C43.7544 30.6493 45.4207 32.2418 47.1728 33.9168ZM26.94 44.5434C25.435 44.5434 23.9916 45.1419 22.9266 46.2076C21.8617 47.2734 21.2623 48.7191 21.26 50.2274C21.2679 51.7355 21.8669 53.1802 22.9279 54.2498C23.9888 55.3194 25.4267 55.9283 26.9315 55.9451C27.6821 55.9451 28.4253 55.7963 29.1182 55.5073C29.8112 55.2184 30.4403 54.7949 30.9693 54.2613C31.4983 53.7276 31.9168 53.0944 32.2006 52.3981C32.4845 51.7017 32.6281 50.956 32.6233 50.2038C32.6262 49.4566 32.4809 48.7163 32.1959 48.0259C31.9109 47.3355 31.4918 46.7088 30.963 46.1821C30.4342 45.6555 29.8063 45.2394 29.1156 44.958C28.425 44.6767 27.6854 44.5358 26.94 44.5434ZM9.84978 31.325V41.714C11.01 40.6001 12.0945 39.5519 13.1874 38.5122C13.8297 37.9022 14.2736 37.9022 14.9244 38.5122C15.6575 39.2031 16.3771 39.9058 17.1102 40.6001C17.4802 40.954 17.8551 41.3011 18.3024 41.7207V31.325H9.84978Z" fill="#E6001E"/>
<path d="M24.937 6.01759C21.8043 4.66183 18.4288 3.96001 15.0165 3.95497C15.0165 4.292 15.0367 4.58184 15.0165 4.86832C14.9459 5.71089 14.2296 6.14735 13.4914 5.74628C12.3705 5.1385 11.2646 4.49815 10.1739 3.82521C9.45596 3.3837 9.45933 2.50405 10.1739 2.06254C11.2433 1.40534 12.3346 0.778461 13.4359 0.171807C14.2313 -0.268017 14.9627 0.171808 15.0182 1.09021C15.035 1.35815 15.0182 1.62609 15.0182 1.77607C16.8358 2.00357 18.5644 2.16197 20.2727 2.45013C22.4704 2.81581 24.5587 3.57412 26.5781 4.50433C26.7486 4.59423 26.939 4.63937 27.1316 4.63554C27.3242 4.63171 27.5127 4.57903 27.6794 4.48242C30.6388 3.05678 33.7747 2.30184 37.0418 2.0676C37.2099 2.05412 37.378 2.04064 37.5462 2.01536C37.6471 2.00019 37.7446 1.96481 37.8925 1.92605C37.8925 1.62946 37.8757 1.33625 37.8925 1.0464C37.9463 0.213936 38.6761 -0.247795 39.4058 0.144845C40.5515 0.75824 41.6752 1.40871 42.7771 2.09625C43.4649 2.52428 43.4497 3.38707 42.7654 3.8151C41.6792 4.48916 40.5795 5.12446 39.4479 5.73617C38.6811 6.15577 37.943 5.71426 37.8875 4.8481C37.8724 4.61892 37.8875 4.38974 37.8875 4.06113C34.9873 4.17851 32.1301 4.80595 29.4466 5.9148C29.6467 6.04792 29.783 6.1524 29.941 6.24003C32.8752 7.99998 35.6263 10.0498 38.1532 12.3588C38.55 12.7144 38.7652 13.1138 38.5668 13.6362C38.3011 14.3321 37.4974 14.4669 36.8517 13.9294C35.7722 13.0295 34.7516 12.0454 33.6065 11.2331C31.6914 9.88501 29.6938 8.64811 27.7434 7.34549C27.3297 7.06744 27.0119 7.11799 26.6101 7.37414C23.1143 9.60022 20.5804 12.6672 18.7157 16.3341C17.1772 19.3673 16.1733 22.5691 15.4654 25.8889C15.4469 25.9698 15.4352 26.0574 15.415 26.1349C15.23 26.8595 14.7542 27.2488 14.1959 27.1359C13.5553 27.0044 13.2728 26.4517 13.4359 25.6698C14.3254 21.371 15.7008 17.2559 17.9758 13.4761C19.6598 10.6275 21.9227 8.16556 24.6175 6.25014C24.7016 6.19285 24.784 6.1305 24.937 6.01759Z" fill="#E6001E"/>
<path d="M25.9218 51.2616C25.5166 51.2616 25.1853 51.2616 24.8558 51.2616C24.126 51.2481 23.6787 50.8639 23.6552 50.2505C23.6317 49.6371 24.0705 49.2394 24.807 49.2124C25.1567 49.2006 25.5081 49.2124 25.9235 49.2124C25.9235 48.7473 25.9067 48.353 25.9235 47.9621C25.9554 47.3436 26.3977 46.9139 26.9609 46.924C27.5242 46.9341 27.9093 47.3352 27.9412 47.9351C27.9631 48.3277 27.9412 48.7221 27.9412 49.2108C28.4002 49.2108 28.792 49.1939 29.1804 49.2108C29.8328 49.2461 30.2263 49.6405 30.2212 50.2218C30.2162 50.8032 29.8127 51.2093 29.1737 51.243C28.7987 51.2633 28.4221 51.243 27.9479 51.243C27.9479 51.6508 27.958 52.0199 27.9479 52.3873C27.9244 53.0832 27.5377 53.5146 26.9492 53.5197C26.3607 53.5247 25.9403 53.0579 25.9184 52.3401C25.9151 52.0266 25.9218 51.6913 25.9218 51.2616Z" fill="#E6001E"/>
</svg>
