<svg width="57" height="59" viewBox="0 0 57 59" fill="none" xmlns="http://www.w3.org/2000/svg">
<path d="M21.0701 40.5149L23.4885 44.0946C25.0788 46.4479 26.6798 48.795 28.258 51.1559C29.4083 52.8769 29.4129 54.9453 28.3084 56.5285C26.744 58.77 23.6473 59.1558 21.533 57.3445C21.0863 56.9588 20.6918 56.5161 20.3597 56.0278C17.8135 52.2951 15.278 48.5551 12.7532 44.8081C12.6371 44.6366 12.5119 44.4713 12.3774 44.2845C11.0706 45.1375 9.52752 45.5535 7.96998 45.4726C4.06363 45.3011 1.59942 42.1884 1.01278 39.4539C0.368089 36.4484 1.5322 33.5608 4.0682 31.8108C5.57453 30.7742 7.1053 29.7714 8.5994 28.718C8.95152 28.4715 9.24006 28.1445 9.44117 27.7641C12.3326 21.9297 15.2108 16.0876 18.0758 10.2379C18.9741 8.41287 20.7905 7.46666 22.8209 7.69326C25.5005 7.99948 27.7508 9.25802 29.7689 10.9085C35.6246 15.7039 39.6562 21.7348 41.6407 29.0763C42.2121 31.1907 42.4413 33.3633 41.8088 35.5175C41.2603 37.3839 40.1451 38.7466 38.1423 39.1018C37.1355 39.2794 36.0967 39.2809 35.0716 39.3651C31.9224 39.6223 28.7733 39.8775 25.6242 40.1307C24.4479 40.2256 23.27 40.3067 22.0937 40.3971C21.782 40.4307 21.4704 40.4721 21.0701 40.5149ZM19.4522 14.009C19.524 14.7454 19.5485 15.416 19.6631 16.0698C19.7904 16.8206 19.9649 17.5626 20.1856 18.2914C21.9501 23.9778 25.117 28.7869 29.3992 32.8703C31.1163 34.5085 33.0122 35.9324 35.3191 36.6475C35.8675 36.8205 36.4878 36.9766 37.0393 36.894C38.4142 36.6873 39.178 35.738 39.5416 34.4442C39.9786 32.8963 39.8136 31.3407 39.4912 29.8005C38.8664 26.8133 37.5449 24.1187 35.9622 21.5419C33.8693 18.1367 31.402 15.0501 28.2122 12.6004C26.7394 11.4704 25.1705 10.5074 23.3235 10.0894C21.5315 9.68213 20.0695 10.5059 19.6768 12.1977C19.5378 12.8117 19.5195 13.4486 19.4522 14.009ZM31.3485 37.3824C24.2111 32.1507 19.5699 25.319 17.396 16.7848C17.3511 16.8494 17.3098 16.9163 17.2722 16.9854C15.3626 20.8855 13.4504 24.7836 11.5357 28.6797C11.3737 29.0074 11.4914 29.2049 11.6548 29.4453C13.6042 32.3165 15.5484 35.1909 17.4876 38.0683C17.6969 38.3745 17.9062 38.4648 18.279 38.4342C21.0289 38.1969 23.7787 37.9902 26.5286 37.7713C28.1297 37.6472 29.7093 37.5156 31.3485 37.3824ZM15.6131 39.3437C13.6485 36.4438 11.7159 33.5945 9.75893 30.7084C8.20066 31.7802 6.67755 32.7876 5.19262 33.8517C3.85281 34.8117 3.21573 36.1483 3.1424 37.8095C3.03241 40.2792 5.38509 43.646 8.98896 43.1897C10.1347 43.0443 11.0529 42.4701 11.9649 41.8393C13.1581 41.008 14.3803 40.1873 15.6024 39.3437H15.6131ZM14.313 43.0045C14.4291 43.1943 14.5208 43.3566 14.6186 43.5097C15.3427 44.5846 16.0684 45.6563 16.7956 46.725C18.6645 49.4809 20.5329 52.241 22.4007 55.0051C22.9965 55.8885 23.8017 56.3723 24.8695 56.1748C26.6753 55.841 27.4009 53.9471 26.3422 52.3731C23.8215 48.6302 21.2931 44.8923 18.7571 41.1595C18.4516 40.7186 17.9429 40.5471 17.5014 40.8365C16.4335 41.5316 15.3931 42.265 14.3069 42.9984L14.313 43.0045Z" fill="#E6001E"/>
<path d="M53.131 9.64174C52.8438 10.0398 52.6864 10.4425 52.3931 10.64C49.8327 12.3594 47.2539 14.0497 44.6706 15.7324C44.5417 15.8242 44.3956 15.8889 44.2411 15.9226C44.0867 15.9563 43.927 15.9584 43.7717 15.9286C43.6164 15.8989 43.4687 15.8379 43.3375 15.7495C43.2064 15.661 43.0944 15.5469 43.0084 15.4139C42.6586 14.8719 42.8251 14.1982 43.4453 13.7879C45.9864 12.1068 48.5326 10.4302 51.0839 8.75831C51.4994 8.48424 51.9623 8.38472 52.3641 8.67716C52.6513 8.88998 52.8331 9.25897 53.131 9.64174Z" fill="#E6001E"/>
<path d="M54.7765 25.0403L50.7632 24.3192C49.1183 24.0252 47.4725 23.7297 45.8256 23.4327C45.3245 23.3439 44.857 23.1265 44.773 22.6105C44.7295 22.227 44.8126 21.8397 45.0098 21.5081C45.2772 21.061 45.7951 21.0932 46.2549 21.1728C47.6039 21.4055 48.9482 21.6582 50.2942 21.9016C51.883 22.1879 53.4718 22.4788 55.0622 22.759C55.7267 22.8769 56.1545 23.3515 56.1147 23.964C56.075 24.5764 55.5403 25.051 54.7765 25.0403Z" fill="#E6001E"/>
<path d="M40.3245 1.13003C40.1534 2.82493 39.9945 4.41572 39.8295 6.00497C39.6996 7.25433 39.5728 8.50522 39.4231 9.75152C39.4116 9.90409 39.3685 10.0526 39.2966 10.1875C39.2246 10.3225 39.1254 10.4409 39.0052 10.5353C38.8851 10.6296 38.7466 10.6979 38.5986 10.7356C38.4507 10.7733 38.2965 10.7797 38.1459 10.7544C37.9991 10.7351 37.8575 10.6871 37.7293 10.6129C37.601 10.5387 37.4886 10.4399 37.3985 10.3222C37.3084 10.2044 37.2423 10.07 37.2041 9.92664C37.1659 9.78327 37.1563 9.63375 37.1759 9.48664C37.461 6.68477 37.7538 3.88341 38.0543 1.08256C38.1261 0.418075 38.6318 -0.0305298 39.2291 0.0016228C39.5205 0.0151782 39.7959 0.139329 39.9993 0.348887C40.2027 0.558445 40.319 0.837713 40.3245 1.13003Z" fill="#E6001E"/>
<path d="M27.6026 18.7414C30.3158 18.7414 32.6441 20.3995 33.4721 22.9136C33.8812 24.143 33.8918 25.4706 33.5025 26.7065C33.1131 27.9424 32.3437 29.0232 31.3043 29.7942C30.768 30.1892 30.2119 30.2352 29.7766 29.9045C29.3412 29.5737 29.1975 29.1267 29.387 28.6367C29.5151 28.3647 29.7089 28.129 29.9507 27.9508C31.2111 26.928 31.7152 25.596 31.3806 24.0374C31.0384 22.445 29.9904 21.4345 28.3894 21.0931C27.4071 20.8803 26.4843 21.0931 25.5891 21.5785C25.2438 21.7637 24.7229 21.851 24.3669 21.7316C24.0705 21.6259 23.7375 21.1605 23.7207 20.8389C23.7271 20.6385 23.7755 20.4416 23.8629 20.2611C23.9503 20.0807 24.0747 19.9207 24.2279 19.7917C25.2025 19.0704 26.3917 18.7003 27.6026 18.7414Z" fill="#E6001E"/>
</svg>
