<svg width="56" height="62" viewBox="0 0 56 62" fill="none" xmlns="http://www.w3.org/2000/svg">
<path d="M29.5874 61.9901C27.0336 61.3053 24.4773 60.6268 21.9273 59.9331C19.9906 59.4052 18.0527 58.8836 16.13 58.3084C14.8996 57.9399 13.7569 58.0139 12.6588 58.691C12.4022 58.8491 12.1357 58.9906 11.861 59.1144C11.2948 59.3695 10.8545 59.6373 10.9245 60.4266C10.9805 61.0566 10.4766 61.4468 9.81364 61.4341C7.1958 61.3805 4.57923 61.3129 1.96393 61.2313C1.19029 61.2058 0.818734 60.7735 0.836549 59.9637C0.921378 56.4542 1.01681 52.9452 1.12285 49.4365C1.18393 47.2176 1.25009 44.9987 1.31117 42.781C1.33662 41.7991 1.71581 41.4344 2.68414 41.4624C5.1179 41.5313 7.55293 41.5951 9.98924 41.6537C11.1141 41.6818 11.4602 42.0363 11.4335 43.1687C11.4245 43.5424 11.4335 43.916 11.4335 44.3062C12.2567 44.0104 13.0304 43.6852 13.832 43.4531C17.2345 42.4686 20.5162 42.8282 23.6515 44.4554C24.7865 45.0446 25.9419 45.5585 27.2283 45.6299C28.6153 45.7077 30.006 45.7205 31.3943 45.7575C32.8029 45.8021 34.2229 45.7575 35.6175 45.9169C37.7679 46.1719 39.3865 47.3273 40.5139 49.2325C40.7111 49.1509 40.9096 49.0757 41.1018 48.9851C43.6085 47.8004 46.105 46.5915 48.6219 45.431C49.7169 44.9204 50.9571 44.8154 52.122 45.1348C53.2869 45.4543 54.301 46.1773 54.9841 47.1755C55.5834 48.0453 55.4931 48.5707 54.6164 49.1356C48.8955 52.8593 43.1733 56.5779 37.4498 60.2915C36.0692 61.1841 34.5334 61.6075 32.9378 61.8715C32.7853 61.9053 32.6349 61.9479 32.4873 61.999L29.5874 61.9901ZM11.0797 57.1875C11.4169 57.0141 11.6676 56.8929 11.9106 56.759C13.3561 55.9556 14.8652 55.8051 16.4532 56.2604C18.5922 56.8751 20.7337 57.4872 22.8842 58.0649C25.2267 58.6936 27.5553 59.423 29.9373 59.8413C32.085 60.2417 34.3043 59.814 36.1507 58.6438C41.5662 55.2007 46.9334 51.6759 52.3183 48.1868C52.4787 48.0835 52.6263 47.9624 52.8197 47.8208C51.6961 46.9422 50.5446 46.8197 49.3281 47.3898C46.7272 48.6102 44.1353 49.8472 41.5407 51.0803C41.425 51.1413 41.3125 51.2081 41.2035 51.2806C41.2366 51.5178 41.2774 51.7154 41.2913 51.9182C41.383 53.1934 41.0369 53.553 39.7644 53.5237C37.9134 53.4812 36.0616 53.4387 34.2089 53.3962C32.257 53.3477 30.3051 53.3082 28.3557 53.2381C27.5922 53.21 27.1494 52.7598 27.1863 52.1362C27.2232 51.5126 27.7067 51.1441 28.4715 51.1658C30.0213 51.2104 31.5699 51.2793 33.1197 51.2933C35.1098 51.3163 37.1012 51.2933 39.0748 51.2933C38.833 49.5666 37.0058 47.9955 35.0347 47.9407C33.1833 47.8897 31.3307 47.854 29.4793 47.7928C28.4944 47.7609 27.507 47.7239 26.5272 47.627C24.9761 47.4739 23.64 46.7126 22.2492 46.0788C18.6724 44.4452 15.1528 44.6187 11.7503 46.6106C11.6375 46.691 11.5429 46.7943 11.4727 46.9139C11.4026 47.0334 11.3584 47.1665 11.3431 47.3043C11.2375 50.1877 11.1662 53.071 11.0886 55.9556C11.0708 56.3382 11.0797 56.7195 11.0797 57.1926V57.1875ZM3.35217 43.6699C3.21093 48.8053 3.06842 53.9726 2.92336 59.2407H8.91274C9.05271 54.0899 9.19396 48.9252 9.33647 43.6699H3.35217Z" fill="#E6001E"/>
<path d="M28.709 43.0417C26.7639 43.0368 24.839 42.6461 23.0453 41.8923C21.2516 41.1384 19.6244 40.0363 18.2575 38.6494C16.8907 37.2625 15.8112 35.6182 15.0813 33.8113C14.3514 32.0044 13.9855 30.0706 14.0046 28.1213C14.0517 20.0745 20.7486 13.4713 28.8006 13.5376C30.7405 13.5436 32.6601 13.9338 34.449 14.6858C36.2379 15.4379 37.8609 16.5369 39.2245 17.9196C40.5882 19.3024 41.6657 20.9417 42.395 22.7433C43.1244 24.5448 43.4912 26.4731 43.4744 28.4172C43.4273 36.4857 36.7648 43.0838 28.709 43.0417ZM28.7497 40.9593C35.7481 40.9529 41.4232 35.2793 41.4258 28.2846C41.4217 24.9204 40.0858 21.6952 37.7114 19.3172C35.3369 16.9392 32.118 15.6026 28.7611 15.601C21.7423 15.5946 16.0367 21.2988 16.052 28.3075C16.0672 35.3163 21.75 40.9656 28.7484 40.9593H28.7497Z" fill="#E6001E"/>
<path d="M29.7785 5.8075C29.7785 7.40028 29.7938 8.99562 29.7708 10.5859C29.7607 11.263 29.3179 11.7081 28.7529 11.7132C28.1879 11.7183 27.7629 11.2745 27.7082 10.6024C27.6968 10.4622 27.7082 10.3206 27.7082 10.1791V1.52905C27.7082 1.4283 27.7082 1.32756 27.7082 1.22681C27.7349 0.439985 28.1027 0.00385107 28.7414 2.53241e-05C29.3802 -0.00380042 29.7772 0.425958 29.7848 1.21151C29.8001 2.74181 29.7848 4.2721 29.7848 5.8024L29.7785 5.8075Z" fill="#E6001E"/>
<path d="M37.3886 8.43874C37.3886 9.12355 37.4026 9.80836 37.3886 10.4932C37.3708 11.2494 36.942 11.7289 36.335 11.7149C35.7281 11.7008 35.3247 11.2366 35.3171 10.5161C35.2993 9.08529 35.2967 7.65446 35.3171 6.22364C35.3285 5.49802 35.751 5.07592 36.3707 5.08612C36.9903 5.09632 37.3593 5.4942 37.3886 6.20196C37.4077 6.9467 37.3873 7.69272 37.3886 8.43874Z" fill="#E6001E"/>
<path d="M22.1695 8.41307C22.1695 9.11828 22.1861 9.82477 22.1695 10.5287C22.153 11.2326 21.7267 11.7096 21.1388 11.7147C20.551 11.7198 20.1094 11.2569 20.0993 10.5415C20.0789 9.11063 20.0789 7.6798 20.0993 6.24897C20.1094 5.50806 20.5077 5.0885 21.1274 5.08595C21.7471 5.0834 22.1453 5.5004 22.1695 6.23367C22.1937 6.96694 22.1695 7.68745 22.1695 8.41307Z" fill="#E6001E"/>
<path d="M24.3948 31.8682C24.3948 30.9972 24.7575 30.5508 25.3479 30.5164C25.9841 30.4794 26.3786 30.8684 26.4435 31.6016C26.5491 32.8004 27.4054 33.7237 28.4794 33.7925C29.7836 33.8754 30.7583 33.1396 31.0065 31.8796C31.2075 30.8684 30.5636 29.7487 29.5304 29.3967C29.145 29.2871 28.7484 29.2217 28.3483 29.2016C26.3124 29.0014 24.7486 27.5196 24.4241 25.4601C24.1365 23.6365 25.1876 21.6853 26.9461 20.9406C27.4805 20.7136 27.5887 20.4305 27.5823 19.9204C27.5709 18.9474 28.3369 18.362 29.0456 18.8084C29.3319 18.9894 29.6144 19.446 29.6106 19.7673C29.6017 20.4279 29.8651 20.66 30.4466 20.8998C32.0091 21.5374 32.8464 22.7961 33.0704 24.4577C33.1078 24.7142 33.0865 24.9759 33.008 25.2229C32.9463 25.4402 32.8082 25.6279 32.6192 25.7511C32.4303 25.8744 32.2032 25.925 31.9799 25.8936C31.462 25.8439 31.1439 25.5302 31.0497 25.0124C31.0026 24.7574 30.9975 24.4896 30.9225 24.2473C30.6005 23.0996 29.5406 22.4505 28.3076 22.6367C27.2375 22.7986 26.3989 23.8583 26.4422 24.9755C26.4671 25.5337 26.6962 26.0633 27.0858 26.4631C27.4754 26.8629 27.9982 27.1051 28.5544 27.1434C30.9874 27.3372 32.5385 28.5538 32.9762 30.6146C33.2101 31.6472 33.0532 32.73 32.536 33.6533C32.0189 34.5766 31.1782 35.2747 30.1768 35.6123C29.7518 35.7602 29.5864 35.9502 29.6398 36.3774C29.6523 36.5183 29.6463 36.6602 29.622 36.7996C29.5457 37.3734 29.1614 37.7483 28.641 37.7662C28.1205 37.784 27.5708 37.4104 27.623 36.8735C27.7172 35.9171 27.1789 35.611 26.4778 35.2157C25.1354 34.4646 24.5068 33.2072 24.3948 31.8682Z" fill="#E6001E"/>
</svg>
