<svg width="60" height="59" viewBox="0 0 60 59" fill="none" xmlns="http://www.w3.org/2000/svg">
<path d="M0.482422 2.06542C0.8506 1.54792 1.1363 0.932429 1.60989 0.545066C2.04732 0.214009 2.5788 0.0316213 3.1269 0.0244967C20.8677 -5.544e-07 38.609 -0.00612411 56.3508 0.0061245C56.7045 0.000562662 57.0557 0.0661849 57.3837 0.199098C57.7116 0.332011 58.0097 0.529508 58.2601 0.779914C58.5105 1.03032 58.7083 1.32854 58.8416 1.65691C58.975 1.98528 59.0413 2.33713 59.0365 2.69163C59.0365 17.1491 59.0365 31.606 59.0365 46.0624C59.0365 47.5935 57.8968 48.7388 56.3187 48.7954C55.5197 48.823 54.7177 48.8123 53.9172 48.7954C53.248 48.7832 52.8478 48.4234 52.8478 47.8599C52.8478 47.2965 53.2236 46.9306 53.9019 46.9122C54.6825 46.8923 55.4647 46.9122 56.2454 46.903C56.8672 46.8923 57.1788 46.5708 57.2079 45.9476C57.2079 45.8512 57.2079 45.7562 57.2079 45.6613V10.0423H2.31567V45.6613C2.31567 46.6534 2.56621 46.903 3.56533 46.903C9.85339 46.903 16.1415 46.903 22.4295 46.903C22.677 46.8941 22.9246 46.91 23.1689 46.9505C23.6272 47.0469 23.9099 47.3486 23.9175 47.8278C23.9251 48.307 23.6563 48.6209 23.201 48.7372C22.9593 48.7857 22.7125 48.8042 22.4662 48.7924C16.253 48.7924 10.0413 48.7694 3.82813 48.8107C2.17668 48.8214 1.04004 48.2305 0.48548 46.6397L0.482422 2.06542ZM57.2033 8.12543V3.1433C57.2033 2.10217 56.9329 1.83576 55.8772 1.83576H3.51647C2.62123 1.83576 2.31414 2.14198 2.31262 3.0346C2.31262 4.1431 2.31262 5.25006 2.31262 6.35703V8.12543H57.2033Z" fill="#E6001E"/>
<path d="M39.5934 58.675C35.577 57.3904 31.9426 55.2499 28.1249 53.5198C27.0768 53.0452 26.3145 52.2383 26.0105 51.1007C25.4468 48.9955 27.0402 47.1306 29.3134 47.3174C30.3034 47.3986 31.2735 47.7354 32.2497 47.9727C32.8149 48.109 33.3725 48.2789 34.0463 48.4657C33.8935 48.1442 33.7972 47.9268 33.6949 47.7109C31.3442 42.7594 28.9921 37.8089 26.6384 32.8595C26.2274 31.9959 25.9494 31.1094 26.1602 30.1541C26.6995 27.7043 29.538 26.8148 31.3758 28.5418C31.8317 28.9998 32.2035 29.5347 32.4742 30.1219C33.646 32.515 34.7811 34.9264 35.9055 37.3425C36.0903 37.739 36.2584 37.8538 36.7182 37.762C38.4675 37.4114 40.2228 37.0791 41.9888 36.825C43.0025 36.6751 44.0374 36.858 44.9387 37.3465C45.84 37.835 46.5593 38.6027 46.989 39.535C48.529 42.9324 50.1728 46.2839 51.7738 49.6538C52.7913 51.7974 52.1664 53.5902 50.0215 54.6207C47.5375 55.8129 45.0493 56.9974 42.5571 58.1743C42.1523 58.3657 41.7245 58.5111 41.309 58.678L39.5934 58.675ZM29.5624 49.1563C28.5175 49.1394 28.0347 49.3767 27.8376 49.836C27.6284 50.3306 27.8086 50.9767 28.3174 51.4314C28.528 51.6246 28.7652 51.7865 29.0216 51.9122C32.1259 53.3973 35.2272 54.8901 38.3407 56.337C39.6178 56.928 40.8904 56.9877 42.2271 56.3003C44.5432 55.1075 46.9249 54.0434 49.2745 52.9166C50.3867 52.3822 50.6494 51.6504 50.1239 50.5419C48.4943 47.097 46.8648 43.6546 45.2352 40.2148C44.9763 39.6679 44.5471 39.2201 44.0124 38.9387C43.4776 38.6574 42.8661 38.5577 42.2699 38.6546C40.454 38.9669 38.6406 39.2931 36.8298 39.633C35.4884 39.8856 34.9278 39.6115 34.3335 38.3606C33.1495 35.8665 31.9777 33.3647 30.7678 30.8828C30.549 30.4444 30.2439 30.0548 29.871 29.7376C29.483 29.41 28.9697 29.4314 28.5282 29.7039C28.3112 29.8306 28.1401 30.0233 28.0399 30.254C27.9396 30.4847 27.9153 30.7415 27.9706 30.987C28.0408 31.3582 28.1594 31.7185 28.3235 32.0587C29.0781 33.6817 29.8512 35.2954 30.615 36.9138C32.5827 41.0599 34.5514 45.2056 36.5212 49.3507C36.7198 49.7672 36.7793 50.1514 36.4646 50.5204C36.1499 50.8894 35.7711 50.9109 35.325 50.7715C34.4358 50.4959 33.536 50.2556 32.6408 50.006C31.521 49.7028 30.3874 49.3905 29.5624 49.1624V49.1563Z" fill="#E6001E"/>
<path d="M38.7068 28.7942C38.7068 30.431 38.7068 32.0677 38.7068 33.7029C38.7068 34.2189 38.5219 34.6062 37.9888 34.7226C37.8536 34.7589 37.7119 34.7628 37.5749 34.7342C37.4379 34.7056 37.3096 34.6451 37.2002 34.5576C37.0908 34.4702 37.0034 34.3583 36.9451 34.2308C36.8868 34.1034 36.8591 33.964 36.8644 33.8238C36.846 31.3221 36.8384 28.8203 36.8827 26.3216C36.8827 26.0337 37.1882 25.6004 37.4434 25.507C37.7275 25.4044 38.2072 25.5193 38.4608 25.7152C39.0964 26.1929 39.6555 26.7717 40.3078 27.3657L43.9957 24.3495C42.4207 22.3882 40.9052 20.4284 39.3072 18.5391C38.2821 17.3265 36.7544 16.933 35.3351 16.3879C35.2328 16.3481 35.1258 16.3175 34.9914 16.2731C34.0549 18.7335 32.3026 20.1513 29.6765 20.1176C27.1283 20.087 25.4264 18.6799 24.5159 16.2899C22.5008 16.9284 20.634 17.7184 19.3308 19.5144C18.1346 21.1634 16.8208 22.7296 15.5284 24.3694L19.2438 27.4025C19.8548 26.8268 20.4063 26.2297 21.0403 25.7306C21.2955 25.5315 21.7828 25.3983 22.0532 25.5086C22.3236 25.6188 22.481 26.0597 22.646 26.3767C22.7101 26.4976 22.6582 26.6829 22.6582 26.836V40.4549H25.7931C26.0787 40.4549 26.3644 40.4457 26.6501 40.4641C26.8809 40.4659 27.1025 40.5548 27.2708 40.7132C27.439 40.8716 27.5414 41.0877 27.5575 41.3185C27.5657 41.5604 27.4804 41.7961 27.3192 41.9764C27.1581 42.1567 26.9337 42.2677 26.6929 42.2861C25.0165 42.3106 23.3401 42.3106 21.6636 42.2861C21.1702 42.2861 20.8662 41.9554 20.8219 41.4425C20.8035 41.2342 20.8051 41.023 20.8051 40.8132V28.805L20.637 28.6886C20.4755 28.9134 20.3005 29.1281 20.113 29.3316C19.6761 29.7588 19.2575 29.791 18.7885 29.4159C17.0989 28.0512 15.4184 26.6763 13.7471 25.2911C13.2047 24.8425 13.165 24.4 13.5943 23.8489C15.1576 21.8523 16.7281 19.8619 18.3057 17.8777C19.255 16.6966 20.5072 15.7968 21.9279 15.2748C22.5146 15.0498 23.0966 14.8155 23.6833 14.5966C24.8504 14.151 25.8756 14.5813 26.314 15.7571C26.6547 16.6758 27.1985 17.4 28.0617 17.8578C29.9943 18.8851 32.2706 18.0262 33.1123 15.9623C33.6058 14.7512 34.3712 14.1694 35.4039 14.4817C37.6756 15.1738 39.8541 16.0572 41.3757 18.0507C42.659 19.7349 43.9881 21.3808 45.2973 23.045C45.5326 23.3513 45.7816 23.636 45.9986 23.9484C46.3285 24.423 46.3041 24.8517 45.858 25.2222C44.1419 26.6512 42.4146 28.0614 40.676 29.4526C40.2666 29.7818 39.819 29.7389 39.4386 29.3623C39.2384 29.1632 39.0689 28.932 38.8855 28.7162L38.7068 28.7942Z" fill="#E6001E"/>
<path d="M8.02827 28.343C8.45298 28.8024 8.86546 29.2188 9.25044 29.6598C9.63543 30.1007 9.63696 30.6397 9.27948 30.9949C8.8838 31.3868 8.36285 31.37 7.91675 30.9168C7.31687 30.3044 6.72718 29.6817 6.14767 29.0489C5.71075 28.5681 5.71686 28.0996 6.14767 27.6265C6.71496 27.0141 7.2909 26.4047 7.8755 25.7984C8.31701 25.3391 8.84561 25.3023 9.23823 25.6637C9.63085 26.025 9.64002 26.5946 9.20003 27.0768C8.82422 27.4994 8.43159 27.9113 8.02827 28.343Z" fill="#E6001E"/>
<path d="M51.4862 28.3449C51.0631 27.8856 50.6689 27.4783 50.2855 27.0558C49.8638 26.5964 49.8501 26.0544 50.2366 25.6778C50.6231 25.3011 51.1792 25.3302 51.6115 25.7697C52.2104 26.3821 52.7985 27.0073 53.376 27.6452C53.7946 28.1045 53.7992 28.5547 53.376 29.0232C52.7873 29.6754 52.1854 30.3139 51.5703 30.9386C51.1501 31.3657 50.6399 31.3765 50.2473 31.0136C49.8546 30.6507 49.8607 30.121 50.2473 29.6831C50.6338 29.2452 51.0462 28.8196 51.4862 28.3449Z" fill="#E6001E"/>
<path d="M36.8608 5.94584H21.9488C21.796 5.94584 21.6433 5.94584 21.4905 5.94584C20.7969 5.92594 20.3753 5.55848 20.3829 4.9828C20.3906 4.40711 20.7816 4.09324 21.4676 4.06415C21.602 4.06415 21.7349 4.06415 21.8678 4.06415H51.8645C52.1118 4.05713 52.3593 4.0725 52.6039 4.11008C52.8054 4.13286 52.9914 4.22996 53.1255 4.38248C53.2596 4.535 53.3323 4.73206 53.3295 4.93534C53.3555 5.41456 53.1416 5.7514 52.6772 5.88154C52.4556 5.93424 52.228 5.95639 52.0004 5.94737C46.9559 5.94942 41.9094 5.9489 36.8608 5.94584Z" fill="#E6001E"/>
<path d="M14.5445 4.99333C14.5449 5.11192 14.5218 5.2294 14.4764 5.33895C14.4311 5.44849 14.3645 5.5479 14.2805 5.6314C14.1965 5.71489 14.0967 5.7808 13.987 5.82529C13.8773 5.86978 13.7599 5.89196 13.6416 5.89054C13.4019 5.88421 13.174 5.78492 13.0059 5.61357C12.8378 5.44223 12.7425 5.21219 12.7402 4.97189C12.7512 4.74221 12.8494 4.52543 13.0147 4.366C13.18 4.20657 13.3999 4.11658 13.6294 4.1145C13.748 4.10821 13.8666 4.12636 13.9779 4.1678C14.0892 4.20924 14.1909 4.2731 14.2767 4.35545C14.3624 4.43781 14.4304 4.53689 14.4765 4.6466C14.5225 4.75631 14.5457 4.87431 14.5445 4.99333Z" fill="#E6001E"/>
<path d="M10.6669 5.00585C10.6693 5.12436 10.6474 5.2421 10.6026 5.3518C10.5578 5.4615 10.4911 5.56082 10.4064 5.64362C10.3218 5.72643 10.2211 5.79095 10.1106 5.8332C10.0001 5.87546 9.88216 5.89454 9.76401 5.88928C9.64556 5.88631 9.52889 5.85992 9.42064 5.81164C9.3124 5.76335 9.21474 5.69412 9.13327 5.60792C9.05179 5.52171 8.98811 5.42023 8.94586 5.30929C8.90362 5.19835 8.88364 5.08014 8.8871 4.96145C8.89701 4.73198 8.99571 4.5154 9.16226 4.35763C9.32882 4.19985 9.55012 4.11329 9.77928 4.11629C9.8974 4.11037 10.0155 4.12933 10.1258 4.17193C10.2362 4.21454 10.3364 4.27986 10.4201 4.36367C10.5037 4.44749 10.5689 4.54794 10.6114 4.65855C10.6539 4.76916 10.6728 4.88747 10.6669 5.00585Z" fill="#E6001E"/>
<path d="M6.81226 4.99798C6.81424 5.11804 6.79171 5.23725 6.74603 5.34825C6.70035 5.45926 6.6325 5.55973 6.54664 5.64348C6.46078 5.72723 6.35872 5.79249 6.24677 5.83525C6.13481 5.87802 6.01531 5.89737 5.89561 5.89214C5.78152 5.88955 5.66906 5.86444 5.56467 5.81824C5.46027 5.77203 5.36601 5.70564 5.28725 5.62287C5.20849 5.5401 5.14678 5.44257 5.10568 5.33587C5.06459 5.22917 5.04492 5.11539 5.04776 5.00105C5.04232 4.88208 5.06201 4.7633 5.10557 4.65249C5.14914 4.54169 5.2156 4.44137 5.30056 4.3581C5.38552 4.27483 5.48707 4.2105 5.59857 4.16932C5.71008 4.12814 5.82901 4.11104 5.94757 4.11915C6.06251 4.11788 6.17651 4.13984 6.2828 4.18371C6.38908 4.22758 6.48548 4.29247 6.56618 4.3745C6.64689 4.45653 6.71028 4.55401 6.75256 4.66114C6.79484 4.76826 6.81514 4.88282 6.81226 4.99798Z" fill="#E6001E"/>
</svg>
