<svg width="59" height="56" viewBox="0 0 59 56" fill="none" xmlns="http://www.w3.org/2000/svg">
<path fill-rule="evenodd" clip-rule="evenodd" d="M30.1727 14.8996C27.6475 15.2397 25.1216 15.7014 23.0357 16.7299C18.9732 18.4515 16.2264 22.1169 16.2264 27.5032C16.2264 34.267 20.4003 37.7001 25.6703 37.7001C27.4298 37.7001 28.857 37.4747 30.172 37.1305C32.2606 36.4421 34.0168 35.1828 36.1028 32.8902C37.3116 34.6118 37.6394 35.4136 39.7274 37.2439C40.2767 37.4754 40.8261 37.4754 41.264 37.1305C42.5816 35.9845 44.8859 33.9234 46.0974 32.7768C46.6454 32.3144 46.534 31.6301 46.2075 31.0551C44.9974 29.4516 43.7911 28.0741 43.7911 24.9845V14.6688C43.7911 10.311 44.1176 6.30144 41.045 3.32521C38.5198 0.91445 34.5662 0 31.4923 0H30.172C24.5716 0.344199 18.6421 2.86218 17.3218 10.0842C17.1055 10.9987 17.765 11.3436 18.2042 11.4617L24.3527 12.2635C25.0121 12.1453 25.3399 11.5744 25.4487 10.9987C26.0007 8.48001 27.9759 7.22136 30.172 6.98984H30.6139C31.9276 6.98984 33.3567 7.56487 34.127 8.70606C35.0015 10.0842 34.8953 11.9186 34.8953 13.5221V14.4379C33.4681 14.5554 31.8207 14.6688 30.1727 14.8996ZM34.8959 21.0877C34.8959 23.7245 35.0021 25.7856 33.6871 28.0734C32.9188 29.6769 31.6011 30.7095 30.1727 31.0544C29.9537 31.0544 29.6272 31.1726 29.2955 31.1726C26.8805 31.1726 25.4494 29.2242 25.4494 26.3572C25.4494 22.6919 27.538 20.9702 30.1727 20.1684C31.6018 19.8242 33.2492 19.7109 34.8959 19.7109V21.0877ZM55.1231 53.2594C57.8082 50.8937 58.941 46.5987 59 44.356V43.9824C59 43.4811 58.882 43.1116 58.7647 42.9245C58.2271 42.2409 54.2859 41.6153 50.8875 42.6739C49.9337 42.9887 49.0965 43.4217 48.3217 43.9824C47.7251 44.4201 47.8438 44.9754 48.441 44.916C49.0965 44.7889 49.9337 44.7302 50.8875 44.6011C52.9761 44.4195 55.4226 44.356 56.0179 45.1632C56.8504 46.2197 55.0641 50.8288 54.2853 52.8216C54.0499 53.4472 54.5855 53.6971 55.1231 53.2594ZM0.295799 44.356C7.99069 51.6408 18.1328 56 29.4706 56C36.5099 56 44.6224 53.9437 50.8875 50.0229C51.7247 49.521 52.5572 48.961 53.3321 48.3409C54.4065 47.5337 53.4527 46.2846 52.3782 46.7811C51.9017 46.9682 51.3641 47.2195 50.8882 47.4059C44.0239 50.2101 36.8102 51.5179 30.1255 51.5179C19.5048 51.5179 9.24477 48.4645 0.952008 43.4224C0.175832 42.9887 -0.362377 43.7953 0.295799 44.356Z" fill="#E6001E"/>
</svg>
