<svg width="48" height="48" viewBox="0 0 48 48" fill="none" xmlns="http://www.w3.org/2000/svg">
<path d="M42.7442 47.1956H4.42181C4.35392 47.1613 4.283 47.1333 4.20996 47.1121C2.85029 46.8654 1.72687 46.1985 0.978345 45.0484C0.548232 44.3866 0.319696 43.595 0 42.8639V4.33303C0.0381748 4.25478 0.0699476 4.17356 0.0950087 4.09017C0.608576 1.71548 2.66284 0.00385501 5.04579 0.00385501C17.4014 -0.001285 29.7565 -0.001285 42.1112 0.00385501C43.4454 0.0122257 44.7227 0.54523 45.6676 1.48785C46.6126 2.43047 47.1494 3.70714 47.1622 5.04236C47.169 17.4058 47.169 29.7684 47.1622 42.1301C47.1622 43.7839 46.4457 45.1101 45.1618 46.1406C44.448 46.715 43.607 46.9785 42.7442 47.1956ZM23.6138 10.2762C17.5811 10.2762 11.5467 10.2762 5.51057 10.2762C5.12781 10.2633 4.74492 10.2974 4.37045 10.3777C2.89908 10.7516 2.05939 11.939 2.05939 13.6159C2.05939 23.0016 2.05939 32.3872 2.05939 41.7729C2.05939 43.8662 3.32277 45.1293 5.41299 45.1293C17.5255 45.1293 29.6371 45.1293 41.7479 45.1293C43.8394 45.1293 45.104 43.8687 45.1053 41.7768C45.1053 32.3911 45.1053 23.0054 45.1053 13.6198C45.1114 13.267 45.0738 12.9148 44.9936 12.5712C44.6187 11.1101 43.4529 10.2736 41.8005 10.2723C35.7361 10.2732 29.6718 10.2745 23.6074 10.2762H23.6138ZM45.1143 9.06056C45.1143 7.85651 45.1143 6.59978 45.1143 5.34305C45.1143 5.11303 45.0861 4.88301 45.063 4.65428C45.0498 4.54824 45.0284 4.4434 44.9988 4.34074C44.5918 2.87584 43.4298 2.05986 41.7363 2.05986C29.6418 2.05986 17.5477 2.05986 5.45408 2.05986C5.22414 2.06093 4.99443 2.07422 4.7659 2.0997C3.38056 2.24876 2.2109 3.35643 2.12487 4.73909C2.04014 6.06907 2.07994 7.40805 2.0671 8.74317C2.0671 8.87167 2.07994 9.00659 2.09021 9.18264C2.20191 9.12481 2.26867 9.09654 2.32901 9.05414C3.20605 8.48023 4.23427 8.18134 5.28202 8.19575C17.4835 8.20346 29.685 8.20561 41.8865 8.20218C42.1921 8.20218 42.5144 8.17905 42.7994 8.26386C43.5582 8.49901 44.3093 8.783 45.1079 9.06442L45.1143 9.06056Z" fill="#E6001E"/>
<path d="M23.6002 24.6132C24.9509 24.6132 26.2964 24.6196 27.6522 24.6132C28.3281 24.6164 28.9979 24.4858 29.6231 24.2287C30.2483 23.9717 30.8165 23.5934 31.295 23.1156C31.7734 22.6378 32.1527 22.07 32.4109 21.4449C32.6691 20.8197 32.8012 20.1496 32.7995 19.4732C32.7995 18.8127 32.7918 18.1522 32.7995 17.4917C32.8097 16.8813 33.2167 16.4444 33.7765 16.4174C34.3363 16.3905 34.8178 16.7515 34.8447 17.3349C34.9141 18.8358 34.9898 20.3418 34.4891 21.8016C33.5043 24.6697 31.0225 26.5792 27.8461 26.6705C24.8409 26.7562 21.8335 26.7416 18.824 26.6268C15.7644 26.5111 12.9745 23.999 12.4648 20.9728C12.2709 19.8163 12.3055 18.6199 12.2991 17.4403C12.2957 17.3008 12.3215 17.1621 12.3749 17.0332C12.4282 16.9042 12.508 16.7879 12.6089 16.6917C12.7099 16.5955 12.8299 16.5215 12.9612 16.4745C13.0925 16.4274 13.2321 16.4085 13.3712 16.4187C13.949 16.4406 14.3457 16.8839 14.3637 17.5251C14.3906 18.4593 14.3367 19.4051 14.4612 20.3264C14.7899 22.7422 16.9238 24.5836 19.3594 24.6158C20.7717 24.635 22.184 24.6158 23.5963 24.6158L23.6002 24.6132Z" fill="#E6001E"/>
</svg>
