<svg width="50" height="49" viewBox="0 0 50 49" fill="none" xmlns="http://www.w3.org/2000/svg">
<path d="M46.5089 46.1124V2.8532H3.35393V3.67724C3.35393 10.4994 3.35393 17.3221 3.35393 24.1455C3.35393 25.1136 2.94644 25.7061 2.21152 25.8264C2.016 25.8654 1.81447 25.8624 1.62017 25.8177C1.42587 25.773 1.24322 25.6876 1.08425 25.567C0.925284 25.4464 0.793596 25.2935 0.697865 25.1182C0.602133 24.943 0.544525 24.7494 0.528832 24.5502C0.513345 24.3458 0.509734 24.1407 0.517951 23.9358C0.517951 16.5911 0.517951 9.24568 0.517951 1.8997C0.517951 0.441194 0.965421 0 2.43891 0H47.4367C48.952 0 49.3758 0.428432 49.3758 1.94527V46.9765C49.3758 48.4897 48.9483 48.9182 47.4312 48.9182H25.3744C24.1992 48.9182 23.5134 48.3822 23.5316 47.4925C23.5498 46.6028 24.2065 46.1142 25.3508 46.1124H46.5071H46.5089Z" fill="#E6001E"/>
<path d="M9.73756 29.6277C12.3704 29.6277 15.0015 29.6277 17.6307 29.6277C18.9041 29.6277 19.4025 30.1364 19.4025 31.4016C19.4025 36.6522 19.4025 41.9022 19.4025 47.1516C19.4025 48.3877 18.895 48.9128 17.6835 48.9146C12.3995 48.9146 7.11561 48.9146 1.83168 48.9146C0.600135 48.9146 0.103516 48.4059 0.103516 47.1717C0.103516 41.8992 0.103516 36.6267 0.103516 31.3542C0.103516 30.1309 0.605562 29.6296 1.8462 29.6277C4.47665 29.6241 7.10712 29.6241 9.73756 29.6277ZM16.5356 32.5101H2.97227V46.0796H16.5356V32.5101Z" fill="#E6001E"/>
<path d="M37.8478 9.44616H37.1911C34.6952 9.44616 32.1994 9.44616 29.7036 9.44616C28.794 9.44616 28.1737 8.89922 28.1482 8.08975C28.1209 7.26023 28.7412 6.63125 29.6726 6.62031C33.6419 6.60573 37.6119 6.60573 41.5824 6.62031C42.5266 6.62031 43.0959 7.22559 43.0996 8.18274C43.1105 12.1389 43.1105 16.0951 43.0996 20.0513C43.0996 20.992 42.4883 21.6064 41.6443 21.5918C40.8002 21.5772 40.2672 20.9501 40.2654 19.9911C40.2654 17.3306 40.2654 14.6706 40.2654 12.0113V11.2091C39.9943 11.4607 39.8142 11.6157 39.6487 11.7834C34.3587 17.1252 29.0742 22.473 23.7951 27.8269C22.9892 28.651 21.7831 28.6255 21.2701 27.6975C20.9281 27.0776 21.0482 26.5398 21.7067 25.8744C24.4087 23.1494 27.1131 20.4262 29.82 17.7049C32.5177 15.0085 35.2391 12.334 37.9496 9.65035L37.8478 9.44616Z" fill="#E6001E"/>
</svg>
