<svg width="179" height="129" viewBox="0 0 179 129" fill="none" xmlns="http://www.w3.org/2000/svg">
<g filter="url(#filter0_d_2872_1177)">
<rect x="20" y="10" width="139" height="89" rx="8" fill="white"/>
</g>
<path d="M51.8112 46.9722C52.9503 47.6454 54.8412 48.4737 57.0309 49.433C61.736 51.4941 68.18 54.3171 72.3561 57.9291C72.7449 58.2655 73.1162 58.6184 73.4752 58.9601C74.2379 59.6852 74.9438 60.3545 75.7268 60.8106C75.7297 60.8124 75.7326 60.814 75.7356 60.8158C76.3715 61.1848 77.0586 61.4129 77.8694 61.4129C78.2766 61.4129 78.7021 61.3503 79.1508 61.2361L81.7601 60.2964C82.5247 59.9986 83.2039 59.7271 83.8669 59.4616C84.886 59.0537 85.8482 58.6682 87.0853 58.2005C87.8834 57.8983 88.6954 57.7453 89.4982 57.7453C93.4549 57.7453 96.7696 61.51 97.2083 66.5019C97.356 68.183 97.7217 69.4774 98.2296 70.4767C98.6454 71.0944 99.2796 71.9522 99.668 72.3355C101.09 73.5379 102.876 73.7638 104.377 73.7719L104.452 73.772C112.357 73.7722 113.833 66.6398 115.136 60.3471C115.573 58.2333 115.986 56.2369 116.619 54.6412C118.705 49.3826 118.013 43.469 114.67 37.9894C109.885 30.1449 100.342 24.2525 90.9175 23.3194H90.6155C90.601 23.3194 90.5867 23.3189 90.5723 23.3178C89.4628 23.2378 88.3498 23.1973 87.2649 23.1973C64.8752 23.1973 54.1105 40.1222 51.3448 45.3096C51.0298 45.901 51.2347 46.6315 51.8112 46.9722ZM103.773 33.4416C103.979 33.1829 104.355 33.1411 104.614 33.3463C107.045 35.2832 109.072 37.7855 110.478 40.5824C111.883 43.3792 112.68 46.4998 112.783 49.6065C112.794 49.9368 112.535 50.2134 112.205 50.2243C112.198 50.2244 112.191 50.2246 112.185 50.2246C111.863 50.2246 111.598 49.9696 111.587 49.6462C111.49 46.7112 110.736 43.7627 109.408 41.1195C108.08 38.4763 106.164 36.1119 103.868 34.2823C103.609 34.0763 103.567 33.7 103.773 33.4416ZM100.999 43.6871C101.801 43.6871 102.535 44.158 102.869 44.887C103.147 45.4942 103.132 46.1493 102.841 46.7143C102.55 47.2794 102.025 47.6722 101.401 47.7919L93.7831 49.2546C93.6892 49.2725 93.5988 49.2808 93.5123 49.2808C92.8781 49.2808 92.3491 48.8344 92.226 48.195C92.1026 47.5543 92.429 46.9601 93.0383 46.7161L100.236 43.8345C100.48 43.7367 100.737 43.6871 100.999 43.6871ZM82.5309 42.3148L91.0673 38.8973C91.3118 38.7992 91.5686 38.7496 91.8307 38.7496C92.6324 38.7496 93.366 39.2206 93.6998 39.9497L93.9289 40.4498C94.1938 41.027 94.1785 41.6824 93.8881 42.2473C93.597 42.8122 93.0724 43.2051 92.4483 43.3248L83.3402 45.0737C83.2413 45.0925 83.1419 45.1023 83.0445 45.1023C82.3562 45.1023 81.782 44.6167 81.648 43.9215C81.5137 43.2255 81.8685 42.58 82.5309 42.3148ZM71.9657 39.0949L79.1631 36.2133C79.4077 36.1153 79.6645 36.0657 79.9266 36.0657C80.7283 36.0657 81.4622 36.5366 81.796 37.2658C82.0746 37.8733 82.0593 38.5288 81.768 39.0935C81.4769 39.6581 80.9524 40.0509 80.3286 40.1707L72.7101 41.6334C72.6161 41.6513 72.5259 41.6594 72.4394 41.6594C71.8052 41.6594 71.2765 41.2131 71.1531 40.5737C71.03 39.933 71.3564 39.3386 71.9657 39.0949Z" fill="#B8D9BA"/>
<path d="M138.113 19.0792C136.629 20.5182 136.629 22.8512 138.113 24.2902L144 30L149.887 24.2902C151.371 22.8512 151.371 20.5182 149.887 19.0792C148.404 17.6403 145.998 17.6403 144.514 19.0792L144 19.5782L143.486 19.0792C142.002 17.6403 139.596 17.6403 138.113 19.0792Z" fill="#FFB1BC"/>
<defs>
<filter id="filter0_d_2872_1177" x="0" y="0" width="179" height="129" filterUnits="userSpaceOnUse" color-interpolation-filters="sRGB">
<feFlood flood-opacity="0" result="BackgroundImageFix"/>
<feColorMatrix in="SourceAlpha" type="matrix" values="0 0 0 0 0 0 0 0 0 0 0 0 0 0 0 0 0 0 127 0" result="hardAlpha"/>
<feOffset dy="10"/>
<feGaussianBlur stdDeviation="10"/>
<feComposite in2="hardAlpha" operator="out"/>
<feColorMatrix type="matrix" values="0 0 0 0 0 0 0 0 0 0 0 0 0 0 0 0 0 0 0.05 0"/>
<feBlend mode="normal" in2="BackgroundImageFix" result="effect1_dropShadow_2872_1177"/>
<feBlend mode="normal" in="SourceGraphic" in2="effect1_dropShadow_2872_1177" result="shape"/>
</filter>
</defs>
</svg>
