<svg width="374" height="85" viewBox="0 0 374 85" fill="none" xmlns="http://www.w3.org/2000/svg">
<path d="M163.137 48.9097C166.858 32.6534 156.695 16.459 140.439 12.7385C124.183 9.01793 107.988 19.1802 104.268 35.4365C100.547 51.6928 110.71 67.8872 126.966 71.6077C143.222 75.3283 159.417 65.166 163.137 48.9097Z" fill="#FFC7AA"/>
<mask id="mask0_2166_25042" style="mask-type:luminance" maskUnits="userSpaceOnUse" x="103" y="11" width="61" height="62">
<path d="M163.137 48.9097C166.858 32.6534 156.695 16.459 140.439 12.7385C124.183 9.01793 107.988 19.1802 104.268 35.4365C100.547 51.6928 110.71 67.8872 126.966 71.6077C143.222 75.3283 159.417 65.166 163.137 48.9097Z" fill="white"/>
</mask>
<g mask="url(#mask0_2166_25042)">
<path d="M128.192 49.293C128.192 49.293 118.096 51.1325 114.338 56.4946C111.464 60.5941 109.678 72.3663 109.678 72.3663H153.815C153.815 72.3663 151.936 57.9679 148.373 54.5684C144.811 51.1689 139.398 50.3537 139.398 50.3537L128.192 49.293Z" fill="#312A45"/>
<path d="M126.249 49.7441C126.249 49.7441 125.959 55.1127 128.171 57.2362C130.383 59.3598 134.888 56.2301 134.888 56.2301C134.888 56.2301 136.866 58.0744 139.046 57.5155C141.226 56.9566 140.41 52.1808 139.057 50.3213L126.249 49.7441Z" fill="#4D7D80"/>
<path d="M137.594 50.3534L128.796 49.8105C125.422 49.8105 120.65 49.9192 119.672 43.6194C119.433 42.0825 120.383 36.8794 121.301 35.2558C123.307 31.71 121.177 31.762 122.945 26.2385C124.994 19.8326 132.453 21.9151 132.453 21.9151C132.453 21.9151 144.823 25.3951 145.658 28.9686C146.944 34.4726 143.842 33.1933 145.658 37.2716C146.568 39.316 147.081 45.0888 144.545 48.0731C142.699 50.2448 139.849 50.3534 137.594 50.3534Z" fill="#9E3838"/>
<path d="M138.255 51.5845C136.058 60.5287 127.422 52.3326 127.096 49.2921C128.458 45.0146 128.002 40.4414 128.002 40.4414L138.339 44.0998C138.315 44.4015 138.291 44.7042 138.267 45.0085C138.154 46.4113 138.045 47.8456 138.084 49.3614C138.103 50.0822 138.154 50.8212 138.255 51.5845Z" fill="#E69680"/>
<path d="M138.082 49.3609C132.658 48.1738 129.115 42.5996 129.115 42.5996L138.265 45.0081C138.151 46.4108 138.043 47.8452 138.082 49.3609Z" fill="#161F29"/>
<path d="M140.57 36.4298C140.57 36.4298 141.35 33.8846 143.422 34.4435C145.494 35.0029 145.635 41.8767 141.701 41.6983L140.57 36.4298Z" fill="#E06C5C"/>
<path d="M143.622 35.9712C143.62 36.198 143.609 36.4396 143.589 36.6951C143.568 36.9795 143.536 37.2778 143.494 37.5895C143.447 37.9463 143.386 38.3199 143.313 38.7031C143.271 38.9338 143.224 39.168 143.172 39.4049C142.374 43.0875 140.833 44.7764 139.07 45.6375C136.165 47.0563 128.967 43.9945 127.845 41.2682C127.034 39.2979 127.047 40.1136 126.832 34.8053C126.615 29.4974 128.778 26.578 128.778 26.578C131.71 23.2188 136.95 23.7228 140.355 25.9433C143.761 28.1622 143.652 32.2955 143.622 35.9712Z" fill="#E69680"/>
<path d="M139.048 40.8543C138.791 40.8976 138.499 40.9114 138.168 40.8807C136.456 40.721 135.164 39.3658 135.11 39.3083C135.027 39.2204 135.032 39.0818 135.12 38.9991C135.208 38.916 135.346 38.9203 135.429 39.0082C135.441 39.0212 136.665 40.301 138.209 40.4447C139.738 40.5876 140.273 39.6278 140.279 39.6178C140.336 39.5113 140.469 39.4715 140.575 39.5286C140.682 39.5858 140.721 39.7187 140.664 39.8252C140.642 39.8659 140.201 40.659 139.048 40.8543Z" fill="#302922"/>
<path d="M139.441 42.1094C139.545 42.0358 139.605 41.9808 139.615 41.9717C139.733 41.863 139.74 41.6799 139.631 41.5625C139.523 41.4452 139.341 41.4361 139.223 41.5457C139.188 41.5773 138.408 42.2695 137.414 41.902C137.264 41.8466 137.097 41.9232 137.041 42.0734C136.986 42.2237 137.063 42.3903 137.213 42.4453C138.244 42.8263 139.09 42.3596 139.441 42.1094Z" fill="#E06C5C"/>
<path d="M138.15 38.5821C138.025 38.5946 137.892 38.5955 137.752 38.5808C137.617 38.5665 137.518 38.4448 137.533 38.3093C137.547 38.1734 137.669 38.0755 137.804 38.0898C138.34 38.1465 138.728 37.8941 138.922 37.7266C138.152 36.6737 137.736 34.0492 137.717 33.931C137.696 33.7963 137.789 33.6699 137.924 33.6491C138.062 33.6296 138.185 33.7201 138.206 33.8552C138.333 34.6717 138.801 36.93 139.432 37.5673C139.52 37.656 139.528 37.7967 139.45 37.8946C139.427 37.9223 138.958 38.5003 138.15 38.5821Z" fill="#161F29"/>
<path d="M136.067 31.1212C136.067 31.1212 134.685 30.4986 133.438 31.3823C132.741 31.8758 133.149 32.604 134.049 32.2473C134.679 31.9979 135.027 31.9044 135.749 31.9711C136.471 32.0377 136.414 31.2316 136.067 31.1212Z" fill="#9E3838"/>
<path d="M140.102 31.3287C140.102 31.3287 141.517 30.7845 142.713 31.7361C143.381 32.2678 142.933 32.9722 142.054 32.5652C141.44 32.2812 141.096 32.1687 140.372 32.1946C139.647 32.2215 139.749 31.4192 140.102 31.3287Z" fill="#9E3838"/>
<path d="M128.173 34.1266C128.173 34.1266 126.936 31.9961 124.772 32.9516C122.608 33.9071 123.602 41.4208 127.859 40.5697L128.173 34.1266Z" fill="#E69680"/>
<path d="M128.541 30.0753C128.541 30.0753 129.742 32.4492 129.093 33.8242C128.445 35.1996 128.579 36.8288 128.579 36.8288C128.579 36.8288 126.125 34.8187 126.728 31.6253C127.333 28.4314 128.541 30.0753 128.541 30.0753Z" fill="#9E3838"/>
<path d="M127.271 37.6423C127.3 37.7509 127.235 37.8622 127.126 37.8903C127.111 37.8942 127.097 37.8964 127.082 37.8973C126.989 37.9007 126.902 37.8384 126.878 37.7444C126.874 37.7323 126.683 37.0214 126.17 36.3772C125.753 36.7521 125.421 37.0989 125.416 37.1028C125.378 37.1435 125.328 37.1643 125.277 37.1656C125.224 37.1673 125.171 37.1491 125.129 37.1102C125.048 37.0327 125.046 36.9037 125.123 36.8218C125.138 36.8062 125.47 36.4595 125.897 36.0746C125.573 35.759 125.153 35.4949 124.621 35.3936C124.511 35.3723 124.44 35.2658 124.461 35.1559C124.482 35.0446 124.588 34.9727 124.698 34.9939C126.661 35.3702 127.248 37.55 127.271 37.6423Z" fill="#161F29"/>
<path d="M134.083 19.6462C134.083 19.6462 141.382 19.2146 144.476 23.6514C147.57 28.0882 144.98 32.0981 144.98 32.0981C144.98 32.0981 140.448 32.9978 134.728 26.7452C134.728 26.7452 134.184 31.8431 129.952 32.0981C125.72 32.3531 126.717 28.3566 126.717 28.3566C126.717 28.3566 125.098 20.8269 134.083 19.6462Z" fill="#9E3838"/>
<path d="M134.885 35.2415C134.885 35.8247 134.605 36.2979 134.26 36.2979C133.914 36.2979 133.635 35.8251 133.635 35.2415C133.635 34.6583 133.915 34.1855 134.26 34.1855C134.605 34.1855 134.885 34.6583 134.885 35.2415Z" fill="#161F29"/>
<path d="M141.188 35.5544C141.188 36.1376 140.908 36.6104 140.563 36.6104C140.218 36.6104 139.938 36.1376 139.938 35.5544C139.938 34.9713 140.218 34.498 140.563 34.498C140.908 34.498 141.188 34.9713 141.188 35.5544Z" fill="#161F29"/>
</g>
<path d="M352.901 63.3076C364.556 51.653 364.556 32.7572 352.901 21.1026C341.247 9.448 322.351 9.448 310.696 21.1026C299.042 32.7572 299.042 51.653 310.696 63.3076C322.351 74.9622 341.247 74.9622 352.901 63.3076Z" fill="#FFC7AA"/>
<mask id="mask1_2166_25042" style="mask-type:luminance" maskUnits="userSpaceOnUse" x="301" y="12" width="61" height="61">
<path d="M352.901 63.3076C364.556 51.653 364.556 32.7572 352.901 21.1026C341.247 9.448 322.351 9.448 310.696 21.1026C299.042 32.7572 299.042 51.653 310.696 63.3076C322.351 74.9622 341.247 74.9622 352.901 63.3076Z" fill="white"/>
</mask>
<g mask="url(#mask1_2166_25042)">
<path d="M327 19.9453C327 19.9453 321.641 20.3103 318.707 24.6586C315.774 29.0073 316.771 34.816 318.062 39.6864C319.353 44.5567 314.365 50.3432 315.48 54.4322C316.595 58.5212 327 55.896 327 55.896V19.9453Z" fill="#7A615A"/>
<path d="M342.033 40.1426C342.033 40.1426 341.565 42.2675 343.338 46.7857C345.11 51.3039 341.438 55.235 341.438 55.235L335.121 53.1815L336.01 41.603L342.033 40.1426Z" fill="#7A615A"/>
<path d="M344.099 28.3027C344.099 28.3027 344.613 34.0828 342.076 35.74C339.538 37.3977 341.44 29.9279 341.44 29.9279L344.099 28.3027Z" fill="#7A615A"/>
<path d="M354.266 73.3669L307.377 71.7798C307.377 71.7798 308.12 63.0969 310.478 58.2339C310.737 57.7041 311.012 57.2155 311.312 56.7923C315.259 51.1611 325.856 49.2305 325.856 49.2305L337.619 50.3434C337.619 50.3434 343.304 51.2018 347.046 54.7713C347.769 55.4615 348.463 56.5253 349.112 57.7863C351.81 63.0392 354.266 73.3669 354.266 73.3669Z" fill="#333E67"/>
<path d="M336.408 51.6343C334.101 61.0245 325.034 52.4195 324.691 49.2278C326.122 44.737 325.643 39.9355 325.643 39.9355L336.496 43.7764C336.471 44.093 336.445 44.4109 336.42 44.7301C336.3 46.203 336.187 47.7087 336.228 49.3001C336.248 50.0566 336.302 50.8324 336.408 51.6343Z" fill="#E69680"/>
<path d="M336.225 49.3035C330.53 48.0574 326.811 42.2051 326.811 42.2051L336.416 44.7335C336.297 46.2063 336.184 47.7125 336.225 49.3035Z" fill="#161F29"/>
<path d="M338.842 35.7319C338.842 35.7319 339.661 33.0597 341.836 33.6468C344.011 34.2339 344.159 41.4503 340.029 41.2634L338.842 35.7319Z" fill="#E06C5C"/>
<path d="M342.065 35.2432C342.063 35.4816 342.051 35.7353 342.031 36.0032C342.009 36.3019 341.975 36.6151 341.932 36.9424C341.882 37.3168 341.818 37.7088 341.742 38.1114C341.697 38.3541 341.648 38.5997 341.593 38.8483C340.755 42.7148 339.137 44.488 337.286 45.3917C334.237 46.8816 326.68 43.6668 325.502 40.8046C324.651 38.7362 324.664 39.5924 324.438 34.0195C324.21 28.447 326.481 25.3819 326.481 25.3819C329.559 21.8552 335.06 22.3841 338.636 24.7153C342.212 27.0447 342.096 31.384 342.065 35.2432Z" fill="#E69680"/>
<path d="M337.238 40.37C336.968 40.4158 336.661 40.4299 336.314 40.3978C334.517 40.2301 333.16 38.8073 333.103 38.7466C333.017 38.6541 333.021 38.5087 333.113 38.4218C333.206 38.3349 333.351 38.3392 333.438 38.4316C333.451 38.4453 334.735 39.7885 336.356 39.94C337.962 40.0897 338.524 39.082 338.529 39.0718C338.59 38.9597 338.729 38.9181 338.841 38.9785C338.953 39.0384 338.994 39.1779 338.934 39.2896C338.911 39.3328 338.448 40.1655 337.238 40.37Z" fill="#302922"/>
<path d="M337.663 41.6907C337.772 41.6132 337.836 41.5555 337.846 41.5461C337.969 41.4318 337.977 41.2397 337.863 41.116C337.749 40.9928 337.558 40.9834 337.434 41.0985C337.397 41.1314 336.579 41.8584 335.535 41.4725C335.377 41.4143 335.202 41.4947 335.144 41.6522C335.086 41.8096 335.166 41.9846 335.324 42.0428C336.406 42.4433 337.295 41.9534 337.663 41.6907Z" fill="#E06C5C"/>
<path d="M336.3 37.9809C336.169 37.9941 336.03 37.995 335.882 37.9796C335.74 37.9642 335.637 37.8367 335.652 37.6946C335.667 37.5521 335.795 37.449 335.937 37.464C336.499 37.5235 336.906 37.2586 337.111 37.0827C336.302 35.9775 335.865 33.2222 335.846 33.0977C335.824 32.9561 335.921 32.8239 336.062 32.8016C336.207 32.7811 336.336 32.8765 336.358 33.0177C336.492 33.8748 336.983 36.2458 337.645 36.9146C337.738 37.0078 337.746 37.1555 337.664 37.2582C337.641 37.2877 337.149 37.8949 336.3 37.9809Z" fill="#161F29"/>
<path d="M334.098 30.1552C334.098 30.1552 332.647 29.5018 331.338 30.4291C330.607 30.9472 331.035 31.7119 331.98 31.3371C332.641 31.0752 333.007 30.9772 333.765 31.0474C334.523 31.1176 334.463 30.2707 334.098 30.1552Z" fill="#7A615A"/>
<path d="M338.355 30.3639C338.355 30.3639 339.841 29.7922 341.096 30.7918C341.797 31.3502 341.327 32.0896 340.404 31.6626C339.76 31.3643 339.399 31.2462 338.639 31.2736C337.878 31.3006 337.985 30.4585 338.355 30.3639Z" fill="#7A615A"/>
<path d="M325.813 33.3049C325.813 33.3049 324.515 31.0682 322.243 32.0712C319.971 33.0746 321.015 40.9629 325.484 40.0691L325.813 33.3049Z" fill="#E69680"/>
<path d="M326.212 29.0533C326.212 29.0533 327.473 31.5453 326.792 32.9891C326.11 34.4332 326.252 36.1431 326.252 36.1431C326.252 36.1431 323.676 34.0327 324.309 30.6801C324.943 27.328 326.212 29.0533 326.212 29.0533Z" fill="#7A615A"/>
<path d="M324.893 37.0048C324.923 37.119 324.855 37.2354 324.74 37.2654C324.724 37.2696 324.709 37.2718 324.694 37.2726C324.596 37.2765 324.505 37.2106 324.479 37.1122C324.476 37.0993 324.275 36.3531 323.736 35.6766C323.298 36.0702 322.95 36.4344 322.945 36.4387C322.905 36.4815 322.852 36.5028 322.799 36.5046C322.744 36.5067 322.688 36.487 322.643 36.4464C322.558 36.3651 322.556 36.2299 322.637 36.1438C322.653 36.1272 323.001 35.7634 323.45 35.3591C323.109 35.0279 322.669 34.7502 322.11 34.6441C321.994 34.6218 321.919 34.5101 321.941 34.3946C321.964 34.2778 322.075 34.202 322.191 34.2247C324.252 34.6192 324.868 36.9076 324.893 37.0048Z" fill="#161F29"/>
<path d="M332.844 38.2146C330.917 38.4097 329.19 37.0002 328.995 35.0725C328.799 33.1452 330.209 31.4182 332.137 31.2231C334.065 31.028 335.791 32.4375 335.986 34.3648C336.182 36.2929 334.772 38.0194 332.844 38.2146ZM332.189 31.7392C330.546 31.9056 329.344 33.3776 329.51 35.0203C329.677 36.6634 331.149 37.865 332.792 37.6989C334.435 37.5325 335.636 36.0605 335.47 34.4174C335.304 32.7743 333.832 31.5727 332.189 31.7392Z" fill="#FDFEFF"/>
<path d="M340.29 31.9677C338.647 32.1337 337.446 33.6061 337.612 35.2488C337.779 36.8919 339.251 38.0935 340.894 37.927C342.537 37.761 343.738 36.2886 343.572 34.6455C343.406 33.0028 341.934 31.8012 340.29 31.9677ZM340.946 38.4431C339.018 38.6382 337.291 37.2287 337.096 35.301C336.901 33.3738 338.311 31.6468 340.238 31.4516C342.166 31.2565 343.893 32.666 344.088 34.5933C344.283 36.5214 342.874 38.2479 340.946 38.4431Z" fill="#FDFEFF"/>
<path d="M337.156 35.215C336.634 34.6365 336.018 35.0845 335.949 35.1376L335.629 34.7298C335.989 34.4444 336.854 34.1055 337.541 34.8675L337.156 35.215Z" fill="#FDFEFF"/>
<path d="M329.316 34.0487C329.24 34.0564 329.16 34.0303 329.104 33.9713C329.075 33.9486 328.63 33.6118 326.769 33.5006C326.626 33.492 326.517 33.3692 326.526 33.2263C326.534 33.083 326.66 32.9717 326.8 32.9832C328.943 33.1112 329.413 33.537 329.486 33.6213C329.58 33.7299 329.567 33.8934 329.46 33.9867C329.417 34.023 329.367 34.0436 329.316 34.0487Z" fill="#FDFEFF"/>
<path d="M343.854 34.8793C343.802 34.8844 343.747 34.8741 343.699 34.8455C343.298 34.6148 342.548 34.5883 342.292 34.5977C342.149 34.6033 342.029 34.4912 342.024 34.3483C342.018 34.2053 342.129 34.083 342.273 34.0795C342.317 34.0783 343.348 34.0445 343.958 34.3966C344.083 34.4681 344.125 34.6268 344.053 34.7505C344.009 34.8258 343.935 34.8712 343.854 34.8793Z" fill="#FDFEFF"/>
<path d="M332.039 18.1019C332.039 18.1019 339.702 17.6487 342.95 22.3068C346.199 26.9649 343.481 31.1746 343.481 31.1746C343.481 31.1746 338.723 32.1189 332.717 25.555C332.717 25.555 332.146 30.9071 327.703 31.1746C323.26 31.4424 324.307 27.2465 324.307 27.2465C324.307 27.2465 322.606 19.3411 332.039 18.1019Z" fill="#7A615A"/>
<path d="M333.153 34.4134C333.177 35.0253 332.902 35.5327 332.54 35.5464C332.177 35.5601 331.865 35.0753 331.841 34.4634C331.818 33.8515 332.092 33.3441 332.455 33.3304C332.817 33.3167 333.13 33.8015 333.153 34.4134Z" fill="#161F29"/>
<path d="M339.63 34.7024C339.653 35.3143 339.378 35.8218 339.016 35.8355C338.654 35.8492 338.341 35.3644 338.318 34.7525C338.294 34.1406 338.569 33.6331 338.931 33.6194C339.294 33.6057 339.606 34.0905 339.63 34.7024Z" fill="#161F29"/>
<path d="M349.108 57.7843C345.592 58.5071 339.497 59.341 329.5 59.5751C315.987 59.8913 311.772 58.84 310.475 58.2319C310.733 57.7022 311.009 57.2135 311.309 56.7903C315.256 51.1592 325.853 49.2285 325.853 49.2285L337.616 50.3415C337.616 50.3415 343.301 51.1998 347.043 54.7694C347.765 55.4596 348.459 56.5233 349.108 57.7843Z" fill="#E69680"/>
</g>
<path d="M259.551 47.0973C262.258 30.6425 251.113 15.1091 234.658 12.4024C218.203 9.69583 202.67 20.8409 199.963 37.2958C197.257 53.7506 208.402 69.284 224.857 71.9906C241.311 74.6972 256.845 63.5521 259.551 47.0973Z" fill="#FFC7AA"/>
<mask id="mask2_2166_25042" style="mask-type:luminance" maskUnits="userSpaceOnUse" x="199" y="11" width="61" height="62">
<path d="M259.553 47.0973C262.26 30.6425 251.115 15.1091 234.66 12.4024C218.205 9.69583 202.672 20.8409 199.965 37.2958C197.259 53.7506 208.404 69.284 224.859 71.9906C241.313 74.6972 256.847 63.5521 259.553 47.0973Z" fill="white"/>
</mask>
<g mask="url(#mask2_2166_25042)">
<path d="M252.89 72.1125H200.141C200.141 72.1125 201.391 59.4208 207.114 55.3065C210.534 52.8504 215.118 51.2961 218.248 50.4484C220.355 49.8709 221.801 49.6172 221.801 49.6172L233.466 50.1116C233.466 50.1116 234.829 50.361 236.766 50.9346C239.193 51.6538 242.518 52.8837 245.198 54.7705C250.027 58.17 252.89 72.1125 252.89 72.1125Z" fill="#4D7D80"/>
<path d="M233.595 47.169L233.47 50.1121C233.114 50.3758 232.756 50.6031 232.397 50.7979C227.157 53.6506 221.805 49.6181 221.805 49.6181L222.237 39.4141L232.24 46.2446L233.595 47.169Z" fill="#E69680"/>
<path d="M233.583 47.1692L233.458 50.1123C233.102 50.376 232.744 50.6033 232.385 50.7981C228.107 48.8914 225.133 44.1914 225.133 44.1914L232.228 46.2444L233.583 47.1692Z" fill="#302922"/>
<path d="M237.814 34.2812C237.814 34.2812 239.57 32.3771 240.431 34.392C241.292 36.4069 240.396 40.3731 237.88 39.6116L237.814 34.2812Z" fill="#E06C5C"/>
<path d="M239.977 25.9742C239.977 25.9742 241.888 26.744 240.96 28.9187C240.032 31.0934 240.098 31.544 240.342 32.9048C240.586 34.2655 239.459 35.3219 239.072 35.1717C238.684 35.021 235.375 24.8447 239.977 25.9742Z" fill="#302922"/>
<path d="M239.308 41.2828C239.308 41.2828 239.059 47.3678 232.731 47.0859C226.441 46.8076 222.364 41.6867 222.151 41.4486C222.147 41.4447 222.144 41.4425 222.144 41.4425L222.129 40.1606L222.053 33.508L222.012 29.9522C222.012 29.9522 221.479 23.5299 227.599 22.6225C232.071 21.9588 236.199 22.8718 238.2 25.2747C238.264 25.3522 238.327 25.4314 238.386 25.5128C239.012 26.354 239.391 27.3636 239.454 28.5382L239.381 34.9189L239.363 36.4827L239.308 41.2828Z" fill="#E69680"/>
<path d="M234.538 39.8199C234.26 39.8329 233.947 39.8095 233.6 39.7342C231.802 39.3428 230.605 37.7361 230.555 37.6677C230.479 37.5634 230.501 37.4171 230.605 37.3404C230.71 37.2638 230.856 37.2863 230.933 37.3902C230.944 37.4054 232.078 38.9228 233.699 39.2761C235.306 39.6255 235.998 38.6756 236.005 38.6657C236.08 38.5596 236.226 38.5349 236.332 38.6094C236.437 38.6839 236.462 38.8302 236.388 38.9358C236.359 38.9765 235.787 39.7619 234.538 39.8199Z" fill="#302922"/>
<path d="M234.803 41.2036C234.923 41.1386 234.994 41.088 235.006 41.0797C235.145 40.9797 235.176 40.7858 235.076 40.6468C234.976 40.5083 234.784 40.4754 234.644 40.5762C234.603 40.6052 233.685 41.2399 232.676 40.7204C232.524 40.642 232.337 40.7018 232.259 40.8542C232.181 41.0066 232.24 41.1932 232.393 41.2715C233.438 41.8101 234.397 41.4239 234.803 41.2036Z" fill="#E06C5C"/>
<path d="M235.064 36.9567C234.495 36.858 233.874 36.632 233.525 36.4939C233.397 36.4428 233.334 36.2978 233.385 36.1692C233.436 36.0406 233.583 35.977 233.709 36.0289C234.652 36.4021 235.68 36.6143 235.827 36.4649C235.825 36.4649 235.828 36.4437 235.818 36.4034C235.34 34.2998 234.264 34.0461 234.253 34.0435C234.135 34.0184 234.048 33.9114 234.052 33.7906L234.112 31.8402C234.116 31.7021 234.232 31.5939 234.37 31.5978C234.504 31.6021 234.616 31.7173 234.612 31.8554L234.557 33.6209C234.969 33.7967 235.874 34.3903 236.306 36.2917C236.375 36.5978 236.239 36.7693 236.151 36.8442C235.932 37.0338 235.515 37.0351 235.064 36.9567Z" fill="#302922"/>
<path d="M227.918 29.6367C228.209 30.3619 229.027 30.7208 229.757 30.4429C230.183 30.2805 230.684 30.1242 231.21 30.0333C231.955 29.9038 232.442 29.1808 232.273 28.444C232.273 28.444 229.338 28.0491 227.918 29.6367Z" fill="#302922"/>
<path d="M239.38 30.1208C239.029 30.8187 238.183 31.107 237.479 30.7685C237.069 30.5706 236.582 30.3728 236.066 30.2372C235.335 30.0455 234.91 29.2839 235.141 28.5635C235.141 28.5635 238.099 28.4184 239.38 30.1208Z" fill="#302922"/>
<path d="M230.131 32.8684C230.105 33.4767 229.809 33.9585 229.468 33.9438C229.128 33.9295 228.872 33.4247 228.898 32.816C228.924 32.2077 229.221 31.7258 229.562 31.7406C229.902 31.7553 230.157 32.2601 230.131 32.8684Z" fill="#302922"/>
<path d="M236.538 33.1242C236.512 33.7325 236.215 34.2144 235.874 34.1997C235.534 34.1854 235.279 33.6806 235.304 33.0719C235.33 32.4636 235.627 31.9817 235.968 31.9964C236.308 32.0111 236.563 32.516 236.538 33.1242Z" fill="#302922"/>
<path d="M224.247 39.0645C224.215 39.1307 223.336 40.9547 222.161 41.4495C222.158 41.4456 222.155 41.4431 222.155 41.4431L222.141 40.1615C222.141 40.1615 223.147 40.0334 224.247 39.0645Z" fill="#302922"/>
<path d="M223.313 34.7909C223.313 34.7909 221.018 31.42 219.127 33.9125C217.569 35.9664 220.112 41.5985 223.099 39.8321L223.313 34.7909Z" fill="#E69680"/>
<path d="M222.804 38.833C222.813 38.8334 222.822 38.833 222.831 38.8326C222.969 38.8235 223.073 38.704 223.064 38.5658C222.878 35.7738 220.58 34.7122 220.482 34.6685C220.356 34.6118 220.208 34.6685 220.151 34.7949C220.094 34.9209 220.151 35.069 220.277 35.1257C220.363 35.1651 222.398 36.115 222.564 38.5996C222.573 38.7282 222.678 38.8278 222.804 38.833Z" fill="#302922"/>
<path d="M220.518 37.2163C220.573 37.2185 220.63 37.2029 220.678 37.1669C220.903 36.9998 221.581 36.5941 222.008 36.7227C222.141 36.7626 222.28 36.6877 222.32 36.5552C222.36 36.4227 222.285 36.2829 222.153 36.243C221.409 36.0188 220.482 36.6877 220.378 36.7652C220.267 36.8478 220.244 37.0046 220.327 37.1158C220.374 37.1786 220.445 37.2133 220.518 37.2163Z" fill="#302922"/>
<path d="M226.55 27.6641C226.55 27.6641 226.461 28.9131 225.794 30.5371C225.126 32.1611 224.102 32.1217 224.057 33.0988C224.012 34.076 224.513 35.3229 224.24 35.4562C223.968 35.59 223.612 35.7233 223.612 35.7233C223.612 35.7233 222.368 33.7058 222.057 33.5084C221.746 33.3105 221.107 32.8715 220.584 32.9984C220.584 32.9984 219.648 32.9248 218.892 34.302C218.892 34.302 218.223 33.3465 218.647 31.997C219.07 30.6475 219.722 31.0969 219.686 29.7366C219.649 28.3767 219.738 28.1537 219.738 28.1537L226.55 27.6641Z" fill="#302922"/>
<path d="M226.096 27.6362C226.096 27.6362 220.007 28.3756 219.74 28.1531C219.473 27.9306 220.185 21.6966 222.724 19.6929C225.262 17.6893 231.391 17.3329 235.295 18.6244C239.198 19.9159 239.957 25.5333 239.957 25.5333L226.096 27.6362Z" fill="#9E3838"/>
<path d="M225.505 27.664C225.505 27.664 229.433 29.6231 231.888 29.7049C234.343 29.7863 237.193 27.9307 239.983 28.5615C242.773 29.1927 243.248 30.098 244.08 29.7049C244.911 29.3113 240.691 25.1395 237.488 24.5537C234.283 23.9684 224.407 27.0656 225.505 27.664Z" fill="#FFF4E6"/>
<path d="M221.047 47.4941C221.047 47.4941 222.535 48.196 225.145 51.2802C227.755 54.3645 227.699 58.8169 227.699 58.8169L218.246 50.446C218.246 50.446 219.563 48.1042 221.047 47.4941Z" fill="#FFF4E6"/>
<path d="M227.696 58.8189V72.1133H200.143C200.143 72.1133 201.393 59.4216 207.116 55.3073C210.536 52.8512 215.12 51.2969 218.25 50.4492L227.696 58.8189Z" fill="#312A45"/>
<path d="M233.488 49.6163L233.215 58.341C233.215 58.341 236.697 54.6293 236.766 50.9342C236.766 50.9342 235.625 47.9503 233.559 47.9512L233.488 49.6163Z" fill="#FFF4E6"/>
<path d="M252.893 72.1134H234.046C233.809 67.7749 233.215 58.3411 233.215 58.3411L236.768 50.9355C239.195 51.6547 242.52 52.8847 245.2 54.7714C250.029 58.1709 252.893 72.1134 252.893 72.1134Z" fill="#312A45"/>
</g>
<path d="M65.6482 49.0497C69.4121 32.8034 59.2932 16.5819 43.0468 12.818C26.8005 9.05409 10.579 19.1731 6.81514 35.4194C3.05124 51.6657 13.1702 67.8872 29.4165 71.6511C45.6629 75.415 61.8843 65.296 65.6482 49.0497Z" fill="#FFC7AA"/>
<mask id="mask3_2166_25042" style="mask-type:luminance" maskUnits="userSpaceOnUse" x="6" y="12" width="61" height="61">
<path d="M65.6482 49.0497C69.4121 32.8034 59.2932 16.5819 43.0468 12.818C26.8005 9.05409 10.579 19.1731 6.81514 35.4194C3.05124 51.6657 13.1702 67.8872 29.4165 71.6511C45.6629 75.415 61.8843 65.296 65.6482 49.0497Z" fill="white"/>
</mask>
<g mask="url(#mask3_2166_25042)">
<path d="M58.987 70.7621L35.5976 74.973L9.38672 70.7621C9.38672 70.7621 10.563 58.8241 15.9441 54.9554C16.2099 54.764 16.4874 54.5761 16.7688 54.3964C22.1421 50.9459 29.7541 49.6055 29.7541 49.6055L40.7232 50.0705C40.7232 50.0705 46.0848 51.0515 50.4649 53.6223C50.9065 53.8843 51.3403 54.1574 51.7546 54.4505C56.2945 57.6483 58.987 70.7621 58.987 70.7621Z" fill="#4D7D80"/>
<path d="M31.8835 43.486C31.8835 43.486 31.5791 48.1757 29.1901 46.1478C27.4315 44.6545 28.7511 43.4107 26.9358 41.7915C26.1955 41.1312 23.9779 39.9458 24.6039 37.543C25.23 35.1402 26.7635 34.9371 25.7305 33.8474C24.697 32.7577 22.9289 30.0886 26.1786 27.639C29.4278 25.1898 26.1279 22.3938 30.2517 21.0885C34.3755 19.7828 36.135 21.4609 39.5379 19.7546C42.9409 18.0484 46.1295 17.505 48.344 18.9134C51.3729 20.8396 48.2111 27.3311 45.7065 27.4909C43.2011 27.6511 31.8835 43.486 31.8835 43.486Z" fill="#302922"/>
<path d="M40.8423 47.3042L40.7249 50.0716C40.3903 50.3193 40.053 50.5331 39.7162 50.7163C34.7888 53.3988 29.7559 49.6066 29.7559 49.6066L30.1624 40.0117L39.5685 46.4344L40.8423 47.3042Z" fill="#9B6446"/>
<path d="M40.8399 47.3042L40.7226 50.0716C40.3879 50.3192 40.0507 50.5331 39.7138 50.7162C35.6909 48.9234 32.8945 44.5039 32.8945 44.5039L39.5662 46.4344L40.8399 47.3042Z" fill="#302922"/>
<path d="M44.832 35.1857C44.832 35.1857 46.4824 33.3954 47.292 35.2896C48.1016 37.1841 47.2591 40.9139 44.8935 40.1974L44.832 35.1857Z" fill="#7C4E37"/>
<path d="M46.6061 26.5921C46.6061 26.5921 48.4033 27.316 47.5304 29.3608C46.6572 31.4056 46.7195 31.8294 46.949 33.1088C47.1785 34.3881 46.1186 35.3817 45.7545 35.2402C45.3908 35.099 42.2784 25.5296 46.6061 26.5921Z" fill="#302922"/>
<path d="M46.2164 41.768C46.2164 41.768 45.9826 47.4898 40.0314 47.2248C34.1173 46.9633 30.2836 42.1481 30.0832 41.9238C30.0797 41.9199 30.0771 41.9182 30.0771 41.9182L30.0633 40.7129L29.9914 34.4573L29.9524 31.1136C29.9524 31.1136 29.4515 25.0749 35.2062 24.2212C39.4109 23.5973 43.2927 24.4554 45.1743 26.7149C45.2353 26.7877 45.2938 26.8626 45.3488 26.9388C45.938 27.7298 46.2939 28.6792 46.3532 29.7836L46.2839 35.7834L46.267 37.2537L46.2164 41.768Z" fill="#9B6446"/>
<path d="M41.7326 40.3919C41.4707 40.4041 41.1771 40.3824 40.8507 40.3114C39.16 39.9434 38.0348 38.4329 37.9881 38.3684C37.9162 38.2705 37.937 38.1324 38.0352 38.0605C38.1331 37.9882 38.2708 38.0094 38.3431 38.1073C38.3535 38.1216 39.4198 39.5486 40.9446 39.8806C42.4547 40.2092 43.1063 39.3156 43.1128 39.3065C43.1834 39.207 43.3206 39.1836 43.4198 39.2537C43.5193 39.3239 43.5427 39.4615 43.4726 39.5607C43.4453 39.5988 42.9076 40.3374 41.7326 40.3919Z" fill="#302922"/>
<path d="M41.9639 41.6939C42.0764 41.6328 42.1435 41.5852 42.1543 41.5774C42.2851 41.483 42.3145 41.3012 42.2202 41.1704C42.1262 41.0401 41.9452 41.009 41.8141 41.1042C41.7755 41.1315 40.9127 41.7281 39.9641 41.2397C39.8208 41.1661 39.645 41.2224 39.5714 41.3653C39.4978 41.5086 39.5541 41.6839 39.697 41.7579C40.6806 42.2641 41.5824 41.9013 41.9639 41.6939Z" fill="#7C4E37"/>
<path d="M42.2185 37.7004C41.6838 37.6073 41.0989 37.3952 40.7716 37.2653C40.6508 37.2172 40.5919 37.0808 40.6396 36.9601C40.6876 36.8388 40.8257 36.7795 40.9448 36.828C41.8306 37.1791 42.7978 37.3783 42.9355 37.238C42.9342 37.238 42.9368 37.2181 42.9277 37.1804C42.4778 35.2023 41.466 34.9637 41.4557 34.9616C41.3444 34.9378 41.263 34.8373 41.2665 34.7239L41.3232 32.8899C41.3271 32.7601 41.4357 32.6583 41.5656 32.6622C41.692 32.6661 41.7977 32.7748 41.7934 32.9047L41.7423 34.565C42.1298 34.7304 42.9805 35.2885 43.3866 37.0765C43.452 37.3644 43.3234 37.5255 43.2411 37.596C43.0342 37.7727 42.6419 37.7744 42.2185 37.7004Z" fill="#302922"/>
<path d="M35.127 29.4607C35.2239 30.1889 35.8855 30.7058 36.6154 30.6218C37.0414 30.5729 37.5346 30.5469 38.0346 30.5859C38.7438 30.6409 39.3555 30.0953 39.3724 29.3845C39.3724 29.3845 36.7895 28.3432 35.127 29.4607Z" fill="#302922"/>
<path d="M45.8402 30.137C45.7376 30.8453 45.0908 31.3388 44.3846 31.2458C43.9725 31.1912 43.4954 31.1583 43.0105 31.1882C42.3229 31.2306 41.7367 30.689 41.7285 29.9954C41.7285 29.9954 44.2431 29.0213 45.8402 30.137Z" fill="#302922"/>
<path d="M45.3357 26.9401C44.4161 26.5699 43.7286 26.8487 42.2471 27.4263C40.1049 28.2606 37.7891 27.3302 35.7559 26.1798C33.7228 25.0295 32.4136 26.4548 33.0808 27.4544C33.7471 28.4541 33.6371 29.236 32.7998 30.4391C31.9625 31.6414 34.2082 32.3129 32.9128 33.2295C32.3673 33.6156 32.3729 34.227 32.5621 34.8049C32.7686 35.4353 32.1971 36.0471 31.5508 35.8981C30.881 35.6977 29.9779 34.4577 29.9779 34.4577L28.1621 30.1677C28.1621 30.1677 29.7437 24.303 35.4988 23.4497C39.7035 22.8258 43.5853 23.6839 45.4669 25.9434C45.5275 26.017 45.2803 26.8639 45.3357 26.9401Z" fill="#302922"/>
<path d="M37.9443 33.8579C37.9201 34.4302 37.6408 34.8827 37.3209 34.8692C37.0009 34.8558 36.7606 34.3809 36.7849 33.8085C36.8091 33.2362 37.0884 32.7837 37.4083 32.7972C37.7287 32.811 37.9686 33.2855 37.9443 33.8579Z" fill="#302922"/>
<path d="M43.5849 34C43.5606 34.5719 43.2814 35.0248 42.9614 35.0114C42.6415 34.998 42.4016 34.523 42.4255 33.9511C42.4497 33.3787 42.729 32.9263 43.0489 32.9397C43.3693 32.9532 43.6091 33.4277 43.5849 34Z" fill="#302922"/>
<path d="M32.0526 39.6816C32.0227 39.744 31.1958 41.4589 30.0913 41.9243C30.0879 41.9208 30.0857 41.9182 30.0857 41.9182L30.0723 40.7133C30.0723 40.7133 31.0182 40.5926 32.0526 39.6816Z" fill="#302922"/>
<path d="M31.1655 35.6641C31.1655 35.6641 29.0081 32.4945 27.23 34.8381C25.7645 36.7694 28.1561 42.0652 30.965 40.4044L31.1655 35.6641Z" fill="#9B6446"/>
<path d="M30.6766 39.4659C30.6853 39.4664 30.6939 39.4664 30.7026 39.4655C30.8325 39.4569 30.9307 39.3447 30.9221 39.2148C30.7467 36.5895 28.5859 35.5911 28.4941 35.55C28.3751 35.4967 28.2361 35.55 28.1828 35.6686C28.1296 35.7872 28.1824 35.9262 28.301 35.9799C28.3824 36.0167 30.296 36.9098 30.4519 39.2464C30.4597 39.3672 30.558 39.4607 30.6766 39.4659Z" fill="#302922"/>
<path d="M28.5462 37.9461C28.5981 37.9483 28.6514 37.9335 28.6964 37.8998C28.9081 37.7426 29.5458 37.3612 29.9476 37.4824C30.0723 37.5201 30.2039 37.4495 30.2411 37.3248C30.2788 37.2001 30.2082 37.069 30.0836 37.0313C29.3844 36.8204 28.512 37.4495 28.415 37.5223C28.3107 37.5997 28.2894 37.7474 28.3669 37.8517C28.4111 37.9106 28.4778 37.9435 28.5462 37.9461Z" fill="#302922"/>
<path d="M29.8273 47.8047C29.8273 47.8047 31.5366 50.8149 36.4769 51.6761L33.1519 55.9285L27.002 50.2274L29.8273 47.8047Z" fill="#D1932A"/>
<path d="M40.8071 48.0566C40.8071 48.0566 40.9166 50.311 37.6094 51.6748L40.8075 55.2154L43.3784 50.7149L40.8071 48.0566Z" fill="#D1932A"/>
<path d="M23.7124 70.7622H9.38672C9.38672 70.7622 10.563 58.8242 15.9441 54.9554C16.2099 54.7641 16.4874 54.5762 16.7688 54.3965C18.7028 56.1122 24.0878 61.7241 23.7124 70.7622Z" fill="#333E67"/>
<path d="M53.9193 70.762C54.1029 62.8175 51.7819 56.5303 50.4648 53.623C50.9064 53.885 51.3403 54.1582 51.7546 54.4513C56.2953 57.6477 58.9878 70.762 58.9878 70.762H53.9193Z" fill="#333E67"/>
</g>
<path d="M64.457 70.1373C71.8891 70.1373 77.914 63.8386 77.914 56.0687C77.914 48.2988 71.8891 42 64.457 42C57.0249 42 51 48.2988 51 56.0687C51 63.8386 57.0249 70.1373 64.457 70.1373Z" fill="#B8D9BA"/>
<path d="M63.1988 64.0209C63.0554 64.0209 62.9143 63.983 62.7879 63.9108C62.6616 63.8385 62.554 63.7341 62.4747 63.6067L57.263 55.2503C57.1995 55.1484 57.1554 55.0341 57.1334 54.9141C57.1114 54.7941 57.1118 54.6706 57.1346 54.5507C57.1575 54.4308 57.2023 54.3169 57.2664 54.2156C57.3306 54.1142 57.413 54.0273 57.5087 53.9599C57.6038 53.8918 57.7107 53.8444 57.823 53.8205C57.9354 53.7967 58.051 53.7968 58.1633 53.8209C58.2756 53.845 58.3824 53.8926 58.4773 53.961C58.5723 54.0293 58.6536 54.117 58.7165 54.2191L63.2094 61.4232L71.426 48.5251C71.5563 48.321 71.7571 48.1803 71.9845 48.1339C72.2119 48.0874 72.4473 48.1389 72.6391 48.2771C72.7339 48.3459 72.8151 48.4339 72.878 48.5361C72.9409 48.6383 72.9843 48.7528 73.0056 48.8729C73.027 48.993 73.0259 49.1165 73.0025 49.2361C72.979 49.3558 72.9337 49.4694 72.869 49.5703L63.9256 63.6152C63.8446 63.7408 63.7361 63.8435 63.6094 63.9142C63.4828 63.9849 63.3418 64.0215 63.1988 64.0209Z" fill="white"/>
</svg>
