<svg width="230" height="266" viewBox="0 0 230 266" fill="none" xmlns="http://www.w3.org/2000/svg">
<g filter="url(#filter0_d_2166_24745)">
<rect x="40" y="20" width="150" height="185.484" rx="20" fill="#B8D9BA"/>
</g>
<path d="M76.6185 105.497C60.7096 93.0654 56.456 81.0018 59.4288 68.5793C65.2858 45.0363 77.3722 51.9316 90.1042 46.9413C102.774 41.9008 109.13 32.2472 124.258 44.5088C139.386 56.7704 147.335 47.5142 165.276 56.1143C177.396 61.924 189.741 75.8215 177.045 90.8988C168.379 101.191 179.018 105.622 171.831 116.509C164.594 127.459 149.361 119.306 135.774 125.528C122.187 131.75 114.524 140.297 94.4399 128.986C86.9158 124.748 83.8788 111.17 76.6185 105.497Z" fill="#F4F6F9"/>
<path d="M138.301 82.6927L141.775 83.8472C141.775 83.8472 142.568 80.9834 140.861 80.1738C139.154 79.3642 138.301 82.6927 138.301 82.6927Z" fill="#373A4C"/>
<path d="M131.697 80.0959L135.171 81.2504C135.171 81.2504 136.074 78.4934 134.378 77.6615C133.094 77.0317 131.697 80.0959 131.697 80.0959Z" fill="#373A4C"/>
<path d="M160.44 102.313C151.208 104.603 143.772 107.02 127.975 106.596C122.231 106.442 113.747 105.323 105.137 103.911C90.0729 101.439 74.625 98.0687 72.7922 97.3944C72.2085 91.322 73.1148 84.4031 74.6174 78.982C75.0774 77.3239 75.5923 75.8067 76.1378 74.4955C70.8017 67.2866 76.4698 60.5917 83.8033 69.9158C86.4714 73.3082 89.0232 80.0712 99.5578 74.538C109.822 69.1469 113.314 71.7231 119.724 73.6478C125.142 75.2745 130.083 77.7422 133.904 79.1601C133.904 79.1601 145.76 86.6198 157.925 87.9277C166.483 88.8478 169.673 90.3127 170.054 92.6025C170.435 94.8925 169.673 100.024 160.44 102.313Z" fill="#262838"/>
<path d="M104.509 75.0891C104.509 75.0891 105.483 68.3891 104.382 64.0637C103.281 59.7384 101.629 50.9605 111.539 58.975C121.45 66.9896 127.802 76.6581 133.901 79.1599C139.999 81.6618 125.558 87.8106 121.068 87.4714C116.579 87.1322 103.789 77.9727 104.509 75.0891Z" fill="#262838"/>
<path d="M106.8 86.1854C95.0102 91.9178 102.73 101.366 105.137 103.912C90.0729 101.439 74.625 98.0691 72.7922 97.3948C72.2085 91.3224 73.1148 84.4035 74.6174 78.9824C78.346 81.7108 87.6403 86.7638 100.701 81.8321C110.073 78.2937 117.162 81.1476 106.8 86.1854Z" fill="#373A4C"/>
<path d="M122.983 69.9131C122.742 69.796 122.424 69.7137 122.031 69.6654C118.691 69.2532 115.685 74.0229 114.81 75.8947C114.594 76.3569 114.136 76.6283 113.659 76.6283C113.479 76.6283 113.296 76.5901 113.122 76.5087C112.487 76.2119 112.212 75.4561 112.507 74.8201C112.648 74.5164 115.647 68.1802 120.391 67.2168C121.285 68.1363 122.147 69.0396 122.983 69.9131Z" fill="#262838"/>
<path d="M121.65 81.5202C121.534 81.5202 121.416 81.5041 121.299 81.4704C120.625 81.2765 120.235 80.5718 120.429 79.8965C120.448 79.8287 120.919 78.2153 122.089 76.6759C123.731 74.5133 125.93 73.5122 128.448 73.7811C129.313 73.8736 130.051 74.091 130.646 74.4382C131.712 75.0602 131.892 76.9701 131.404 77.7759C130.1 76.8443 128.931 76.2887 128.44 76.2333C124.487 75.788 122.884 80.5517 122.871 80.5988C122.711 81.1569 122.203 81.5202 121.65 81.5202Z" fill="#373A4C"/>
<path d="M129.828 84.2684C129.697 84.2716 129.564 84.2546 129.433 84.2154C128.76 84.0144 128.378 83.3058 128.579 82.6325C128.631 82.4573 129.898 78.3323 133.432 77.4779C134.114 77.3132 134.993 77.8824 135.157 78.5654C135.305 79.1765 135.35 79.5962 135.182 79.6299C134.934 79.6795 134.706 79.7348 134.07 79.911C131.967 80.4932 131.022 83.3314 131.014 83.3602C130.852 83.9017 130.363 84.2553 129.828 84.2684Z" fill="#373A4C"/>
<path d="M136.416 86.8347C136.301 86.8347 136.185 86.8189 136.069 86.786C135.394 86.5942 135.002 85.8909 135.193 85.2149C135.237 85.0613 136.299 81.4374 139.753 80.0934C140.407 79.8391 141.367 80.2717 141.621 80.9265C141.875 81.5813 141.327 82.2104 140.673 82.465C138.421 83.3411 137.645 85.8839 137.638 85.9093C137.479 86.4692 136.97 86.8347 136.416 86.8347Z" fill="#373A4C"/>
<path d="M72.6348 90.7653C72.6348 90.7653 65.1246 99.0768 67.2703 104.392C69.4161 109.706 73.2559 112.901 84.4365 112.901C93.7537 112.901 98.4324 112.081 106.911 112.081C119.405 112.081 133.203 112.901 138.081 112.901C156.029 112.901 164.213 110.057 168.563 103.272C172.83 96.6147 170.701 91.2318 169.007 90.7229C167.313 90.2141 172.968 99.6581 157.722 102.881C142.475 106.104 131.7 102.752 111.259 96.8717C96.3047 92.57 99.8815 102.666 88.8139 100.065C75.3695 96.9058 72.6348 90.7653 72.6348 90.7653Z" fill="#2E3042"/>
<path d="M125.796 72.8253C125.054 72.0747 123.315 70.2564 123.029 70.0011C122.804 69.7996 122.424 69.7152 122.031 69.6669C118.691 69.2547 115.685 74.0244 114.81 75.8962C114.594 76.3584 114.136 76.6298 113.659 76.6298C113.479 76.6298 113.296 76.5916 113.122 76.5102C112.487 76.2134 112.212 75.4577 112.507 74.8216C112.648 74.518 115.647 68.1817 120.391 67.2183C121.011 67.092 121.663 67.058 122.34 67.1411C124.423 67.3972 125.336 68.409 125.736 69.213C126.332 70.4123 126.126 71.7897 125.796 72.8253Z" fill="#373A4C"/>
<path d="M57.6658 42.4245C57.4951 42.4245 57.3246 42.3667 57.1944 42.2511L52.289 37.8973C52.1641 37.7864 52.0938 37.6359 52.0938 37.4789C52.0938 37.3219 52.1641 37.1713 52.289 37.0604L57.1944 32.7065C57.4549 32.4754 57.8768 32.4755 58.1372 32.7065C58.3976 32.9376 58.3976 33.3123 58.1372 33.5434L53.7034 37.4789L58.1372 41.4142C58.3976 41.6453 58.3976 42.02 58.1372 42.2511C58.0072 42.3667 57.8365 42.4245 57.6658 42.4245Z" fill="white"/>
<path d="M64.1574 38.0703H53.1003C52.732 38.0703 52.4336 37.8054 52.4336 37.4785C52.4336 37.1516 52.732 36.8867 53.1003 36.8867H64.1574C64.5257 36.8867 64.8241 37.1516 64.8241 37.4785C64.8241 37.8053 64.5255 38.0703 64.1574 38.0703Z" fill="white"/>
<path d="M176.892 42.5887H167.682C167.326 42.5887 167.032 42.3405 167.016 42.0249L166.677 35.6549C166.668 35.4933 166.734 35.3356 166.86 35.2185C166.986 35.1014 167.16 35.0352 167.343 35.0352H177.231C177.413 35.0352 177.587 35.1014 177.713 35.2185C177.839 35.3356 177.905 35.4933 177.897 35.6549L177.558 42.0249C177.541 42.3404 177.248 42.5887 176.892 42.5887ZM168.318 41.4051H176.256L176.532 36.2188H168.041L168.318 41.4051Z" fill="white"/>
<path d="M175.026 37.4877C174.658 37.4877 174.359 37.2228 174.359 36.8959V34.3132C174.359 33.8218 174.144 33.36 173.753 33.013C173.361 32.6658 172.841 32.4746 172.288 32.4746C171.146 32.4746 170.216 33.2994 170.216 34.3132V36.8959C170.216 37.2228 169.918 37.4877 169.55 37.4877C169.181 37.4877 168.883 37.2228 168.883 36.8959V34.3132C168.883 32.6468 170.41 31.291 172.288 31.291C173.196 31.291 174.051 31.6052 174.695 32.1756C175.339 32.7465 175.693 33.5056 175.693 34.3132V36.8959C175.693 37.2228 175.394 37.4877 175.026 37.4877Z" fill="white"/>
<g filter="url(#filter1_d_2166_24745)">
<rect x="40" y="128.064" width="150" height="77.4194" rx="20" fill="white"/>
</g>
<rect x="52.0957" y="142.58" width="116.935" height="3.22581" rx="1.6129" fill="#D7EFD8"/>
<rect x="52.0957" y="149.031" width="70.9677" height="3.22581" rx="1.6129" fill="#D7EFD8"/>
<path d="M73.5402 184.132L71.7288 183.699L72.3825 177.887H78.8247V179.722H74.249L73.9655 182.265C74.1177 182.176 74.3487 182.082 74.6585 181.982C74.9683 181.877 75.3148 181.824 75.6981 181.824C76.2546 181.824 76.7482 181.911 77.1787 182.084C77.6092 182.258 77.9741 182.51 78.2734 182.84C78.5779 183.171 78.8089 183.575 78.9664 184.053C79.1239 184.531 79.2027 185.072 79.2027 185.676C79.2027 186.185 79.1239 186.671 78.9664 187.133C78.8089 187.589 78.57 187.999 78.2497 188.361C77.9295 188.718 77.5278 188.999 77.0448 189.204C76.5618 189.409 75.9895 189.511 75.3279 189.511C74.8344 189.511 74.3566 189.437 73.8946 189.29C73.4378 189.143 73.0257 188.926 72.6581 188.637C72.2959 188.348 72.0045 187.999 71.784 187.589C71.5687 187.175 71.4558 186.702 71.4453 186.172H73.6977C73.7292 186.497 73.8132 186.778 73.9497 187.014C74.0915 187.245 74.2779 187.424 74.5089 187.55C74.7399 187.676 75.0103 187.739 75.3201 187.739C75.6088 187.739 75.8556 187.684 76.0604 187.574C76.2651 187.463 76.4305 187.311 76.5565 187.117C76.6825 186.917 76.7744 186.686 76.8322 186.424C76.8952 186.156 76.9267 185.867 76.9267 185.557C76.9267 185.248 76.8899 184.967 76.8164 184.715C76.7429 184.463 76.63 184.245 76.4778 184.061C76.3255 183.877 76.1312 183.736 75.895 183.636C75.664 183.536 75.3936 183.486 75.0838 183.486C74.6638 183.486 74.3382 183.552 74.1072 183.683C73.8815 183.814 73.6925 183.964 73.5402 184.132Z" fill="black"/>
<path d="M69.9884 187.583V189.355H62.1444V187.843L65.8538 183.866C66.2265 183.451 66.5206 183.086 66.7358 182.771C66.9511 182.451 67.106 182.164 67.2005 181.912C67.3002 181.655 67.3501 181.411 67.3501 181.18C67.3501 180.833 67.2924 180.537 67.1769 180.29C67.0613 180.038 66.8907 179.844 66.6649 179.707C66.4444 179.571 66.1714 179.503 65.8459 179.503C65.4994 179.503 65.2001 179.587 64.9481 179.755C64.7013 179.923 64.5123 180.156 64.381 180.455C64.255 180.755 64.192 181.093 64.192 181.471H61.916C61.916 180.789 62.0788 180.164 62.4043 179.597C62.7298 179.025 63.1892 178.571 63.7825 178.235C64.3758 177.893 65.0793 177.723 65.8931 177.723C66.6964 177.723 67.3737 177.854 67.925 178.116C68.4816 178.374 68.9016 178.746 69.1851 179.235C69.4739 179.718 69.6183 180.295 69.6183 180.967C69.6183 181.345 69.5579 181.716 69.4371 182.078C69.3164 182.435 69.1431 182.792 68.9173 183.149C68.6968 183.501 68.4291 183.858 68.114 184.22C67.799 184.582 67.4499 184.958 67.0666 185.346L65.0741 187.583H69.9884Z" fill="black"/>
<path d="M57.6165 176.068V178.392H56.3879V176.068H57.6165ZM57.4669 188.929V191.048H56.2383V188.929H57.4669ZM58.3332 186.346C58.3332 186.047 58.278 185.792 58.1678 185.582C58.0628 185.372 57.8895 185.186 57.648 185.023C57.4117 184.86 57.0915 184.703 56.6872 184.55C56.0046 184.288 55.4035 184.009 54.8837 183.715C54.3692 183.416 53.9675 183.046 53.6787 182.605C53.39 182.159 53.2456 181.594 53.2456 180.912C53.2456 180.261 53.4005 179.696 53.7102 179.219C54.02 178.741 54.4479 178.373 54.994 178.116C55.5452 177.853 56.1858 177.722 56.9156 177.722C57.4721 177.722 57.9761 177.806 58.4277 177.974C58.8792 178.137 59.2677 178.379 59.5932 178.699C59.9188 179.014 60.1682 179.4 60.3414 179.856C60.5147 180.313 60.6013 180.836 60.6013 181.424H58.341C58.341 181.109 58.3069 180.83 58.2387 180.589C58.1704 180.347 58.0706 180.145 57.9394 179.982C57.8134 179.82 57.6611 179.699 57.4826 179.62C57.3041 179.536 57.1072 179.494 56.8919 179.494C56.5717 179.494 56.3092 179.557 56.1044 179.683C55.8996 179.809 55.75 179.98 55.6555 180.195C55.5662 180.405 55.5216 180.647 55.5216 180.92C55.5216 181.187 55.5689 181.421 55.6634 181.621C55.7631 181.82 55.9338 182.004 56.1753 182.172C56.4168 182.335 56.7476 182.503 57.1676 182.676C57.8501 182.938 58.4487 183.222 58.9632 183.526C59.4777 183.831 59.8794 184.204 60.1682 184.645C60.4569 185.086 60.6013 185.648 60.6013 186.33C60.6013 187.007 60.4438 187.585 60.1288 188.063C59.8138 188.535 59.3727 188.898 58.8057 189.15C58.2387 189.396 57.5824 189.52 56.8368 189.52C56.3538 189.52 55.8734 189.457 55.3956 189.331C54.9178 189.199 54.4847 188.989 54.0961 188.701C53.7076 188.412 53.3978 188.029 53.1668 187.551C52.9358 187.068 52.8203 186.475 52.8203 185.771H55.0885C55.0885 186.154 55.1383 186.475 55.2381 186.732C55.3378 186.984 55.4691 187.186 55.6319 187.338C55.7999 187.485 55.9889 187.59 56.1989 187.653C56.4089 187.716 56.6216 187.748 56.8368 187.748C57.1728 187.748 57.4485 187.687 57.6637 187.567C57.8843 187.446 58.0496 187.28 58.1599 187.07C58.2754 186.855 58.3332 186.614 58.3332 186.346Z" fill="black"/>
<rect x="119.533" y="174.531" width="53.8387" height="18.3548" rx="3.5" stroke="#AEAEAE"/>
<path d="M159.857 181.2C160.096 180.768 160.435 180.553 160.874 180.553C161.159 180.553 161.39 180.707 161.568 181.015C161.745 181.315 161.868 181.689 161.937 182.136C162.014 182.575 162.076 183.022 162.122 183.476C162.238 184.609 162.38 185.229 162.55 185.337C162.85 185.259 163.116 184.801 163.347 183.961C163.578 183.114 163.694 182.479 163.694 182.055C163.694 181.624 163.671 181.281 163.624 181.026C163.894 180.973 164.125 180.946 164.318 180.946C164.98 180.946 165.311 181.261 165.311 181.893C165.311 182.879 165.361 183.684 165.462 184.308C165.569 184.924 165.697 185.29 165.843 185.406C166.059 185.39 166.244 185.221 166.398 184.897C166.552 184.574 166.663 184.181 166.733 183.719C166.864 182.848 166.929 182.182 166.929 181.72C166.929 181.25 166.906 180.888 166.86 180.634C167.129 180.58 167.361 180.553 167.553 180.553C168.216 180.553 168.547 180.869 168.547 181.5C168.547 181.901 168.466 182.386 168.304 182.956C168.142 183.519 167.931 184.069 167.669 184.609C167.407 185.14 167.087 185.595 166.71 185.972C166.34 186.35 165.97 186.538 165.6 186.538C165.177 186.538 164.857 186.222 164.641 185.591C164.472 185.113 164.333 184.493 164.225 183.73C164.156 183.985 164.106 184.169 164.075 184.285C164.044 184.401 163.99 184.574 163.913 184.805C163.836 185.036 163.767 185.213 163.705 185.337C163.644 185.46 163.559 185.606 163.451 185.776C163.351 185.945 163.247 186.068 163.139 186.145C162.869 186.361 162.569 186.469 162.238 186.469C161.914 186.469 161.645 186.323 161.429 186.03C161.221 185.737 161.075 185.363 160.99 184.909C160.913 184.454 160.843 183.988 160.782 183.511C160.635 182.294 160.327 181.523 159.857 181.2Z" fill="black"/>
<path d="M156.498 186.538C155.651 186.538 155.027 186.292 154.626 185.799C154.226 185.298 154.025 184.605 154.025 183.719C154.025 182.825 154.291 182.051 154.823 181.396C155.354 180.741 156.036 180.414 156.868 180.414C158.578 180.414 159.433 181.377 159.433 183.303C159.433 184.204 159.156 184.971 158.601 185.602C158.047 186.226 157.346 186.538 156.498 186.538ZM155.666 181.685C155.528 182.132 155.458 182.579 155.458 183.026C155.458 183.472 155.474 183.819 155.504 184.065C155.535 184.312 155.593 184.558 155.678 184.805C155.855 185.306 156.202 185.556 156.718 185.556C157.242 185.556 157.584 185.417 157.746 185.14C157.916 184.863 158 184.435 158 183.857C158 182.217 157.611 181.396 156.833 181.396C156.386 181.396 155.997 181.493 155.666 181.685Z" fill="black"/>
<path d="M153.01 181.732L152.895 184.274C152.895 184.975 153.002 185.661 153.218 186.331C153.002 186.424 152.756 186.47 152.479 186.47C151.824 186.47 151.496 186.104 151.496 185.372C151.496 185.041 151.539 184.486 151.624 183.708C151.708 182.922 151.751 182.429 151.751 182.229C151.751 181.844 151.577 181.651 151.231 181.651C150.976 181.651 150.688 181.836 150.364 182.206C150.048 182.568 149.775 182.976 149.544 183.431C149.32 183.878 149.189 184.247 149.151 184.54C149.182 185.141 149.259 185.715 149.382 186.262C149.135 186.354 148.877 186.401 148.608 186.401C148.346 186.401 148.13 186.339 147.961 186.216C147.799 186.085 147.718 185.908 147.718 185.684C147.718 185.453 147.753 185.045 147.822 184.459C147.891 183.866 147.926 183.281 147.926 182.703C147.926 182.117 147.837 181.447 147.66 180.692C147.907 180.6 148.169 180.554 148.446 180.554C148.723 180.554 148.947 180.635 149.116 180.796C149.293 180.958 149.382 181.158 149.382 181.397C149.382 181.636 149.351 182.017 149.289 182.541C149.582 181.994 149.963 181.517 150.433 181.108C150.903 180.692 151.373 180.484 151.843 180.484C152.621 180.484 153.01 180.9 153.01 181.732Z" fill="black"/>
<path d="M138.114 184.481L138.23 182.818C138.23 182.07 138.122 181.362 137.906 180.691C138.122 180.599 138.388 180.553 138.704 180.553C139.32 180.553 139.628 180.896 139.628 181.581C139.628 181.889 139.586 182.325 139.501 182.887C139.416 183.449 139.374 183.838 139.374 184.054C139.374 184.262 139.378 184.416 139.385 184.516C139.393 184.609 139.412 184.72 139.443 184.851C139.489 185.113 139.64 185.244 139.894 185.244C140.156 185.244 140.433 185.04 140.726 184.632C141.026 184.216 141.265 183.757 141.442 183.257C141.627 182.756 141.719 182.359 141.719 182.066C141.681 181.458 141.615 181 141.523 180.691C141.769 180.599 142.02 180.553 142.274 180.553C142.536 180.553 142.752 180.634 142.921 180.795C143.098 180.957 143.187 181.173 143.187 181.442C143.187 185.649 142.417 188.171 140.876 189.011C140.529 189.196 140.136 189.288 139.697 189.288C139.258 189.288 138.873 189.173 138.542 188.942C138.218 188.711 138.056 188.387 138.056 187.971C138.056 187.694 138.16 187.459 138.368 187.266C138.576 187.081 138.823 186.989 139.108 186.989C139.17 186.989 139.247 186.997 139.339 187.012C139.316 187.112 139.304 187.201 139.304 187.278C139.304 187.956 139.539 188.295 140.009 188.295C140.294 188.295 140.552 188.141 140.783 187.832C141.015 187.524 141.199 187.147 141.338 186.7C141.608 185.791 141.743 184.967 141.743 184.227C141.511 184.851 141.196 185.356 140.795 185.741C140.402 186.118 139.975 186.307 139.512 186.307C138.58 186.307 138.114 185.699 138.114 184.481Z" fill="black"/>
<path d="M131.739 185.221L131.855 182.818C131.855 182.07 131.747 181.362 131.531 180.691C131.747 180.599 132.013 180.553 132.329 180.553C132.945 180.553 133.253 180.896 133.253 181.581C133.253 181.966 133.211 182.509 133.126 183.21C133.041 183.904 132.999 184.408 132.999 184.724C132.999 185.109 133.172 185.302 133.519 185.302C133.727 185.302 133.969 185.129 134.247 184.782C134.532 184.428 134.774 184.035 134.975 183.603C135.183 183.164 135.306 182.806 135.344 182.529C135.298 181.681 135.233 181.069 135.148 180.691C135.394 180.599 135.645 180.553 135.899 180.553C136.161 180.553 136.377 180.634 136.546 180.795C136.723 180.957 136.812 181.157 136.812 181.396C136.812 181.635 136.777 182.032 136.708 182.586C136.639 183.141 136.604 183.723 136.604 184.331C136.604 184.932 136.673 185.575 136.812 186.261C136.511 186.353 136.242 186.4 136.003 186.4C135.525 186.4 135.287 186.084 135.287 185.452C135.287 185.175 135.317 184.79 135.379 184.297C135.071 184.951 134.693 185.479 134.247 185.88C133.808 186.272 133.361 186.469 132.906 186.469C132.128 186.469 131.739 186.053 131.739 185.221Z" fill="black"/>
<path d="M124.429 178.566C125.538 178.273 126.505 178.127 127.329 178.127C129.093 178.127 129.975 178.739 129.975 179.964C129.975 180.711 129.625 181.281 128.924 181.674C129.394 181.79 129.783 182.013 130.091 182.345C130.399 182.668 130.553 183.076 130.553 183.569C130.553 184.494 130.21 185.21 129.524 185.719C128.839 186.219 127.992 186.47 126.982 186.47C125.973 186.47 125.099 186.269 124.359 185.869C124.598 185.037 124.718 183.916 124.718 182.506C124.718 181.089 124.621 179.775 124.429 178.566ZM126.174 185.222C126.512 185.33 126.851 185.384 127.19 185.384C127.722 185.384 128.161 185.253 128.508 184.991C128.854 184.721 129.028 184.344 129.028 183.858C129.028 182.934 128.527 182.472 127.525 182.472C127.048 182.472 126.563 182.572 126.07 182.772C126.07 183.55 126.104 184.367 126.174 185.222ZM126.058 181.755C126.166 181.732 126.324 181.705 126.532 181.674C126.747 181.644 126.913 181.617 127.029 181.593C127.144 181.57 127.287 181.536 127.456 181.489C127.633 181.443 127.768 181.389 127.861 181.328C127.961 181.258 128.061 181.174 128.161 181.073C128.354 180.881 128.45 180.6 128.45 180.23C128.45 179.514 128.022 179.155 127.167 179.155C126.89 179.155 126.551 179.202 126.15 179.294C126.089 180.873 126.058 181.694 126.058 181.755Z" fill="black"/>
<defs>
<filter id="filter0_d_2166_24745" x="0" y="0" width="230" height="265.484" filterUnits="userSpaceOnUse" color-interpolation-filters="sRGB">
<feFlood flood-opacity="0" result="BackgroundImageFix"/>
<feColorMatrix in="SourceAlpha" type="matrix" values="0 0 0 0 0 0 0 0 0 0 0 0 0 0 0 0 0 0 127 0" result="hardAlpha"/>
<feOffset dy="20"/>
<feGaussianBlur stdDeviation="20"/>
<feComposite in2="hardAlpha" operator="out"/>
<feColorMatrix type="matrix" values="0 0 0 0 0 0 0 0 0 0 0 0 0 0 0 0 0 0 0.08 0"/>
<feBlend mode="normal" in2="BackgroundImageFix" result="effect1_dropShadow_2166_24745"/>
<feBlend mode="normal" in="SourceGraphic" in2="effect1_dropShadow_2166_24745" result="shape"/>
</filter>
<filter id="filter1_d_2166_24745" x="0" y="68.0645" width="230" height="157.42" filterUnits="userSpaceOnUse" color-interpolation-filters="sRGB">
<feFlood flood-opacity="0" result="BackgroundImageFix"/>
<feColorMatrix in="SourceAlpha" type="matrix" values="0 0 0 0 0 0 0 0 0 0 0 0 0 0 0 0 0 0 127 0" result="hardAlpha"/>
<feOffset dy="-20"/>
<feGaussianBlur stdDeviation="20"/>
<feComposite in2="hardAlpha" operator="out"/>
<feColorMatrix type="matrix" values="0 0 0 0 0 0 0 0 0 0 0 0 0 0 0 0 0 0 0.05 0"/>
<feBlend mode="normal" in2="BackgroundImageFix" result="effect1_dropShadow_2166_24745"/>
<feBlend mode="normal" in="SourceGraphic" in2="effect1_dropShadow_2166_24745" result="shape"/>
</filter>
</defs>
</svg>
