<svg width="114" height="112" viewBox="0 0 114 112" fill="none" xmlns="http://www.w3.org/2000/svg">
<g clip-path="url(#clip0_2166_24950)">
<path d="M89.0296 20.3576C88.8598 20.3576 88.697 20.2897 88.577 20.169C88.4569 20.0482 88.3895 19.8843 88.3895 19.7135C88.3895 9.53113 84.2607 1.24868 79.1845 1.24868C74.1083 1.24868 69.9795 9.53113 69.9795 19.7135C69.9795 19.8843 69.912 20.0482 69.792 20.169C69.6719 20.2897 69.5091 20.3576 69.3393 20.3576C69.1696 20.3576 69.0068 20.2897 68.8867 20.169C68.7667 20.0482 68.6992 19.8843 68.6992 19.7135C68.6992 8.65522 73.2953 -0.0136719 79.1589 -0.0136719C85.0224 -0.0136719 89.6185 8.65522 89.6185 19.7135C89.6191 19.8758 89.5587 20.0323 89.4495 20.1517C89.3403 20.2711 89.1904 20.3446 89.0296 20.3576Z" fill="white"/>
<path d="M79.6836 15.8957H101.781C102.266 15.8957 102.732 16.0898 103.075 16.4352C103.419 16.7806 103.611 17.2491 103.611 17.7377V75.7793H79.6836V15.8828V15.8957Z" fill="#A78FE6"/>
<path d="M73.2617 15.8957H95.3781C95.8636 15.8957 96.3293 16.0898 96.6726 16.4352C97.0159 16.7806 97.2088 17.2491 97.2088 17.7377V75.7793H73.2617V15.8828V15.8957Z" fill="#FB7B88"/>
<path d="M85.7766 19.7402C85.7775 19.9852 85.7303 20.2279 85.6377 20.4545C85.5451 20.681 85.4089 20.887 85.2371 21.0605C85.0652 21.2341 84.861 21.3717 84.6361 21.4657C84.4112 21.5596 84.1702 21.608 83.9267 21.608C83.4343 21.608 82.9622 21.4112 82.614 21.0609C82.2659 20.7106 82.0703 20.2356 82.0703 19.7402C82.0703 19.4953 82.1184 19.2527 82.2117 19.0264C82.3051 18.8002 82.442 18.5947 82.6144 18.4218C82.7869 18.2489 82.9916 18.1119 83.2168 18.0188C83.442 17.9256 83.6832 17.8781 83.9267 17.8789C84.4173 17.8789 84.8879 18.075 85.2348 18.4241C85.5817 18.7731 85.7766 19.2466 85.7766 19.7402Z" fill="#090B12"/>
<path d="M83.9261 20.506C83.7563 20.506 83.5935 20.4382 83.4735 20.3174C83.3534 20.1966 83.286 20.0328 83.286 19.862C83.286 9.67956 79.1572 1.39709 74.081 1.39709C69.0048 1.39709 64.876 9.67956 64.876 19.862C64.876 20.0328 64.8085 20.1966 64.6885 20.3174C64.5684 20.4382 64.4056 20.506 64.2358 20.506C64.0661 20.506 63.9032 20.4382 63.7832 20.3174C63.6631 20.1966 63.5957 20.0328 63.5957 19.862C63.5957 8.79722 68.1918 0.134766 74.0554 0.134766C79.9189 0.134766 84.515 8.79722 84.515 19.862C84.5155 20.0242 84.4552 20.1807 84.346 20.3001C84.2368 20.4195 84.0868 20.493 83.9261 20.506Z" fill="white"/>
<path d="M79.197 23.0898H39.9316V75.773H79.197V23.0898Z" fill="#8B73C9"/>
<path d="M44.168 3.29688H74.9452C75.1812 3.29688 75.4075 3.39119 75.5744 3.55908C75.7413 3.72697 75.835 3.95467 75.835 4.1921V13.782H43.291V4.18566C43.2927 3.95156 43.3854 3.72743 43.5493 3.56129C43.7132 3.39516 43.9353 3.30024 44.168 3.29688Z" fill="#8B73C9"/>
<path d="M70.0232 12.3793L61.1831 11.7352H58.0593L49.0975 12.4244C47.556 12.4244 46.0776 11.8083 44.9876 10.7115C43.8976 9.61484 43.2852 8.12739 43.2852 6.57641V5.12086C43.2843 5.00729 43.3059 4.89469 43.3487 4.7896C43.3916 4.6845 43.4547 4.58902 43.5345 4.50871C43.6143 4.4284 43.7092 4.36486 43.8137 4.32179C43.9181 4.27873 44.0301 4.25698 44.1429 4.25784H74.9778C75.2053 4.25784 75.4235 4.34877 75.5843 4.51062C75.7452 4.67247 75.8356 4.89197 75.8356 5.12086V6.57641C75.8221 8.11904 75.204 9.59396 74.1156 10.6806C73.0272 11.7672 71.5565 12.3777 70.0232 12.3793Z" fill="#23473A"/>
<path d="M44.1685 3.29726H75.0034C75.2309 3.29726 75.4491 3.38819 75.6099 3.55003C75.7708 3.71188 75.8612 3.9314 75.8612 4.16028V5.60939C75.8612 6.3782 75.7106 7.13949 75.4182 7.84977C75.1258 8.56006 74.6972 9.20545 74.1569 9.74908C73.0657 10.847 71.5856 11.4638 70.0424 11.4638H49.1039C47.5607 11.4638 46.0807 10.847 44.9894 9.74908C43.8982 8.65117 43.2852 7.16208 43.2852 5.60939V4.16028C43.2851 4.04475 43.3081 3.93038 43.3528 3.82396C43.3975 3.71754 43.463 3.62123 43.5454 3.54074C43.6278 3.46026 43.7254 3.39723 43.8324 3.35541C43.9395 3.31358 44.0537 3.29381 44.1685 3.29726Z" fill="#A78FE6"/>
<path d="M39.9316 23.0897L43.2923 13.7832H75.8427L79.197 23.0897H39.9316Z" fill="#A78FE6"/>
<path d="M60.3377 9.45508L59.8576 10.1442L59.4608 9.45508L59.0511 10.0412L58.6542 9.4744L58.2381 10.0669L57.7324 9.45508V15.8956L58.1293 15.2451L58.5838 15.8956L59.0639 15.2L59.4608 15.8956L59.8704 15.303L60.2673 15.8698L60.677 15.2773L61.1827 15.8956V9.45508L60.7858 10.0991L60.3377 9.45508Z" fill="white"/>
<path d="M57.7324 10.6523V10.6711L57.7513 10.6523H57.7324Z" fill="#F3FFFD"/>
<path d="M61.1777 10.6523L61.1841 10.6717V10.6523H61.1777Z" fill="#F3FFFD"/>
<path d="M36.0132 53.2051H84.0803C84.3927 53.2051 84.6922 53.3299 84.9131 53.5522C85.134 53.7744 85.2581 54.0758 85.2581 54.3901V73.995C85.2581 74.3075 85.1347 74.6073 84.915 74.8284C84.6953 75.0494 84.3974 75.1736 84.0867 75.1736H36.0132C35.7025 75.1736 35.4046 75.0494 35.1849 74.8284C34.9652 74.6073 34.8418 74.3075 34.8418 73.995V54.3837C34.8418 54.0711 34.9652 53.7713 35.1849 53.5503C35.4046 53.3293 35.7025 53.2051 36.0132 53.2051Z" fill="#A78FE6"/>
<path d="M39.9702 57.9648H63.1363C63.3995 57.9648 63.6518 58.07 63.8379 58.2572C64.024 58.4444 64.1285 58.6984 64.1285 58.9631V60.9275C64.1285 61.1922 64.024 61.4461 63.8379 61.6334C63.6518 61.8206 63.3995 61.9257 63.1363 61.9257H39.9702C39.8407 61.9257 39.7125 61.9001 39.5929 61.8502C39.4733 61.8004 39.3646 61.7273 39.2731 61.6352C39.1816 61.5431 39.109 61.4338 39.0594 61.3135C39.0099 61.1931 38.9844 61.0642 38.9844 60.9339V58.9374C38.991 58.6782 39.0976 58.4318 39.2816 58.2503C39.4656 58.0688 39.7125 57.9664 39.9702 57.9648Z" fill="white"/>
<path d="M50.5629 67.1737H39.9688C39.8388 67.1746 39.7099 67.1495 39.5896 67.1001C39.4692 67.0506 39.3598 66.9777 39.2676 66.8855C39.1754 66.7933 39.1022 66.6837 39.0522 66.5629C39.0023 66.4422 38.9766 66.3127 38.9766 66.1819C38.9757 66.0505 39.0008 65.9204 39.0504 65.7988C39.0999 65.6773 39.173 65.567 39.2653 65.4741C39.3576 65.3812 39.4673 65.3077 39.5881 65.2579C39.7089 65.208 39.8383 65.1828 39.9688 65.1836H50.5629C50.6929 65.1836 50.8216 65.2095 50.9416 65.2597C51.0616 65.31 51.1706 65.3836 51.2622 65.4764C51.3538 65.5692 51.4263 65.6793 51.4755 65.8004C51.5246 65.9214 51.5495 66.0511 51.5487 66.1819C51.5487 66.3121 51.5232 66.4411 51.4736 66.5615C51.4241 66.6818 51.3515 66.7911 51.2599 66.8832C51.1684 66.9753 51.0597 67.0484 50.9401 67.0982C50.8205 67.1481 50.6923 67.1737 50.5629 67.1737Z" fill="white"/>
<path d="M73.41 67.1737H55.416C55.154 67.1737 54.9026 67.0694 54.7167 66.8836C54.5308 66.6978 54.4255 66.4455 54.4238 66.1819C54.4238 65.9171 54.5284 65.6632 54.7144 65.476C54.9005 65.2888 55.1529 65.1836 55.416 65.1836H73.41C73.54 65.1836 73.6687 65.2095 73.7887 65.2597C73.9087 65.3099 74.0177 65.3836 74.1093 65.4764C74.2009 65.5692 74.2734 65.6793 74.3226 65.8003C74.3717 65.9214 74.3966 66.0511 74.3958 66.1819C74.3958 66.3121 74.3703 66.4411 74.3207 66.5614C74.2712 66.6818 74.1986 66.7911 74.107 66.8832C74.0155 66.9753 73.9068 67.0484 73.7872 67.0982C73.6676 67.1481 73.5394 67.1737 73.41 67.1737Z" fill="white"/>
<path d="M62.7461 53.2051L85.2529 70.1886V67.1165L66.8173 53.2051H62.7461Z" fill="white"/>
<path d="M85.2513 63.4905V54.3901C85.2522 54.2348 85.2225 54.0809 85.164 53.9371C85.1055 53.7934 85.0194 53.6627 84.9105 53.5526C84.8016 53.4424 84.6722 53.355 84.5297 53.2954C84.3871 53.2358 84.2343 53.2051 84.0799 53.2051H71.623L85.2513 63.4905Z" fill="white"/>
<path d="M104.367 101.734H38.2866C37.7108 101.734 37.1435 101.594 36.633 101.326C36.1225 101.058 35.684 100.67 35.3548 100.195C35.0247 99.7206 34.8137 99.1728 34.7401 98.5985C34.6666 98.0242 34.7325 97.4404 34.9323 96.8974L35.0348 96.6591L47.2292 74.9933C47.4358 74.6308 47.7765 74.3651 48.1769 74.2542C48.5774 74.1432 49.0052 74.1959 49.3672 74.4008C49.7288 74.6075 49.9939 74.9502 50.1044 75.3536C50.2148 75.757 50.1615 76.1881 49.9561 76.5519L37.8513 98.0631C37.8332 98.1776 37.8583 98.2948 37.9217 98.3916C37.9627 98.4508 38.0173 98.4993 38.0808 98.5329C38.1443 98.5665 38.2149 98.5843 38.2866 98.5848H104.399C104.604 98.5839 104.808 98.624 104.998 98.7026C105.189 98.7812 105.362 98.8968 105.507 99.0428C105.653 99.1888 105.769 99.3623 105.848 99.5534C105.926 99.7445 105.967 99.9494 105.967 100.156C105.967 100.366 105.926 100.574 105.845 100.768C105.764 100.961 105.646 101.137 105.496 101.284C105.347 101.431 105.171 101.546 104.977 101.623C104.783 101.701 104.575 101.738 104.367 101.734Z" fill="#090B12"/>
<path d="M37.6449 76.4102C37.5449 76.4082 37.4465 76.384 37.3569 76.3394C37.2127 76.2589 37.105 76.1256 37.0562 75.9672C37.0073 75.8089 37.021 75.6376 37.0944 75.4892L58.9291 33.3491C59.0091 33.2041 59.1415 33.0957 59.2989 33.0466C59.4563 32.9974 59.6265 33.0112 59.7741 33.0851C59.9193 33.1644 60.0284 33.2973 60.0785 33.4557C60.1286 33.6142 60.1158 33.786 60.0429 33.9352L38.2018 76.0688C38.1479 76.1707 38.0678 76.2562 37.9698 76.3162C37.8718 76.3763 37.7596 76.4087 37.6449 76.4102Z" fill="#090B12"/>
<path d="M110.423 77.3576H37.6467C36.6977 77.3576 35.7875 76.9783 35.1165 76.3032C34.4454 75.628 34.0684 74.7123 34.0684 73.7574V31.3984C34.0651 30.8684 34.1782 30.3442 34.3995 29.8632C34.6208 29.3823 34.9449 28.9564 35.3487 28.6161C35.7575 28.2795 36.2351 28.0381 36.7475 27.9089C37.2599 27.7798 37.7943 27.7661 38.3125 27.869L111.088 42.2119C111.903 42.373 112.637 42.8136 113.164 43.4585C113.692 44.1033 113.981 44.9125 113.982 45.7478V73.7574C113.98 74.7084 113.605 75.6202 112.939 76.2945C112.272 76.9688 111.368 77.3509 110.423 77.3576ZM37.6403 30.9862C37.5372 30.9853 37.4372 31.0219 37.3587 31.0892C37.3084 31.1305 37.2679 31.1826 37.2402 31.2417C37.2126 31.3007 37.1983 31.3653 37.1986 31.4306V73.7896C37.1986 73.8485 37.2103 73.9068 37.2329 73.9612C37.2555 74.0155 37.2886 74.0648 37.3303 74.1062C37.372 74.1475 37.4214 74.1801 37.4757 74.202C37.5301 74.224 37.5882 74.2349 37.6467 74.234H110.423C110.54 74.234 110.652 74.1872 110.735 74.1039C110.818 74.0205 110.864 73.9075 110.864 73.7896V45.7478C110.866 45.6438 110.831 45.5427 110.765 45.4625C110.699 45.3823 110.608 45.3281 110.506 45.3098L37.7299 30.9604L37.6403 30.9862Z" fill="#090B12"/>
<path d="M46.646 76.4102C46.4762 76.4102 46.3134 76.3423 46.1934 76.2215C46.0733 76.1008 46.0059 75.9369 46.0059 75.7661V31.4878C46.0059 31.317 46.0733 31.1532 46.1934 31.0324C46.3134 30.9116 46.4762 30.8438 46.646 30.8438C46.8158 30.8438 46.9786 30.9116 47.0986 31.0324C47.2187 31.1532 47.2861 31.317 47.2861 31.4878V75.779C47.2828 75.9476 47.2138 76.1081 47.0942 76.2261C46.9745 76.3441 46.8136 76.4102 46.646 76.4102Z" fill="#090B12"/>
<path d="M54.8276 76.4108C54.6579 76.4108 54.495 76.3429 54.375 76.2222C54.255 76.1014 54.1875 75.9376 54.1875 75.7667V33.105C54.1875 32.9342 54.255 32.7703 54.375 32.6496C54.495 32.5288 54.6579 32.4609 54.8276 32.4609C54.9974 32.4609 55.1602 32.5288 55.2803 32.6496C55.4003 32.7703 55.4678 32.9342 55.4678 33.105V75.7796C55.4644 75.9482 55.3955 76.1087 55.2758 76.2267C55.1561 76.3448 54.9952 76.4108 54.8276 76.4108Z" fill="#090B12"/>
<path d="M63.0132 76.41C62.8434 76.41 62.6806 76.3422 62.5605 76.2214C62.4405 76.1006 62.373 75.9368 62.373 75.766V34.7144C62.373 34.5435 62.4405 34.3797 62.5605 34.2589C62.6806 34.1382 62.8434 34.0703 63.0132 34.0703C63.1829 34.0703 63.3458 34.1382 63.4658 34.2589C63.5858 34.3797 63.6533 34.5435 63.6533 34.7144V75.7789C63.6499 75.9475 63.581 76.108 63.4613 76.226C63.3417 76.344 63.1807 76.4101 63.0132 76.41Z" fill="#090B12"/>
<path d="M71.1948 76.4093C71.025 76.4093 70.8622 76.3415 70.7422 76.2207C70.6221 76.0999 70.5547 75.9361 70.5547 75.7653V36.3237C70.5547 36.1529 70.6221 35.9891 70.7422 35.8683C70.8622 35.7475 71.025 35.6797 71.1948 35.6797C71.3646 35.6797 71.5274 35.7475 71.6475 35.8683C71.7675 35.9891 71.8349 36.1529 71.8349 36.3237V75.7781C71.8316 75.9467 71.7627 76.1072 71.643 76.2253C71.5233 76.3433 71.3624 76.4093 71.1948 76.4093Z" fill="#090B12"/>
<path d="M79.3765 76.409C79.2067 76.409 79.0439 76.3411 78.9238 76.2203C78.8038 76.0996 78.7363 75.9357 78.7363 75.7649V37.9722C78.7363 37.8014 78.8038 37.6376 78.9238 37.5168C79.0439 37.396 79.2067 37.3281 79.3765 37.3281C79.5462 37.3281 79.709 37.396 79.8291 37.5168C79.9491 37.6376 80.0166 37.8014 80.0166 37.9722V75.7778C80.0132 75.9464 79.9443 76.1069 79.8246 76.2249C79.7049 76.3429 79.544 76.409 79.3765 76.409Z" fill="#090B12"/>
<path d="M87.5757 76.4092C87.4059 76.4092 87.2431 76.3413 87.123 76.2205C87.003 76.0998 86.9355 75.9359 86.9355 75.7651V39.5503C86.9355 39.3795 87.003 39.2157 87.123 39.0949C87.2431 38.9741 87.4059 38.9062 87.5757 38.9062C87.7454 38.9062 87.9083 38.9741 88.0283 39.0949C88.1484 39.2157 88.2158 39.3795 88.2158 39.5503V75.778C88.2124 75.9466 88.1435 76.1071 88.0238 76.2251C87.9042 76.3431 87.7432 76.4092 87.5757 76.4092Z" fill="#090B12"/>
<path d="M95.7436 76.4094C95.5739 76.4094 95.4111 76.3416 95.291 76.2208C95.171 76.1 95.1035 75.9362 95.1035 75.7654V41.1929C95.1035 41.0221 95.171 40.8583 95.291 40.7375C95.4111 40.6167 95.5739 40.5488 95.7436 40.5488C95.9134 40.5488 96.0762 40.6167 96.1963 40.7375C96.3163 40.8583 96.3838 41.0221 96.3838 41.1929V75.7783C96.3804 75.9468 96.3115 76.1074 96.1918 76.2254C96.0721 76.3434 95.9112 76.4095 95.7436 76.4094Z" fill="#090B12"/>
<path d="M103.925 76.4091C103.756 76.4091 103.593 76.3412 103.473 76.2204C103.353 76.0997 103.285 75.9358 103.285 75.765V42.7769C103.285 42.606 103.353 42.4422 103.473 42.3215C103.593 42.2007 103.756 42.1328 103.925 42.1328C104.095 42.1328 104.258 42.2007 104.378 42.3215C104.498 42.4422 104.565 42.606 104.565 42.7769V75.7779C104.562 75.9465 104.493 76.107 104.373 76.225C104.254 76.343 104.093 76.4091 103.925 76.4091Z" fill="#090B12"/>
<path d="M112.432 52.2315H35.6167C35.4469 52.2315 35.2841 52.1636 35.1641 52.0428C35.044 51.922 34.9766 51.7582 34.9766 51.5874C34.9766 51.4166 35.044 51.2528 35.1641 51.132C35.2841 51.0112 35.4469 50.9434 35.6167 50.9434H112.432C112.602 50.9434 112.764 51.0112 112.884 51.132C113.004 51.2528 113.072 51.4166 113.072 51.5874C113.072 51.672 113.055 51.7557 113.023 51.8339C112.991 51.912 112.944 51.983 112.884 52.0428C112.825 52.1026 112.754 52.1501 112.677 52.1824C112.599 52.2148 112.516 52.2315 112.432 52.2315Z" fill="#090B12"/>
<path d="M112.432 64.3213H35.6167C35.4469 64.3213 35.2841 64.2534 35.1641 64.1327C35.044 64.0119 34.9766 63.8481 34.9766 63.6773C34.9766 63.5064 35.044 63.3426 35.1641 63.2218C35.2841 63.101 35.4469 63.0332 35.6167 63.0332H112.432C112.602 63.0332 112.764 63.101 112.884 63.2218C113.004 63.3426 113.072 63.5064 113.072 63.6773C113.072 63.7618 113.055 63.8456 113.023 63.9237C112.991 64.0019 112.944 64.0728 112.884 64.1327C112.825 64.1925 112.754 64.2399 112.677 64.2723C112.599 64.3046 112.516 64.3213 112.432 64.3213Z" fill="#090B12"/>
<path d="M53.7961 106.733C53.7961 107.424 53.6607 108.109 53.3975 108.749C53.1344 109.388 52.7487 109.969 52.2625 110.458C51.7763 110.947 51.199 111.335 50.5637 111.6C49.9284 111.865 49.2475 112.001 48.5599 112.001C47.8726 112.001 47.192 111.865 46.5571 111.6C45.9221 111.335 45.3453 110.947 44.8596 110.457C44.3739 109.968 43.9888 109.387 43.7263 108.748C43.4639 108.109 43.3292 107.424 43.3301 106.733C43.3301 105.337 43.8811 103.999 44.8619 103.012C45.8427 102.025 47.1729 101.471 48.5599 101.471C49.2472 101.47 49.928 101.605 50.5632 101.869C51.1985 102.133 51.7758 102.521 52.2621 103.01C52.7484 103.498 53.1342 104.079 53.3974 104.717C53.6607 105.356 53.7961 106.041 53.7961 106.733Z" fill="#090B12"/>
<path d="M100.161 106.731C100.162 107.422 100.028 108.107 99.7651 108.746C99.5027 109.385 99.1176 109.966 98.6319 110.455C98.1461 110.945 97.5693 111.333 96.9344 111.598C96.2995 111.863 95.6189 111.999 94.9315 111.999C94.2439 111.999 93.563 111.863 92.9277 111.598C92.2924 111.333 91.7152 110.945 91.229 110.456C90.7427 109.967 90.357 109.386 90.0939 108.747C89.8308 108.108 89.6953 107.422 89.6953 106.731C89.6953 106.039 89.8308 105.354 90.094 104.716C90.3572 104.077 90.743 103.496 91.2294 103.008C91.7157 102.519 92.293 102.132 92.9282 101.867C93.5635 101.603 94.2442 101.468 94.9315 101.469C96.3186 101.469 97.6488 102.023 98.6296 103.01C99.6104 103.997 100.161 105.335 100.161 106.731Z" fill="#090B12"/>
<path d="M35.6295 32.9762C35.3581 32.9754 35.0916 32.9037 34.856 32.7683C34.6204 32.6328 34.4237 32.4381 34.2852 32.2033L27.071 20.0244L2.29816 15.516C2.09668 15.474 1.9055 15.3921 1.73568 15.2752C1.56587 15.1583 1.42081 15.0087 1.30888 14.8349C1.19695 14.6612 1.12038 14.4669 1.08362 14.2632C1.04686 14.0595 1.05063 13.8505 1.09472 13.6483C1.13729 13.446 1.21913 13.2541 1.33554 13.0837C1.45196 12.9133 1.60066 12.7677 1.77311 12.6552C1.94557 12.5427 2.13839 12.4656 2.34053 12.4282C2.54267 12.3908 2.75015 12.394 2.95108 12.4375L29.0618 17.2099L37.0058 30.5932C37.1112 30.7707 37.1807 30.9674 37.2104 31.172C37.2401 31.3767 37.2294 31.5852 37.1788 31.7856C37.1283 31.986 37.0389 32.1745 36.9159 32.3401C36.7928 32.5057 36.6384 32.6453 36.4617 32.7508C36.2109 32.9032 35.9225 32.9814 35.6295 32.9762Z" fill="#090B12"/>
<path d="M2.61811 16.8796C4.06406 16.8796 5.23623 15.7003 5.23623 14.2455C5.23623 12.7907 4.06406 11.6113 2.61811 11.6113C1.17217 11.6113 0 12.7907 0 14.2455C0 15.7003 1.17217 16.8796 2.61811 16.8796Z" fill="#1C1E21"/>
<path d="M97.4524 106.731C97.4532 107.065 97.3886 107.395 97.2623 107.704C97.1359 108.013 96.9502 108.293 96.716 108.529C96.4817 108.766 96.2034 108.953 95.897 109.081C95.5905 109.209 95.2621 109.275 94.9303 109.275C94.5986 109.275 94.2701 109.209 93.9637 109.081C93.6573 108.953 93.3789 108.766 93.1446 108.529C92.9104 108.293 92.7247 108.013 92.5984 107.704C92.472 107.395 92.4074 107.065 92.4082 106.731C92.4082 106.058 92.6739 105.412 93.1469 104.937C93.6199 104.461 94.2614 104.193 94.9303 104.193C95.5992 104.193 96.2407 104.461 96.7137 104.937C97.1867 105.412 97.4524 106.058 97.4524 106.731Z" fill="white"/>
<path d="M51.0877 106.731C51.0794 107.403 50.8104 108.045 50.338 108.521C49.8656 108.996 49.2272 109.267 48.5592 109.275C48.2275 109.275 47.899 109.209 47.5926 109.081C47.2862 108.953 47.0079 108.766 46.7736 108.529C46.5393 108.293 46.3536 108.013 46.2273 107.704C46.1009 107.395 46.0363 107.065 46.0371 106.731C46.0371 106.058 46.3029 105.412 46.7758 104.937C47.2488 104.461 47.8903 104.193 48.5592 104.193C49.2261 104.202 49.8635 104.471 50.3358 104.945C50.808 105.419 51.0778 106.06 51.0877 106.731Z" fill="white"/>
</g>
<defs>
<clipPath id="clip0_2166_24950">
<rect width="114" height="112" fill="white"/>
</clipPath>
</defs>
</svg>
