<svg width="124" height="127" viewBox="0 0 124 127" fill="none" xmlns="http://www.w3.org/2000/svg">
<path d="M61.9998 126.997C96.2413 126.997 124 98.568 124 63.4986C124 28.4293 96.2413 0 61.9998 0C27.7582 0 0 28.4293 0 63.4986C0 98.568 27.7582 126.997 61.9998 126.997Z" fill="#91BCE5"/>
<path d="M81.7052 112.076C47.4653 112.076 19.7056 83.6466 19.7056 48.5755C19.7056 32.1779 25.7748 17.2327 35.7394 5.96484C14.6273 16.0906 0 38.0424 0 63.4986C0 98.5679 27.758 126.999 61.9997 126.999C80.2306 126.999 96.6224 118.938 107.965 106.109C99.9907 109.936 91.0931 112.076 81.7052 112.076Z" fill="#53ACE1"/>
<path d="M31.4279 22.8332C28.3163 23.6987 28.4586 22.9673 26.1573 23.1047C23.3968 23.2692 22.4077 23.9446 19.3424 26.0438C18.524 26.6055 16.5804 27.3759 15.853 28.5588C15.1221 29.7466 17.1072 29.185 16.814 29.9995C16.1379 31.8831 14.2658 31.3809 13.2069 32.4908C11.5036 34.2793 14.2209 33.4834 15.066 33.1322C14.9898 33.3782 14.9119 33.5956 14.7943 33.8551C12.9617 34.8631 11.4125 35.591 11.3496 37.2897C11.3147 38.2672 12.1879 39.9217 13.8482 38.5488C13.9028 40.9279 10.2261 40.8058 9.25195 42.7217C10.6288 42.26 13.6378 39.9335 15.051 39.0291C17.1686 37.6766 18.2672 36.246 19.8411 34.3676C20.1278 34.6459 20.0084 36.0069 20.4823 36.068C21.7117 36.2275 22.4291 34.3914 23.3853 33.8552C25.9634 32.4127 25.2178 34.478 26.8482 35.0837C27.5292 35.3366 28.6227 34.6968 29.2622 34.9158C30.2548 35.257 30.0177 35.7779 30.6491 36.5551C31.4228 37.502 33.3614 38.4896 32.2745 40.1663C36.1152 40.1595 32.919 43.0205 32.5595 44.8329C32.3276 46.0022 32.7566 47.4513 32.5828 48.6867C32.3425 50.3736 32.1023 50.7807 32.7816 52.2758C33.7741 54.4614 34.9539 56.0311 35.6497 58.4476C36.3123 60.7504 37.5103 63.6574 39.4523 65.2218C39.9046 62.7866 37.4193 61.4273 37.8981 58.7259C38.8342 58.972 39.8997 62.242 40.4033 63.2568C41.1092 64.6772 41.4637 67.0054 42.983 68.2985C44.6632 69.7323 47.0756 69.1757 48.8949 70.0905C49.8376 70.5656 50.2004 71.5431 51.0819 71.9385C52.0595 72.378 53.6552 71.9486 54.4588 72.6749C56.114 74.1683 54.7521 76.3353 58.0609 76.8172C60.4733 77.1702 62.6522 75.1678 61.3349 78.7652C60.6389 80.6642 58.4917 81.3141 58.1455 83.1061C57.8173 84.7947 58.6855 87.7525 59.3798 89.0218C60.6158 91.2821 62.5412 94.491 65.0299 94.6251C65.8716 96.5817 64.9437 98.4535 64.7449 100.227C64.5262 102.177 65.2851 104.629 64.6454 106.433C63.8468 108.681 62.9935 108.824 63.6959 111.296C63.9544 112.206 64.5194 111.97 64.4531 113.064C64.4101 113.77 63.3298 114.549 63.3596 115.595C63.4075 117.37 66.0056 121.291 66.352 119.499C66.8391 116.969 67.6062 114.875 67.8747 113.993C68.0752 113.334 68.0901 111.505 68.5574 110.561C68.7431 110.181 69.8349 109.044 70.1546 108.795C71.9707 107.366 72.3087 107.366 73.6374 105.362C73.7848 105.138 74.7889 104.193 74.8054 103.928C77.4349 102.202 78.8731 97.9631 81.1597 96.1423C83.519 94.2637 83.9251 95.3125 84.9242 92.2309C85.5804 90.2098 85.6583 88.1564 87.4543 86.7003C88.8212 85.5889 92.3686 84.7352 90.2892 82.3409C89.2089 81.0936 86.6158 82.3138 84.8331 81.4585C84.1106 81.109 83.756 80.2419 82.964 79.9669C82.0726 79.6513 80.3561 80.257 79.5873 79.8499C78.4887 79.2661 79.0272 78.5193 78.5336 77.71C77.4764 75.9724 78.8616 76.8022 76.8634 75.8435C75.7185 75.2935 75.1982 76.0335 74.0565 75.0119C73.3573 74.3874 73.5264 72.7873 72.5819 72.2391C71.2233 71.45 67.9012 72.4341 66.3753 72.6447C65.0183 72.8331 64.5842 72.6278 63.4575 73.2726C62.4468 73.8513 63.6845 74.8592 61.895 75.1732C61.4808 75.2461 60.3192 74.048 59.5323 74.0412C58.4238 74.0293 57.4728 74.4943 56.6526 75.0866C55.7744 73.5032 57.4496 71.5111 56.578 70.3028C55.1066 68.2579 53.9386 70.7746 54.1207 67.496C54.2185 65.7616 55.9847 64.3923 52.9196 65.7973C51.8543 66.286 50.7623 69.3457 48.6961 67.4603C45.9606 64.9708 49.6985 60.5249 51.9088 59.4321C53.3039 58.7414 55.8722 57.859 57.4413 58.7041C58.9159 59.4948 58.394 62.0268 60.6573 61.5567C60.7484 59.8784 60.132 57.1989 60.77 55.6565C61.6483 53.5437 63.8916 54.0562 64.967 52.6003C65.59 51.7551 65.0267 50.5317 65.4707 49.8138C66.1202 48.7633 66.4713 49.1519 67.2304 48.4426C68.0257 47.6975 68.3505 48.2237 68.9701 47.0884C69.3396 46.4147 69.2352 44.9214 69.2667 44.1441C70.9402 43.6198 72.8307 43.54 73.0526 45.4883C75.548 44.6924 74.0004 41.7243 73.1836 40.2327C74.9134 37.7703 77.4154 39.5624 77.1967 42.1316C78.8983 42.773 82.2502 43.1651 81.4748 40.6026C76.4577 38.5781 81.034 38.0673 79.1899 34.7243C78.6432 33.7349 76.9663 33.3124 76.3235 32.2994C75.6408 31.2285 75.7104 29.1531 75.2814 27.9043C73.9957 28.0163 73.5117 29.2177 71.9344 28.8919C71.671 26.6723 68.7133 24.3849 66.7251 26.5229C64.7419 28.6577 67.1444 31.9091 67.5834 33.9012C64.9753 34.0165 65.4941 36.8658 63.1479 36.2312C63.0833 35.0416 63.1263 33.8114 63.0651 32.6369C59.6319 32.4706 55.9851 32.0327 57.0803 27.809C57.6702 25.5419 58.5797 26.46 60.3942 25.7014C62.1239 24.982 61.8904 24.1419 63.1661 23.2121C64.6043 22.1634 65.6912 23.2189 66.0211 20.9501C66.2663 19.2768 65.7245 18.8407 64.0923 18.6626C62.4818 18.486 63.2009 20.1881 61.2905 18.503C60.1854 17.529 60.8481 16.1748 58.8482 15.9609C58.2385 17.0759 58.4439 18.5556 58.6212 19.7536C56.9594 20.3087 51.7036 18.4436 50.9995 19.6009C50.1229 22.9625 48.0353 20.5749 46.5706 20.0337C44.8375 19.3923 42.9421 19.7637 41.0813 19.8588C39.0979 19.9607 38.0525 20.3577 36.0426 21.1214C34.1587 21.8358 34.1222 21.4269 32.4687 22.2517C32.0526 22.4836 31.8438 22.6007 31.4279 22.8332Z" fill="#243886"/>
<path d="M81.669 8.22542C80.728 8.60733 79.4488 7.0445 78.163 7.04102C77.9145 7.04102 77.7256 7.80797 77.2335 7.90985C76.72 8.01678 75.8815 7.91822 75.227 7.76392C75.4789 8.26113 75.5253 9.04672 75.8268 9.52877C75.2932 9.33703 74.5957 9.51867 74.0605 9.34208C74.1996 11.2597 74.7433 11.6228 76.2228 12.4967C77.873 13.4742 78.4595 12.9244 79.3279 14.9827C79.641 15.7225 79.3097 16.5455 79.6775 17.2939C79.979 17.9098 80.9666 18.3884 81.2251 18.9603C81.9326 20.5249 81.3857 21.3547 81.2946 22.8599C81.1836 24.696 82.862 31.9912 86.4409 30.1823C87.687 29.5528 86.252 26.9752 86.9281 26.0859C87.7448 25.0135 89.7033 25.8602 91.1216 26.0656C91.4779 23.7187 93.9782 25.0337 96.1819 25.5057C96.3227 24.9491 96.2001 24.1633 95.8785 23.4489C95.6053 23.3183 95.2837 23.2232 95.022 23.1502C94.858 21.9606 98.0773 22.412 95.35 19.7529C97.5339 19.9957 97.6961 19.2829 97.0433 17.3788C96.5677 15.9891 96.2281 16.3233 96.6606 15.5886C96.9654 15.0659 98.5429 16.2385 97.378 14.4789C96.412 13.9291 95.2754 13.8408 94.1817 13.0416C92.8198 12.0439 92.4039 10.805 91.3335 9.85984C89.3054 8.07129 87.1382 8.73307 85.2112 8.13068C85.8507 10.1348 84.4854 9.42707 83.4101 8.7653C82.7179 8.54116 82.37 8.43423 81.669 8.22542Z" fill="#243886"/>
<path d="M123.738 55.6727C122.162 55.5947 118.833 56.1327 118.515 53.4854C117.725 53.0204 116.969 52.9831 116.476 53.4464C116.653 53.3784 116.742 53.3429 116.92 53.275C114.184 55.5795 108.478 50.9349 107.22 55.3081C107.117 55.6609 106.925 57.47 106.781 57.6567C106.037 58.6171 105.499 57.9842 104.563 58.6154C103.35 59.4299 102.412 61.2372 102.18 62.7644C101.97 64.1508 101.93 67.4905 102.467 68.887C103.037 70.3753 105.171 71.4782 106.027 72.7408C107.2 74.4702 106.995 75.2593 109.952 74.2901C111.939 73.6384 113.341 72.3098 115.188 73.1379C116.651 73.7929 116.259 75.2319 118.724 74.1476C119.364 75.6443 117.443 77.2327 118.021 78.7311C118.308 79.4777 119.152 79.4319 119.135 80.3636C119.12 81.2614 118.348 82.0216 118.091 82.8937C117.476 84.9741 118.424 85.2627 118.703 86.5422C118.941 87.6368 117.861 89.3083 118.235 90.1482C118.277 90.2415 118.34 90.3077 118.413 90.3586C123.083 78.8567 124.687 68.0912 123.738 55.6727Z" fill="#243886"/>
<path d="M107.612 51.6396C110.124 52.8139 109.695 49.4759 110.701 48.8481C111.959 48.0623 115.137 50.0851 114.278 47.5855C117.576 47.3394 117.32 51.4527 119.653 51.8754C119.426 49.7899 118.888 49.2552 117.37 47.4531C119.711 48.2575 121.393 51.4274 122.858 52.4302C123.013 52.4659 123.148 52.4743 123.265 52.4624C121.547 44.5122 119.151 37.1372 114.916 30.1814C114.732 30.0677 114.565 29.9761 114.429 29.9132C113.554 29.5144 111.98 29.2497 111.534 29.5536C110.84 30.0271 111.69 31.7782 111.307 32.7676C110.959 33.6669 109.597 33.7942 110.529 35.671C111.383 37.3901 111.029 36.2039 112.23 37.2849C112.52 37.5479 112.482 36.2633 112.903 36.6672C113.436 37.1745 114 38.3659 114.745 38.729C115.87 39.2737 115.088 37.9907 114.931 37.368C114.5 35.654 115.092 36.2666 115.435 35.2586C115.63 34.6799 115.276 34.0589 116.268 34.2761C117.34 35.4894 116.997 36.2412 117.67 37.3323C117.947 37.7819 118.644 37.8838 119.093 38.6746C119.524 39.4315 119.418 39.8778 119.13 40.2596C117.937 41.8445 114.729 38.7476 112.704 38.768C112.17 40.1934 111.998 41.9227 110.391 42.7999C109.253 43.4192 108.05 42.5098 109.051 44.5648C109.67 45.841 111.415 45.488 111.145 47.2579C109.849 48.0402 107.372 46.7929 106.459 47.3903C105.564 47.9724 106.582 51.156 107.612 51.6396Z" fill="#243886"/>
<path d="M122.684 39.5085C122.684 32.4797 117.12 26.7812 110.257 26.7812C103.394 26.7812 97.8301 32.4795 97.8301 39.5085C97.8301 41.6364 98.3438 43.6406 99.2452 45.4019L99.2518 45.4155C99.4042 45.7142 99.5682 46.0043 99.7439 46.2894L110.257 63.8648L120.745 46.3284C121.97 44.3567 122.684 42.0199 122.684 39.5085Z" fill="#E63326"/>
<path d="M118.073 29.6172C120.029 31.8674 121.992 35.3834 122.058 38.9606C122.105 41.4705 121.16 43.887 119.629 47.2062L110.258 63.8652L120.746 46.3288C121.97 44.3569 122.685 42.0203 122.685 39.5087C122.685 35.5159 120.885 31.9522 118.073 29.6172Z" fill="#8B2110"/>
<path d="M110.947 47.3843C115.369 47.0017 118.65 43.0203 118.277 38.4918C117.903 33.9632 114.016 30.6022 109.594 30.9849C105.172 31.3675 101.891 35.3489 102.264 39.8775C102.638 44.406 106.525 47.767 110.947 47.3843Z" fill="white"/>
<path d="M113.882 31.834C116.113 33.2967 117.595 35.8539 117.595 38.7677C117.595 43.3139 113.998 46.9979 109.561 46.9979C108.255 46.9979 107.024 46.6771 105.934 46.1122C107.183 46.9302 108.666 47.407 110.258 47.407C114.695 47.407 118.293 43.7213 118.293 39.1785C118.292 35.9694 116.498 33.1915 113.882 31.834Z" fill="#D0D0D0"/>
<path d="M103.526 32.0155C103.56 31.9816 103.594 31.9443 103.627 31.9086C104.078 31.4386 104.592 30.9718 104.801 30.3271C105.028 29.6314 104.201 29.7112 103.732 29.8555C102.663 30.1814 101.79 31.1571 101.094 32.0039C100.445 32.7964 99.9211 33.7008 99.5599 34.6665C99.2219 35.571 98.8457 36.7147 99.3975 37.6107C99.4587 37.7091 99.5317 37.8059 99.6312 37.8602C99.7322 37.9161 99.8646 37.9229 99.9559 37.8517C100.014 37.8059 100.045 37.7347 100.075 37.665C100.663 36.3126 101.265 34.9584 102.065 33.7213C102.476 33.0895 103.008 32.555 103.526 32.0155Z" fill="#EB5C5B"/>
<path d="M46.8516 14.8212C46.8516 7.79397 41.2877 2.0957 34.4248 2.0957C27.562 2.0957 21.998 7.79414 21.998 14.8212C21.998 16.9491 22.5117 18.9533 23.4131 20.7164H23.4114L23.4198 20.73C23.5723 21.0287 23.7362 21.3188 23.9119 21.6021L34.425 39.1793L44.9131 21.6396C46.1374 19.6694 46.8516 17.3311 46.8516 14.8212Z" fill="#E63326"/>
<path d="M42.2414 4.93164C44.1982 7.18012 46.16 10.6962 46.2263 14.2735C46.2727 16.7832 45.3283 19.198 43.7973 22.5208L34.4258 39.1799L44.9139 21.6401C46.1384 19.67 46.8526 17.3316 46.8526 14.8217C46.8527 10.827 45.0532 7.26336 42.2414 4.93164Z" fill="#8B2110"/>
<path d="M42.2501 16.3453C43.2493 11.9176 40.5548 7.49866 36.2316 6.47524C31.9084 5.45182 27.5937 8.21153 26.5945 12.6392C25.5952 17.0669 28.2898 21.4859 32.613 22.5093C36.9361 23.5327 41.2508 20.773 42.2501 16.3453Z" fill="white"/>
<path d="M38.0477 7.14844C40.2812 8.61114 41.7609 11.1703 41.7609 14.0823C41.7609 18.6284 38.1636 22.3125 33.7266 22.3125C32.4208 22.3125 31.1897 21.9919 30.0996 21.4268C31.3489 22.2448 32.8318 22.7199 34.4241 22.7199C38.8613 22.7199 42.4584 19.0375 42.4584 14.4914C42.4584 11.2823 40.6655 8.50439 38.0477 7.14844Z" fill="#D0D0D0"/>
<path d="M27.6939 7.32913C27.7288 7.29343 27.7619 7.25789 27.7951 7.22045C28.2474 6.75041 28.7594 6.28195 28.9682 5.63898C29.1935 4.94324 28.3685 5.02457 27.8995 5.1672C26.8308 5.49304 25.9576 6.46881 25.2616 7.31554C24.6106 8.10793 24.0885 9.01248 23.7274 9.97972C23.391 10.8843 23.0134 12.0279 23.565 12.9222C23.6264 13.0206 23.6991 13.1172 23.7986 13.1733C23.8998 13.2294 24.0339 13.2362 24.1234 13.165C24.1814 13.1174 24.2145 13.0462 24.2443 12.9765C24.8308 11.6258 25.4324 10.2699 26.2326 9.03442C26.6434 8.39981 27.1753 7.86882 27.6939 7.32913Z" fill="#EB5C5B"/>
<path d="M110.257 63.8666C109.934 63.5815 109.61 63.3 109.283 63.0215" stroke="white" stroke-width="2" stroke-miterlimit="10"/>
<path d="M107.305 61.3867C80.8181 40.1527 46.4687 38.9876 36.959 39.1022" stroke="white" stroke-width="2" stroke-miterlimit="10" stroke-dasharray="6 6"/>
<path d="M35.6939 39.127C34.8663 39.1508 34.4238 39.1795 34.4238 39.1795C34.4238 39.1795 34.4602 39.636 34.5605 40.4744" stroke="white" stroke-width="2" stroke-miterlimit="10"/>
<path d="M34.9082 42.9941C36.6033 54.0141 43.6949 86.0163 70.0744 100.247" stroke="white" stroke-width="2" stroke-miterlimit="10" stroke-dasharray="6 6"/>
<path d="M71.1875 100.83C71.5669 101.024 71.9496 101.214 72.3373 101.4" stroke="white" stroke-width="2" stroke-miterlimit="10"/>
<path d="M84.762 77.0438C84.762 70.0149 79.1981 64.3184 72.3352 64.3184C65.4741 64.3184 59.9102 70.0151 59.9102 77.0438C59.9102 79.1701 60.4222 81.1742 61.3235 82.9373L61.3302 82.9509C61.4825 83.2496 61.6483 83.5414 61.8223 83.8248L72.3337 101.4L82.8236 83.8621C84.0496 81.8921 84.762 79.5535 84.762 77.0438Z" fill="#E63326"/>
<path d="M80.1513 67.1523C82.1081 69.4008 84.0699 72.917 84.1377 76.4958C84.1842 79.0039 83.238 81.4205 81.7087 84.7396L72.334 101.4L82.8238 83.8622C84.05 81.8921 84.7623 79.5537 84.7623 77.044C84.7625 73.0493 82.9631 69.4856 80.1513 67.1523Z" fill="#8B2110"/>
<path d="M80.371 76.7129C80.371 81.2574 76.774 84.9414 72.3351 84.9414C67.8978 84.9414 64.3008 81.2574 64.3008 76.7129C64.3008 72.1668 67.8978 68.4844 72.3351 68.4844C76.774 68.4844 80.371 72.1667 80.371 76.7129Z" fill="white"/>
<path d="M75.9598 69.3691C78.1916 70.832 79.6713 73.3893 79.6713 76.3046C79.6713 80.8491 76.0742 84.5331 71.637 84.5331C70.3314 84.5331 69.1003 84.2125 68.0117 83.6473C69.2593 84.4669 70.7422 84.9422 72.3345 84.9422C76.7733 84.9422 80.3705 81.2581 80.3705 76.7137C80.3705 73.5046 78.576 70.7268 75.9598 69.3691Z" fill="#D0D0D0"/>
<path d="M65.6043 69.5507C65.639 69.515 65.6739 69.4793 65.707 69.4438C66.1576 68.9738 66.6696 68.5053 66.8784 67.8623C67.1054 67.1666 66.2804 67.2464 65.8097 67.3905C64.741 67.7164 63.8695 68.6922 63.1736 69.5389C62.5223 70.3313 61.9988 71.2341 61.6376 72.2013C61.3013 73.1041 60.9234 74.248 61.4752 75.144C61.5366 75.2441 61.6094 75.339 61.7104 75.3951C61.8098 75.4512 61.9425 75.458 62.0335 75.385C62.0914 75.3392 62.1246 75.268 62.1543 75.1983C62.7425 73.8476 63.3424 72.4916 64.1426 71.2579C64.5538 70.6232 65.0857 70.0904 65.6043 69.5507Z" fill="#EB5C5B"/>
</svg>
