<svg width="57" height="57" viewBox="0 0 57 57" fill="none" xmlns="http://www.w3.org/2000/svg">
<circle cx="28.5" cy="28.5" r="28.5" fill="#CBE0CC"/>
<path d="M30.601 14V18.3745H28.3754V14H30.601ZM30.3282 38.0526V42H28.1169V38.0526H30.3282ZM32.1949 33.2509C32.1949 32.6912 32.0896 32.2052 31.879 31.7927C31.6779 31.3803 31.3381 31.0121 30.8595 30.6881C30.3904 30.364 29.7586 30.0547 28.9641 29.7601C27.7292 29.2986 26.6475 28.7929 25.719 28.243C24.7904 27.6833 24.0677 26.9911 23.5508 26.1662C23.0434 25.3414 22.7897 24.3005 22.7897 23.0437C22.7897 21.8359 23.0626 20.7901 23.6082 19.9064C24.1634 19.0128 24.934 18.3254 25.92 17.8443C26.906 17.3533 28.0499 17.1078 29.3518 17.1078C30.3665 17.1078 31.2759 17.2649 32.08 17.5792C32.8937 17.8836 33.5877 18.3304 34.1621 18.9195C34.746 19.5087 35.1911 20.2353 35.4974 21.0994C35.8133 21.9537 35.9713 22.9307 35.9713 24.0305H32.1805C32.1805 23.4217 32.1135 22.8816 31.9795 22.4103C31.8455 21.939 31.654 21.5413 31.4051 21.2173C31.1562 20.8834 30.8547 20.633 30.5005 20.4661C30.1559 20.2991 29.7634 20.2157 29.3231 20.2157C28.6913 20.2157 28.1696 20.3384 27.7579 20.5839C27.3559 20.8294 27.0591 21.1632 26.8677 21.5855C26.6858 22.0077 26.5949 22.4938 26.5949 23.0437C26.5949 23.5739 26.6906 24.0403 26.8821 24.4429C27.0831 24.8357 27.4181 25.1941 27.8872 25.5181C28.3658 25.8422 29.0215 26.1711 29.8544 26.505C31.0988 26.9763 32.1805 27.4968 33.0995 28.0663C34.0185 28.626 34.7316 29.3133 35.239 30.1284C35.7463 30.9434 36 31.9744 36 33.2215C36 34.498 35.7128 35.5781 35.1385 36.4619C34.5737 37.3456 33.7791 38.0182 32.7549 38.4797C31.7306 38.9413 30.5388 39.172 29.1795 39.172C28.3084 39.172 27.4468 39.0542 26.5949 38.8185C25.7429 38.5829 24.9675 38.1999 24.2687 37.6696C23.5795 37.1296 23.0291 36.4177 22.6174 35.5339C22.2058 34.6404 22 33.5455 22 32.2493H25.8051C25.8051 32.9956 25.9009 33.6142 26.0923 34.1052C26.2838 34.5962 26.5422 34.989 26.8677 35.2835C27.1932 35.5683 27.5569 35.7696 27.959 35.8874C28.361 36.0053 28.7679 36.0642 29.1795 36.0642C29.8496 36.0642 30.4048 35.9463 30.8451 35.7107C31.295 35.475 31.6301 35.1461 31.8503 34.7238C32.08 34.2918 32.1949 33.8008 32.1949 33.2509Z" fill="white"/>
</svg>
