<svg width="227" height="140" viewBox="0 0 227 140" fill="none" xmlns="http://www.w3.org/2000/svg">
<rect y="98" width="22" height="18" fill="#FFEEED"/>
<rect x="41" y="80" width="22" height="36" fill="#FFEEED"/>
<rect x="82" y="63" width="22" height="53" fill="#FFEEED"/>
<rect x="123" y="47" width="22" height="69" fill="#FFEEED"/>
<rect x="164" y="23" width="22" height="93" fill="#FFEEED"/>
<rect x="205" width="22" height="116" fill="#FFEEED"/>
<path d="M5.79297 134.095V127.047H7.10547V134.095C7.10547 134.751 6.97103 135.305 6.70215 135.756C6.43327 136.207 6.06185 136.551 5.58789 136.788C5.11849 137.021 4.57845 137.137 3.96777 137.137C3.3571 137.137 2.81478 137.032 2.34082 136.822C1.86686 136.613 1.49544 136.294 1.22656 135.865C0.957682 135.437 0.823242 134.897 0.823242 134.245H2.14258C2.14258 134.664 2.22005 135.008 2.375 135.277C2.52995 135.546 2.74414 135.744 3.01758 135.872C3.29557 136 3.6123 136.063 3.96777 136.063C4.31413 136.063 4.62402 135.991 4.89746 135.845C5.17546 135.694 5.39421 135.473 5.55371 135.182C5.71322 134.885 5.79297 134.523 5.79297 134.095ZM13.5107 135.735V131.928C13.5107 131.636 13.4515 131.383 13.333 131.169C13.2191 130.95 13.0459 130.782 12.8135 130.663C12.5811 130.545 12.2939 130.485 11.9521 130.485C11.6331 130.485 11.3529 130.54 11.1113 130.649C10.8743 130.759 10.6875 130.902 10.5508 131.08C10.4186 131.258 10.3525 131.449 10.3525 131.654H9.08789C9.08789 131.39 9.15625 131.128 9.29297 130.868C9.42969 130.608 9.62565 130.374 9.88086 130.164C10.1406 129.95 10.4505 129.781 10.8105 129.658C11.1751 129.531 11.5807 129.467 12.0273 129.467C12.5651 129.467 13.0391 129.558 13.4492 129.74C13.8639 129.923 14.1875 130.198 14.4199 130.567C14.6569 130.932 14.7754 131.39 14.7754 131.941V135.387C14.7754 135.633 14.7959 135.895 14.8369 136.173C14.8825 136.451 14.9486 136.69 15.0352 136.891V137H13.7158C13.652 136.854 13.6019 136.66 13.5654 136.419C13.529 136.173 13.5107 135.945 13.5107 135.735ZM13.7295 132.516L13.7432 133.404H12.4648C12.1048 133.404 11.7835 133.434 11.501 133.493C11.2184 133.548 10.9814 133.632 10.79 133.746C10.5986 133.86 10.4528 134.004 10.3525 134.177C10.2523 134.345 10.2021 134.544 10.2021 134.771C10.2021 135.004 10.2546 135.216 10.3594 135.407C10.4642 135.599 10.6214 135.751 10.8311 135.865C11.0452 135.975 11.3073 136.029 11.6172 136.029C12.0046 136.029 12.3464 135.947 12.6426 135.783C12.9388 135.619 13.1735 135.419 13.3467 135.182C13.5244 134.945 13.6201 134.715 13.6338 134.491L14.1738 135.1C14.1419 135.291 14.0553 135.503 13.9141 135.735C13.7728 135.968 13.5837 136.191 13.3467 136.405C13.1143 136.615 12.8363 136.79 12.5127 136.932C12.1937 137.068 11.8337 137.137 11.4326 137.137C10.9313 137.137 10.4915 137.039 10.1133 136.843C9.73958 136.647 9.44792 136.385 9.23828 136.057C9.0332 135.724 8.93066 135.353 8.93066 134.942C8.93066 134.546 9.00814 134.197 9.16309 133.896C9.31803 133.591 9.54134 133.338 9.83301 133.138C10.1247 132.933 10.4756 132.778 10.8857 132.673C11.2959 132.568 11.7539 132.516 12.2598 132.516H13.7295ZM18.0293 131.183V137H16.7646V129.604H17.9609L18.0293 131.183ZM17.7285 133.021L17.2021 133.001C17.2067 132.495 17.2819 132.028 17.4277 131.6C17.5736 131.167 17.7786 130.791 18.043 130.472C18.3073 130.153 18.6217 129.907 18.9863 129.733C19.3555 129.556 19.7633 129.467 20.21 129.467C20.5745 129.467 20.9027 129.517 21.1943 129.617C21.486 129.713 21.7344 129.868 21.9395 130.082C22.1491 130.296 22.3086 130.574 22.418 130.916C22.5273 131.253 22.582 131.666 22.582 132.153V137H21.3105V132.14C21.3105 131.752 21.2536 131.442 21.1396 131.21C21.0257 130.973 20.8594 130.802 20.6406 130.697C20.4219 130.588 20.153 130.533 19.834 130.533C19.5195 130.533 19.2324 130.599 18.9727 130.731C18.7174 130.864 18.4964 131.046 18.3096 131.278C18.1273 131.511 17.9837 131.777 17.8789 132.078C17.7786 132.374 17.7285 132.689 17.7285 133.021Z" fill="#4E4E4E"/>
<path d="M42.8838 127.047V137H41.5645V127.047H42.8838ZM47.0537 131.524V132.604H42.5967V131.524H47.0537ZM47.7305 127.047V128.127H42.5967V127.047H47.7305ZM53.2402 135.735V131.928C53.2402 131.636 53.181 131.383 53.0625 131.169C52.9486 130.95 52.7754 130.782 52.543 130.663C52.3105 130.545 52.0234 130.485 51.6816 130.485C51.3626 130.485 51.0824 130.54 50.8408 130.649C50.6038 130.759 50.417 130.902 50.2803 131.08C50.1481 131.258 50.082 131.449 50.082 131.654H48.8174C48.8174 131.39 48.8857 131.128 49.0225 130.868C49.1592 130.608 49.3551 130.374 49.6104 130.164C49.8701 129.95 50.18 129.781 50.54 129.658C50.9046 129.531 51.3102 129.467 51.7568 129.467C52.2946 129.467 52.7686 129.558 53.1787 129.74C53.5934 129.923 53.917 130.198 54.1494 130.567C54.3864 130.932 54.5049 131.39 54.5049 131.941V135.387C54.5049 135.633 54.5254 135.895 54.5664 136.173C54.612 136.451 54.6781 136.69 54.7646 136.891V137H53.4453C53.3815 136.854 53.3314 136.66 53.2949 136.419C53.2585 136.173 53.2402 135.945 53.2402 135.735ZM53.459 132.516L53.4727 133.404H52.1943C51.8343 133.404 51.513 133.434 51.2305 133.493C50.9479 133.548 50.7109 133.632 50.5195 133.746C50.3281 133.86 50.1823 134.004 50.082 134.177C49.9818 134.345 49.9316 134.544 49.9316 134.771C49.9316 135.004 49.984 135.216 50.0889 135.407C50.1937 135.599 50.3509 135.751 50.5605 135.865C50.7747 135.975 51.0368 136.029 51.3467 136.029C51.734 136.029 52.0758 135.947 52.3721 135.783C52.6683 135.619 52.903 135.419 53.0762 135.182C53.2539 134.945 53.3496 134.715 53.3633 134.491L53.9033 135.1C53.8714 135.291 53.7848 135.503 53.6436 135.735C53.5023 135.968 53.3132 136.191 53.0762 136.405C52.8438 136.615 52.5658 136.79 52.2422 136.932C51.9232 137.068 51.5632 137.137 51.1621 137.137C50.6608 137.137 50.221 137.039 49.8428 136.843C49.4691 136.647 49.1774 136.385 48.9678 136.057C48.7627 135.724 48.6602 135.353 48.6602 134.942C48.6602 134.546 48.7376 134.197 48.8926 133.896C49.0475 133.591 49.2708 133.338 49.5625 133.138C49.8542 132.933 50.2051 132.778 50.6152 132.673C51.0254 132.568 51.4834 132.516 51.9893 132.516H53.459ZM56.4873 126.5H57.7588V135.564L57.6494 137H56.4873V126.5ZM62.7559 133.24V133.384C62.7559 133.922 62.6921 134.421 62.5645 134.881C62.4368 135.337 62.25 135.733 62.0039 136.07C61.7578 136.408 61.457 136.67 61.1016 136.856C60.7461 137.043 60.3382 137.137 59.8779 137.137C59.4085 137.137 58.9961 137.057 58.6406 136.897C58.2897 136.733 57.9935 136.499 57.752 136.193C57.5104 135.888 57.3167 135.519 57.1709 135.086C57.0296 134.653 56.9316 134.165 56.877 133.623V132.994C56.9316 132.447 57.0296 131.957 57.1709 131.524C57.3167 131.091 57.5104 130.722 57.752 130.417C57.9935 130.107 58.2897 129.872 58.6406 129.713C58.9915 129.549 59.3994 129.467 59.8643 129.467C60.3291 129.467 60.7415 129.558 61.1016 129.74C61.4616 129.918 61.7624 130.173 62.0039 130.506C62.25 130.839 62.4368 131.237 62.5645 131.702C62.6921 132.162 62.7559 132.675 62.7559 133.24ZM61.4844 133.384V133.24C61.4844 132.871 61.4502 132.525 61.3818 132.201C61.3135 131.873 61.2041 131.586 61.0537 131.34C60.9033 131.089 60.7051 130.893 60.459 130.752C60.2129 130.606 59.9098 130.533 59.5498 130.533C59.2308 130.533 58.9528 130.588 58.7158 130.697C58.4834 130.807 58.2852 130.955 58.1211 131.142C57.957 131.324 57.8226 131.534 57.7178 131.771C57.6175 132.003 57.5423 132.244 57.4922 132.495V134.143C57.5651 134.462 57.6836 134.769 57.8477 135.065C58.0163 135.357 58.2396 135.596 58.5176 135.783C58.8001 135.97 59.1488 136.063 59.5635 136.063C59.9053 136.063 60.1969 135.995 60.4385 135.858C60.6846 135.717 60.8828 135.523 61.0332 135.277C61.1882 135.031 61.3021 134.746 61.375 134.423C61.4479 134.099 61.4844 133.753 61.4844 133.384Z" fill="#4E4E4E"/>
<path d="M81.5811 127.047H82.8594L86.1201 135.161L89.374 127.047H90.6592L86.6123 137H85.6143L81.5811 127.047ZM81.1641 127.047H82.292L82.4766 133.117V137H81.1641V127.047ZM89.9414 127.047H91.0693V137H89.7568V133.117L89.9414 127.047ZM97.5566 135.735V131.928C97.5566 131.636 97.4974 131.383 97.3789 131.169C97.265 130.95 97.0918 130.782 96.8594 130.663C96.627 130.545 96.3398 130.485 95.998 130.485C95.679 130.485 95.3988 130.54 95.1572 130.649C94.9202 130.759 94.7334 130.902 94.5967 131.08C94.4645 131.258 94.3984 131.449 94.3984 131.654H93.1338C93.1338 131.39 93.2021 131.128 93.3389 130.868C93.4756 130.608 93.6715 130.374 93.9268 130.164C94.1865 129.95 94.4964 129.781 94.8564 129.658C95.221 129.531 95.6266 129.467 96.0732 129.467C96.611 129.467 97.085 129.558 97.4951 129.74C97.9098 129.923 98.2334 130.198 98.4658 130.567C98.7028 130.932 98.8213 131.39 98.8213 131.941V135.387C98.8213 135.633 98.8418 135.895 98.8828 136.173C98.9284 136.451 98.9945 136.69 99.0811 136.891V137H97.7617C97.6979 136.854 97.6478 136.66 97.6113 136.419C97.5749 136.173 97.5566 135.945 97.5566 135.735ZM97.7754 132.516L97.7891 133.404H96.5107C96.1507 133.404 95.8294 133.434 95.5469 133.493C95.2643 133.548 95.0273 133.632 94.8359 133.746C94.6445 133.86 94.4987 134.004 94.3984 134.177C94.2982 134.345 94.248 134.544 94.248 134.771C94.248 135.004 94.3005 135.216 94.4053 135.407C94.5101 135.599 94.6673 135.751 94.877 135.865C95.0911 135.975 95.3532 136.029 95.6631 136.029C96.0505 136.029 96.3923 135.947 96.6885 135.783C96.9847 135.619 97.2194 135.419 97.3926 135.182C97.5703 134.945 97.666 134.715 97.6797 134.491L98.2197 135.1C98.1878 135.291 98.1012 135.503 97.96 135.735C97.8187 135.968 97.6296 136.191 97.3926 136.405C97.1602 136.615 96.8822 136.79 96.5586 136.932C96.2396 137.068 95.8796 137.137 95.4785 137.137C94.9772 137.137 94.5374 137.039 94.1592 136.843C93.7855 136.647 93.4938 136.385 93.2842 136.057C93.0791 135.724 92.9766 135.353 92.9766 134.942C92.9766 134.546 93.054 134.197 93.209 133.896C93.3639 133.591 93.5872 133.338 93.8789 133.138C94.1706 132.933 94.5215 132.778 94.9316 132.673C95.3418 132.568 95.7998 132.516 96.3057 132.516H97.7754ZM102.075 130.766V137H100.811V129.604H102.041L102.075 130.766ZM104.386 129.562L104.379 130.738C104.274 130.715 104.174 130.702 104.078 130.697C103.987 130.688 103.882 130.684 103.764 130.684C103.472 130.684 103.215 130.729 102.991 130.82C102.768 130.911 102.579 131.039 102.424 131.203C102.269 131.367 102.146 131.563 102.055 131.791C101.968 132.014 101.911 132.26 101.884 132.529L101.528 132.734C101.528 132.288 101.572 131.868 101.658 131.477C101.749 131.085 101.888 130.738 102.075 130.438C102.262 130.132 102.499 129.895 102.786 129.727C103.078 129.553 103.424 129.467 103.825 129.467C103.916 129.467 104.021 129.478 104.14 129.501C104.258 129.519 104.34 129.54 104.386 129.562Z" fill="#4E4E4E"/>
<path d="M126.171 127.929L122.876 137H121.529L125.323 127.047H126.191L126.171 127.929ZM128.933 137L125.631 127.929L125.61 127.047H126.479L130.286 137H128.933ZM128.762 133.315V134.396H123.17V133.315H128.762ZM132.692 131.025V139.844H131.421V129.604H132.583L132.692 131.025ZM137.676 133.24V133.384C137.676 133.922 137.612 134.421 137.484 134.881C137.357 135.337 137.17 135.733 136.924 136.07C136.682 136.408 136.384 136.67 136.028 136.856C135.673 137.043 135.265 137.137 134.805 137.137C134.335 137.137 133.921 137.059 133.561 136.904C133.201 136.749 132.895 136.524 132.645 136.228C132.394 135.931 132.193 135.576 132.043 135.161C131.897 134.746 131.797 134.279 131.742 133.76V132.994C131.797 132.447 131.899 131.957 132.05 131.524C132.2 131.091 132.398 130.722 132.645 130.417C132.895 130.107 133.198 129.872 133.554 129.713C133.909 129.549 134.319 129.467 134.784 129.467C135.249 129.467 135.661 129.558 136.021 129.74C136.382 129.918 136.685 130.173 136.931 130.506C137.177 130.839 137.361 131.237 137.484 131.702C137.612 132.162 137.676 132.675 137.676 133.24ZM136.404 133.384V133.24C136.404 132.871 136.366 132.525 136.288 132.201C136.211 131.873 136.09 131.586 135.926 131.34C135.766 131.089 135.561 130.893 135.311 130.752C135.06 130.606 134.761 130.533 134.415 130.533C134.096 130.533 133.818 130.588 133.581 130.697C133.349 130.807 133.15 130.955 132.986 131.142C132.822 131.324 132.688 131.534 132.583 131.771C132.483 132.003 132.408 132.244 132.357 132.495V134.266C132.449 134.585 132.576 134.885 132.74 135.168C132.904 135.446 133.123 135.672 133.396 135.845C133.67 136.013 134.014 136.098 134.429 136.098C134.771 136.098 135.064 136.027 135.311 135.886C135.561 135.74 135.766 135.542 135.926 135.291C136.09 135.04 136.211 134.753 136.288 134.43C136.366 134.102 136.404 133.753 136.404 133.384ZM140.554 130.766V137H139.289V129.604H140.52L140.554 130.766ZM142.864 129.562L142.857 130.738C142.753 130.715 142.652 130.702 142.557 130.697C142.465 130.688 142.361 130.684 142.242 130.684C141.951 130.684 141.693 130.729 141.47 130.82C141.246 130.911 141.057 131.039 140.902 131.203C140.747 131.367 140.624 131.563 140.533 131.791C140.447 132.014 140.39 132.26 140.362 132.529L140.007 132.734C140.007 132.288 140.05 131.868 140.137 131.477C140.228 131.085 140.367 130.738 140.554 130.438C140.741 130.132 140.978 129.895 141.265 129.727C141.556 129.553 141.903 129.467 142.304 129.467C142.395 129.467 142.5 129.478 142.618 129.501C142.737 129.519 142.819 129.54 142.864 129.562Z" fill="#4E4E4E"/>
<path d="M161.492 127.047H162.771L166.031 135.161L169.285 127.047H170.57L166.523 137H165.525L161.492 127.047ZM161.075 127.047H162.203L162.388 133.117V137H161.075V127.047ZM169.853 127.047H170.98V137H169.668V133.117L169.853 127.047ZM177.468 135.735V131.928C177.468 131.636 177.409 131.383 177.29 131.169C177.176 130.95 177.003 130.782 176.771 130.663C176.538 130.545 176.251 130.485 175.909 130.485C175.59 130.485 175.31 130.54 175.068 130.649C174.831 130.759 174.645 130.902 174.508 131.08C174.376 131.258 174.31 131.449 174.31 131.654H173.045C173.045 131.39 173.113 131.128 173.25 130.868C173.387 130.608 173.583 130.374 173.838 130.164C174.098 129.95 174.408 129.781 174.768 129.658C175.132 129.531 175.538 129.467 175.984 129.467C176.522 129.467 176.996 129.558 177.406 129.74C177.821 129.923 178.145 130.198 178.377 130.567C178.614 130.932 178.732 131.39 178.732 131.941V135.387C178.732 135.633 178.753 135.895 178.794 136.173C178.84 136.451 178.906 136.69 178.992 136.891V137H177.673C177.609 136.854 177.559 136.66 177.522 136.419C177.486 136.173 177.468 135.945 177.468 135.735ZM177.687 132.516L177.7 133.404H176.422C176.062 133.404 175.741 133.434 175.458 133.493C175.175 133.548 174.938 133.632 174.747 133.746C174.556 133.86 174.41 134.004 174.31 134.177C174.209 134.345 174.159 134.544 174.159 134.771C174.159 135.004 174.212 135.216 174.316 135.407C174.421 135.599 174.578 135.751 174.788 135.865C175.002 135.975 175.264 136.029 175.574 136.029C175.962 136.029 176.303 135.947 176.6 135.783C176.896 135.619 177.131 135.419 177.304 135.182C177.481 134.945 177.577 134.715 177.591 134.491L178.131 135.1C178.099 135.291 178.012 135.503 177.871 135.735C177.73 135.968 177.541 136.191 177.304 136.405C177.071 136.615 176.793 136.79 176.47 136.932C176.151 137.068 175.791 137.137 175.39 137.137C174.888 137.137 174.449 137.039 174.07 136.843C173.697 136.647 173.405 136.385 173.195 136.057C172.99 135.724 172.888 135.353 172.888 134.942C172.888 134.546 172.965 134.197 173.12 133.896C173.275 133.591 173.498 133.338 173.79 133.138C174.082 132.933 174.433 132.778 174.843 132.673C175.253 132.568 175.711 132.516 176.217 132.516H177.687ZM182.69 136.234L184.748 129.604H186.102L183.135 138.142C183.066 138.324 182.975 138.52 182.861 138.729C182.752 138.944 182.611 139.146 182.438 139.338C182.264 139.529 182.055 139.684 181.809 139.803C181.567 139.926 181.278 139.987 180.94 139.987C180.84 139.987 180.713 139.974 180.558 139.946C180.403 139.919 180.293 139.896 180.229 139.878L180.223 138.853C180.259 138.857 180.316 138.862 180.394 138.866C180.476 138.875 180.533 138.88 180.564 138.88C180.852 138.88 181.095 138.841 181.296 138.764C181.496 138.691 181.665 138.565 181.802 138.388C181.943 138.215 182.064 137.975 182.164 137.67L182.69 136.234ZM181.18 129.604L183.101 135.346L183.429 136.679L182.52 137.144L179.799 129.604H181.18Z" fill="#4E4E4E"/>
<path d="M208.738 134.095V127.047H210.051V134.095C210.051 134.751 209.916 135.305 209.647 135.756C209.379 136.207 209.007 136.551 208.533 136.788C208.064 137.021 207.524 137.137 206.913 137.137C206.302 137.137 205.76 137.032 205.286 136.822C204.812 136.613 204.441 136.294 204.172 135.865C203.903 135.437 203.769 134.897 203.769 134.245H205.088C205.088 134.664 205.165 135.008 205.32 135.277C205.475 135.546 205.689 135.744 205.963 135.872C206.241 136 206.558 136.063 206.913 136.063C207.259 136.063 207.569 135.991 207.843 135.845C208.121 135.694 208.34 135.473 208.499 135.182C208.659 134.885 208.738 134.523 208.738 134.095ZM216.62 135.291V129.604H217.892V137H216.682L216.62 135.291ZM216.859 133.732L217.386 133.719C217.386 134.211 217.333 134.667 217.229 135.086C217.128 135.501 216.964 135.861 216.736 136.166C216.508 136.471 216.21 136.711 215.841 136.884C215.472 137.052 215.023 137.137 214.494 137.137C214.134 137.137 213.804 137.084 213.503 136.979C213.207 136.875 212.951 136.713 212.737 136.494C212.523 136.275 212.357 135.991 212.238 135.64C212.124 135.289 212.067 134.867 212.067 134.375V129.604H213.332V134.389C213.332 134.721 213.368 134.997 213.441 135.216C213.519 135.43 213.621 135.601 213.749 135.729C213.881 135.852 214.027 135.938 214.187 135.988C214.351 136.038 214.519 136.063 214.692 136.063C215.23 136.063 215.656 135.961 215.971 135.756C216.285 135.546 216.511 135.266 216.647 134.915C216.789 134.56 216.859 134.165 216.859 133.732ZM221.084 131.183V137H219.819V129.604H221.016L221.084 131.183ZM220.783 133.021L220.257 133.001C220.261 132.495 220.337 132.028 220.482 131.6C220.628 131.167 220.833 130.791 221.098 130.472C221.362 130.153 221.676 129.907 222.041 129.733C222.41 129.556 222.818 129.467 223.265 129.467C223.629 129.467 223.957 129.517 224.249 129.617C224.541 129.713 224.789 129.868 224.994 130.082C225.204 130.296 225.363 130.574 225.473 130.916C225.582 131.253 225.637 131.666 225.637 132.153V137H224.365V132.14C224.365 131.752 224.308 131.442 224.194 131.21C224.08 130.973 223.914 130.802 223.695 130.697C223.477 130.588 223.208 130.533 222.889 130.533C222.574 130.533 222.287 130.599 222.027 130.731C221.772 130.864 221.551 131.046 221.364 131.278C221.182 131.511 221.038 131.777 220.934 132.078C220.833 132.374 220.783 132.689 220.783 133.021Z" fill="#4E4E4E"/>
<path d="M52.5 91L52.7876 91.8529L52.7995 91.8487L52.5 91ZM95 76L95.2995 76.8487L95.3524 76.83L95.4025 76.805L95 76ZM133 57L132.64 56.1752L132.618 56.1846L132.598 56.195L133 57ZM176.5 38L176.86 38.8248L176.934 38.7925L177.001 38.7476L176.5 38ZM223.5 6.5L213.131 7.19426L218.917 15.827L223.5 6.5ZM9.78758 106.353L52.7876 91.8528L52.2124 90.1472L9.21242 104.647L9.78758 106.353ZM52.7995 91.8487L95.2995 76.8487L94.7005 75.1513L52.2005 90.1513L52.7995 91.8487ZM95.4025 76.805L133.402 57.805L132.598 56.195L94.5975 75.195L95.4025 76.805ZM133.36 57.8248L176.86 38.8248L176.14 37.1752L132.64 56.1752L133.36 57.8248ZM177.001 38.7476L217.272 11.7572L216.27 10.262L175.999 37.2524L177.001 38.7476Z" fill="#E6001E"/>
<circle cx="8" cy="106" r="1.5" stroke="#E6001E"/>
<circle cx="136" cy="56" r="4" fill="#DD122D"/>
</svg>
