<svg width="67" height="67" viewBox="0 0 67 67" fill="none" xmlns="http://www.w3.org/2000/svg">
<path d="M15.307 12.3624C15.849 12.3624 16.2885 11.923 16.2885 11.381C16.2885 10.839 15.849 10.3995 15.307 10.3995C14.765 10.3995 14.3256 10.839 14.3256 11.381C14.3256 11.923 14.7649 12.3624 15.307 12.3624ZM7.45545 12.3624C7.99747 12.3624 8.4369 11.923 8.4369 11.381C8.4369 10.839 7.99747 10.3995 7.45545 10.3995C6.91343 10.3995 6.47401 10.839 6.47401 11.381C6.47401 11.923 6.9133 12.3624 7.45545 12.3624ZM11.3812 12.3624C11.9233 12.3624 12.3627 11.923 12.3627 11.381C12.3627 10.839 11.9233 10.3995 11.3812 10.3995C10.8392 10.3995 10.3998 10.839 10.3998 11.381C10.3998 11.923 10.8391 12.3624 11.3812 12.3624ZM11.166 22.7596C11.172 22.7597 11.178 22.7597 11.184 22.7597L20.0575 22.762H20.058C20.6711 22.762 21.1915 22.3648 21.3534 21.7736C21.5154 21.1821 21.2695 20.575 20.7419 20.2629L19.3923 19.4644C21.5614 17.3145 22.7814 14.3812 22.7621 11.3078C22.7232 5.16164 17.6927 0.0896608 11.5483 0.00119988C5.18138 -0.0902708 0 5.05996 0 11.3813C0 17.4431 4.99464 22.6284 11.166 22.7596ZM4.76982 4.6734C6.57961 2.88953 8.97172 1.92837 11.5202 1.96383C16.6045 2.03698 20.767 6.23416 20.7992 11.3201C20.8166 14.0641 19.6399 16.6736 17.5708 18.4792C17.2248 18.781 17.0435 19.2339 17.0854 19.6907C17.1273 20.1473 17.3881 20.5592 17.7826 20.7925L17.7924 20.7983L11.1937 20.7967C6.09255 20.6988 1.96289 16.4964 1.96289 11.3813C1.96289 8.83983 2.95978 6.45767 4.76982 4.6734ZM66.0186 65.0371H65.0371V50.4214C65.0371 46.5922 62.7744 43.115 59.2616 41.558L54.0893 39.3411C55.3479 38.9439 56.4849 38.2357 57.4101 37.2533C58.806 35.7714 59.6064 33.7604 59.6064 31.7362C59.6064 29.8761 58.9566 28.1205 57.7269 26.6587C56.1888 24.8323 55.3417 22.5111 55.3417 20.1224V15.4193C55.3417 11.3001 53.7375 7.42825 50.8249 4.51703C47.9122 1.6041 44.0399 2.21454e-05 39.9213 2.21454e-05C31.4191 2.21454e-05 24.5021 6.91699 24.5021 15.4192V19.9692C24.5026 22.4408 23.5313 24.8001 21.9528 26.7019C19.9663 29.0953 19.5535 32.3313 20.8759 35.147C21.8573 37.2371 23.6276 38.7387 25.7468 39.3743L20.6106 41.6078C17.0071 43.1242 14.6786 46.6301 14.6786 50.5394V62.0929C14.6786 62.6349 15.1179 63.0744 15.6601 63.0744C16.2022 63.0744 16.6415 62.6349 16.6415 62.0929V50.5394C16.6415 47.422 18.4983 44.6262 21.3827 43.4125L27.8207 40.6129V46.5205H24.8629C24.0293 46.5205 23.2315 46.8759 22.6739 47.4957C22.1164 48.1154 21.8471 48.9463 21.935 49.7751L23.5529 65.0371H0.981445C0.439295 65.0371 0 65.4766 0 66.0186C0 66.5606 0.439295 67 0.981445 67H66.0186C66.5607 67 67 66.5606 67 66.0186C67 65.4766 66.5607 65.0371 66.0186 65.0371ZM56.2252 27.9225C57.1531 29.0257 57.6436 30.3443 57.6436 31.736C57.6436 33.2654 57.0377 34.7857 55.9812 35.9074C54.8627 37.095 53.326 37.749 51.6543 37.749H50.3752L48.6951 37.0289C47.2275 36.3995 46.2236 35.0502 46.0184 33.497C49.0466 31.8665 51.1099 28.6665 51.1099 24.9929V17.6146C51.3971 17.6341 51.6841 17.6447 51.9703 17.6447C52.4423 17.6447 52.9125 17.6179 53.379 17.565V20.1223C53.3788 22.9729 54.3899 25.7432 56.2252 27.9225ZM40.1598 43.4164C36.6487 43.4786 33.1641 43.0337 29.7836 42.096V39.7593L30.0674 39.6359C30.0697 39.635 30.0719 39.6339 30.0742 39.633L31.8251 38.8717C33.7742 38.0244 35.1514 36.2889 35.569 34.2608C36.4237 34.5093 37.3257 34.6452 38.2595 34.6452H41.4576C42.3949 34.6452 43.3003 34.5083 44.1578 34.258C44.5892 36.2767 45.9717 37.9966 47.9216 38.8331L49.7903 39.6339C49.7915 39.6344 49.7926 39.635 49.7938 39.6354L49.9323 39.6946V41.9032C46.7559 42.8495 43.4721 43.3586 40.1598 43.4164ZM49.932 43.9467V46.5207H29.7836V44.1286C32.9653 44.9628 36.2321 45.3849 39.521 45.3849C39.7453 45.3849 39.9697 45.383 40.1941 45.379C43.4905 45.3215 46.7598 44.8398 49.932 43.9467ZM53.3788 15.5859C50.6754 15.9511 47.6281 15.2269 45.5286 13.6002C45.1003 13.2684 44.4838 13.3464 44.1517 13.7749C43.8197 14.2034 43.898 14.8198 44.3264 15.1518C45.699 16.2152 47.3545 16.9642 49.147 17.3419V22.685C48.6754 23.7599 48.1504 24.6538 46.9667 25.6303C46.4684 26.0414 45.923 26.3828 45.3388 26.6537C44.8619 25.7229 43.8931 25.0841 42.7774 25.0841H40.4774C38.891 25.0841 37.6005 26.3747 37.6005 27.961C37.6005 29.5473 38.891 30.8379 40.4774 30.8379H42.7774C44.1124 30.8379 45.2378 29.9238 45.5609 28.6887C46.8738 28.1884 49.0146 26.4038 49.0151 26.4031C48.3504 29.9713 45.2156 32.6818 41.4577 32.6818H38.2594C34.0195 32.6818 30.5701 29.2324 30.5701 24.9925V17.406C33.9034 16.8835 37.0526 15.7555 39.9406 14.0473C44.338 11.4462 47.1587 8.04722 48.8609 5.36185C51.7735 7.95588 53.4303 11.6748 53.3788 15.5859ZM43.6912 27.9638C43.6898 28.4666 43.2804 28.8753 42.7773 28.8753H40.4773C39.9732 28.8753 39.5632 28.4652 39.5632 27.9613C39.5632 27.4573 39.9734 27.0472 40.4773 27.0472H42.7773C43.2803 27.0472 43.6895 27.4556 43.6912 27.9583V27.9638ZM26.465 15.4192C26.465 7.99932 32.5014 1.96291 39.9213 1.96291C42.5823 1.96291 45.1252 2.73106 47.2981 4.16109C45.7316 6.67215 43.0949 9.90124 38.9413 12.3583C36.0918 14.0437 32.9662 15.1198 29.651 15.5566H29.5898C29.5894 15.5566 29.589 15.5566 29.5885 15.5566C29.588 15.5566 29.5877 15.5566 29.5872 15.5566H26.4649V15.4192H26.465ZM22.6524 34.3127C21.6572 32.193 21.9679 29.7571 23.462 27.957C25.3369 25.6982 26.4671 22.9072 26.465 19.9692V17.5195H28.6072V24.9929C28.6072 28.6686 30.673 31.8702 33.704 33.4998C33.5144 35.0647 32.5135 36.4318 31.0423 37.0714L29.4841 37.749H28.0615C25.7204 37.749 23.6479 36.4323 22.6524 34.3127ZM56.8181 49.5684L55.1783 65.0371H25.5267L23.8869 49.5684C23.8572 49.2879 23.9446 49.0181 24.1332 48.8086C24.3218 48.599 24.581 48.4836 24.8629 48.4836H55.8421C56.124 48.4836 56.3832 48.599 56.5718 48.8086C56.7604 49.0181 56.8478 49.2879 56.8181 49.5684ZM63.0742 65.0371H57.1522L58.77 49.7754C58.8579 48.9464 58.5885 48.1156 58.0312 47.4958C57.4736 46.8761 56.6758 46.5207 55.8421 46.5207H51.8949V40.5361L58.4773 43.3573C61.2698 44.5952 63.0742 47.368 63.0742 50.4214V65.0371ZM40.3525 53.0308C38.296 53.0308 36.623 54.7038 36.623 56.7603C36.623 58.8167 38.296 60.4898 40.3525 60.4898C42.4089 60.4898 44.0819 58.8167 44.0819 56.7603C44.0819 54.7038 42.4089 53.0308 40.3525 53.0308ZM40.3525 58.5269C39.3783 58.5269 38.5858 57.7344 38.5858 56.7603C38.5858 55.7862 39.3783 54.9937 40.3525 54.9937C41.3266 54.9937 42.1191 55.7862 42.1191 56.7603C42.1191 57.7344 41.3267 58.5269 40.3525 58.5269Z" fill="#B8D9BA"/>
</svg>
