<svg width="35" height="35" viewBox="0 0 35 35" fill="none" xmlns="http://www.w3.org/2000/svg">
<path d="M17.5 0C7.82776 0 0 7.82694 0 17.5C0 27.1722 7.82694 35 17.5 35C27.1722 35 35 27.1731 35 17.5C35 7.82776 27.1731 0 17.5 0ZM26.7637 12.7193L15.5524 23.9306C15.097 24.386 14.358 24.3861 13.9025 23.9306L8.23635 18.2645C7.78073 17.8088 7.78073 17.0702 8.23635 16.6145C8.69189 16.1589 9.43065 16.1589 9.88627 16.6145L14.7275 21.4557L25.1139 11.0693C25.5694 10.6137 26.3082 10.6137 26.7638 11.0693C27.2193 11.525 27.2193 12.2637 26.7637 12.7193Z" fill="#CBE0CC"/>
</svg>
