<svg width="208" height="208" viewBox="0 0 208 208" fill="none" xmlns="http://www.w3.org/2000/svg">
<g filter="url(#filter0_d_2166_15169)">
<circle cx="104" cy="88" r="72" fill="white"/>
</g>
<path d="M104.706 135.755C104.42 135.755 104.139 135.688 103.885 135.559C91.213 129.143 80.6019 119.512 73.1992 107.71C65.8125 95.9857 61.8851 82.4145 61.8691 68.5574V55.546C61.8684 54.7231 62.4213 54.0025 63.2164 53.7902L104.237 42.8523C104.543 42.7706 104.866 42.7706 105.172 42.8523L146.193 53.7902C146.989 54.0019 147.543 54.7226 147.542 55.546V68.5574C147.526 82.4143 143.599 95.9852 136.214 107.71C128.809 119.512 118.198 129.135 105.528 135.559C105.273 135.689 104.991 135.756 104.706 135.755ZM65.5006 56.9405V68.5611C65.5006 95.0833 80.4966 119.272 104.706 131.899C128.913 119.272 143.911 95.0833 143.911 68.5574V56.9368L104.706 46.4856L65.5006 56.9405Z" fill="#B8D9BA"/>
<path d="M104.706 127.458C104.387 127.458 104.074 127.374 103.798 127.214C93.8259 121.464 85.3973 113.371 79.4 103.813C72.7268 93.2235 69.1778 80.9654 69.1611 68.4486V61.1385C69.1615 60.3156 69.7151 59.596 70.5102 59.3845L104.237 50.3894C104.544 50.3077 104.866 50.3077 105.172 50.3894L138.901 59.3845C139.696 59.5966 140.248 60.3161 140.248 61.1385V68.4486C140.232 80.9654 136.683 93.2235 130.01 103.813C124.018 113.371 115.578 121.462 105.614 127.214C105.337 127.374 105.024 127.458 104.706 127.458ZM72.7926 62.5329V68.4486C72.8095 80.2827 76.1658 91.8717 82.4758 101.883C88.0806 110.748 95.6966 118.166 104.706 123.536C113.762 118.118 121.434 110.644 126.934 101.883C133.244 91.8717 136.6 80.2827 136.617 68.4486V62.5329L104.706 54.0227L72.7926 62.5329Z" fill="#B8D9BA"/>
<path d="M114.398 104.762H95.013C92.3158 104.759 90.13 102.573 90.127 99.876V85.9622C90.13 83.265 92.3158 81.0793 95.013 81.0762H114.398C117.094 81.0802 119.279 83.2657 119.282 85.9622V99.876C119.279 102.573 117.094 104.758 114.398 104.762ZM95.013 84.7076C94.3205 84.7087 93.7595 85.2697 93.7584 85.9622V99.876C93.7595 100.569 94.3205 101.13 95.013 101.131H114.398C115.089 101.129 115.649 100.568 115.65 99.876V85.9622C115.649 85.2705 115.089 84.7096 114.398 84.7076H95.013Z" fill="#B8D9BA"/>
<path d="M113.821 84.7075H95.5891C94.5863 84.7075 93.7734 83.8946 93.7734 82.8918V77.4229C93.6955 71.3857 98.5266 66.4282 104.564 66.3505C110.601 66.2728 115.559 71.1037 115.636 77.1411C115.638 77.235 115.638 77.329 115.636 77.4231V82.892C115.636 83.8946 114.823 84.7075 113.821 84.7075ZM97.4048 81.0761H112.005V77.4229C112.068 73.3911 108.852 70.0713 104.82 70.0077C100.788 69.9442 97.4684 73.1611 97.4048 77.1927C97.4035 77.2695 97.4035 77.3461 97.4048 77.4229V81.0761Z" fill="#B8D9BA"/>
<path d="M104.706 97.4692C103.704 97.4692 102.891 96.6563 102.891 95.6535V90.1809C102.891 89.1781 103.704 88.3652 104.706 88.3652C105.709 88.3652 106.522 89.1781 106.522 90.1809V95.6499C106.524 96.6527 105.713 97.4672 104.71 97.4692C104.709 97.4692 104.707 97.4692 104.706 97.4692Z" fill="#B8D9BA"/>
<defs>
<filter id="filter0_d_2166_15169" x="0" y="0" width="208" height="208" filterUnits="userSpaceOnUse" color-interpolation-filters="sRGB">
<feFlood flood-opacity="0" result="BackgroundImageFix"/>
<feColorMatrix in="SourceAlpha" type="matrix" values="0 0 0 0 0 0 0 0 0 0 0 0 0 0 0 0 0 0 127 0" result="hardAlpha"/>
<feOffset dy="16"/>
<feGaussianBlur stdDeviation="16"/>
<feComposite in2="hardAlpha" operator="out"/>
<feColorMatrix type="matrix" values="0 0 0 0 0 0 0 0 0 0 0 0 0 0 0 0 0 0 0.08 0"/>
<feBlend mode="normal" in2="BackgroundImageFix" result="effect1_dropShadow_2166_15169"/>
<feBlend mode="normal" in="SourceGraphic" in2="effect1_dropShadow_2166_15169" result="shape"/>
</filter>
</defs>
</svg>
