<svg width="87" height="94" viewBox="0 0 87 94" fill="none" xmlns="http://www.w3.org/2000/svg">
<path d="M43.7056 93.7554C43.4204 93.7554 43.1393 93.6882 42.8849 93.5593C30.213 87.1426 19.6019 77.512 12.1992 65.7098C4.81252 53.9857 0.88512 40.4145 0.869141 26.5574V13.546C0.868415 12.7231 1.4213 12.0025 2.21641 11.7902L43.2372 0.852296C43.5435 0.770589 43.8659 0.770589 44.1723 0.852296L85.193 11.7902C85.9888 12.0019 86.5426 12.7226 86.5421 13.546V26.5574C86.5257 40.4143 82.5991 53.9852 75.2138 65.7098C67.8093 77.512 57.1982 87.1353 44.5281 93.5593C44.2732 93.6886 43.9914 93.7558 43.7056 93.7554ZM4.50058 14.9405V26.5611C4.50058 53.0833 19.4966 77.2723 43.7056 89.8988C67.9128 77.2723 82.9106 53.0833 82.9106 26.5574V14.9368L43.7056 4.48555L4.50058 14.9405Z" fill="#B8D9BA"/>
<path d="M43.7057 85.4576C43.387 85.4576 43.0738 85.3738 42.7978 85.2143C32.8259 79.464 24.3973 71.3713 18.4 61.8133C11.7268 51.2235 8.17784 38.9654 8.16113 26.4486V19.1385C8.1615 18.3156 8.71511 17.596 9.51021 17.3845L43.2372 8.38941C43.5435 8.3077 43.866 8.3077 44.1723 8.38941L77.9011 17.3845C78.6955 17.5966 79.2482 18.3161 79.2484 19.1385V26.4486C79.2317 38.9654 75.6827 51.2235 69.0095 61.8133C63.0177 71.3713 54.5782 79.4621 44.6135 85.2143C44.3374 85.3738 44.0243 85.4576 43.7057 85.4576ZM11.7926 20.5329V26.4486C11.8095 38.2827 15.1658 49.8717 21.4758 59.8832C27.0806 68.7479 34.6966 76.1662 43.7057 81.5357C52.7625 76.1176 60.4339 68.6441 65.9337 59.8832C72.2437 49.8717 75.6001 38.2827 75.617 26.4486V20.5329L43.7057 12.0227L11.7926 20.5329Z" fill="#B8D9BA"/>
<path d="M53.3975 62.7621H34.013C31.3158 62.759 29.13 60.5733 29.127 57.876V43.9622C29.13 41.265 31.3158 39.0793 34.013 39.0762H53.3975C56.0941 39.0802 58.2787 41.2657 58.2818 43.9622V57.876C58.2787 60.5725 56.0941 62.7581 53.3975 62.7621ZM34.013 42.7076C33.3205 42.7087 32.7595 43.2697 32.7584 43.9622V57.876C32.7595 58.5685 33.3205 59.1298 34.013 59.1307H53.3975C54.0893 59.1287 54.6495 58.5678 54.6504 57.876V43.9622C54.6495 43.2705 54.0893 42.7096 53.3975 42.7076H34.013Z" fill="#B8D9BA"/>
<path d="M52.8206 42.7075H34.5891C33.5863 42.7075 32.7734 41.8946 32.7734 40.8918V35.4229C32.6955 29.3857 37.5266 24.4282 43.564 24.3505C49.6014 24.2728 54.5586 29.1037 54.6364 35.1411C54.6376 35.235 54.6376 35.329 54.6364 35.4231V40.892C54.6364 41.8946 53.8233 42.7075 52.8206 42.7075ZM36.4048 39.0761H51.0049V35.4229C51.0685 31.3911 47.8518 28.0713 43.82 28.0077C39.7882 27.9442 36.4684 31.1611 36.4048 35.1927C36.4035 35.2695 36.4035 35.3461 36.4048 35.4229V39.0761Z" fill="#B8D9BA"/>
<path d="M43.7063 55.4692C42.7035 55.4692 41.8906 54.6563 41.8906 53.6535V48.1809C41.8906 47.1781 42.7035 46.3652 43.7063 46.3652C44.7092 46.3652 45.522 47.1781 45.522 48.1809V53.6499C45.524 54.6527 44.7128 55.4672 43.71 55.4692C43.7087 55.4692 43.7074 55.4692 43.7063 55.4692Z" fill="#B8D9BA"/>
</svg>
