<svg width="52" height="52" viewBox="0 0 52 52" fill="none" xmlns="http://www.w3.org/2000/svg">
<circle cx="26" cy="26" r="26" fill="#ECFDED"/>
<path d="M25.5 8C15.8278 8 8 15.8269 8 25.5C8 35.1722 15.8269 43 25.5 43C35.1722 43 43 35.1731 43 25.5C43 15.8278 35.1731 8 25.5 8ZM34.7637 20.7193L23.5524 31.9306C23.097 32.386 22.358 32.3861 21.9025 31.9306L16.2363 26.2645C15.7807 25.8088 15.7807 25.0702 16.2363 24.6145C16.6919 24.1589 17.4307 24.1589 17.8863 24.6145L22.7275 29.4557L33.1139 19.0693C33.5694 18.6137 34.3082 18.6137 34.7638 19.0693C35.2193 19.525 35.2193 20.2637 34.7637 20.7193Z" fill="#ABCFAD"/>
</svg>
