<svg width="57" height="57" viewBox="0 0 57 57" fill="none" xmlns="http://www.w3.org/2000/svg">
<circle cx="28.5" cy="28.5" r="28.5" fill="#CBE0CC"/>
<path d="M36 39H21.0568V35.9247H36V39ZM31.6108 30.5858H21V27.5817H31.6108V30.5858ZM27.0369 24.2075L27.3778 32.9207C27.3778 33.8508 27.1932 34.6624 26.8239 35.3553C26.464 36.0481 25.8532 36.6034 24.9915 37.021L22.3494 35.9247C22.6525 35.8393 22.8797 35.6495 23.0312 35.3553C23.1922 35.0515 23.2964 34.6956 23.3438 34.2875C23.4006 33.8793 23.429 33.4854 23.429 33.1058L23.1449 24.2075C23.1449 22.8976 23.4148 21.7824 23.9545 20.8617C24.4943 19.9315 25.2424 19.2244 26.1989 18.7403C27.1553 18.2468 28.2633 18 29.5227 18C30.8769 18 32.0227 18.242 32.9602 18.7261C33.8977 19.2102 34.6127 19.8888 35.1051 20.762C35.5975 21.6353 35.8438 22.6508 35.8438 23.8088H32.0938C32.0938 23.1349 31.9706 22.5986 31.7244 22.2C31.4877 21.8014 31.1705 21.5166 30.7727 21.3458C30.375 21.1654 29.9441 21.0753 29.4801 21.0753C29.0161 21.0753 28.5947 21.1939 28.2159 21.4312C27.8466 21.659 27.5578 22.0102 27.3494 22.4847C27.1411 22.9498 27.0369 23.5241 27.0369 24.2075Z" fill="white"/>
</svg>
