<svg width="57" height="57" viewBox="0 0 57 57" fill="none" xmlns="http://www.w3.org/2000/svg">
<circle cx="28.5" cy="28.5" r="28.5" fill="#CBE0CC"/>
<path d="M33.8712 38.1145C34.5111 38.1145 35.1268 38.0723 35.7183 37.988C36.3099 37.8916 36.8773 37.747 37.4205 37.5542L38 41.4578C37.2877 41.6265 36.5453 41.759 35.7726 41.8554C35 41.9518 34.2213 42 33.4366 42C31.9276 42 30.5453 41.7892 29.2897 41.3675C28.0342 40.9458 26.9416 40.3072 26.0121 39.4518C25.0946 38.5964 24.3823 37.5301 23.8753 36.253C23.3682 34.9759 23.1147 33.494 23.1147 31.8072V25.6265C23.1147 23.8675 23.3682 22.3253 23.8753 21C24.3823 19.6747 25.1066 18.5663 26.0483 17.6747C27.002 16.7831 28.1247 16.1145 29.4165 15.6687C30.7203 15.2229 32.1569 15 33.7264 15C34.4507 15 35.163 15.0542 35.8632 15.1627C36.5755 15.259 37.2877 15.3916 38 15.5602L37.4205 19.4819C36.9135 19.3133 36.3581 19.1747 35.7545 19.0663C35.1509 18.9578 34.5473 18.9036 33.9437 18.9036C33.0382 18.9036 32.2233 19.0361 31.499 19.3012C30.7746 19.5542 30.159 19.9518 29.6519 20.494C29.1449 21.0241 28.7586 21.7108 28.493 22.5542C28.2394 23.3976 28.1127 24.4096 28.1127 25.5904V31.8072C28.1127 32.9639 28.2455 33.9458 28.5111 34.753C28.7887 35.5482 29.1811 36.1988 29.6881 36.7048C30.1952 37.1988 30.8048 37.5602 31.5171 37.7892C32.2294 38.006 33.0141 38.1145 33.8712 38.1145ZM34.3602 24.7048V27.2711H20V24.7048H34.3602ZM34.3602 29.6024V32.1867H20V29.6024H34.3602Z" fill="white"/>
</svg>
