<svg width="25" height="19" viewBox="0 0 25 19" fill="none" xmlns="http://www.w3.org/2000/svg">
<path d="M17.5 16.4667V19H0V16.4667C0 16.4667 0 11.4 8.75 11.4C17.5 11.4 17.5 16.4667 17.5 16.4667ZM13.125 4.43337C13.125 3.55654 12.8684 2.6994 12.3877 1.97035C11.9069 1.24129 11.2237 0.673061 10.4242 0.337513C9.62481 0.00196573 8.74515 -0.0858289 7.89648 0.0852319C7.04781 0.256293 6.26826 0.678526 5.65641 1.29854C5.04455 1.91855 4.62787 2.70849 4.45906 3.56847C4.29025 4.42845 4.37689 5.31984 4.70803 6.12993C5.03916 6.94001 5.59992 7.6324 6.31938 8.11954C7.03885 8.60668 7.88471 8.86669 8.75 8.86669C9.91032 8.86669 11.0231 8.39961 11.8436 7.5682C12.6641 6.73679 13.125 5.60916 13.125 4.43337ZM17.425 11.4C18.1934 12.0026 18.8222 12.7686 19.2671 13.6439C19.712 14.5193 19.9621 15.4828 20 16.4667V19H25V16.4667C25 16.4667 25 11.8687 17.425 11.4ZM16.25 4.66088e-05C15.3897 -0.00400816 14.5485 0.256585 13.8375 0.747378C14.5968 1.82244 15.0051 3.11133 15.0051 4.43337C15.0051 5.7554 14.5968 7.0443 13.8375 8.11936C14.5485 8.61015 15.3897 8.87075 16.25 8.86669C17.4103 8.86669 18.5231 8.39961 19.3436 7.5682C20.1641 6.73679 20.625 5.60916 20.625 4.43337C20.625 3.25758 20.1641 2.12995 19.3436 1.29854C18.5231 0.467128 17.4103 4.66088e-05 16.25 4.66088e-05Z" fill="#4E4E4E"/>
</svg>
