<svg width="546" height="23" viewBox="0 0 546 23" fill="none" xmlns="http://www.w3.org/2000/svg">
<path d="M7.63281 13.8496V3.78125H9.50781V13.8496C9.50781 14.7871 9.31576 15.5781 8.93164 16.2227C8.54753 16.8672 8.01693 17.3587 7.33984 17.6973C6.66927 18.0293 5.89779 18.1953 5.02539 18.1953C4.15299 18.1953 3.37826 18.0456 2.70117 17.7461C2.02409 17.4466 1.49349 16.9909 1.10938 16.3789C0.72526 15.7669 0.533203 14.9954 0.533203 14.0645H2.41797C2.41797 14.6634 2.52865 15.1549 2.75 15.5391C2.97135 15.9232 3.27734 16.2064 3.66797 16.3887C4.0651 16.571 4.51758 16.6621 5.02539 16.6621C5.52018 16.6621 5.96289 16.5579 6.35352 16.3496C6.75065 16.1348 7.06315 15.819 7.29102 15.4023C7.51888 14.9792 7.63281 14.4616 7.63281 13.8496ZM18.6582 16.1934V10.7539C18.6582 10.3372 18.5736 9.97591 18.4043 9.66992C18.2415 9.35742 17.9941 9.11654 17.6621 8.94727C17.3301 8.77799 16.9199 8.69336 16.4316 8.69336C15.9759 8.69336 15.5755 8.77148 15.2305 8.92773C14.8919 9.08398 14.625 9.28906 14.4297 9.54297C14.2409 9.79688 14.1465 10.0703 14.1465 10.3633H12.3398C12.3398 9.98568 12.4375 9.61133 12.6328 9.24023C12.8281 8.86914 13.1081 8.53385 13.4727 8.23438C13.8438 7.92839 14.2865 7.6875 14.8008 7.51172C15.3216 7.32943 15.901 7.23828 16.5391 7.23828C17.3073 7.23828 17.9844 7.36849 18.5703 7.62891C19.1628 7.88932 19.625 8.2832 19.957 8.81055C20.2956 9.33138 20.4648 9.98568 20.4648 10.7734V15.6953C20.4648 16.0469 20.4941 16.4212 20.5527 16.8184C20.6178 17.2155 20.7122 17.5573 20.8359 17.8438V18H18.9512C18.86 17.7917 18.7884 17.515 18.7363 17.1699C18.6842 16.8184 18.6582 16.4928 18.6582 16.1934ZM18.9707 11.5938L18.9902 12.8633H17.1641C16.6497 12.8633 16.1908 12.9056 15.7871 12.9902C15.3835 13.0684 15.0449 13.1888 14.7715 13.3516C14.498 13.5143 14.2897 13.7194 14.1465 13.9668C14.0033 14.2077 13.9316 14.4909 13.9316 14.8164C13.9316 15.1484 14.0065 15.4512 14.1562 15.7246C14.306 15.998 14.5306 16.2161 14.8301 16.3789C15.1361 16.5352 15.5104 16.6133 15.9531 16.6133C16.5065 16.6133 16.9948 16.4961 17.418 16.2617C17.8411 16.0273 18.1764 15.7409 18.4238 15.4023C18.6777 15.0638 18.8145 14.735 18.834 14.416L19.6055 15.2852C19.5599 15.5586 19.4362 15.8613 19.2344 16.1934C19.0326 16.5254 18.7624 16.8444 18.4238 17.1504C18.0918 17.4499 17.6947 17.7005 17.2324 17.9023C16.7767 18.0977 16.2624 18.1953 15.6895 18.1953C14.9733 18.1953 14.3451 18.0553 13.8047 17.7754C13.2708 17.4954 12.8542 17.1211 12.5547 16.6523C12.2617 16.1771 12.1152 15.6465 12.1152 15.0605C12.1152 14.4941 12.2259 13.9961 12.4473 13.5664C12.6686 13.1302 12.9876 12.7689 13.4043 12.4824C13.821 12.1895 14.3223 11.9681 14.9082 11.8184C15.4941 11.6686 16.1484 11.5938 16.8711 11.5938H18.9707ZM25.1133 9.68945V18H23.3066V7.43359H25.0156L25.1133 9.68945ZM24.6836 12.3164L23.9316 12.2871C23.9382 11.5645 24.0456 10.8971 24.2539 10.2852C24.4622 9.66667 24.7552 9.12956 25.1328 8.67383C25.5104 8.2181 25.9596 7.86654 26.4805 7.61914C27.0078 7.36523 27.5905 7.23828 28.2285 7.23828C28.7493 7.23828 29.2181 7.3099 29.6348 7.45312C30.0514 7.58984 30.4062 7.8112 30.6992 8.11719C30.9987 8.42318 31.2266 8.82031 31.3828 9.30859C31.5391 9.79036 31.6172 10.3796 31.6172 11.0762V18H29.8008V11.0566C29.8008 10.5033 29.7194 10.0605 29.5566 9.72852C29.3939 9.38997 29.1562 9.14583 28.8438 8.99609C28.5312 8.83984 28.1471 8.76172 27.6914 8.76172C27.2422 8.76172 26.832 8.85612 26.4609 9.04492C26.0964 9.23372 25.7806 9.49414 25.5137 9.82617C25.2533 10.1582 25.0482 10.5391 24.8984 10.9688C24.7552 11.3919 24.6836 11.8411 24.6836 12.3164Z" fill="#4E4E4E"/>
<path d="M104.619 3.78125V18H102.734V3.78125H104.619ZM110.576 10.1777V11.7207H104.209V10.1777H110.576ZM111.543 3.78125V5.32422H104.209V3.78125H111.543ZM119.414 16.1934V10.7539C119.414 10.3372 119.329 9.97591 119.16 9.66992C118.997 9.35742 118.75 9.11654 118.418 8.94727C118.086 8.77799 117.676 8.69336 117.188 8.69336C116.732 8.69336 116.331 8.77148 115.986 8.92773C115.648 9.08398 115.381 9.28906 115.186 9.54297C114.997 9.79688 114.902 10.0703 114.902 10.3633H113.096C113.096 9.98568 113.193 9.61133 113.389 9.24023C113.584 8.86914 113.864 8.53385 114.229 8.23438C114.6 7.92839 115.042 7.6875 115.557 7.51172C116.077 7.32943 116.657 7.23828 117.295 7.23828C118.063 7.23828 118.74 7.36849 119.326 7.62891C119.919 7.88932 120.381 8.2832 120.713 8.81055C121.051 9.33138 121.221 9.98568 121.221 10.7734V15.6953C121.221 16.0469 121.25 16.4212 121.309 16.8184C121.374 17.2155 121.468 17.5573 121.592 17.8438V18H119.707C119.616 17.7917 119.544 17.515 119.492 17.1699C119.44 16.8184 119.414 16.4928 119.414 16.1934ZM119.727 11.5938L119.746 12.8633H117.92C117.406 12.8633 116.947 12.9056 116.543 12.9902C116.139 13.0684 115.801 13.1888 115.527 13.3516C115.254 13.5143 115.046 13.7194 114.902 13.9668C114.759 14.2077 114.688 14.4909 114.688 14.8164C114.688 15.1484 114.762 15.4512 114.912 15.7246C115.062 15.998 115.286 16.2161 115.586 16.3789C115.892 16.5352 116.266 16.6133 116.709 16.6133C117.262 16.6133 117.751 16.4961 118.174 16.2617C118.597 16.0273 118.932 15.7409 119.18 15.4023C119.434 15.0638 119.57 14.735 119.59 14.416L120.361 15.2852C120.316 15.5586 120.192 15.8613 119.99 16.1934C119.788 16.5254 119.518 16.8444 119.18 17.1504C118.848 17.4499 118.451 17.7005 117.988 17.9023C117.533 18.0977 117.018 18.1953 116.445 18.1953C115.729 18.1953 115.101 18.0553 114.561 17.7754C114.027 17.4954 113.61 17.1211 113.311 16.6523C113.018 16.1771 112.871 15.6465 112.871 15.0605C112.871 14.4941 112.982 13.9961 113.203 13.5664C113.424 13.1302 113.743 12.7689 114.16 12.4824C114.577 12.1895 115.078 11.9681 115.664 11.8184C116.25 11.6686 116.904 11.5938 117.627 11.5938H119.727ZM124.053 3H125.869V15.9492L125.713 18H124.053V3ZM133.008 12.6289V12.834C133.008 13.6022 132.917 14.3151 132.734 14.9727C132.552 15.6237 132.285 16.1901 131.934 16.6719C131.582 17.1536 131.152 17.528 130.645 17.7949C130.137 18.0618 129.554 18.1953 128.896 18.1953C128.226 18.1953 127.637 18.0814 127.129 17.8535C126.628 17.6191 126.204 17.2839 125.859 16.8477C125.514 16.4115 125.238 15.8841 125.029 15.2656C124.827 14.6471 124.688 13.9505 124.609 13.1758V12.2773C124.688 11.4961 124.827 10.7962 125.029 10.1777C125.238 9.55924 125.514 9.0319 125.859 8.5957C126.204 8.15299 126.628 7.81771 127.129 7.58984C127.63 7.35547 128.213 7.23828 128.877 7.23828C129.541 7.23828 130.13 7.36849 130.645 7.62891C131.159 7.88281 131.589 8.2474 131.934 8.72266C132.285 9.19792 132.552 9.76758 132.734 10.4316C132.917 11.0892 133.008 11.8216 133.008 12.6289ZM131.191 12.834V12.6289C131.191 12.1016 131.143 11.6068 131.045 11.1445C130.947 10.6758 130.791 10.2656 130.576 9.91406C130.361 9.55599 130.078 9.27604 129.727 9.07422C129.375 8.86589 128.942 8.76172 128.428 8.76172C127.972 8.76172 127.575 8.83984 127.236 8.99609C126.904 9.15234 126.621 9.36393 126.387 9.63086C126.152 9.89128 125.96 10.1908 125.811 10.5293C125.667 10.8613 125.56 11.2064 125.488 11.5645V13.918C125.592 14.3737 125.762 14.8132 125.996 15.2363C126.237 15.653 126.556 15.9948 126.953 16.2617C127.357 16.5286 127.855 16.6621 128.447 16.6621C128.936 16.6621 129.352 16.5645 129.697 16.3691C130.049 16.1673 130.332 15.8906 130.547 15.5391C130.768 15.1875 130.931 14.7806 131.035 14.3184C131.139 13.8561 131.191 13.3613 131.191 12.834Z" fill="#4E4E4E"/>
<path d="M204.688 3.78125H206.514L211.172 15.373L215.82 3.78125H217.656L211.875 18H210.449L204.688 3.78125ZM204.092 3.78125H205.703L205.967 12.4531V18H204.092V3.78125ZM216.631 3.78125H218.242V18H216.367V12.4531L216.631 3.78125ZM227.51 16.1934V10.7539C227.51 10.3372 227.425 9.97591 227.256 9.66992C227.093 9.35742 226.846 9.11654 226.514 8.94727C226.182 8.77799 225.771 8.69336 225.283 8.69336C224.827 8.69336 224.427 8.77148 224.082 8.92773C223.743 9.08398 223.477 9.28906 223.281 9.54297C223.092 9.79688 222.998 10.0703 222.998 10.3633H221.191C221.191 9.98568 221.289 9.61133 221.484 9.24023C221.68 8.86914 221.96 8.53385 222.324 8.23438C222.695 7.92839 223.138 7.6875 223.652 7.51172C224.173 7.32943 224.753 7.23828 225.391 7.23828C226.159 7.23828 226.836 7.36849 227.422 7.62891C228.014 7.88932 228.477 8.2832 228.809 8.81055C229.147 9.33138 229.316 9.98568 229.316 10.7734V15.6953C229.316 16.0469 229.346 16.4212 229.404 16.8184C229.469 17.2155 229.564 17.5573 229.688 17.8438V18H227.803C227.712 17.7917 227.64 17.515 227.588 17.1699C227.536 16.8184 227.51 16.4928 227.51 16.1934ZM227.822 11.5938L227.842 12.8633H226.016C225.501 12.8633 225.042 12.9056 224.639 12.9902C224.235 13.0684 223.896 13.1888 223.623 13.3516C223.35 13.5143 223.141 13.7194 222.998 13.9668C222.855 14.2077 222.783 14.4909 222.783 14.8164C222.783 15.1484 222.858 15.4512 223.008 15.7246C223.158 15.998 223.382 16.2161 223.682 16.3789C223.988 16.5352 224.362 16.6133 224.805 16.6133C225.358 16.6133 225.846 16.4961 226.27 16.2617C226.693 16.0273 227.028 15.7409 227.275 15.4023C227.529 15.0638 227.666 14.735 227.686 14.416L228.457 15.2852C228.411 15.5586 228.288 15.8613 228.086 16.1934C227.884 16.5254 227.614 16.8444 227.275 17.1504C226.943 17.4499 226.546 17.7005 226.084 17.9023C225.628 18.0977 225.114 18.1953 224.541 18.1953C223.825 18.1953 223.197 18.0553 222.656 17.7754C222.122 17.4954 221.706 17.1211 221.406 16.6523C221.113 16.1771 220.967 15.6465 220.967 15.0605C220.967 14.4941 221.077 13.9961 221.299 13.5664C221.52 13.1302 221.839 12.7689 222.256 12.4824C222.673 12.1895 223.174 11.9681 223.76 11.8184C224.346 11.6686 225 11.5938 225.723 11.5938H227.822ZM233.965 9.09375V18H232.158V7.43359H233.916L233.965 9.09375ZM237.266 7.375L237.256 9.05469C237.106 9.02214 236.963 9.0026 236.826 8.99609C236.696 8.98307 236.546 8.97656 236.377 8.97656C235.96 8.97656 235.592 9.04167 235.273 9.17188C234.954 9.30208 234.684 9.48438 234.463 9.71875C234.242 9.95312 234.066 10.2331 233.936 10.5586C233.812 10.8776 233.73 11.2292 233.691 11.6133L233.184 11.9062C233.184 11.2682 233.245 10.6693 233.369 10.1094C233.499 9.54948 233.698 9.05469 233.965 8.625C234.232 8.1888 234.57 7.85026 234.98 7.60938C235.397 7.36198 235.892 7.23828 236.465 7.23828C236.595 7.23828 236.745 7.25456 236.914 7.28711C237.083 7.31315 237.201 7.34245 237.266 7.375Z" fill="#4E4E4E"/>
<path d="M313.387 5.04102L308.68 18H306.756L312.176 3.78125H313.416L313.387 5.04102ZM317.332 18L312.615 5.04102L312.586 3.78125H313.826L319.266 18H317.332ZM317.088 12.7363V14.2793H309.1V12.7363H317.088ZM322.703 9.46484V22.0625H320.887V7.43359H322.547L322.703 9.46484ZM329.822 12.6289V12.834C329.822 13.6022 329.731 14.3151 329.549 14.9727C329.367 15.6237 329.1 16.1901 328.748 16.6719C328.403 17.1536 327.977 17.528 327.469 17.7949C326.961 18.0618 326.378 18.1953 325.721 18.1953C325.05 18.1953 324.458 18.0846 323.943 17.8633C323.429 17.6419 322.993 17.3197 322.635 16.8965C322.277 16.4733 321.99 15.9655 321.775 15.373C321.567 14.7806 321.424 14.1133 321.346 13.3711V12.2773C321.424 11.4961 321.57 10.7962 321.785 10.1777C322 9.55924 322.283 9.0319 322.635 8.5957C322.993 8.15299 323.426 7.81771 323.934 7.58984C324.441 7.35547 325.027 7.23828 325.691 7.23828C326.355 7.23828 326.945 7.36849 327.459 7.62891C327.973 7.88281 328.406 8.2474 328.758 8.72266C329.109 9.19792 329.373 9.76758 329.549 10.4316C329.731 11.0892 329.822 11.8216 329.822 12.6289ZM328.006 12.834V12.6289C328.006 12.1016 327.951 11.6068 327.84 11.1445C327.729 10.6758 327.557 10.2656 327.322 9.91406C327.094 9.55599 326.801 9.27604 326.443 9.07422C326.085 8.86589 325.659 8.76172 325.164 8.76172C324.708 8.76172 324.311 8.83984 323.973 8.99609C323.641 9.15234 323.357 9.36393 323.123 9.63086C322.889 9.89128 322.697 10.1908 322.547 10.5293C322.404 10.8613 322.296 11.2064 322.225 11.5645V14.0938C322.355 14.5495 322.537 14.9792 322.771 15.3828C323.006 15.7799 323.318 16.1022 323.709 16.3496C324.1 16.5905 324.591 16.7109 325.184 16.7109C325.672 16.7109 326.092 16.61 326.443 16.4082C326.801 16.1999 327.094 15.9167 327.322 15.5586C327.557 15.2005 327.729 14.7904 327.84 14.3281C327.951 13.8594 328.006 13.3613 328.006 12.834ZM333.934 9.09375V18H332.127V7.43359H333.885L333.934 9.09375ZM337.234 7.375L337.225 9.05469C337.075 9.02214 336.932 9.0026 336.795 8.99609C336.665 8.98307 336.515 8.97656 336.346 8.97656C335.929 8.97656 335.561 9.04167 335.242 9.17188C334.923 9.30208 334.653 9.48438 334.432 9.71875C334.21 9.95312 334.035 10.2331 333.904 10.5586C333.781 10.8776 333.699 11.2292 333.66 11.6133L333.152 11.9062C333.152 11.2682 333.214 10.6693 333.338 10.1094C333.468 9.54948 333.667 9.05469 333.934 8.625C334.201 8.1888 334.539 7.85026 334.949 7.60938C335.366 7.36198 335.861 7.23828 336.434 7.23828C336.564 7.23828 336.714 7.25456 336.883 7.28711C337.052 7.31315 337.169 7.34245 337.234 7.375Z" fill="#4E4E4E"/>
<path d="M408.418 3.78125H410.244L414.902 15.373L419.551 3.78125H421.387L415.605 18H414.18L408.418 3.78125ZM407.822 3.78125H409.434L409.697 12.4531V18H407.822V3.78125ZM420.361 3.78125H421.973V18H420.098V12.4531L420.361 3.78125ZM431.24 16.1934V10.7539C431.24 10.3372 431.156 9.97591 430.986 9.66992C430.824 9.35742 430.576 9.11654 430.244 8.94727C429.912 8.77799 429.502 8.69336 429.014 8.69336C428.558 8.69336 428.158 8.77148 427.812 8.92773C427.474 9.08398 427.207 9.28906 427.012 9.54297C426.823 9.79688 426.729 10.0703 426.729 10.3633H424.922C424.922 9.98568 425.02 9.61133 425.215 9.24023C425.41 8.86914 425.69 8.53385 426.055 8.23438C426.426 7.92839 426.868 7.6875 427.383 7.51172C427.904 7.32943 428.483 7.23828 429.121 7.23828C429.889 7.23828 430.566 7.36849 431.152 7.62891C431.745 7.88932 432.207 8.2832 432.539 8.81055C432.878 9.33138 433.047 9.98568 433.047 10.7734V15.6953C433.047 16.0469 433.076 16.4212 433.135 16.8184C433.2 17.2155 433.294 17.5573 433.418 17.8438V18H431.533C431.442 17.7917 431.37 17.515 431.318 17.1699C431.266 16.8184 431.24 16.4928 431.24 16.1934ZM431.553 11.5938L431.572 12.8633H429.746C429.232 12.8633 428.773 12.9056 428.369 12.9902C427.965 13.0684 427.627 13.1888 427.354 13.3516C427.08 13.5143 426.872 13.7194 426.729 13.9668C426.585 14.2077 426.514 14.4909 426.514 14.8164C426.514 15.1484 426.589 15.4512 426.738 15.7246C426.888 15.998 427.113 16.2161 427.412 16.3789C427.718 16.5352 428.092 16.6133 428.535 16.6133C429.089 16.6133 429.577 16.4961 430 16.2617C430.423 16.0273 430.758 15.7409 431.006 15.4023C431.26 15.0638 431.396 14.735 431.416 14.416L432.188 15.2852C432.142 15.5586 432.018 15.8613 431.816 16.1934C431.615 16.5254 431.344 16.8444 431.006 17.1504C430.674 17.4499 430.277 17.7005 429.814 17.9023C429.359 18.0977 428.844 18.1953 428.271 18.1953C427.555 18.1953 426.927 18.0553 426.387 17.7754C425.853 17.4954 425.436 17.1211 425.137 16.6523C424.844 16.1771 424.697 15.6465 424.697 15.0605C424.697 14.4941 424.808 13.9961 425.029 13.5664C425.251 13.1302 425.57 12.7689 425.986 12.4824C426.403 12.1895 426.904 11.9681 427.49 11.8184C428.076 11.6686 428.73 11.5938 429.453 11.5938H431.553ZM438.701 16.9062L441.641 7.43359H443.574L439.336 19.6309C439.238 19.8913 439.108 20.1712 438.945 20.4707C438.789 20.7767 438.587 21.0664 438.34 21.3398C438.092 21.6133 437.793 21.8346 437.441 22.0039C437.096 22.1797 436.683 22.2676 436.201 22.2676C436.058 22.2676 435.876 22.248 435.654 22.209C435.433 22.1699 435.277 22.1374 435.186 22.1113L435.176 20.6465C435.228 20.653 435.309 20.6595 435.42 20.666C435.537 20.679 435.618 20.6855 435.664 20.6855C436.074 20.6855 436.423 20.6302 436.709 20.5195C436.995 20.4154 437.236 20.2363 437.432 19.9824C437.633 19.735 437.806 19.3932 437.949 18.957L438.701 16.9062ZM436.543 7.43359L439.287 15.6367L439.756 17.541L438.457 18.2051L434.57 7.43359H436.543Z" fill="#4E4E4E"/>
<path d="M520.055 13.8496V3.78125H521.93V13.8496C521.93 14.7871 521.738 15.5781 521.354 16.2227C520.969 16.8672 520.439 17.3587 519.762 17.6973C519.091 18.0293 518.32 18.1953 517.447 18.1953C516.575 18.1953 515.8 18.0456 515.123 17.7461C514.446 17.4466 513.915 16.9909 513.531 16.3789C513.147 15.7669 512.955 14.9954 512.955 14.0645H514.84C514.84 14.6634 514.951 15.1549 515.172 15.5391C515.393 15.9232 515.699 16.2064 516.09 16.3887C516.487 16.571 516.939 16.6621 517.447 16.6621C517.942 16.6621 518.385 16.5579 518.775 16.3496C519.173 16.1348 519.485 15.819 519.713 15.4023C519.941 14.9792 520.055 14.4616 520.055 13.8496ZM531.314 15.5586V7.43359H533.131V18H531.402L531.314 15.5586ZM531.656 13.332L532.408 13.3125C532.408 14.0156 532.333 14.6667 532.184 15.2656C532.04 15.8581 531.806 16.3724 531.48 16.8086C531.155 17.2448 530.729 17.5866 530.201 17.834C529.674 18.0749 529.033 18.1953 528.277 18.1953C527.763 18.1953 527.291 18.1204 526.861 17.9707C526.438 17.821 526.074 17.5898 525.768 17.2773C525.462 16.9648 525.224 16.5579 525.055 16.0566C524.892 15.5553 524.811 14.9531 524.811 14.25V7.43359H526.617V14.2695C526.617 14.7448 526.669 15.1387 526.773 15.4512C526.884 15.7572 527.031 16.0013 527.213 16.1836C527.402 16.3594 527.61 16.4831 527.838 16.5547C528.072 16.6263 528.313 16.6621 528.561 16.6621C529.329 16.6621 529.938 16.5156 530.387 16.2227C530.836 15.9232 531.158 15.5228 531.354 15.0215C531.555 14.5137 531.656 13.9505 531.656 13.332ZM537.691 9.68945V18H535.885V7.43359H537.594L537.691 9.68945ZM537.262 12.3164L536.51 12.2871C536.516 11.5645 536.624 10.8971 536.832 10.2852C537.04 9.66667 537.333 9.12956 537.711 8.67383C538.089 8.2181 538.538 7.86654 539.059 7.61914C539.586 7.36523 540.169 7.23828 540.807 7.23828C541.327 7.23828 541.796 7.3099 542.213 7.45312C542.63 7.58984 542.984 7.8112 543.277 8.11719C543.577 8.42318 543.805 8.82031 543.961 9.30859C544.117 9.79036 544.195 10.3796 544.195 11.0762V18H542.379V11.0566C542.379 10.5033 542.298 10.0605 542.135 9.72852C541.972 9.38997 541.734 9.14583 541.422 8.99609C541.109 8.83984 540.725 8.76172 540.27 8.76172C539.82 8.76172 539.41 8.85612 539.039 9.04492C538.674 9.23372 538.359 9.49414 538.092 9.82617C537.831 10.1582 537.626 10.5391 537.477 10.9688C537.333 11.3919 537.262 11.8411 537.262 12.3164Z" fill="#4E4E4E"/>
</svg>
