<svg width="46" height="47" viewBox="0 0 46 47" fill="none" xmlns="http://www.w3.org/2000/svg">
<circle cx="22.773" cy="23.3199" r="22.773" fill="#E6001E"/>
<path fill-rule="evenodd" clip-rule="evenodd" d="M23.2248 12.6035C23.2248 12.0512 22.7771 11.6035 22.2248 11.6035C21.6726 11.6035 21.2248 12.0512 21.2248 12.6035V23.1119H10.7168C10.1645 23.1119 9.7168 23.5596 9.7168 24.1119C9.7168 24.6641 10.1645 25.1119 10.7168 25.1119H21.2248V35.6201C21.2248 36.1724 21.6726 36.6201 22.2248 36.6201C22.7771 36.6201 23.2248 36.1724 23.2248 35.6201V25.1119H33.7334C34.2857 25.1119 34.7334 24.6641 34.7334 24.1119C34.7334 23.5596 34.2857 23.1119 33.7334 23.1119H23.2248V12.6035Z" fill="white"/>
</svg>
