<svg width="25" height="25" viewBox="0 0 25 25" fill="none" xmlns="http://www.w3.org/2000/svg">
<path d="M12.5 1C18.8513 1 24 6.14872 24 12.5C24 18.8513 18.8513 24 12.5 24C6.14873 24 1 18.8513 0.999999 12.5C0.999999 6.14873 6.14872 1 12.5 1Z" fill="#B8D9BA" stroke="white" stroke-width="2"/>
<path fill-rule="evenodd" clip-rule="evenodd" d="M13 6.5C13 6.22386 12.7761 6 12.5 6C12.2239 6 12 6.22386 12 6.5V12H6.5C6.22386 12 6 12.2239 6 12.5C6 12.7761 6.22386 13 6.5 13H12V18.5C12 18.7761 12.2239 19 12.5 19C12.7761 19 13 18.7761 13 18.5V13H18.5C18.7761 13 19 12.7761 19 12.5C19 12.2239 18.7761 12 18.5 12H13V6.5Z" fill="white"/>
</svg>
