<svg width="58" height="37" viewBox="0 0 58 37" fill="none" xmlns="http://www.w3.org/2000/svg">
<circle cx="29.5" cy="18.5" r="18.5" fill="#B8D9BA"/>
<rect y="12" width="17" height="4" rx="2" fill="#B8D9BA"/>
<rect x="35" y="12" width="17" height="4" rx="2" fill="#B8D9BA"/>
<rect x="6" y="24" width="17" height="4" rx="2" fill="#B8D9BA"/>
<rect x="41" y="24" width="17" height="4" rx="2" fill="#B8D9BA"/>
<path d="M30 17C31.3738 17 32.5634 16.5073 33.5353 15.5351C34.5073 14.5631 35 13.3738 35 11.9998C35 10.6263 34.5073 9.43688 33.5352 8.46457C32.563 7.49273 31.3736 7 30 7C28.6261 7 27.4368 7.49273 26.4648 8.46473C25.4929 9.43673 25 10.6262 25 11.9998C25 13.3738 25.4929 14.5633 26.465 15.5353C27.4371 16.5071 28.6265 17 30 17Z" fill="white"/>
<path d="M37.9588 22.5305C37.9313 22.1536 37.8756 21.7425 37.7937 21.3083C37.711 20.8709 37.6045 20.4573 37.477 20.0794C37.3454 19.6888 37.1663 19.303 36.9449 18.9333C36.7151 18.5496 36.4453 18.2155 36.1424 17.9405C35.8258 17.6529 35.438 17.4216 34.9897 17.253C34.5429 17.0852 34.0478 17.0001 33.5181 17.0001C33.3101 17.0001 33.109 17.0812 32.7205 17.3213C32.4814 17.4693 32.2017 17.6405 31.8896 17.8298C31.6226 17.9913 31.261 18.1426 30.8144 18.2795C30.3787 18.4134 29.9362 18.4813 29.4995 18.4813C29.0629 18.4813 28.6206 18.4134 28.1844 18.2795C27.7382 18.1427 27.3766 17.9914 27.11 17.83C26.8008 17.6424 26.521 17.4712 26.2783 17.3211C25.8903 17.081 25.6889 17 25.4809 17C24.9511 17 24.4562 17.0852 24.0095 17.2531C23.5615 17.4215 23.1736 17.6527 22.8566 17.9407C22.554 18.2158 22.2839 18.5497 22.0545 18.9333C21.8333 19.303 21.6542 19.6886 21.5223 20.0795C21.395 20.4575 21.2885 20.8709 21.2058 21.3083C21.1239 21.7419 21.0682 22.1532 21.0407 22.531C21.0137 22.9011 21 23.2853 21 23.6733C21 24.683 21.3381 25.5004 22.0049 26.1033C22.6634 26.6982 23.5347 27 24.5944 27H34.4056C35.4653 27 36.3363 26.6983 36.995 26.1033C37.6619 25.5009 38 24.6833 38 23.6731C37.9998 23.2834 37.986 22.8989 37.9588 22.5305Z" fill="white"/>
</svg>
