<svg width="58" height="37" viewBox="0 0 58 37" fill="none" xmlns="http://www.w3.org/2000/svg">
<circle cx="29.5" cy="18.5" r="18.5" fill="#B8D9BA"/>
<rect y="12" width="17" height="4" rx="2" fill="#B8D9BA"/>
<rect x="35" y="12" width="17" height="4" rx="2" fill="#B8D9BA"/>
<rect x="6" y="24" width="17" height="4" rx="2" fill="#B8D9BA"/>
<rect x="41" y="24" width="17" height="4" rx="2" fill="#B8D9BA"/>
<path d="M37.5754 15.7188L32.6567 14.9664L30.4521 10.2634C30.2874 9.9122 29.7121 9.9122 29.5474 10.2634L27.3434 14.9664L22.4248 15.7188C22.0208 15.7809 21.8594 16.273 22.1428 16.5634L25.7161 20.2316L24.8714 25.4173C24.8041 25.8292 25.2434 26.1384 25.6068 25.9361L30.0001 23.5044L34.3934 25.9367C34.7534 26.137 35.1967 25.8339 35.1287 25.418L34.2841 20.2322L37.8574 16.5641C38.1407 16.273 37.9787 15.7809 37.5754 15.7188Z" fill="white"/>
</svg>
