<svg width="58" height="37" viewBox="0 0 58 37" fill="none" xmlns="http://www.w3.org/2000/svg">
<circle cx="29.5" cy="18.5" r="18.5" fill="#B8D9BA"/>
<rect y="12" width="17" height="4" rx="2" fill="#B8D9BA"/>
<rect x="35" y="12" width="17" height="4" rx="2" fill="#B8D9BA"/>
<rect x="6" y="24" width="17" height="4" rx="2" fill="#B8D9BA"/>
<rect x="41" y="24" width="17" height="4" rx="2" fill="#B8D9BA"/>
<path d="M36.4165 10H29.8357C29.4003 10 28.7919 10.2522 28.4843 10.5596L19.462 19.5818C18.846 20.1971 18.846 21.206 19.462 21.8206L26.1798 28.5382C26.7945 29.1536 27.8024 29.1536 28.418 28.5375L37.4403 19.5167C37.7476 19.2094 37.9998 18.6 37.9998 18.1656V11.5834C37.9998 10.7127 37.2871 10 36.4165 10ZM33.2496 16.3333C32.3752 16.3333 31.6662 15.6237 31.6662 14.7499C31.6662 13.8748 32.3752 13.1665 33.2496 13.1665C34.1241 13.1665 34.8333 13.8748 34.8333 14.7499C34.8333 15.6237 34.1241 16.3333 33.2496 16.3333Z" fill="white"/>
</svg>
