<svg width="562" height="425" viewBox="0 0 562 425" fill="none" xmlns="http://www.w3.org/2000/svg">
<path d="M154.91 220.246L429.151 271.9C435.609 273.118 441.864 268.972 443.262 262.544L492.413 36.664C494.003 29.3584 488.684 22.3648 481.225 21.9478L207.491 6.66939C201.727 6.34813 196.535 10.1322 195.068 15.7203L145.411 205.224C143.626 212.041 147.992 218.942 154.91 220.246Z" fill="url(#paint0_linear_2166_26166)"/>
<path d="M149.214 213.595L423.455 265.25C429.913 266.467 436.168 262.322 437.566 255.893L486.717 30.0167C488.307 22.7111 482.988 15.7175 475.53 15.3005L201.795 0.0189952C196.031 -0.302265 190.839 3.48181 189.372 9.06988L139.715 198.573C137.928 205.391 142.293 212.292 149.214 213.595Z" fill="url(#paint1_linear_2166_26166)"/>
<path d="M425.718 258.52C425.391 258.52 425.063 258.492 424.739 258.427L150.495 206.769C149.06 206.503 147.844 205.672 147.062 204.44C146.281 203.204 146.059 201.746 146.427 200.332L196.081 10.8344C196.686 8.54235 198.757 6.94531 201.116 6.94531L475.144 22.2361C477.231 22.3504 478.45 23.5643 478.993 24.2779C479.543 24.9946 480.389 26.4989 479.941 28.5439L430.787 254.421C430.268 256.799 428.141 258.52 425.718 258.52Z" fill="#CBE0CC"/>
<path d="M158.294 232.446L429.213 273.404C434.971 274.469 436.579 290.971 432.115 294.832L290.349 417.405C282.572 424.13 271.878 426.212 262.234 422.882L10.5262 335.988C2.73108 333.297 -3.91562 313.889 3.08611 309.437L136.86 236.626C143.244 232.567 150.894 231.075 158.294 232.446Z" fill="url(#paint2_linear_2166_26166)"/>
<path d="M158.155 231.958L429.074 272.916C434.832 273.981 436.44 290.483 431.976 294.344L290.209 416.917C282.433 423.642 271.739 425.724 262.094 422.394L10.3871 335.503C2.59192 332.812 -4.05478 313.404 2.94695 308.952L136.721 236.141C143.105 232.082 150.755 230.59 158.155 231.958Z" fill="url(#paint3_linear_2166_26166)"/>
<path d="M155.056 221.112L425.654 271.222C431.411 272.288 433.341 279.64 428.876 283.498L287.11 406.071C279.333 412.796 268.639 414.878 258.995 411.548L7.29076 324.656C-0.504378 321.966 -1.69294 311.318 5.30879 306.866L133.624 225.297C140.009 221.235 147.659 219.74 155.056 221.112Z" fill="url(#paint4_linear_2166_26166)"/>
<path d="M428.88 282.772L287.113 405.345C279.336 412.07 268.642 414.152 258.998 410.822L7.29071 323.931C3.41321 322.593 1.17809 319.282 0.764404 315.748C0.937287 319.547 3.14771 323.226 7.29071 324.657L258.998 411.548C268.642 414.878 279.336 412.793 287.113 406.068L428.88 283.498C430.667 281.954 431.389 279.853 431.291 277.814C431.192 279.615 430.451 281.41 428.88 282.772Z" fill="white"/>
<path d="M142.376 239.753C146.42 240.621 148.458 241.059 152.564 241.937C154.086 242.261 156.123 241.961 157.093 241.26C159.717 239.367 161.001 238.412 163.502 236.478C164.428 235.762 163.928 234.922 162.403 234.61C158.294 233.766 156.253 233.343 152.206 232.509C150.705 232.2 148.754 232.528 147.825 233.235C145.321 235.144 144.04 236.08 141.428 237.933C140.462 238.616 140.879 239.432 142.376 239.753Z" fill="url(#paint5_linear_2166_26166)"/>
<path d="M184.46 239.11C180.234 238.254 178.132 237.825 173.958 236.972C172.411 236.657 170.423 236.991 169.497 237.711C166.996 239.657 165.709 240.617 163.082 242.526C162.109 243.234 162.554 244.071 164.1 244.402C168.268 245.288 170.364 245.736 174.581 246.629C176.144 246.959 178.221 246.644 179.2 245.921C181.842 243.969 183.133 242.99 185.637 241.013C186.563 240.281 186.029 239.428 184.46 239.11Z" fill="url(#paint6_linear_2166_26166)"/>
<path d="M207.065 243.66C202.746 242.798 200.597 242.366 196.319 241.504C194.732 241.186 192.713 241.526 191.784 242.261C189.277 244.247 187.983 245.236 185.334 247.203C184.353 247.932 184.822 248.794 186.403 249.128C190.669 250.027 192.812 250.478 197.118 251.383C198.714 251.717 200.823 251.383 201.811 250.635C204.478 248.618 205.778 247.611 208.291 245.594C209.226 244.85 208.664 243.982 207.065 243.66Z" fill="url(#paint7_linear_2166_26166)"/>
<path d="M209.17 253.907C213.511 254.812 215.687 255.266 220.056 256.171C221.673 256.508 223.813 256.153 224.813 255.38C227.511 253.298 228.823 252.261 231.349 250.194C232.284 249.428 231.707 248.548 230.083 248.229C225.699 247.367 223.513 246.935 219.157 246.07C217.543 245.749 215.499 246.101 214.567 246.855C212.051 248.887 210.748 249.904 208.071 251.936C207.077 252.69 207.562 253.57 209.17 253.907Z" fill="url(#paint8_linear_2166_26166)"/>
<path d="M232.266 258.692C236.656 259.594 238.857 260.048 243.262 260.947C244.895 261.281 247.053 260.901 248.066 260.104C250.798 257.951 252.122 256.885 254.666 254.766C255.608 253.981 255.024 253.092 253.385 252.774C248.958 251.918 246.751 251.489 242.342 250.627C240.709 250.309 238.644 250.673 237.705 251.445C235.177 253.527 233.862 254.571 231.154 256.672C230.148 257.453 230.639 258.359 232.266 258.692Z" fill="url(#paint9_linear_2166_26166)"/>
<path d="M255.555 263.449C259.97 264.345 262.18 264.79 266.598 265.679C268.234 266.01 270.411 265.602 271.439 264.777C274.208 262.553 275.551 261.453 278.113 259.285C279.064 258.482 278.481 257.58 276.832 257.268C272.39 256.424 270.17 256.001 265.734 255.152C264.091 254.837 262.011 255.217 261.066 256.007C258.519 258.139 257.188 259.217 254.447 261.385C253.434 262.192 253.919 263.118 255.555 263.449Z" fill="url(#paint10_linear_2166_26166)"/>
<path d="M300.307 261.678C295.874 260.856 293.654 260.439 289.215 259.608C287.57 259.299 285.483 259.698 284.532 260.51C281.96 262.694 280.614 263.803 277.833 266.046C276.801 266.877 277.277 267.822 278.913 268.146C283.328 269.027 285.535 269.462 289.944 270.334C291.577 270.655 293.762 270.219 294.806 269.37C297.618 267.075 298.977 265.941 301.567 263.717C302.527 262.889 301.953 261.981 300.307 261.678Z" fill="url(#paint11_linear_2166_26166)"/>
<path d="M323.671 265.967C319.272 265.17 317.067 264.768 312.65 263.956C311.013 263.656 308.927 264.076 307.963 264.907C305.367 267.147 304.002 268.29 301.178 270.604C300.131 271.462 300.585 272.423 302.212 272.741C306.605 273.6 308.794 274.023 313.168 274.87C314.789 275.181 316.978 274.715 318.034 273.838C320.889 271.468 322.269 270.301 324.887 268.021C325.857 267.175 325.298 266.26 323.671 265.967Z" fill="url(#paint12_linear_2166_26166)"/>
<path d="M346.787 270.097C342.447 269.331 340.267 268.944 335.896 268.163C334.275 267.873 332.197 268.317 331.222 269.167C328.598 271.462 327.212 272.636 324.344 275.027C323.282 275.913 323.708 276.889 325.316 277.195C329.66 278.023 331.824 278.434 336.137 279.246C337.733 279.546 339.918 279.046 340.996 278.141C343.901 275.697 345.299 274.495 347.945 272.16C348.927 271.301 348.396 270.381 346.787 270.097Z" fill="url(#paint13_linear_2166_26166)"/>
<path d="M348.097 281.489C352.366 282.283 354.49 282.672 358.717 283.448C360.282 283.735 362.458 283.197 363.551 282.264C366.506 279.744 367.926 278.511 370.605 276.12C371.599 275.234 371.102 274.313 369.525 274.041C365.268 273.316 363.128 272.948 358.828 272.203C357.235 271.929 355.166 272.398 354.182 273.269C351.527 275.62 350.122 276.828 347.205 279.296C346.127 280.207 346.516 281.196 348.097 281.489Z" fill="url(#paint14_linear_2166_26166)"/>
<path d="M391.759 277.764C387.61 277.084 385.523 276.738 381.321 276.034C379.765 275.774 377.715 276.269 376.721 277.161C374.032 279.568 372.606 280.809 369.639 283.352C368.54 284.294 368.883 285.295 370.43 285.573C374.6 286.323 376.675 286.691 380.79 287.42C382.315 287.689 384.473 287.114 385.585 286.153C388.588 283.559 390.03 282.292 392.747 279.846C393.753 278.941 393.296 278.017 391.759 277.764Z" fill="url(#paint15_linear_2166_26166)"/>
<path d="M171.034 249.168C168.364 248.591 167.033 248.3 164.385 247.726C162.856 247.395 162.094 247.228 160.572 246.898C151.77 244.986 147.424 244.034 138.881 242.165C137.384 241.838 135.368 242.122 134.362 242.793C131.648 244.609 130.268 245.511 127.471 247.312C126.434 247.979 126.789 248.801 128.277 249.15C136.776 251.133 141.095 252.143 149.841 254.176C151.354 254.528 152.113 254.704 153.632 255.056C156.265 255.668 157.587 255.973 160.242 256.591C161.791 256.95 163.918 256.659 164.98 255.939C167.842 253.996 169.253 253.03 172.019 251.087C173.041 250.364 172.593 249.508 171.034 249.168Z" fill="url(#paint16_linear_2166_26166)"/>
<path d="M193.534 254.017C189.236 253.097 187.097 252.636 182.84 251.719C181.262 251.379 179.163 251.694 178.132 252.42C175.356 254.382 173.939 255.364 171.065 257.329C170 258.058 170.395 258.941 171.964 259.302C176.193 260.279 178.317 260.77 182.58 261.752C184.161 262.117 186.325 261.801 187.403 261.048C190.308 259.018 191.743 258.008 194.546 255.988C195.587 255.24 195.127 254.357 193.534 254.017Z" fill="url(#paint17_linear_2166_26166)"/>
<path d="M194.519 264.498C198.816 265.484 200.974 265.978 205.296 266.967C206.898 267.331 209.093 266.991 210.189 266.204C213.147 264.084 214.604 263.028 217.45 260.927C218.506 260.149 218.037 259.241 216.422 258.898C212.066 257.974 209.893 257.511 205.561 256.587C203.956 256.244 201.823 256.581 200.779 257.338C197.964 259.38 196.525 260.402 193.605 262.457C192.524 263.216 192.926 264.131 194.519 264.498Z" fill="url(#paint18_linear_2166_26166)"/>
<path d="M217.376 269.716C221.72 270.705 223.896 271.196 228.252 272.182C229.867 272.546 232.089 272.175 233.204 271.354C236.214 269.139 237.699 268.039 240.592 265.855C241.663 265.046 241.2 264.116 239.573 263.776C235.177 262.856 232.985 262.395 228.604 261.472C226.98 261.129 224.819 261.487 223.76 262.275C220.902 264.397 219.438 265.466 216.465 267.61C215.366 268.407 215.768 269.352 217.376 269.716Z" fill="url(#paint19_linear_2166_26166)"/>
<path d="M240.41 274.921C244.775 275.9 246.958 276.391 251.323 277.364C252.941 277.726 255.182 277.321 256.321 276.466C259.39 274.158 260.902 273.009 263.848 270.738C264.94 269.898 264.487 268.947 262.853 268.61C258.445 267.702 256.244 267.245 251.838 266.33C250.205 265.991 248.023 266.377 246.945 267.195C244.037 269.404 242.546 270.516 239.521 272.756C238.4 273.587 238.795 274.56 240.41 274.921Z" fill="url(#paint20_linear_2166_26166)"/>
<path d="M286.137 273.371C281.741 272.482 279.54 272.034 275.137 271.135C273.504 270.801 271.306 271.215 270.21 272.068C267.25 274.363 265.731 275.521 262.644 277.857C261.501 278.722 261.875 279.719 263.493 280.078C267.855 281.045 270.034 281.526 274.384 282.484C275.996 282.839 278.252 282.401 279.413 281.508C282.544 279.102 284.087 277.909 287.085 275.549C288.199 274.672 287.767 273.702 286.137 273.371Z" fill="url(#paint21_linear_2166_26166)"/>
<path d="M309.294 278.014C304.935 277.149 302.749 276.714 298.371 275.836C296.747 275.512 294.54 275.957 293.423 276.84C290.406 279.225 288.857 280.43 285.708 282.864C284.541 283.766 284.89 284.785 286.495 285.137C290.829 286.083 292.993 286.552 297.306 287.488C298.905 287.834 301.168 287.355 302.354 286.429C305.549 283.923 307.123 282.682 310.18 280.235C311.31 279.324 310.908 278.335 309.294 278.014Z" fill="url(#paint22_linear_2166_26166)"/>
<path d="M332.189 282.509C327.891 281.675 325.733 281.255 321.402 280.405C319.797 280.09 317.586 280.572 316.447 281.486C313.372 283.957 311.792 285.215 308.578 287.745C307.386 288.684 307.701 289.725 309.288 290.064C313.57 290.982 315.706 291.436 319.957 292.338C321.532 292.672 323.798 292.156 325.005 291.189C328.268 288.585 329.873 287.297 332.991 284.758C334.149 283.822 333.782 282.818 332.189 282.509Z" fill="url(#paint23_linear_2166_26166)"/>
<path d="M331.75 294.824C335.958 295.704 338.051 296.143 342.216 297.005C343.759 297.323 346.019 296.764 347.254 295.763C350.588 293.06 352.227 291.723 355.407 289.097C356.586 288.124 356.262 287.104 354.7 286.811C350.489 286.017 348.368 285.615 344.114 284.803C342.537 284.5 340.329 285.019 339.169 285.968C336.035 288.528 334.417 289.832 331.136 292.464C329.919 293.437 330.191 294.496 331.75 294.824Z" fill="url(#paint24_linear_2166_26166)"/>
<path d="M376.693 290.889C372.59 290.142 370.525 289.762 366.366 288.992C364.826 288.708 362.628 289.261 361.442 290.244C358.247 292.894 356.595 294.247 353.243 296.975C352.002 297.985 352.221 299.066 353.743 299.375C357.852 300.212 359.893 300.626 363.946 301.441C365.45 301.744 367.694 301.139 368.957 300.101C372.362 297.302 374.035 295.915 377.28 293.2C378.484 292.196 378.212 291.167 376.693 290.889Z" fill="url(#paint25_linear_2166_26166)"/>
<path d="M134.652 253.935C130.586 252.965 128.567 252.48 124.557 251.522C123.072 251.167 121.016 251.42 119.954 252.09C117.086 253.897 115.635 254.803 112.711 256.631C111.628 257.311 111.936 258.167 113.415 258.546C117.398 259.566 119.404 260.079 123.445 261.11C124.943 261.493 127.051 261.234 128.141 260.533C131.089 258.642 132.553 257.703 135.448 255.837C136.52 255.149 136.158 254.296 134.652 253.935Z" fill="url(#paint26_linear_2166_26166)"/>
<path d="M156.444 259.128C152.274 258.136 150.199 257.642 146.072 256.66C144.543 256.295 142.441 256.567 141.364 257.268C138.455 259.159 136.986 260.107 134.028 262.022C132.932 262.733 133.266 263.623 134.782 264.012C138.878 265.059 140.938 265.584 145.077 266.641C146.612 267.033 148.76 266.752 149.869 266.02C152.857 264.04 154.342 263.057 157.281 261.102C158.368 260.379 157.988 259.496 156.444 259.128Z" fill="url(#paint27_linear_2166_26166)"/>
<path d="M178.724 264.41C174.473 263.406 172.353 262.902 168.135 261.905C166.573 261.534 164.428 261.827 163.335 262.562C160.384 264.543 158.892 265.537 155.892 267.542C154.78 268.283 155.129 269.21 156.679 269.606C160.862 270.671 162.964 271.206 167.178 272.281C168.741 272.679 170.926 272.376 172.05 271.607C175.085 269.534 176.594 268.509 179.58 266.461C180.691 265.698 180.302 264.784 178.724 264.41Z" fill="url(#paint28_linear_2166_26166)"/>
<path d="M178.984 275.274C183.232 276.352 185.362 276.893 189.631 277.974C191.212 278.376 193.429 278.045 194.571 277.245C197.655 275.08 199.192 274.001 202.23 271.858C203.357 271.064 202.968 270.119 201.369 269.745C197.059 268.735 194.91 268.228 190.625 267.221C189.036 266.847 186.856 267.165 185.745 267.935C182.744 270.007 181.228 271.048 178.181 273.146C177.054 273.921 177.409 274.876 178.984 275.274Z" fill="url(#paint29_linear_2166_26166)"/>
<path d="M201.564 280.988C205.852 282.069 208 282.609 212.301 283.691C213.894 284.092 216.132 283.734 217.296 282.894C220.436 280.629 222.004 279.502 225.097 277.262C226.246 276.431 225.863 275.458 224.254 275.084C219.914 274.074 217.744 273.571 213.415 272.561C211.81 272.187 209.6 272.533 208.47 273.336C205.416 275.505 203.87 276.595 200.77 278.788C199.622 279.601 199.974 280.586 201.564 280.988Z" fill="url(#paint30_linear_2166_26166)"/>
<path d="M224.297 286.7C228.604 287.778 230.756 288.316 235.062 289.388C236.658 289.786 238.915 289.394 240.098 288.52C243.296 286.157 244.895 284.977 248.05 282.635C249.22 281.767 248.856 280.766 247.244 280.396C242.892 279.395 240.718 278.894 236.368 277.89C234.757 277.517 232.522 277.894 231.367 278.734C228.255 281.001 226.681 282.144 223.526 284.433C222.359 285.289 222.701 286.302 224.297 286.7Z" fill="url(#paint31_linear_2166_26166)"/>
<path d="M270.226 285.644C265.891 284.661 263.718 284.167 259.374 283.176C257.763 282.808 255.509 283.219 254.333 284.096C251.159 286.465 249.551 287.658 246.337 290.049C245.145 290.935 245.47 291.976 247.063 292.372C251.363 293.437 253.512 293.969 257.8 295.025C259.39 295.417 261.656 294.991 262.866 294.077C266.129 291.612 267.759 290.382 270.979 287.939C272.171 287.034 271.831 286.008 270.226 285.644Z" fill="url(#paint32_linear_2166_26166)"/>
<path d="M293.058 290.781C288.761 289.823 286.606 289.338 282.29 288.368C280.691 288.01 278.425 288.454 277.224 289.372C273.983 291.843 272.343 293.088 269.065 295.581C267.848 296.505 268.148 297.57 269.729 297.959C273.998 299.007 276.128 299.526 280.376 300.56C281.951 300.943 284.223 300.48 285.458 299.529C288.786 296.962 290.45 295.68 293.741 293.131C294.957 292.183 294.648 291.136 293.058 290.781Z" fill="url(#paint33_linear_2166_26166)"/>
<path d="M315.619 295.766C311.387 294.839 309.26 294.373 304.993 293.428C303.413 293.079 301.14 293.564 299.915 294.518C296.605 297.091 294.932 298.389 291.586 300.986C290.345 301.95 290.61 303.038 292.172 303.414C296.389 304.434 298.488 304.937 302.672 305.941C304.221 306.312 306.494 305.808 307.753 304.817C311.149 302.145 312.85 300.81 316.209 298.16C317.453 297.181 317.188 296.112 315.619 295.766Z" fill="url(#paint34_linear_2166_26166)"/>
<path d="M359.424 305.139C350.891 303.359 346.553 302.445 337.783 300.567C336.823 300.36 336.341 300.258 335.381 300.051C332.186 299.365 330.583 299.019 327.363 298.324C325.811 297.987 323.538 298.516 322.285 299.507C318.905 302.185 317.194 303.535 313.78 306.235C312.514 307.236 312.736 308.345 314.268 308.709C317.447 309.463 319.031 309.84 322.186 310.581C323.137 310.804 323.613 310.918 324.56 311.141C333.22 313.176 337.499 314.174 345.921 316.108C347.396 316.448 349.65 315.854 350.959 314.789C354.497 311.91 356.272 310.47 359.776 307.616C361.079 306.556 360.918 305.451 359.424 305.139Z" fill="url(#paint35_linear_2166_26166)"/>
<path d="M119.559 263.603C115.527 262.549 113.526 262.024 109.55 260.986C108.078 260.6 106 260.85 104.901 261.545C101.937 263.423 100.446 264.372 97.4546 266.315C96.3463 267.035 96.6303 267.949 98.0998 268.357C102.061 269.447 104.055 270 108.068 271.106C109.556 271.517 111.668 271.248 112.779 270.51C115.783 268.517 117.284 267.541 120.266 265.604C121.371 264.888 121.05 263.995 119.559 263.603Z" fill="url(#paint36_linear_2166_26166)"/>
<path d="M141.144 269.243C137.014 268.165 134.958 267.628 130.873 266.559C129.361 266.163 127.24 266.426 126.131 267.152C123.14 269.107 121.633 270.099 118.626 272.107C117.512 272.851 117.824 273.796 119.333 274.214C123.399 275.338 125.446 275.903 129.552 277.04C131.074 277.46 133.22 277.179 134.34 276.413C137.366 274.349 138.878 273.33 141.898 271.313C143.015 270.572 142.676 269.645 141.144 269.243Z" fill="url(#paint37_linear_2166_26166)"/>
<path d="M163.193 274.995C158.988 273.898 156.892 273.355 152.718 272.264C151.172 271.86 149.014 272.144 147.89 272.901C144.862 274.942 143.343 275.971 140.311 278.053C139.187 278.825 139.521 279.802 141.058 280.225C145.207 281.371 147.291 281.948 151.471 283.104C153.021 283.533 155.194 283.233 156.324 282.44C159.374 280.299 160.909 279.239 163.965 277.136C165.101 276.36 164.752 275.4 163.193 274.995Z" fill="url(#paint38_linear_2166_26166)"/>
<path d="M163.171 286.339C167.379 287.501 169.49 288.085 173.72 289.252C175.288 289.685 177.483 289.366 178.625 288.542C181.71 286.321 183.262 285.218 186.362 283.025C187.51 282.212 187.162 281.224 185.584 280.813C181.327 279.71 179.203 279.157 174.964 278.058C173.393 277.65 171.204 277.956 170.065 278.743C166.996 280.872 165.459 281.944 162.399 284.106C161.266 284.906 161.612 285.91 163.171 286.339Z" fill="url(#paint39_linear_2166_26166)"/>
<path d="M185.532 292.507C189.777 293.678 191.904 294.261 196.158 295.429C197.735 295.862 199.946 295.519 201.1 294.666C204.218 292.362 205.793 291.216 208.942 288.93C210.109 288.083 209.766 287.067 208.179 286.656C203.891 285.55 201.752 284.997 197.476 283.895C195.892 283.484 193.673 283.817 192.521 284.639C189.409 286.857 187.85 287.972 184.757 290.215C183.612 291.046 183.96 292.074 185.532 292.507Z" fill="url(#paint40_linear_2166_26166)"/>
<path d="M208.028 298.686C212.286 299.854 214.416 300.438 218.673 301.599C220.251 302.032 222.47 301.661 223.643 300.777C226.805 298.39 228.401 297.194 231.602 294.816C232.788 293.932 232.463 292.891 230.874 292.483C226.582 291.387 224.434 290.837 220.142 289.734C218.553 289.326 216.311 289.688 215.141 290.543C211.98 292.854 210.399 294.015 207.269 296.342C206.105 297.203 206.451 298.257 208.028 298.686Z" fill="url(#paint41_linear_2166_26166)"/>
<path d="M253.527 298.249C249.254 297.168 247.115 296.624 242.83 295.534C241.24 295.129 238.986 295.525 237.795 296.414C234.581 298.821 232.976 300.028 229.802 302.438C228.626 303.331 228.956 304.406 230.531 304.832C234.779 305.987 236.903 306.565 241.138 307.714C242.71 308.14 244.935 307.742 246.121 306.824C249.325 304.35 250.949 303.108 254.206 300.634C255.413 299.716 255.111 298.651 253.527 298.249Z" fill="url(#paint42_linear_2166_26166)"/>
<path d="M276.023 303.911C271.791 302.852 269.67 302.32 265.416 301.249C263.838 300.853 261.575 301.283 260.362 302.209C257.09 304.711 255.46 305.966 252.243 308.465C251.051 309.391 251.36 310.482 252.922 310.905C257.139 312.042 259.241 312.61 263.434 313.735C264.987 314.152 267.212 313.722 268.416 312.771C271.667 310.207 273.319 308.922 276.635 306.346C277.86 305.394 277.592 304.304 276.023 303.911Z" fill="url(#paint43_linear_2166_26166)"/>
<path d="M298.236 309.429C294.071 308.401 291.978 307.885 287.776 306.841C286.22 306.455 283.951 306.921 282.716 307.885C279.385 310.486 277.727 311.786 274.461 314.372C273.251 315.329 273.532 316.441 275.072 316.852C279.231 317.964 281.305 318.514 285.43 319.611C286.958 320.015 289.175 319.552 290.4 318.57C293.7 315.919 295.383 314.585 298.757 311.913C300.008 310.921 299.779 309.812 298.236 309.429Z" fill="url(#paint44_linear_2166_26166)"/>
<path d="M320.037 314.76C315.959 313.772 313.909 313.275 309.788 312.268C308.26 311.894 305.994 312.4 304.737 313.401C301.344 316.101 299.656 317.448 296.343 320.123C295.115 321.115 295.358 322.239 296.871 322.637C300.952 323.712 302.981 324.247 307.016 325.3C308.51 325.692 310.714 325.189 311.958 324.173C315.311 321.433 317.021 320.052 320.46 317.281C321.729 316.255 321.547 315.125 320.037 314.76Z" fill="url(#paint45_linear_2166_26166)"/>
<path d="M341.308 319.861C337.344 318.922 335.347 318.446 331.327 317.482C329.836 317.124 327.582 317.677 326.301 318.712C322.847 321.507 321.127 322.904 317.759 325.668C316.512 326.691 316.712 327.831 318.185 328.21C322.161 329.242 324.137 329.752 328.058 330.759C329.512 331.133 331.694 330.589 332.957 329.542C336.362 326.715 338.103 325.285 341.607 322.419C342.904 321.353 342.777 320.21 341.308 319.861Z" fill="url(#paint46_linear_2166_26166)"/>
<path d="M104.129 273.754C100.119 272.63 98.1246 272.074 94.1668 270.965C92.7004 270.554 90.6134 270.826 89.5021 271.576C86.4982 273.606 84.9948 274.644 81.994 276.775C80.8826 277.566 81.1697 278.558 82.6392 278.978C86.6063 280.115 88.6037 280.689 92.6232 281.848C94.1112 282.277 96.2167 281.968 97.325 281.168C100.31 279.009 101.811 277.958 104.811 275.889C105.923 275.126 105.617 274.171 104.129 273.754Z" fill="url(#paint47_linear_2166_26166)"/>
<path d="M125.597 279.777C121.491 278.625 119.45 278.05 115.384 276.911C113.878 276.487 111.76 276.765 110.646 277.538C107.642 279.623 106.145 280.682 103.165 282.848C102.06 283.651 102.387 284.661 103.894 285.097C107.963 286.27 110.007 286.863 114.113 288.05C115.635 288.491 117.758 288.182 118.858 287.367C121.827 285.171 123.325 284.093 126.332 281.967C127.449 281.186 127.119 280.203 125.597 279.777Z" fill="url(#paint48_linear_2166_26166)"/>
<path d="M147.498 285.931C143.324 284.757 141.24 284.174 137.097 283.009C135.56 282.576 133.411 282.867 132.297 283.661C129.287 285.801 127.789 286.889 124.826 289.094C123.727 289.913 124.085 290.942 125.619 291.386C129.765 292.588 131.846 293.194 136.02 294.404C137.566 294.852 139.706 294.54 140.802 293.712C143.759 291.476 145.26 290.37 148.276 288.183C149.39 287.371 149.045 286.367 147.498 285.931Z" fill="url(#paint49_linear_2166_26166)"/>
<path d="M237.005 310.94C232.973 309.824 230.951 309.265 226.906 308.144C226.712 308.091 226.613 308.064 226.422 308.008C221.695 306.695 219.327 306.037 214.589 304.718C210.341 303.535 208.214 302.942 203.962 301.756C199.224 300.434 196.853 299.77 192.117 298.444C187.869 297.255 185.748 296.662 181.509 295.473C172.544 292.961 168.071 291.704 159.18 289.208C157.621 288.769 155.45 289.075 154.33 289.891C151.311 292.096 149.81 293.208 146.856 295.457C145.76 296.291 146.14 297.338 147.695 297.789C156.58 300.372 161.048 301.669 170 304.27C174.233 305.5 176.351 306.114 180.592 307.347C185.319 308.718 187.684 309.407 192.416 310.779C196.658 312.008 198.779 312.623 203.018 313.849C207.744 315.218 210.106 315.901 214.82 317.263C215.015 317.318 215.11 317.346 215.305 317.402C219.34 318.566 221.353 319.147 225.375 320.305C226.937 320.756 229.077 320.392 230.173 319.49C233.13 317.056 234.655 315.829 237.758 313.371C238.897 312.465 238.573 311.372 237.005 310.94Z" fill="url(#paint50_linear_2166_26166)"/>
<path d="M259.247 317.065C255.064 315.919 252.968 315.341 248.76 314.183C247.201 313.753 244.991 314.152 243.839 315.072C240.731 317.553 239.202 318.785 236.242 321.235C235.146 322.143 235.532 323.237 237.085 323.681C241.277 324.886 243.367 325.485 247.535 326.678C249.078 327.119 251.202 326.733 252.301 325.813C255.268 323.326 256.802 322.069 259.936 319.536C261.097 318.597 260.797 317.488 259.247 317.065Z" fill="url(#paint51_linear_2166_26166)"/>
<path d="M281.194 323.045C277.079 321.93 275.014 321.368 270.864 320.237C269.327 319.817 267.123 320.247 265.959 321.195C262.819 323.747 261.282 325.013 258.312 327.515C257.213 328.442 257.583 329.542 259.115 329.98C263.248 331.157 265.307 331.741 269.404 332.902C270.923 333.332 273.025 332.924 274.128 331.982C277.107 329.443 278.653 328.152 281.818 325.547C282.985 324.581 282.716 323.459 281.194 323.045Z" fill="url(#paint52_linear_2166_26166)"/>
<path d="M302.718 328.841C298.696 327.766 296.67 327.222 292.602 326.129C291.095 325.724 288.9 326.188 287.724 327.157C284.55 329.783 283 331.081 280.018 333.638C278.913 334.584 279.259 335.689 280.759 336.113C284.809 337.252 286.825 337.821 290.833 338.942C292.318 339.359 294.392 338.924 295.5 337.96C298.492 335.365 300.054 334.043 303.249 331.365C304.438 330.373 304.209 329.24 302.718 328.841Z" fill="url(#paint53_linear_2166_26166)"/>
<path d="M323.702 334.4C319.793 333.374 317.82 332.852 313.856 331.802C312.387 331.413 310.211 331.913 309.022 332.911C305.814 335.608 304.252 336.942 301.255 339.549C300.143 340.516 300.458 341.622 301.921 342.027C305.87 343.123 307.83 343.667 311.72 344.739C313.162 345.137 315.206 344.671 316.32 343.692C319.327 341.044 320.901 339.688 324.134 336.939C325.332 335.923 325.153 334.783 323.702 334.4Z" fill="url(#paint54_linear_2166_26166)"/>
<path d="M382.624 225.127C334.878 217.772 310.742 214.735 262.52 208.542C253.682 207.405 248.143 199.46 250.153 191.011C262.955 137.117 269.269 114.53 282.071 60.6353C284.078 52.1868 292.978 45.7956 301.94 46.5833C350.838 50.8832 375.372 52.9652 423.146 57.5679C431.902 58.4112 437.32 66.1585 435.273 74.8109C422.22 129.994 415.191 156.732 402.141 211.915C400.091 220.564 391.376 226.477 382.624 225.127Z" fill="url(#paint55_linear_2166_26166)" stroke="#C0C2C4" stroke-width="5.1001" stroke-miterlimit="10"/>
<path d="M391.015 88.7115C390.555 87.1825 389.206 86.126 387.499 85.9592C380.037 85.2271 376.299 84.8657 368.806 84.1459C368.942 84.702 368.988 85.2673 368.849 85.8418C367.926 89.6321 361.032 92.0848 353.429 91.3496C345.825 90.6144 340.392 86.9909 341.308 83.2285C341.447 82.6601 341.762 82.135 342.154 81.6315C334.628 80.9302 330.858 80.5812 323.313 79.8861C321.588 79.7286 319.782 80.47 318.618 81.8137C308.736 93.2061 303.796 98.788 293.945 109.831C291.552 112.513 292.954 116.198 296.504 116.568C302.317 117.171 305.225 117.474 311.032 118.079C313.743 114.999 315.098 113.455 317.815 110.353C313.329 128.427 311.085 137.336 306.599 155.438C306.007 157.829 307.615 160.022 310.19 160.334C320.285 161.56 325.329 162.178 335.4 163.435C335.523 163.451 335.582 163.457 335.705 163.472C345.776 164.73 350.805 165.369 360.841 166.673C363.397 167.003 365.96 165.292 366.562 162.848C371.131 144.336 373.428 135.161 378 116.664C379.046 120.238 379.568 122.027 380.608 125.613C386.36 126.265 389.231 126.596 394.964 127.263C398.462 127.671 401.573 124.319 400.647 121.156C396.822 108.123 394.902 101.667 391.015 88.7115Z" fill="url(#paint56_linear_2166_26166)"/>
<path d="M303.676 166.664C304.108 168.298 304.324 169.117 304.756 170.757C306.506 171.23 307.38 171.468 309.131 171.94C307.528 172.975 306.726 173.494 305.12 174.532C305.015 176.268 304.963 177.136 304.855 178.878C303.435 177.868 302.722 177.364 301.298 176.361C299.483 176.957 298.575 177.256 296.763 177.856C297.486 176.197 297.847 175.369 298.572 173.713C297.554 172.351 297.047 171.668 296.029 170.312C297.899 170.291 298.835 170.281 300.709 170.26C301.894 168.814 302.487 168.097 303.676 166.664Z" fill="url(#paint57_linear_2166_26166)"/>
<path d="M318.759 168.535C319.188 170.179 319.405 171 319.834 172.65C321.581 173.125 322.455 173.366 324.202 173.845C322.597 174.883 321.797 175.405 320.192 176.443C320.084 178.185 320.028 179.06 319.92 180.808C318.5 179.792 317.79 179.285 316.37 178.275C314.558 178.874 313.65 179.171 311.835 179.77C312.56 178.105 312.925 177.274 313.65 175.612C312.634 174.241 312.128 173.558 311.115 172.193C312.983 172.174 313.922 172.162 315.789 172.143C316.978 170.694 317.571 169.975 318.759 168.535Z" fill="url(#paint58_linear_2166_26166)"/>
<path d="M333.825 170.436C334.251 172.088 334.464 172.916 334.89 174.572C336.634 175.054 337.505 175.295 339.249 175.78C337.647 176.821 336.844 177.343 335.242 178.384C335.131 180.135 335.075 181.012 334.964 182.767C333.547 181.745 332.84 181.235 331.423 180.215C329.611 180.812 328.703 181.111 326.891 181.711C327.616 180.039 327.981 179.205 328.709 177.537C327.7 176.16 327.194 175.471 326.181 174.096C328.049 174.078 328.981 174.068 330.849 174.053C332.04 172.604 332.636 171.881 333.825 170.436Z" fill="url(#paint59_linear_2166_26166)"/>
<path d="M348.865 172.373C349.291 174.035 349.501 174.869 349.924 176.534C351.665 177.022 352.536 177.266 354.274 177.757C352.672 178.801 351.872 179.323 350.27 180.364C350.159 182.125 350.1 183.006 349.989 184.769C348.575 183.738 347.871 183.225 346.457 182.196C344.648 182.792 343.741 183.092 341.932 183.688C342.66 182.011 343.021 181.171 343.75 179.496C342.743 178.109 342.24 177.417 341.231 176.034C343.095 176.018 344.028 176.012 345.892 176C347.081 174.551 347.674 173.825 348.865 172.373Z" fill="url(#paint60_linear_2166_26166)"/>
<path d="M363.875 174.352C364.295 176.026 364.505 176.863 364.928 178.54C366.666 179.035 367.531 179.285 369.266 179.782C367.666 180.826 366.867 181.351 365.268 182.395C365.153 184.165 365.098 185.052 364.984 186.825C363.573 185.784 362.869 185.265 361.461 184.23C359.655 184.827 358.751 185.123 356.942 185.719C357.667 184.036 358.031 183.192 358.76 181.512C357.757 180.116 357.253 179.418 356.25 178.024C358.112 178.015 359.044 178.009 360.902 178C362.091 176.539 362.684 175.81 363.875 174.352Z" fill="url(#paint61_linear_2166_26166)"/>
<path d="M373.137 127.72C350.909 125.196 339.721 123.995 317.311 121.616C317.907 119.228 318.203 118.033 318.799 115.639C341.222 117.965 352.416 119.142 374.653 121.607C374.048 124.053 373.745 125.276 373.137 127.72Z" fill="url(#paint62_linear_2166_26166)"/>
<path d="M372.199 200.131C336.313 194.932 318.216 192.612 282.016 187.994C281.516 187.929 281.201 187.488 281.312 187.015C281.352 186.845 281.374 186.759 281.414 186.586C281.528 186.11 282.031 185.773 282.531 185.838C318.738 190.444 336.835 192.754 372.723 197.935C373.22 198.006 373.529 198.46 373.415 198.945C373.375 199.121 373.353 199.207 373.31 199.38C373.196 199.865 372.692 200.205 372.199 200.131Z" fill="#C0C2C4"/>
<path d="M403.228 73.2939C367.197 69.8156 348.893 68.2 312.276 64.938C311.77 64.8917 311.449 64.4654 311.566 63.9866C311.606 63.8136 311.628 63.7271 311.668 63.5541C311.782 63.0753 312.289 62.7201 312.795 62.7633C349.418 66.0161 367.725 67.6255 403.753 71.0883C404.25 71.1377 404.561 71.5733 404.447 72.0583C404.407 72.2343 404.385 72.3208 404.342 72.4969C404.228 72.9819 403.728 73.3402 403.228 73.2939Z" fill="#CBE0CC"/>
<path d="M370.769 206.094C334.884 200.846 316.796 198.511 280.608 193.862C280.108 193.797 279.793 193.352 279.907 192.873C279.947 192.7 279.969 192.614 280.009 192.441C280.123 191.962 280.627 191.625 281.127 191.687C317.318 196.327 335.409 198.656 371.294 203.886C371.788 203.957 372.1 204.414 371.982 204.899C371.942 205.075 371.921 205.161 371.877 205.337C371.766 205.829 371.263 206.165 370.769 206.094Z" fill="#C0C2C4"/>
<path d="M357.911 210.41C331.124 206.558 317.663 204.776 290.715 201.263C290.283 201.208 290.012 200.818 290.11 200.401C290.172 200.133 290.206 199.997 290.268 199.728C290.367 199.311 290.802 199.018 291.234 199.073C318.185 202.579 331.648 204.359 358.433 208.201C358.862 208.263 359.131 208.658 359.032 209.079C358.967 209.35 358.936 209.486 358.871 209.755C358.772 210.178 358.34 210.472 357.911 210.41Z" fill="#C0C2C4"/>
<path d="M216.716 202.678C168.494 196.481 144.359 193.445 96.6152 186.086C87.8631 184.737 82.4234 176.551 84.4023 168.278C97.0351 115.511 102.614 97.3136 115.246 44.5436C117.228 36.2711 125.882 29.988 134.6 30.9055C182.164 35.9097 206.636 38.1091 255.5 42.4708C264.456 43.2709 270.099 50.9472 268.099 59.3864C255.343 113.204 249.11 135.435 236.353 189.253C234.35 197.692 225.555 203.811 216.716 202.678Z" fill="url(#paint63_linear_2166_26166)" stroke="#C0C2C4" stroke-width="5.1001" stroke-miterlimit="10"/>
<path d="M137.134 145.953C137.582 147.519 137.804 148.307 138.249 149.882C139.99 150.364 140.858 150.602 142.599 151.081C141.018 152.051 140.228 152.536 138.647 153.506C138.561 155.171 138.517 156.005 138.428 157.682C137.008 156.688 136.298 156.193 134.875 155.202C133.081 155.748 132.183 156.02 130.392 156.564C131.093 154.976 131.445 154.185 132.145 152.607C131.124 151.279 130.617 150.618 129.595 149.295C131.448 149.311 132.374 149.317 134.229 149.329C135.393 147.976 135.974 147.3 137.134 145.953Z" fill="url(#paint64_linear_2166_26166)"/>
<path d="M152.128 147.957C152.576 149.529 152.801 150.317 153.246 151.899C154.99 152.374 155.864 152.612 157.608 153.088C156.024 154.067 155.231 154.555 153.647 155.538C153.561 157.209 153.514 158.046 153.428 159.729C152.002 158.738 151.292 158.244 149.865 157.252C148.069 157.805 147.17 158.083 145.374 158.639C146.077 157.042 146.429 156.248 147.13 154.663C146.108 153.335 145.596 152.674 144.574 151.352C146.432 151.358 147.359 151.361 149.22 151.367C150.384 149.996 150.964 149.316 152.128 147.957Z" fill="url(#paint65_linear_2166_26166)"/>
<path d="M167.16 149.916C167.608 151.491 167.833 152.282 168.278 153.87C170.025 154.343 170.899 154.577 172.646 155.047C171.056 156.032 170.266 156.527 168.679 157.515C168.59 159.192 168.547 160.033 168.457 161.722C167.031 160.731 166.318 160.236 164.888 159.251C163.088 159.813 162.187 160.094 160.387 160.657C161.094 159.053 161.443 158.253 162.147 156.659C161.122 155.331 160.609 154.667 159.584 153.345C161.446 153.345 162.378 153.345 164.24 153.342C165.407 151.97 165.993 151.284 167.16 149.916Z" fill="url(#paint66_linear_2166_26166)"/>
<path d="M182.214 151.838C182.661 153.419 182.887 154.213 183.331 155.804C185.082 156.274 185.955 156.505 187.706 156.975C186.116 157.97 185.319 158.467 183.73 159.465C183.64 161.148 183.594 161.992 183.504 163.684C182.078 162.696 181.362 162.202 179.932 161.216C178.129 161.785 177.225 162.069 175.422 162.64C176.129 161.031 176.481 160.228 177.188 158.628C176.16 157.296 175.65 156.632 174.622 155.31C176.487 155.304 177.419 155.301 179.284 155.295C180.46 153.904 181.047 153.216 182.214 151.838Z" fill="url(#paint67_linear_2166_26166)"/>
<path d="M197.291 153.723C197.739 155.31 197.961 156.104 198.406 157.701C200.159 158.168 201.033 158.399 202.787 158.866C201.191 159.867 200.397 160.37 198.804 161.374C198.712 163.064 198.668 163.91 198.576 165.609C197.146 164.621 196.43 164.127 195.004 163.141C193.198 163.716 192.293 164.006 190.487 164.581C191.194 162.962 191.549 162.159 192.259 160.549C191.231 159.218 190.722 158.551 189.694 157.226C191.562 157.216 192.494 157.21 194.362 157.198C195.535 155.805 196.121 155.11 197.291 153.723Z" fill="url(#paint68_linear_2166_26166)"/>
<path d="M205.997 178.361C169.803 173.724 151.718 171.389 115.86 166.135C115.366 166.061 115.052 165.625 115.163 165.162C115.203 164.995 115.224 164.911 115.261 164.745C115.373 164.284 115.867 163.966 116.364 164.037C152.221 169.276 170.306 171.605 206.506 176.23C207.006 176.295 207.324 176.73 207.213 177.197C207.173 177.366 207.152 177.45 207.111 177.62C206.997 178.095 206.497 178.426 205.997 178.361Z" fill="#C0C2C4"/>
<path d="M235.384 58.0521C198.81 54.716 180.552 53.0201 144.67 49.2885C144.173 49.236 143.861 48.8128 143.972 48.3433C144.013 48.1734 144.034 48.09 144.074 47.9201C144.185 47.4505 144.682 47.1077 145.176 47.1571C181.056 50.8732 199.316 52.566 235.893 55.896C236.4 55.9423 236.721 56.3686 236.61 56.8443C236.569 57.0173 236.548 57.1007 236.508 57.2737C236.393 57.7494 235.89 58.0985 235.384 58.0521Z" fill="#CBE0CC"/>
<path d="M204.62 184.168C168.439 179.504 150.36 177.156 114.499 171.858C114.005 171.784 113.69 171.343 113.802 170.873C113.842 170.703 113.863 170.62 113.9 170.45C114.012 169.983 114.509 169.659 115.003 169.733C150.863 175.015 168.945 177.36 205.13 182.015C205.63 182.08 205.948 182.519 205.834 182.994C205.794 183.164 205.772 183.251 205.732 183.421C205.621 183.9 205.121 184.233 204.62 184.168Z" fill="#C0C2C4"/>
<path d="M191.728 188.538C164.786 185.017 151.329 183.225 124.554 179.345C124.125 179.284 123.853 178.894 123.949 178.484C124.011 178.218 124.041 178.085 124.106 177.819C124.202 177.409 124.631 177.124 125.063 177.186C151.835 181.06 165.296 182.848 192.24 186.367C192.673 186.422 192.947 186.805 192.849 187.219C192.787 187.485 192.753 187.621 192.691 187.887C192.592 188.304 192.16 188.597 191.728 188.538Z" fill="#C0C2C4"/>
<path d="M202.66 73.9846C195.105 73.2463 191.333 72.8756 183.803 72.1219C176.277 71.3682 172.516 70.9852 165.021 70.2129C151.774 96.1608 145.257 107.871 132.124 132.673C142.139 134.008 147.161 134.656 157.219 135.935C165.49 119.999 169.615 112.242 177.913 96.1979C178.058 113.157 178.141 121.448 178.268 138.564C188.357 139.806 193.411 140.414 203.524 141.625C203.209 114.414 202.99 101.57 202.66 73.9846Z" fill="#E37D8C"/>
<path d="M204.53 65.431C189.49 63.9915 181.988 63.2594 167.061 61.752C166.243 65.1653 165.836 66.855 165.021 70.2128C179.944 71.7543 187.443 72.5018 202.477 73.9691C203.299 70.5742 203.709 68.8691 204.53 65.431Z" fill="#E37D8C"/>
<path d="M471.001 216.808L480.781 170.219C483.001 159.639 496.816 150.533 509.754 151.123L513.119 151.277C529.318 152.013 538.947 162.45 535.683 175.733L524.236 222.319" stroke="#C6CACC" stroke-width="9.0089" stroke-miterlimit="10" stroke-linecap="round" stroke-linejoin="round"/>
<path d="M425.739 212.357L535.535 222.32L506.679 371.165L376.369 350.444L425.739 212.357Z" fill="url(#paint69_linear_2166_26166)"/>
<path d="M535.535 222.318L561.02 219.062L552.243 353.164L529.398 350.276L506.679 371.164L535.535 222.318Z" fill="url(#paint70_linear_2166_26166)"/>
<path d="M529.398 350.276L546.217 221.33L561.02 219.062L552.243 353.164L529.398 350.276Z" fill="url(#paint71_linear_2166_26166)"/>
<path d="M535.535 222.319L561.02 219.063L445.966 207.865L425.739 212.357L535.535 222.319Z" fill="#ADA9A5"/>
<path d="M503.657 246.979C506.699 246.979 509.165 244.511 509.165 241.468C509.165 238.424 506.699 235.957 503.657 235.957C500.615 235.957 498.15 238.424 498.15 241.468C498.15 244.511 500.615 246.979 503.657 246.979Z" fill="#84776B"/>
<path d="M445.967 241.469C449.008 241.469 451.474 239.002 451.474 235.958C451.474 232.915 449.008 230.447 445.967 230.447C442.925 230.447 440.459 232.915 440.459 235.958C440.459 239.002 442.925 241.469 445.967 241.469Z" fill="#84776B"/>
<path d="M447.282 235.889L440.854 188.741C439.394 178.035 450.042 168.82 463.184 169.416L466.602 169.571C483.056 170.315 496.316 180.88 497.674 194.32L502.431 241.465" stroke="#C6CACC" stroke-width="9.0089" stroke-miterlimit="10" stroke-linecap="round" stroke-linejoin="round"/>
<path d="M423.149 259.81L431.426 220.378C433.306 211.423 444.997 203.716 455.948 204.216L458.797 204.346C472.507 204.97 480.657 213.805 477.894 225.046L468.207 264.474" stroke="#E8E9EA" stroke-width="7.6249" stroke-miterlimit="10" stroke-linecap="round" stroke-linejoin="round"/>
<path d="M384.841 256.041L477.771 264.474L453.346 390.451L343.056 372.912L384.841 256.041Z" fill="#DD122D"/>
<path d="M477.771 264.474L499.341 261.719L491.91 375.219L472.575 372.773L453.345 390.451L477.771 264.474Z" fill="#CB0821"/>
<path d="M472.576 372.773L486.811 263.637L499.342 261.719L491.911 375.219L472.576 372.773Z" fill="#DD122D"/>
<path d="M477.771 264.474L499.341 261.719L401.962 252.238L384.841 256.041L477.771 264.474Z" fill="#B40017"/>
<path d="M450.789 285.346C453.364 285.346 455.451 283.258 455.451 280.682C455.451 278.106 453.364 276.018 450.789 276.018C448.215 276.018 446.127 278.106 446.127 280.682C446.127 283.258 448.215 285.346 450.789 285.346Z" fill="#CB0821"/>
<path d="M401.962 280.68C404.537 280.68 406.624 278.592 406.624 276.016C406.624 273.44 404.537 271.352 401.962 271.352C399.388 271.352 397.301 273.44 397.301 276.016C397.301 278.592 399.388 280.68 401.962 280.68Z" fill="#CB0821"/>
<path d="M403.077 275.96L397.637 236.055C396.402 226.992 405.414 219.195 416.537 219.699L419.43 219.829C433.356 220.459 444.581 229.398 445.729 240.775L449.755 280.68" stroke="#E8E9EA" stroke-width="7.6249" stroke-miterlimit="10" stroke-linecap="round" stroke-linejoin="round"/>
<defs>
<linearGradient id="paint0_linear_2166_26166" x1="145.011" y1="139.382" x2="492.697" y2="139.382" gradientUnits="userSpaceOnUse">
<stop stop-color="#343442"/>
<stop offset="1" stop-color="#6A6A7F"/>
</linearGradient>
<linearGradient id="paint1_linear_2166_26166" x1="473.964" y1="87.1981" x2="116.485" y2="188.457" gradientUnits="userSpaceOnUse">
<stop stop-color="#343442"/>
<stop offset="1" stop-color="#6A6A7F"/>
</linearGradient>
<linearGradient id="paint2_linear_2166_26166" x1="367.784" y1="328.195" x2="220.073" y2="328.195" gradientUnits="userSpaceOnUse">
<stop stop-color="#343442"/>
<stop offset="1" stop-color="#6A6A7F"/>
</linearGradient>
<linearGradient id="paint3_linear_2166_26166" x1="367.645" y1="327.709" x2="219.934" y2="327.709" gradientUnits="userSpaceOnUse">
<stop stop-color="#FBFBFB"/>
<stop offset="1" stop-color="#ECECEC"/>
</linearGradient>
<linearGradient id="paint4_linear_2166_26166" x1="0.678745" y1="316.861" x2="431.142" y2="318.929" gradientUnits="userSpaceOnUse">
<stop stop-color="#FBFBFB"/>
<stop offset="1" stop-color="#ECECEC"/>
</linearGradient>
<linearGradient id="paint5_linear_2166_26166" x1="119.863" y1="235.64" x2="483.534" y2="253.369" gradientUnits="userSpaceOnUse">
<stop stop-color="#343442"/>
<stop offset="1" stop-color="#6A6A7F"/>
</linearGradient>
<linearGradient id="paint6_linear_2166_26166" x1="109.992" y1="238.669" x2="481.003" y2="256.756" gradientUnits="userSpaceOnUse">
<stop stop-color="#343442"/>
<stop offset="1" stop-color="#6A6A7F"/>
</linearGradient>
<linearGradient id="paint7_linear_2166_26166" x1="99.7611" y1="241.717" x2="476.937" y2="260.105" gradientUnits="userSpaceOnUse">
<stop stop-color="#343442"/>
<stop offset="1" stop-color="#6A6A7F"/>
</linearGradient>
<linearGradient id="paint8_linear_2166_26166" x1="89.3445" y1="244.765" x2="471.476" y2="263.394" gradientUnits="userSpaceOnUse">
<stop stop-color="#343442"/>
<stop offset="1" stop-color="#6A6A7F"/>
</linearGradient>
<linearGradient id="paint9_linear_2166_26166" x1="78.927" y1="247.792" x2="464.78" y2="266.603" gradientUnits="userSpaceOnUse">
<stop stop-color="#343442"/>
<stop offset="1" stop-color="#6A6A7F"/>
</linearGradient>
<linearGradient id="paint10_linear_2166_26166" x1="68.6993" y1="250.78" x2="457.019" y2="269.711" gradientUnits="userSpaceOnUse">
<stop stop-color="#343442"/>
<stop offset="1" stop-color="#6A6A7F"/>
</linearGradient>
<linearGradient id="paint11_linear_2166_26166" x1="58.8587" y1="253.708" x2="448.366" y2="272.697" gradientUnits="userSpaceOnUse">
<stop stop-color="#343442"/>
<stop offset="1" stop-color="#6A6A7F"/>
</linearGradient>
<linearGradient id="paint12_linear_2166_26166" x1="49.6086" y1="256.561" x2="439.003" y2="275.545" gradientUnits="userSpaceOnUse">
<stop stop-color="#343442"/>
<stop offset="1" stop-color="#6A6A7F"/>
</linearGradient>
<linearGradient id="paint13_linear_2166_26166" x1="41.1553" y1="259.317" x2="429.131" y2="278.232" gradientUnits="userSpaceOnUse">
<stop stop-color="#343442"/>
<stop offset="1" stop-color="#6A6A7F"/>
</linearGradient>
<linearGradient id="paint14_linear_2166_26166" x1="33.7089" y1="261.959" x2="418.94" y2="280.74" gradientUnits="userSpaceOnUse">
<stop stop-color="#343442"/>
<stop offset="1" stop-color="#6A6A7F"/>
</linearGradient>
<linearGradient id="paint15_linear_2166_26166" x1="27.4718" y1="264.468" x2="408.63" y2="283.05" gradientUnits="userSpaceOnUse">
<stop stop-color="#343442"/>
<stop offset="1" stop-color="#6A6A7F"/>
</linearGradient>
<linearGradient id="paint16_linear_2166_26166" x1="107.518" y1="247.332" x2="418.979" y2="262.516" gradientUnits="userSpaceOnUse">
<stop stop-color="#343442"/>
<stop offset="1" stop-color="#6A6A7F"/>
</linearGradient>
<linearGradient id="paint17_linear_2166_26166" x1="81.2732" y1="251.79" x2="469.88" y2="270.735" gradientUnits="userSpaceOnUse">
<stop stop-color="#343442"/>
<stop offset="1" stop-color="#6A6A7F"/>
</linearGradient>
<linearGradient id="paint18_linear_2166_26166" x1="69.3925" y1="255.142" x2="463.867" y2="274.373" gradientUnits="userSpaceOnUse">
<stop stop-color="#343442"/>
<stop offset="1" stop-color="#6A6A7F"/>
</linearGradient>
<linearGradient id="paint19_linear_2166_26166" x1="57.3202" y1="258.48" x2="456.469" y2="277.939" gradientUnits="userSpaceOnUse">
<stop stop-color="#343442"/>
<stop offset="1" stop-color="#6A6A7F"/>
</linearGradient>
<linearGradient id="paint20_linear_2166_26166" x1="45.2399" y1="261.782" x2="447.853" y2="281.41" gradientUnits="userSpaceOnUse">
<stop stop-color="#343442"/>
<stop offset="1" stop-color="#6A6A7F"/>
</linearGradient>
<linearGradient id="paint21_linear_2166_26166" x1="33.3345" y1="265.027" x2="438.184" y2="284.764" gradientUnits="userSpaceOnUse">
<stop stop-color="#343442"/>
<stop offset="1" stop-color="#6A6A7F"/>
</linearGradient>
<linearGradient id="paint22_linear_2166_26166" x1="21.7932" y1="268.19" x2="427.64" y2="287.975" gradientUnits="userSpaceOnUse">
<stop stop-color="#343442"/>
<stop offset="1" stop-color="#6A6A7F"/>
</linearGradient>
<linearGradient id="paint23_linear_2166_26166" x1="10.8157" y1="271.25" x2="416.399" y2="291.023" gradientUnits="userSpaceOnUse">
<stop stop-color="#343442"/>
<stop offset="1" stop-color="#6A6A7F"/>
</linearGradient>
<linearGradient id="paint24_linear_2166_26166" x1="0.588651" y1="274.184" x2="404.651" y2="293.883" gradientUnits="userSpaceOnUse">
<stop stop-color="#343442"/>
<stop offset="1" stop-color="#6A6A7F"/>
</linearGradient>
<linearGradient id="paint25_linear_2166_26166" x1="-8.69342" y1="276.973" x2="392.58" y2="296.535" gradientUnits="userSpaceOnUse">
<stop stop-color="#343442"/>
<stop offset="1" stop-color="#6A6A7F"/>
</linearGradient>
<linearGradient id="paint26_linear_2166_26166" x1="87.097" y1="254.524" x2="466.039" y2="272.998" gradientUnits="userSpaceOnUse">
<stop stop-color="#343442"/>
<stop offset="1" stop-color="#6A6A7F"/>
</linearGradient>
<linearGradient id="paint27_linear_2166_26166" x1="75.4402" y1="258.235" x2="462.474" y2="277.103" gradientUnits="userSpaceOnUse">
<stop stop-color="#343442"/>
<stop offset="1" stop-color="#6A6A7F"/>
</linearGradient>
<linearGradient id="paint28_linear_2166_26166" x1="63.2296" y1="261.999" x2="457.25" y2="281.208" gradientUnits="userSpaceOnUse">
<stop stop-color="#343442"/>
<stop offset="1" stop-color="#6A6A7F"/>
</linearGradient>
<linearGradient id="paint29_linear_2166_26166" x1="50.6229" y1="265.793" x2="450.507" y2="285.288" gradientUnits="userSpaceOnUse">
<stop stop-color="#343442"/>
<stop offset="1" stop-color="#6A6A7F"/>
</linearGradient>
<linearGradient id="paint30_linear_2166_26166" x1="37.7918" y1="269.586" x2="442.382" y2="289.31" gradientUnits="userSpaceOnUse">
<stop stop-color="#343442"/>
<stop offset="1" stop-color="#6A6A7F"/>
</linearGradient>
<linearGradient id="paint31_linear_2166_26166" x1="24.9118" y1="273.358" x2="433.032" y2="293.254" gradientUnits="userSpaceOnUse">
<stop stop-color="#343442"/>
<stop offset="1" stop-color="#6A6A7F"/>
</linearGradient>
<linearGradient id="paint32_linear_2166_26166" x1="12.1558" y1="277.077" x2="422.624" y2="297.088" gradientUnits="userSpaceOnUse">
<stop stop-color="#343442"/>
<stop offset="1" stop-color="#6A6A7F"/>
</linearGradient>
<linearGradient id="paint33_linear_2166_26166" x1="-0.284451" y1="280.721" x2="411.317" y2="300.787" gradientUnits="userSpaceOnUse">
<stop stop-color="#343442"/>
<stop offset="1" stop-color="#6A6A7F"/>
</linearGradient>
<linearGradient id="paint34_linear_2166_26166" x1="-12.2352" y1="284.263" x2="399.296" y2="304.325" gradientUnits="userSpaceOnUse">
<stop stop-color="#343442"/>
<stop offset="1" stop-color="#6A6A7F"/>
</linearGradient>
<linearGradient id="paint35_linear_2166_26166" x1="47.194" y1="293.087" x2="371.159" y2="308.88" gradientUnits="userSpaceOnUse">
<stop stop-color="#343442"/>
<stop offset="1" stop-color="#6A6A7F"/>
</linearGradient>
<linearGradient id="paint36_linear_2166_26166" x1="70.1427" y1="264.165" x2="451.366" y2="282.75" gradientUnits="userSpaceOnUse">
<stop stop-color="#343442"/>
<stop offset="1" stop-color="#6A6A7F"/>
</linearGradient>
<linearGradient id="paint37_linear_2166_26166" x1="58.2784" y1="268.297" x2="446.573" y2="287.227" gradientUnits="userSpaceOnUse">
<stop stop-color="#343442"/>
<stop offset="1" stop-color="#6A6A7F"/>
</linearGradient>
<linearGradient id="paint38_linear_2166_26166" x1="45.9986" y1="272.513" x2="440.294" y2="291.735" gradientUnits="userSpaceOnUse">
<stop stop-color="#343442"/>
<stop offset="1" stop-color="#6A6A7F"/>
</linearGradient>
<linearGradient id="paint39_linear_2166_26166" x1="33.4583" y1="276.784" x2="432.651" y2="296.245" gradientUnits="userSpaceOnUse">
<stop stop-color="#343442"/>
<stop offset="1" stop-color="#6A6A7F"/>
</linearGradient>
<linearGradient id="paint40_linear_2166_26166" x1="20.8197" y1="281.077" x2="423.791" y2="300.722" gradientUnits="userSpaceOnUse">
<stop stop-color="#343442"/>
<stop offset="1" stop-color="#6A6A7F"/>
</linearGradient>
<linearGradient id="paint41_linear_2166_26166" x1="8.25956" y1="285.367" x2="413.857" y2="305.141" gradientUnits="userSpaceOnUse">
<stop stop-color="#343442"/>
<stop offset="1" stop-color="#6A6A7F"/>
</linearGradient>
<linearGradient id="paint42_linear_2166_26166" x1="-4.05547" y1="289.621" x2="403.011" y2="309.466" gradientUnits="userSpaceOnUse">
<stop stop-color="#343442"/>
<stop offset="1" stop-color="#6A6A7F"/>
</linearGradient>
<linearGradient id="paint43_linear_2166_26166" x1="-15.9401" y1="293.813" x2="391.412" y2="313.672" gradientUnits="userSpaceOnUse">
<stop stop-color="#343442"/>
<stop offset="1" stop-color="#6A6A7F"/>
</linearGradient>
<linearGradient id="paint44_linear_2166_26166" x1="-27.2078" y1="297.915" x2="379.237" y2="317.73" gradientUnits="userSpaceOnUse">
<stop stop-color="#343442"/>
<stop offset="1" stop-color="#6A6A7F"/>
</linearGradient>
<linearGradient id="paint45_linear_2166_26166" x1="-37.6806" y1="301.895" x2="366.654" y2="321.607" gradientUnits="userSpaceOnUse">
<stop stop-color="#343442"/>
<stop offset="1" stop-color="#6A6A7F"/>
</linearGradient>
<linearGradient id="paint46_linear_2166_26166" x1="-47.1815" y1="305.727" x2="353.848" y2="325.278" gradientUnits="userSpaceOnUse">
<stop stop-color="#343442"/>
<stop offset="1" stop-color="#6A6A7F"/>
</linearGradient>
<linearGradient id="paint47_linear_2166_26166" x1="53.1728" y1="274.446" x2="434.391" y2="293.031" gradientUnits="userSpaceOnUse">
<stop stop-color="#343442"/>
<stop offset="1" stop-color="#6A6A7F"/>
</linearGradient>
<linearGradient id="paint48_linear_2166_26166" x1="41.6033" y1="278.914" x2="427.92" y2="297.748" gradientUnits="userSpaceOnUse">
<stop stop-color="#343442"/>
<stop offset="1" stop-color="#6A6A7F"/>
</linearGradient>
<linearGradient id="paint49_linear_2166_26166" x1="29.9158" y1="283.504" x2="420.293" y2="302.536" gradientUnits="userSpaceOnUse">
<stop stop-color="#343442"/>
<stop offset="1" stop-color="#6A6A7F"/>
</linearGradient>
<linearGradient id="paint50_linear_2166_26166" x1="49.8677" y1="297.809" x2="344.939" y2="312.194" gradientUnits="userSpaceOnUse">
<stop stop-color="#343442"/>
<stop offset="1" stop-color="#6A6A7F"/>
</linearGradient>
<linearGradient id="paint51_linear_2166_26166" x1="-24.7071" y1="307.116" x2="369.38" y2="326.328" gradientUnits="userSpaceOnUse">
<stop stop-color="#343442"/>
<stop offset="1" stop-color="#6A6A7F"/>
</linearGradient>
<linearGradient id="paint52_linear_2166_26166" x1="-33.6347" y1="311.748" x2="357.708" y2="330.826" gradientUnits="userSpaceOnUse">
<stop stop-color="#343442"/>
<stop offset="1" stop-color="#6A6A7F"/>
</linearGradient>
<linearGradient id="paint53_linear_2166_26166" x1="-41.4618" y1="316.276" x2="345.933" y2="335.162" gradientUnits="userSpaceOnUse">
<stop stop-color="#343442"/>
<stop offset="1" stop-color="#6A6A7F"/>
</linearGradient>
<linearGradient id="paint54_linear_2166_26166" x1="-48.0115" y1="320.666" x2="334.233" y2="339.301" gradientUnits="userSpaceOnUse">
<stop stop-color="#343442"/>
<stop offset="1" stop-color="#6A6A7F"/>
</linearGradient>
<linearGradient id="paint55_linear_2166_26166" x1="249.565" y1="142.377" x2="435.941" y2="141.748" gradientUnits="userSpaceOnUse">
<stop stop-color="#FBFBFB"/>
<stop offset="1" stop-color="#E5E5E5"/>
</linearGradient>
<linearGradient id="paint56_linear_2166_26166" x1="354.044" y1="88.1649" x2="343.95" y2="145.602" gradientUnits="userSpaceOnUse">
<stop stop-color="#3ABAF9"/>
<stop offset="1" stop-color="#267EBD"/>
</linearGradient>
<linearGradient id="paint57_linear_2166_26166" x1="303.409" y1="167.758" x2="301.986" y2="175.855" gradientUnits="userSpaceOnUse">
<stop stop-color="#FFD600"/>
<stop offset="1" stop-color="#FFB000"/>
</linearGradient>
<linearGradient id="paint58_linear_2166_26166" x1="318.494" y1="169.633" x2="317.066" y2="177.759" gradientUnits="userSpaceOnUse">
<stop stop-color="#FFD600"/>
<stop offset="1" stop-color="#FFB000"/>
</linearGradient>
<linearGradient id="paint59_linear_2166_26166" x1="333.559" y1="171.539" x2="332.125" y2="179.694" gradientUnits="userSpaceOnUse">
<stop stop-color="#FFD600"/>
<stop offset="1" stop-color="#FFB000"/>
</linearGradient>
<linearGradient id="paint60_linear_2166_26166" x1="348.597" y1="173.48" x2="347.158" y2="181.665" gradientUnits="userSpaceOnUse">
<stop stop-color="#FFD600"/>
<stop offset="1" stop-color="#FFB000"/>
</linearGradient>
<linearGradient id="paint61_linear_2166_26166" x1="363.607" y1="175.463" x2="362.163" y2="183.677" gradientUnits="userSpaceOnUse">
<stop stop-color="#FFD600"/>
<stop offset="1" stop-color="#FFB000"/>
</linearGradient>
<linearGradient id="paint62_linear_2166_26166" x1="346.958" y1="117.669" x2="345.801" y2="124.253" gradientUnits="userSpaceOnUse">
<stop stop-color="#FFD600"/>
<stop offset="1" stop-color="#FFB000"/>
</linearGradient>
<linearGradient id="paint63_linear_2166_26166" x1="83.8323" y1="123.195" x2="268.724" y2="122.572" gradientUnits="userSpaceOnUse">
<stop stop-color="#FBFBFB"/>
<stop offset="1" stop-color="#E5E5E5"/>
</linearGradient>
<linearGradient id="paint64_linear_2166_26166" x1="136.889" y1="146.995" x2="135.536" y2="154.697" gradientUnits="userSpaceOnUse">
<stop stop-color="#FFD600"/>
<stop offset="1" stop-color="#FFB000"/>
</linearGradient>
<linearGradient id="paint65_linear_2166_26166" x1="151.886" y1="149.006" x2="150.524" y2="156.753" gradientUnits="userSpaceOnUse">
<stop stop-color="#FFD600"/>
<stop offset="1" stop-color="#FFB000"/>
</linearGradient>
<linearGradient id="paint66_linear_2166_26166" x1="166.914" y1="150.972" x2="165.545" y2="158.761" gradientUnits="userSpaceOnUse">
<stop stop-color="#FFD600"/>
<stop offset="1" stop-color="#FFB000"/>
</linearGradient>
<linearGradient id="paint67_linear_2166_26166" x1="181.969" y1="152.897" x2="180.593" y2="160.726" gradientUnits="userSpaceOnUse">
<stop stop-color="#FFD600"/>
<stop offset="1" stop-color="#FFB000"/>
</linearGradient>
<linearGradient id="paint68_linear_2166_26166" x1="197.046" y1="154.79" x2="195.664" y2="162.657" gradientUnits="userSpaceOnUse">
<stop stop-color="#FFD600"/>
<stop offset="1" stop-color="#FFB000"/>
</linearGradient>
<linearGradient id="paint69_linear_2166_26166" x1="504.857" y1="221.347" x2="434.342" y2="349.664" gradientUnits="userSpaceOnUse">
<stop stop-color="#FBFBFB"/>
<stop offset="1" stop-color="#B7B5B3"/>
</linearGradient>
<linearGradient id="paint70_linear_2166_26166" x1="506.678" y1="295.113" x2="561.021" y2="295.113" gradientUnits="userSpaceOnUse">
<stop stop-color="#FBFBFB"/>
<stop offset="1" stop-color="#B7B5B3"/>
</linearGradient>
<linearGradient id="paint71_linear_2166_26166" x1="552.951" y1="223.406" x2="541.535" y2="344.016" gradientUnits="userSpaceOnUse">
<stop stop-color="#FBFBFB"/>
<stop offset="1" stop-color="#B7B5B3"/>
</linearGradient>
</defs>
</svg>
