<svg width="38" height="38" viewBox="0 0 38 38" fill="none" xmlns="http://www.w3.org/2000/svg">
<path d="M29.5414 5.45605C30.3396 5.45605 31.1052 5.77315 31.6696 6.33758C32.234 6.90201 32.5511 7.66755 32.5511 8.46578V29.5338C32.5511 30.3321 32.234 31.0976 31.6696 31.662C31.1052 32.2265 30.3396 32.5436 29.5414 32.5436H8.47334C7.67512 32.5436 6.90958 32.2265 6.34515 31.662C5.78072 31.0976 5.46362 30.3321 5.46362 29.5338V8.46578C5.46362 7.66755 5.78072 6.90201 6.34515 6.33758C6.90958 5.77315 7.67512 5.45605 8.47334 5.45605H29.5414ZM28.789 28.7814V20.8056C28.789 19.5045 28.2721 18.2567 27.3521 17.3367C26.4321 16.4167 25.1842 15.8998 23.8831 15.8998C22.604 15.8998 21.1142 16.6823 20.3918 17.8561V16.1857H16.1933V28.7814H20.3918V21.3624C20.3918 20.2037 21.3249 19.2556 22.4836 19.2556C23.0424 19.2556 23.5782 19.4776 23.9733 19.8727C24.3684 20.2678 24.5904 20.8037 24.5904 21.3624V28.7814H28.789ZM11.3025 13.8231C11.973 13.8231 12.616 13.5567 13.0902 13.0826C13.5643 12.6085 13.8307 11.9654 13.8307 11.2949C13.8307 9.89539 12.702 8.7517 11.3025 8.7517C10.628 8.7517 9.9811 9.01964 9.50416 9.49659C9.02721 9.97354 8.75927 10.6204 8.75927 11.2949C8.75927 12.6944 9.90296 13.8231 11.3025 13.8231ZM13.3942 28.7814V16.1857H9.22578V28.7814H13.3942Z" fill="black"/>
</svg>
