<svg width="173" height="14" viewBox="0 0 173 14" fill="none" xmlns="http://www.w3.org/2000/svg">
<path d="M4.51259 8.02355V2.32395H5.57401V8.02355C5.57401 8.55426 5.46529 9.00205 5.24785 9.36691C5.03041 9.73177 4.73004 10.01 4.34675 10.2017C3.96714 10.3896 3.53041 10.4836 3.03656 10.4836C2.5427 10.4836 2.10413 10.3988 1.72084 10.2293C1.33755 10.0598 1.03718 9.8018 0.819738 9.45536C0.602294 9.10893 0.493572 8.67219 0.493572 8.14517H1.56052C1.56052 8.48424 1.62317 8.76249 1.74848 8.97993C1.87379 9.19738 2.047 9.3577 2.26813 9.46089C2.49295 9.56408 2.74909 9.61568 3.03656 9.61568C3.31665 9.61568 3.56727 9.55671 3.7884 9.43878C4.01321 9.31716 4.19011 9.13841 4.31911 8.90254C4.4481 8.66298 4.51259 8.36999 4.51259 8.02355ZM10.754 9.35032V6.2711C10.754 6.03523 10.7061 5.83069 10.6102 5.65747C10.5181 5.48056 10.378 5.3442 10.1901 5.24838C10.0021 5.15256 9.76994 5.10464 9.49353 5.10464C9.23555 5.10464 9.00889 5.14887 8.81356 5.23732C8.62191 5.32577 8.47081 5.44187 8.36024 5.5856C8.25336 5.72933 8.19992 5.88412 8.19992 6.04997H7.1772C7.1772 5.83621 7.23248 5.6243 7.34305 5.41423C7.45361 5.20415 7.61209 5.01435 7.81848 4.84482C8.02855 4.6716 8.27916 4.53524 8.57032 4.43573C8.86515 4.33254 9.19316 4.28094 9.55434 4.28094C9.98923 4.28094 10.3725 4.35465 10.7042 4.50207C11.0396 4.64949 11.3013 4.87246 11.4892 5.17098C11.6809 5.46582 11.7767 5.83621 11.7767 6.28216V9.06838C11.7767 9.2674 11.7933 9.47932 11.8264 9.70413C11.8633 9.92895 11.9167 10.1224 11.9868 10.2846V10.373H10.9198C10.8682 10.2551 10.8277 10.0985 10.7982 9.90315C10.7687 9.70413 10.754 9.51986 10.754 9.35032ZM10.9309 6.74653L10.9419 7.4652H9.90815C9.61699 7.4652 9.35717 7.48915 9.12867 7.53707C8.90017 7.58129 8.70852 7.64947 8.55373 7.74161C8.39894 7.83375 8.281 7.94984 8.19992 8.08989C8.11884 8.22625 8.0783 8.38657 8.0783 8.57084C8.0783 8.7588 8.12069 8.93018 8.20545 9.08497C8.29022 9.23976 8.41737 9.36322 8.5869 9.45536C8.76012 9.54381 8.97203 9.58804 9.22265 9.58804C9.53591 9.58804 9.81232 9.5217 10.0519 9.38902C10.2914 9.25634 10.4812 9.09418 10.6213 8.90254C10.765 8.71089 10.8424 8.52478 10.8535 8.34419L11.2902 8.8362C11.2644 8.99099 11.1944 9.16236 11.0801 9.35032C10.9659 9.53828 10.8129 9.71887 10.6213 9.89209C10.4333 10.0616 10.2085 10.2035 9.94684 10.3178C9.68886 10.4283 9.39771 10.4836 9.07338 10.4836C8.66798 10.4836 8.31233 10.4044 8.00644 10.2459C7.70423 10.0874 7.46835 9.87551 7.29882 9.61015C7.13298 9.34111 7.05005 9.04074 7.05005 8.70905C7.05005 8.38841 7.11271 8.10647 7.23801 7.86323C7.36332 7.6163 7.54391 7.41176 7.77978 7.2496C8.01565 7.08375 8.29943 6.95844 8.63113 6.87368C8.96282 6.78891 9.33321 6.74653 9.7423 6.74653H10.9309ZM14.4081 5.66852V10.373H13.3854V4.3915H14.3528L14.4081 5.66852ZM14.1649 7.15562L13.7392 7.13903C13.7429 6.72994 13.8037 6.35218 13.9216 6.00575C14.0396 5.65562 14.2054 5.35157 14.4192 5.09359C14.6329 4.8356 14.8872 4.63659 15.1821 4.49654C15.4806 4.35281 15.8105 4.28094 16.1716 4.28094C16.4665 4.28094 16.7318 4.32148 16.9677 4.40256C17.2036 4.47995 17.4044 4.60526 17.5703 4.77848C17.7398 4.9517 17.8688 5.17651 17.9572 5.45292C18.0457 5.72565 18.0899 6.05919 18.0899 6.45353V10.373H17.0617V6.44248C17.0617 6.12921 17.0156 5.8786 16.9235 5.69064C16.8313 5.49899 16.6968 5.36079 16.5199 5.27602C16.343 5.18757 16.1256 5.14334 15.8676 5.14334C15.6133 5.14334 15.3811 5.19678 15.171 5.30366C14.9646 5.41054 14.7859 5.55796 14.6348 5.74592C14.4874 5.93388 14.3713 6.14948 14.2865 6.39272C14.2054 6.63228 14.1649 6.88658 14.1649 7.15562Z" fill="#707070"/>
<path d="M39.9046 2.32395V10.373H38.8376V2.32395H39.9046ZM43.2768 5.94494V6.8184H39.6724V5.94494H43.2768ZM43.8241 2.32395V3.19741H39.6724V2.32395H43.8241ZM48.2798 9.35032V6.2711C48.2798 6.03523 48.2319 5.83069 48.1361 5.65747C48.044 5.48056 47.9039 5.3442 47.7159 5.24838C47.528 5.15256 47.2958 5.10464 47.0194 5.10464C46.7614 5.10464 46.5347 5.14887 46.3394 5.23732C46.1478 5.32577 45.9967 5.44187 45.8861 5.5856C45.7792 5.72933 45.7258 5.88412 45.7258 6.04997H44.7031C44.7031 5.83621 44.7583 5.6243 44.8689 5.41423C44.9795 5.20415 45.1379 5.01435 45.3443 4.84482C45.5544 4.6716 45.805 4.53524 46.0962 4.43573C46.391 4.33254 46.719 4.28094 47.0802 4.28094C47.5151 4.28094 47.8984 4.35465 48.2301 4.50207C48.5654 4.64949 48.8271 4.87246 49.0151 5.17098C49.2067 5.46582 49.3025 5.83621 49.3025 6.28216V9.06838C49.3025 9.2674 49.3191 9.47932 49.3523 9.70413C49.3892 9.92895 49.4426 10.1224 49.5126 10.2846V10.373H48.4457C48.3941 10.2551 48.3535 10.0985 48.324 9.90315C48.2946 9.70413 48.2798 9.51986 48.2798 9.35032ZM48.4567 6.74653L48.4678 7.4652H47.434C47.1428 7.4652 46.883 7.48915 46.6545 7.53707C46.426 7.58129 46.2344 7.64947 46.0796 7.74161C45.9248 7.83375 45.8069 7.94984 45.7258 8.08989C45.6447 8.22625 45.6042 8.38657 45.6042 8.57084C45.6042 8.7588 45.6465 8.93018 45.7313 9.08497C45.8161 9.23976 45.9432 9.36322 46.1128 9.45536C46.286 9.54381 46.4979 9.58804 46.7485 9.58804C47.0618 9.58804 47.3382 9.5217 47.5777 9.38902C47.8173 9.25634 48.0071 9.09418 48.1471 8.90254C48.2909 8.71089 48.3683 8.52478 48.3793 8.34419L48.8161 8.8362C48.7903 8.99099 48.7202 9.16236 48.606 9.35032C48.4917 9.53828 48.3388 9.71887 48.1471 9.89209C47.9592 10.0616 47.7344 10.2035 47.4727 10.3178C47.2147 10.4283 46.9236 10.4836 46.5992 10.4836C46.1938 10.4836 45.8382 10.4044 45.5323 10.2459C45.2301 10.0874 44.9942 9.87551 44.8247 9.61015C44.6588 9.34111 44.5759 9.04074 44.5759 8.70905C44.5759 8.38841 44.6386 8.10647 44.7639 7.86323C44.8892 7.6163 45.0698 7.41176 45.3056 7.2496C45.5415 7.08375 45.8253 6.95844 46.157 6.87368C46.4887 6.78891 46.8591 6.74653 47.2682 6.74653H48.4567ZM50.9057 1.88169H51.934V9.21212L51.8455 10.373H50.9057V1.88169ZM55.9751 7.33252V7.44861C55.9751 7.8835 55.9235 8.28706 55.8203 8.6593C55.7171 9.02784 55.566 9.34848 55.367 9.62121C55.168 9.89393 54.9248 10.1058 54.6373 10.257C54.3498 10.4081 54.02 10.4836 53.6477 10.4836C53.2681 10.4836 52.9346 10.4191 52.6471 10.2901C52.3633 10.1574 52.1238 9.96764 51.9285 9.72072C51.7331 9.47379 51.5765 9.17526 51.4586 8.82514C51.3443 8.47502 51.2651 8.08067 51.2208 7.6421V7.1335C51.2651 6.69125 51.3443 6.29506 51.4586 5.94494C51.5765 5.59481 51.7331 5.29629 51.9285 5.04936C52.1238 4.79875 52.3633 4.60895 52.6471 4.47995C52.9309 4.34728 53.2608 4.28094 53.6367 4.28094C54.0126 4.28094 54.3461 4.35465 54.6373 4.50207C54.9284 4.6458 55.1717 4.85219 55.367 5.12123C55.566 5.39027 55.7171 5.71275 55.8203 6.08867C55.9235 6.4609 55.9751 6.87552 55.9751 7.33252ZM54.9469 7.44861V7.33252C54.9469 7.034 54.9192 6.7539 54.8639 6.49223C54.8087 6.22687 54.7202 5.99469 54.5986 5.79567C54.477 5.59297 54.3166 5.4345 54.1176 5.32025C53.9186 5.20231 53.6735 5.14334 53.3824 5.14334C53.1244 5.14334 52.8996 5.18757 52.7079 5.27602C52.52 5.36447 52.3597 5.48425 52.227 5.63535C52.0943 5.78277 51.9856 5.95231 51.9008 6.14395C51.8197 6.33191 51.7589 6.52724 51.7184 6.72994V8.06225C51.7773 8.32023 51.8732 8.569 52.0058 8.80856C52.1422 9.04443 52.3228 9.23792 52.5476 9.38902C52.7761 9.54013 53.0581 9.61568 53.3934 9.61568C53.6698 9.61568 53.9057 9.5604 54.101 9.44983C54.3001 9.33558 54.4604 9.17895 54.582 8.97993C54.7073 8.78092 54.7994 8.55057 54.8584 8.2889C54.9174 8.02723 54.9469 7.74714 54.9469 7.44861Z" fill="#707070"/>
<path d="M76.6931 2.32395H77.7268L80.3638 8.88595L82.9952 2.32395H84.0346L80.7618 10.373H79.9547L76.6931 2.32395ZM76.3558 2.32395H77.268L77.4173 7.23301V10.373H76.3558V2.32395ZM83.4541 2.32395H84.3662V10.373H83.3048V7.23301L83.4541 2.32395ZM89.6125 9.35032V6.2711C89.6125 6.03523 89.5646 5.83069 89.4688 5.65747C89.3767 5.48056 89.2366 5.3442 89.0487 5.24838C88.8607 5.15256 88.6285 5.10464 88.3521 5.10464C88.0941 5.10464 87.8675 5.14887 87.6721 5.23732C87.4805 5.32577 87.3294 5.44187 87.2188 5.5856C87.1119 5.72933 87.0585 5.88412 87.0585 6.04997H86.0358C86.0358 5.83621 86.0911 5.6243 86.2016 5.41423C86.3122 5.20415 86.4707 5.01435 86.677 4.84482C86.8871 4.6716 87.1377 4.53524 87.4289 4.43573C87.7237 4.33254 88.0517 4.28094 88.4129 4.28094C88.8478 4.28094 89.2311 4.35465 89.5628 4.50207C89.8982 4.64949 90.1598 4.87246 90.3478 5.17098C90.5394 5.46582 90.6353 5.83621 90.6353 6.28216V9.06838C90.6353 9.2674 90.6518 9.47932 90.685 9.70413C90.7219 9.92895 90.7753 10.1224 90.8453 10.2846V10.373H89.7784C89.7268 10.2551 89.6862 10.0985 89.6568 9.90315C89.6273 9.70413 89.6125 9.51986 89.6125 9.35032ZM89.7894 6.74653L89.8005 7.4652H88.7667C88.4756 7.4652 88.2157 7.48915 87.9872 7.53707C87.7587 7.58129 87.5671 7.64947 87.4123 7.74161C87.2575 7.83375 87.1396 7.94984 87.0585 8.08989C86.9774 8.22625 86.9369 8.38657 86.9369 8.57084C86.9369 8.7588 86.9793 8.93018 87.064 9.08497C87.1488 9.23976 87.2759 9.36322 87.4455 9.45536C87.6187 9.54381 87.8306 9.58804 88.0812 9.58804C88.3945 9.58804 88.6709 9.5217 88.9105 9.38902C89.15 9.25634 89.3398 9.09418 89.4799 8.90254C89.6236 8.71089 89.701 8.52478 89.712 8.34419L90.1488 8.8362C90.123 8.99099 90.053 9.16236 89.9387 9.35032C89.8245 9.53828 89.6715 9.71887 89.4799 9.89209C89.2919 10.0616 89.0671 10.2035 88.8054 10.3178C88.5474 10.4283 88.2563 10.4836 87.932 10.4836C87.5266 10.4836 87.1709 10.4044 86.865 10.2459C86.5628 10.0874 86.3269 9.87551 86.1574 9.61015C85.9915 9.34111 85.9086 9.04074 85.9086 8.70905C85.9086 8.38841 85.9713 8.10647 86.0966 7.86323C86.2219 7.6163 86.4025 7.41176 86.6383 7.2496C86.8742 7.08375 87.158 6.95844 87.4897 6.87368C87.8214 6.78891 88.1918 6.74653 88.6009 6.74653H89.7894ZM93.2667 5.3313V10.373H92.244V4.3915H93.2391L93.2667 5.3313ZM95.1352 4.35833L95.1297 5.30919C95.0449 5.29076 94.9639 5.2797 94.8865 5.27602C94.8128 5.26865 94.728 5.26496 94.6322 5.26496C94.3963 5.26496 94.1881 5.30182 94.0075 5.37553C93.8269 5.44924 93.6739 5.55243 93.5486 5.68511C93.4233 5.81779 93.3238 5.97626 93.2501 6.16054C93.1801 6.34112 93.134 6.54014 93.1119 6.75758L92.8244 6.92343C92.8244 6.56225 92.8594 6.22319 92.9295 5.90624C93.0032 5.58929 93.1156 5.30919 93.2667 5.06595C93.4178 4.81902 93.6094 4.62737 93.8416 4.49101C94.0775 4.35096 94.3576 4.28094 94.6819 4.28094C94.7556 4.28094 94.8404 4.29015 94.9362 4.30858C95.032 4.32332 95.0984 4.33991 95.1352 4.35833Z" fill="#707070"/>
<path d="M118.149 3.03709L115.485 10.373H114.396L117.464 2.32395H118.166L118.149 3.03709ZM120.383 10.373L117.713 3.03709L117.696 2.32395H118.398L121.477 10.373H120.383ZM120.245 7.39333V8.26679H115.723V7.39333H120.245ZM123.423 5.54137V12.6728H122.395V4.3915H123.335L123.423 5.54137ZM127.454 7.33252V7.44861C127.454 7.8835 127.402 8.28706 127.299 8.6593C127.196 9.02784 127.044 9.34848 126.845 9.62121C126.65 9.89393 126.409 10.1058 126.121 10.257C125.834 10.4081 125.504 10.4836 125.132 10.4836C124.752 10.4836 124.417 10.421 124.126 10.2957C123.834 10.1703 123.587 9.98791 123.385 9.74836C123.182 9.5088 123.02 9.22133 122.898 8.88595C122.78 8.55057 122.699 8.17281 122.655 7.75267V7.1335C122.699 6.69125 122.782 6.29506 122.904 5.94494C123.025 5.59481 123.186 5.29629 123.385 5.04936C123.587 4.79875 123.833 4.60895 124.12 4.47995C124.407 4.34728 124.739 4.28094 125.115 4.28094C125.491 4.28094 125.825 4.35465 126.116 4.50207C126.407 4.6458 126.652 4.85219 126.851 5.12123C127.05 5.39027 127.199 5.71275 127.299 6.08867C127.402 6.4609 127.454 6.87552 127.454 7.33252ZM126.425 7.44861V7.33252C126.425 7.034 126.394 6.7539 126.331 6.49223C126.269 6.22687 126.171 5.99469 126.038 5.79567C125.909 5.59297 125.743 5.4345 125.541 5.32025C125.338 5.20231 125.097 5.14334 124.817 5.14334C124.559 5.14334 124.334 5.18757 124.142 5.27602C123.954 5.36447 123.794 5.48425 123.661 5.63535C123.528 5.78277 123.42 5.95231 123.335 6.14395C123.254 6.33191 123.193 6.52724 123.153 6.72994V8.16176C123.226 8.41974 123.329 8.66298 123.462 8.89148C123.595 9.1163 123.772 9.29873 123.993 9.43878C124.214 9.57514 124.492 9.64332 124.828 9.64332C125.104 9.64332 125.342 9.5862 125.541 9.47195C125.743 9.35401 125.909 9.19369 126.038 8.99099C126.171 8.78829 126.269 8.5561 126.331 8.29443C126.394 8.02908 126.425 7.74714 126.425 7.44861ZM129.781 5.3313V10.373H128.758V4.3915H129.753L129.781 5.3313ZM131.649 4.35833L131.644 5.30919C131.559 5.29076 131.478 5.2797 131.401 5.27602C131.327 5.26865 131.242 5.26496 131.146 5.26496C130.91 5.26496 130.702 5.30182 130.522 5.37553C130.341 5.44924 130.188 5.55243 130.063 5.68511C129.938 5.81779 129.838 5.97626 129.764 6.16054C129.694 6.34112 129.648 6.54014 129.626 6.75758L129.339 6.92343C129.339 6.56225 129.374 6.22319 129.444 5.90624C129.517 5.58929 129.63 5.30919 129.781 5.06595C129.932 4.81902 130.124 4.62737 130.356 4.49101C130.592 4.35096 130.872 4.28094 131.196 4.28094C131.27 4.28094 131.355 4.29015 131.45 4.30858C131.546 4.32332 131.613 4.33991 131.649 4.35833Z" fill="#707070"/>
<path d="M152.303 2.32395H153.336L155.973 8.88595L158.605 2.32395H159.644L156.371 10.373H155.564L152.303 2.32395ZM151.965 2.32395H152.877L153.027 7.23301V10.373H151.965V2.32395ZM159.064 2.32395H159.976V10.373H158.914V7.23301L159.064 2.32395ZM165.222 9.35032V6.2711C165.222 6.03523 165.174 5.83069 165.078 5.65747C164.986 5.48056 164.846 5.3442 164.658 5.24838C164.47 5.15256 164.238 5.10464 163.962 5.10464C163.704 5.10464 163.477 5.14887 163.282 5.23732C163.09 5.32577 162.939 5.44187 162.828 5.5856C162.721 5.72933 162.668 5.88412 162.668 6.04997H161.645C161.645 5.83621 161.701 5.6243 161.811 5.41423C161.922 5.20415 162.08 5.01435 162.287 4.84482C162.497 4.6716 162.747 4.53524 163.038 4.43573C163.333 4.33254 163.661 4.28094 164.022 4.28094C164.457 4.28094 164.841 4.35465 165.172 4.50207C165.508 4.64949 165.769 4.87246 165.957 5.17098C166.149 5.46582 166.245 5.83621 166.245 6.28216V9.06838C166.245 9.2674 166.261 9.47932 166.294 9.70413C166.331 9.92895 166.385 10.1224 166.455 10.2846V10.373H165.388C165.336 10.2551 165.296 10.0985 165.266 9.90315C165.237 9.70413 165.222 9.51986 165.222 9.35032ZM165.399 6.74653L165.41 7.4652H164.376C164.085 7.4652 163.825 7.48915 163.597 7.53707C163.368 7.58129 163.177 7.64947 163.022 7.74161C162.867 7.83375 162.749 7.94984 162.668 8.08989C162.587 8.22625 162.546 8.38657 162.546 8.57084C162.546 8.7588 162.589 8.93018 162.673 9.08497C162.758 9.23976 162.885 9.36322 163.055 9.45536C163.228 9.54381 163.44 9.58804 163.691 9.58804C164.004 9.58804 164.28 9.5217 164.52 9.38902C164.759 9.25634 164.949 9.09418 165.089 8.90254C165.233 8.71089 165.31 8.52478 165.321 8.34419L165.758 8.8362C165.732 8.99099 165.662 9.16236 165.548 9.35032C165.434 9.53828 165.281 9.71887 165.089 9.89209C164.901 10.0616 164.677 10.2035 164.415 10.3178C164.157 10.4283 163.866 10.4836 163.541 10.4836C163.136 10.4836 162.78 10.4044 162.474 10.2459C162.172 10.0874 161.936 9.87551 161.767 9.61015C161.601 9.34111 161.518 9.04074 161.518 8.70905C161.518 8.38841 161.581 8.10647 161.706 7.86323C161.831 7.6163 162.012 7.41176 162.248 7.2496C162.484 7.08375 162.767 6.95844 163.099 6.87368C163.431 6.78891 163.801 6.74653 164.21 6.74653H165.399ZM169.446 9.75389L171.11 4.3915H172.204L169.805 11.2963C169.75 11.4437 169.676 11.6022 169.584 11.7717C169.495 11.9449 169.381 12.1089 169.241 12.2637C169.101 12.4185 168.931 12.5438 168.732 12.6396C168.537 12.7391 168.303 12.7889 168.03 12.7889C167.949 12.7889 167.846 12.7778 167.721 12.7557C167.595 12.7336 167.507 12.7152 167.455 12.7004L167.45 11.8712C167.479 11.8749 167.525 11.8786 167.588 11.8823C167.654 11.8896 167.7 11.8933 167.726 11.8933C167.958 11.8933 168.156 11.862 168.318 11.7993C168.48 11.7404 168.616 11.639 168.727 11.4953C168.841 11.3552 168.939 11.1617 169.02 10.9148L169.446 9.75389ZM168.224 4.3915L169.777 9.03522L170.043 10.1132L169.307 10.4891L167.107 4.3915H168.224Z" fill="#707070"/>
</svg>
