<svg width="46" height="46" viewBox="0 0 46 46" fill="none" xmlns="http://www.w3.org/2000/svg">
<circle cx="23.2629" cy="22.8787" r="21.655" fill="#F5F5F5" stroke="white" stroke-width="2"/>
<path fill-rule="evenodd" clip-rule="evenodd" d="M24.3138 13.9013C24.3138 13.321 23.8434 12.8506 23.2631 12.8506C22.6828 12.8506 22.2123 13.321 22.2123 13.9013V21.8272H14.2861C13.7058 21.8272 13.2354 22.2976 13.2354 22.8779C13.2354 23.4583 13.7058 23.9287 14.2861 23.9287H22.2123V31.8553C22.2123 32.4356 22.6828 32.9061 23.2631 32.9061C23.8434 32.9061 24.3138 32.4356 24.3138 31.8553V23.9287H32.2401C32.8204 23.9287 33.2908 23.4583 33.2908 22.8779C33.2908 22.2976 32.8204 21.8272 32.2401 21.8272H24.3138V13.9013Z" fill="#E6001E"/>
</svg>
