<svg width="69" height="69" viewBox="0 0 69 69" fill="none" xmlns="http://www.w3.org/2000/svg">
<path d="M32.7733 68.2226C31.6673 67.8798 30.4748 67.6961 29.4748 67.1537C28.1727 66.4471 26.982 65.5089 25.8177 64.5796C23.4256 62.6681 21.09 60.6858 18.7173 58.7495C18.159 58.2937 17.546 57.905 16.9471 57.4757C15.8252 58.4315 14.774 58.2566 13.6398 57.5499C10.6505 55.6878 7.6277 53.8822 4.61546 52.0554C0.832941 49.7623 -0.214721 45.4833 2.09437 41.7255C2.98125 40.2821 3.87167 38.8387 4.77623 37.4059C7.04822 33.7983 11.2247 32.7842 14.8871 34.9608C18.0654 36.8494 21.2261 38.7645 24.4026 40.6549C25.2648 41.1672 25.7948 41.8403 25.7753 42.8898C25.7718 43.0541 25.9432 43.282 26.0969 43.3791C27.1781 44.0576 28.2717 44.7165 29.3723 45.3614C29.632 45.5133 29.9342 45.6087 30.2292 45.6865C31.1762 45.9391 31.3599 46.5062 30.708 47.2624C29.6144 48.5309 28.5102 49.7888 27.4095 51.052C24.4874 54.4087 26.4714 58.534 29.6798 59.541C31.5595 60.1311 33.192 59.6205 34.6336 58.3626C35.2484 57.8273 35.8332 57.2566 36.4374 56.7107C37.0275 56.1789 37.3826 56.1754 37.8967 56.7531C39.8913 58.9898 41.87 61.2406 43.8594 63.4825C44.1756 63.8376 44.3046 64.2475 43.9671 64.6097C42.6015 66.0813 41.2305 67.5601 39.1422 68.0159C38.9108 68.0671 38.6882 68.1502 38.4603 68.2173H32.7733V68.2226ZM13.1858 55.3345C13.2776 55.4193 13.3059 55.4546 13.343 55.4776C13.7917 55.7532 14.2405 56.0305 14.6945 56.3009C15.3924 56.716 15.5814 56.6701 16.0213 55.9669C17.4789 53.6384 18.9329 51.3081 20.3869 48.9778C21.5741 47.0769 22.756 45.1723 23.9538 43.2749C24.2153 42.8597 24.2736 42.4887 23.8196 42.199C23.2118 41.8121 22.5864 41.457 21.9151 41.0559C18.9912 45.8384 16.0955 50.5767 13.1858 55.3345Z" fill="#E6001E"/>
<path d="M51.6841 9.70916C51.5198 15.5322 50.4015 20.9914 47.2833 25.901C44.5307 30.233 40.7288 33.4043 36.2431 35.7981C35.0806 36.4183 33.8457 36.3971 32.6903 35.7716C26.7983 32.5863 22.2084 28.1642 19.6202 21.8676C18.3464 18.7671 17.6732 15.5287 17.4453 12.1932C17.3658 11.0289 17.3217 9.8611 17.3128 8.69507C17.3022 7.43541 18.2669 6.39128 19.5318 6.35418C23.7048 6.22875 27.4184 4.72704 30.9395 2.62819C31.6391 2.21125 32.3175 1.76074 32.9888 1.29963C33.9976 0.607083 34.987 0.600015 35.9922 1.29786C38.4621 3.01157 41.0804 4.44084 43.9477 5.37543C45.6685 5.93548 47.4317 6.29235 49.2496 6.34005C50.7036 6.37891 51.6771 7.37711 51.6841 8.81874C51.6841 9.14912 51.6841 9.47949 51.6841 9.70916ZM32.9199 18.9084C32.1249 18.0957 31.3758 17.2901 30.5826 16.5304C29.5773 15.5676 28.0738 15.5888 27.1446 16.5393C26.2223 17.4791 26.2047 18.9402 27.1622 19.9278C28.4784 21.2882 29.8211 22.6238 31.1762 23.9453C32.1549 24.8993 33.5153 24.97 34.5117 24.0442C37.3314 21.4207 40.1263 18.7688 42.9001 16.0958C43.8558 15.1736 43.8205 13.7072 42.9301 12.7603C42.0467 11.8221 40.6139 11.7462 39.5946 12.6066C39.1582 12.9758 38.7571 13.3857 38.342 13.7797C36.554 15.4704 34.7679 17.1611 32.9217 18.9084H32.9199Z" fill="#E6001E"/>
<path d="M51.9227 57.3653C50.9298 58.1321 49.9051 58.8458 48.9705 59.6638C48.0606 60.4606 47.2497 61.3687 46.3876 62.2202C45.7427 62.858 45.4 62.8527 44.7975 62.1743C42.5874 59.6885 40.3825 57.1975 38.1794 54.7064C37.4781 53.9132 37.1883 53.8973 36.3968 54.6287C35.4569 55.4944 34.5312 56.3777 33.5666 57.2134C31.9995 58.5702 30.0208 58.5208 28.6392 57.1321C27.2665 55.7506 27.2047 53.733 28.5191 52.18C29.671 50.8179 30.8388 49.4681 32.0313 48.1413C33.4588 46.5531 35.2555 45.6538 37.4003 45.7669C38.9003 45.8464 40.2129 45.5496 41.4037 44.6486C41.6828 44.4383 41.9938 44.2599 42.3118 44.1115C42.9637 43.8094 43.3859 43.4702 43.2587 42.5992C43.151 41.8642 43.6315 41.2494 44.2728 40.8643C47.7038 38.799 51.1047 36.6807 54.5904 34.7126C57.8411 32.877 61.841 33.8928 63.9204 36.9899C65.0599 38.6877 66.1411 40.4297 67.1535 42.207C69.0297 45.4983 68.1252 49.5953 64.9539 51.6553C61.6343 53.8125 58.2122 55.8089 54.8165 57.8494C53.8237 58.4448 52.8696 58.2098 51.9209 57.3671L51.9227 57.3653ZM47.073 41.0586C46.4865 41.4084 45.9583 41.7176 45.4353 42.0338C44.6968 42.4826 44.6509 42.6628 45.1085 43.396C46.5024 45.6344 47.9034 47.871 49.3009 50.1077C50.5358 52.0846 51.7707 54.0598 53.0021 56.0368C53.2247 56.3954 53.4827 56.724 53.9509 56.4749C54.5833 56.1375 55.1875 55.7488 55.8218 55.3707C52.8926 50.5794 50.0058 45.8552 47.073 41.0568V41.0586Z" fill="#E6001E"/>
</svg>
