<svg width="55" height="57" viewBox="0 0 55 57" fill="none" xmlns="http://www.w3.org/2000/svg">
<g clip-path="url(#clip0_2166_25816)">
<path d="M54.9997 6.07896V50.924C54.9638 51.0014 54.9107 51.0759 54.8935 51.1578C54.2004 54.4061 51.6689 56.4985 48.4185 56.4985C34.4382 56.4985 20.4579 56.5015 6.47611 56.4985C2.86264 56.4985 0.00400509 53.5849 0.00400509 49.9099C0.00113498 35.6366 -0.00747536 21.3648 0.0111804 7.09305C0.0140505 4.3401 1.32426 2.34991 3.73085 1.12833C4.27904 0.849233 4.89468 0.706033 5.47875 0.5C20.1594 0.5 34.84 0.5 49.5207 0.5C49.6154 0.539453 49.7072 0.590596 49.8062 0.613976C52.2071 1.18239 53.8344 2.6407 54.6725 5.00204C54.7974 5.35419 54.8906 5.7195 54.9997 6.07896ZM3.2214 16.9256V17.4736C3.2214 28.1902 3.2214 38.9068 3.2214 49.6235C3.2214 51.8548 4.57323 53.221 6.78035 53.221C20.5985 53.221 34.4167 53.221 48.2348 53.221C50.4348 53.221 51.7766 51.8504 51.7766 49.6059C51.7766 38.9068 51.7766 28.2092 51.7766 17.5101V16.9256H3.2214ZM3.23288 13.5911H51.7378C51.7565 13.521 51.7723 13.4859 51.7737 13.4523C51.7766 11.4665 51.7794 9.47923 51.7794 7.49342C51.7794 5.10724 50.4721 3.78045 48.12 3.78045C34.3736 3.78045 20.6286 3.78045 6.88223 3.78045C6.73873 3.78045 6.59522 3.77753 6.45315 3.78191C4.72821 3.83306 3.32042 5.08825 3.25441 6.83733C3.16974 9.07301 3.23432 11.3145 3.23432 13.5911H3.23288Z" fill="#E6001E"/>
<path d="M32.4567 43.3959H26.672C26.7323 43.9585 26.8413 44.5094 26.8428 45.0588C26.8485 47.7547 24.6744 49.9364 22.0152 49.9364C19.3518 49.9364 17.2049 47.7591 17.1834 45.0573C17.1748 44.0798 17.4489 43.2016 17.9239 42.3628C18.0401 42.1582 18.099 41.8514 18.0473 41.6249C16.6653 35.704 15.2618 29.7875 13.8713 23.8681C13.801 23.5671 13.6833 23.456 13.3704 23.4604C11.9383 23.4779 10.5075 23.4706 9.07531 23.4663C8.06503 23.4633 7.30876 22.7356 7.33028 21.8005C7.35181 20.8726 8.08512 20.1931 9.07675 20.1916C11.027 20.1887 12.9787 20.1887 14.9289 20.1916C15.8717 20.1931 16.4228 20.6329 16.651 21.5798C16.9925 22.9899 17.3226 24.4029 17.6742 25.8831C17.8794 25.8831 18.0889 25.8831 18.2984 25.8831C24.7949 25.8831 31.2914 25.8787 37.7879 25.886C40.4514 25.889 42.6097 27.6395 43.2325 30.2683C43.4693 31.2677 43.4004 32.2526 43.0948 33.2287C42.2883 35.8078 41.4918 38.3912 40.671 40.9659C40.559 41.3166 40.5791 41.5372 40.8331 41.8309C42.195 43.4134 42.3787 45.7251 41.3268 47.5268C40.295 49.2949 38.2414 50.2593 36.3385 49.8691C34.2046 49.4322 32.6103 47.7971 32.3778 45.6856C32.296 44.9419 32.4266 44.1747 32.4596 43.3988L32.4567 43.3959ZM18.5108 29.1694C18.495 29.2819 18.4792 29.3199 18.4879 29.3535C19.3058 32.8152 20.1296 36.2768 20.9389 39.7399C21.0078 40.0366 21.147 40.1081 21.4211 40.1023C22.1903 40.0877 22.9595 40.0965 23.7301 40.0965C28.1687 40.0965 32.6059 40.0965 37.0446 40.0965C37.3058 40.0965 37.5382 40.1461 37.6559 39.7618C38.4265 37.2295 39.2416 34.7104 40.0151 32.1781C40.3323 31.1391 39.929 30.0125 39.0135 29.5435C38.5413 29.3024 37.9573 29.1855 37.422 29.184C31.3015 29.1606 25.1824 29.168 19.0619 29.168H18.5108V29.1694ZM20.4094 45.0135C20.408 45.8815 21.1585 46.653 22.0109 46.6559C22.8619 46.6588 23.6225 45.8873 23.6239 45.0193C23.6268 44.1528 22.8676 43.3784 22.0167 43.3769C21.1628 43.3754 20.4108 44.1397 20.4094 45.012V45.0135ZM35.555 45.0237C35.5593 45.8946 36.3156 46.6603 37.1666 46.6559C38.019 46.6515 38.7753 45.8741 38.7695 45.0091C38.7638 44.1411 38.0018 43.3711 37.1522 43.3769C36.2955 43.3828 35.5507 44.1514 35.555 45.0237Z" fill="#E6001E"/>
<path d="M33.8888 10.3415C29.5951 10.3415 25.3014 10.3429 21.0077 10.34C20.1338 10.34 19.455 9.75845 19.3459 8.94601C19.2369 8.1248 19.6989 7.37811 20.4868 7.13701C20.6705 7.08002 20.8728 7.06687 21.0666 7.06687C29.6539 7.06395 38.2413 7.06395 46.8287 7.06541C47.8404 7.06541 48.5422 7.72881 48.5522 8.67714C48.5622 9.65617 47.8591 10.34 46.8244 10.34C42.5135 10.3429 38.2011 10.34 33.8902 10.34L33.8888 10.3415Z" fill="#E6001E"/>
<path d="M8.05921 10.3405C7.14939 10.3405 6.43903 9.60845 6.44908 8.67618C6.45913 7.77461 7.16661 7.06445 8.05491 7.06445C8.96617 7.06445 9.67652 7.79653 9.66648 8.72733C9.65643 9.6289 8.94751 10.3405 8.05921 10.3405Z" fill="#E6001E"/>
<path d="M14.4581 10.3409C13.5555 10.3219 12.8652 9.56645 12.8939 8.62981C12.9226 7.73846 13.6516 7.04584 14.5457 7.06483C15.4282 7.08237 16.1185 7.81298 16.1099 8.7204C16.1027 9.6439 15.3723 10.3599 14.4567 10.3409H14.4581Z" fill="#E6001E"/>
</g>
<defs>
<clipPath id="clip0_2166_25816">
<rect width="55" height="56" fill="white" transform="translate(0 0.5)"/>
</clipPath>
</defs>
</svg>
