<svg width="55" height="53" viewBox="0 0 55 53" fill="none" xmlns="http://www.w3.org/2000/svg">
<g clip-path="url(#clip0_2166_25803)">
<path d="M52.5308 10.4219C52.5438 10.6776 52.5633 10.8746 52.5633 11.0717C52.5633 17.6743 52.5666 24.2786 52.5633 30.8812C52.5633 32.4186 51.8939 33.4007 50.6088 33.7411C50.3401 33.8128 50.0485 33.8225 49.7668 33.8242C47.2666 33.8307 44.7681 33.8193 42.2679 33.829C37.1634 33.8502 32.9905 37.2297 31.9595 42.2232C31.7852 43.0685 31.7885 43.9577 31.7706 44.8274C31.7412 46.3095 31.7706 47.7932 31.7608 49.2769C31.7494 50.8828 30.72 52.0294 29.1336 52.0326C22.7928 52.0473 16.452 52.1059 10.1145 51.9707C5.56051 51.873 1.44951 48.088 0.701912 43.5978C0.573239 42.8209 0.563467 42.0228 0.511346 41.2346C0.49343 40.9544 0.508089 40.6727 0.508089 40.3111H1.21986C4.36988 40.3111 7.51991 40.3144 10.6699 40.3111C15.4227 40.3062 19.0222 37.329 19.9067 32.6792C20.8302 27.8225 17.0856 22.7085 12.17 22.259C10.1536 22.0733 8.11278 22.1499 6.08171 22.1287C4.25587 22.1108 2.43003 22.1255 0.542293 22.1255C0.44131 20.4577 0.552065 18.8632 1.11399 17.3144C2.62711 13.1499 6.49705 10.4268 10.9273 10.4251C24.5845 10.4219 38.2416 10.4251 51.8972 10.4251H52.5308V10.4219Z" fill="#E6001E"/>
<path d="M16.874 6.47452C18.4539 3.04944 20.985 0.92078 24.6351 0.196024C25.3664 0.0510727 26.1287 0.0136134 26.8763 0.0119848C31.8538 -0.00267321 36.8329 -0.00267321 41.8104 0.00547011C46.1087 0.0136134 49.3125 1.89961 51.407 5.65694C51.5439 5.90124 51.6432 6.16508 51.7866 6.47452H16.874Z" fill="#E6001E"/>
<path d="M0.542236 36.4074V26.0295H1.1628C4.39426 26.0295 7.62573 26.0246 10.8572 26.0295C13.6684 26.0344 15.8249 28.0035 16.1295 30.8292C16.3966 33.3178 14.5919 35.7347 12.0104 36.3178C11.6178 36.4057 11.2041 36.4334 10.8002 36.4351C7.50846 36.4448 4.2151 36.4399 0.923367 36.4383C0.822384 36.4383 0.7214 36.422 0.542236 36.4057V36.4074Z" fill="#E6001E"/>
<path d="M42.8088 53.0004C42.0465 53.0134 41.11 52.6681 40.2875 52.0183C38.7744 50.8212 37.2645 49.6193 35.7677 48.4027C34.8604 47.6649 34.7155 46.5036 35.3898 45.6437C36.0771 44.7659 37.2922 44.6242 38.2092 45.344C39.6457 46.4727 41.066 47.6242 42.4945 48.7642C43.0841 49.2349 43.317 49.2121 43.8203 48.6372C46.1869 45.9303 48.5518 43.2235 50.92 40.5167C51.6579 39.6746 52.5521 39.4483 53.4186 39.8799C54.6076 40.4711 54.8665 41.9499 53.9381 43.0264C52.4511 44.7496 50.9445 46.4532 49.446 48.1649C48.4818 49.2642 47.5241 50.3701 46.5501 51.4613C45.6347 52.4857 44.4848 53.0053 42.8088 53.002V53.0004Z" fill="#E6001E"/>
</g>
<defs>
<clipPath id="clip0_2166_25803">
<rect width="54" height="53" fill="white" transform="translate(0.5)"/>
</clipPath>
</defs>
</svg>
