<svg width="53" height="53" viewBox="0 0 53 53" fill="none" xmlns="http://www.w3.org/2000/svg">
<path d="M0.983154 52.0201V49.032H1.55306C5.27346 49.032 8.99385 49.0414 12.7142 49.0294C20.2695 49.0054 26.6584 46.2504 31.7783 40.6978C35.3122 36.8655 37.4601 32.3276 38.1671 27.1478C38.3522 25.7869 38.4321 24.4047 38.4494 23.0306C38.4894 19.9094 38.4627 16.7855 38.4627 13.6643C38.4627 13.4832 38.4627 13.3022 38.4627 13.0718H33.95C36.9834 8.99454 39.9448 5.01183 42.9448 0.978516C43.4907 1.70022 43.998 2.37 44.504 3.04244C46.9088 6.23953 49.3136 9.43661 51.7198 12.6324C51.8063 12.7469 51.9169 12.8441 52.0167 12.9493V13.0491H47.4481C47.4401 13.1983 47.4308 13.2795 47.4308 13.3607C47.4308 16.9147 47.4841 20.4686 47.4042 24.0212C47.3656 25.7203 47.2058 27.4407 46.8702 29.1065C45.512 35.8442 42.1298 41.4022 36.7969 45.7364C32.7863 48.9948 28.203 51.0028 23.0752 51.7298C22.3574 51.831 21.6371 51.9255 20.9193 52.0227H0.983154V52.0201Z" fill="#E6001E"/>
<path d="M23.5292 43.4095V10.0938H27.9926V10.6357C27.9926 20.3535 27.9912 30.0712 28.0006 39.789C28.0006 40.1525 27.9273 40.4135 27.6157 40.6292C26.4027 41.4681 25.203 42.3256 23.9952 43.1712C23.8661 43.2617 23.7116 43.3176 23.5305 43.4095H23.5292Z" fill="#E6001E"/>
<path d="M16.0591 45.915V19.0547H20.5158V19.5833C20.5158 27.8031 20.5132 36.0242 20.5252 44.2439C20.5252 44.6181 20.4439 44.8138 20.0604 44.9057C18.7435 45.2226 17.4333 45.5662 16.0591 45.9137V45.915Z" fill="#E6001E"/>
<path d="M13.0099 46.0256H8.60107V28.1387H13.0099V46.0256Z" fill="#E6001E"/>
<path d="M1.02576 37.0898H5.53577V46.0087H1.02576V37.0898Z" fill="#E6001E"/>
</svg>
