<svg width="63" height="65" viewBox="0 0 63 65" fill="none" xmlns="http://www.w3.org/2000/svg">
<path d="M39.5785 53.7507H23.2749C23.2749 53.3023 23.2576 52.8781 23.2783 52.4573C23.368 50.6673 22.5868 49.4049 21.0778 48.4564C16.0353 45.2868 12.9726 40.7375 11.9223 34.881C10.3806 26.286 15.0437 17.3995 22.9834 13.6883C33.929 8.57338 46.7715 14.2074 50.3723 25.7031C53.0643 34.2964 49.6428 43.5864 41.9584 48.3874C40.3321 49.4032 39.5199 50.7414 39.6285 52.6487C39.6458 52.9488 39.6285 53.2506 39.6251 53.5524C39.6251 53.5938 39.6061 53.6352 39.5802 53.7507H39.5785ZM23.994 21.021C22.9231 22.0885 21.9384 23.0697 20.8123 24.1924C21.3158 24.5925 21.8677 25.0322 22.2436 25.3323C21.7124 26.705 21.271 27.8863 20.7916 29.0504C20.7174 29.228 20.476 29.4349 20.2949 29.4522C19.7482 29.5056 19.1912 29.4712 18.6221 29.4712V33.7652H20.5708C21.1554 35.1655 21.6969 36.4589 22.3212 37.9558C21.897 38.3093 21.3727 38.7456 20.9312 39.113C21.9711 40.1528 22.9507 41.1341 24.0181 42.2033C24.4182 41.7325 24.8614 41.21 25.2132 40.7961C26.6584 41.3945 27.9552 41.9308 29.3245 42.4982V44.4762H33.5892V42.5034C34.9723 41.9308 36.2726 41.3928 37.7557 40.7789C38.123 41.1824 38.5921 41.6997 38.9749 42.1205C40.0096 41.0944 40.9943 40.1166 42.0135 39.1061C41.7031 38.8025 41.3686 38.4369 40.9961 38.1162C40.665 37.8316 40.6443 37.6144 40.8512 37.197C41.3237 36.2416 41.7152 35.2397 42.0756 34.2343C42.1981 33.8911 42.3067 33.7255 42.6809 33.748C43.1103 33.7738 43.5432 33.7773 43.9709 33.7376C44.1105 33.7255 44.3451 33.5514 44.3485 33.4479C44.3744 32.1442 44.3658 30.8404 44.3658 29.4729C43.7398 29.4729 43.2052 29.4574 42.6723 29.4781C42.3378 29.4901 42.2101 29.366 42.0894 29.0417C41.6962 27.9812 41.2668 26.9292 40.7943 25.9031C40.646 25.5824 40.6615 25.4116 40.9081 25.1926C41.3203 24.8287 41.7118 24.4407 42.1532 24.0251C41.1806 23.0611 40.2959 22.1833 39.4112 21.3073C39.306 21.2021 39.1905 21.1089 39.0663 20.9968C38.9128 21.1434 38.7714 21.2745 38.6352 21.4073C38.2955 21.7367 37.9902 22.2816 37.6108 22.3385C37.2142 22.3972 36.7572 21.9643 36.3105 21.785C35.4224 21.4297 34.5222 21.1038 33.5634 20.7399V18.7343H29.3038V20.714C27.9276 21.2866 26.6308 21.8263 25.2305 22.4092C24.8459 21.9747 24.4044 21.478 23.9974 21.021H23.994Z" fill="#E6001E"/>
<path d="M23.3403 56.0898H39.537C39.9664 58.042 38.742 59.613 36.7881 59.6182C33.3046 59.6268 29.8193 59.5596 26.3392 59.6458C24.4336 59.6924 22.9799 58.1886 23.3403 56.0898Z" fill="#E6001E"/>
<path d="M36.695 62.002C36.1104 63.4592 35.1257 64.4508 33.6029 64.6198C32.2268 64.7715 30.8144 64.7612 29.4348 64.6388C27.8689 64.4991 26.8583 63.5023 26.2168 62.0037H36.695V62.002Z" fill="#E6001E"/>
<path d="M5.65003 47.6095C4.96712 47.5992 4.58945 47.3508 4.40147 46.8611C4.20143 46.342 4.30835 45.8246 4.77398 45.5435C6.33467 44.6002 7.91951 43.6931 9.51641 42.8136C10.0096 42.5411 10.627 42.7808 10.9133 43.2637C11.2133 43.7673 11.1599 44.2536 10.7598 44.6813C10.6304 44.8192 10.4597 44.9244 10.2942 45.021C8.95767 45.797 7.62116 46.5731 6.27776 47.337C6.0415 47.4716 5.77764 47.5561 5.65175 47.6112L5.65003 47.6095Z" fill="#E6001E"/>
<path d="M58.5998 16.7041C58.4774 16.861 58.2997 17.2662 57.9911 17.4559C56.5459 18.3406 55.0714 19.1787 53.5918 20.0048C52.9692 20.3514 52.2967 20.1428 51.9794 19.5737C51.6586 18.9977 51.8328 18.3475 52.4674 17.9716C53.9074 17.1197 55.3525 16.2746 56.8166 15.4641C57.6789 14.9864 58.6257 15.5434 58.5998 16.7023V16.7041Z" fill="#E6001E"/>
<path d="M16.6992 4.29883C16.8613 4.42299 17.2855 4.60752 17.4838 4.93C18.3616 6.35446 19.1859 7.80996 20.0034 9.2689C20.3759 9.93285 20.1741 10.6123 19.5739 10.9313C18.9928 11.2418 18.353 11.0572 17.9805 10.4226C17.1424 8.99988 16.3129 7.57197 15.5075 6.13027C15.0195 5.25766 15.5144 4.3247 16.6992 4.29883Z" fill="#E6001E"/>
<path d="M58.6016 46.199C58.6206 47.2699 57.7479 47.9011 56.9943 47.4975C55.406 46.6474 53.8505 45.7334 52.3071 44.8021C51.7673 44.4762 51.688 43.7846 52.0174 43.2604C52.3329 42.7603 52.9417 42.5413 53.4763 42.8362C55.0163 43.6881 56.5442 44.5607 58.048 45.4764C58.3395 45.654 58.4947 46.0541 58.6016 46.2007V46.199Z" fill="#E6001E"/>
<path d="M47.6457 5.56611C47.5819 5.72304 47.5112 5.9731 47.387 6.19039C46.6023 7.57001 45.8125 8.9479 45.0106 10.3189C44.5829 11.0518 43.9552 11.2674 43.3412 10.9259C42.6963 10.5672 42.5549 9.91018 42.9895 9.14795C43.7965 7.73211 44.6174 6.32318 45.4365 4.91252C45.7487 4.37447 46.2316 4.19684 46.811 4.36239C47.3439 4.51588 47.5957 4.92459 47.6457 5.56611Z" fill="#E6001E"/>
<path d="M9.85442 20.1924C9.69922 20.1338 9.44571 20.0734 9.2267 19.9493C7.82983 19.1543 6.43642 18.3506 5.04991 17.5367C4.33768 17.1176 4.13073 16.4726 4.48253 15.8639C4.82916 15.2655 5.50862 15.1206 6.22084 15.5259C7.63668 16.3312 9.04734 17.1469 10.4528 17.9695C10.9702 18.273 11.2134 18.7335 11.0461 19.3302C10.896 19.863 10.4959 20.1269 9.85442 20.1941V20.1924Z" fill="#E6001E"/>
<path d="M30.2988 3.95863C30.2988 3.16362 30.285 2.36862 30.3022 1.57361C30.3212 0.766537 30.8144 0.242282 31.4973 0.266425C32.1578 0.290568 32.6355 0.811374 32.6424 1.57361C32.6545 3.20674 32.658 4.83986 32.6424 6.47298C32.6355 7.23867 32.1492 7.72844 31.4646 7.73016C30.7661 7.73016 30.3247 7.27316 30.304 6.47298C30.2833 5.63487 30.2988 4.79675 30.2988 3.95863Z" fill="#E6001E"/>
<path d="M4.08953 30.2898C4.90695 30.2898 5.72266 30.2777 6.54009 30.2949C7.28681 30.3087 7.74208 30.7502 7.74898 31.4279C7.7576 32.1212 7.27301 32.6092 6.51422 32.6161C4.8604 32.6299 3.20485 32.6299 1.54931 32.6161C0.806038 32.611 0.276616 32.0953 0.283514 31.4348C0.290412 30.7743 0.811216 30.3035 1.57518 30.2915C2.4133 30.2794 3.25141 30.288 4.08953 30.2898Z" fill="#E6001E"/>
<path d="M58.969 32.6244C58.1533 32.6244 57.3376 32.6313 56.5236 32.6227C55.7476 32.6141 55.263 32.1657 55.2595 31.4759C55.2561 30.7861 55.7424 30.3153 56.5064 30.3118C58.1585 30.3032 59.8106 30.3015 61.4626 30.3118C62.2042 30.317 62.7336 30.8326 62.7164 31.4914C62.6991 32.1346 62.1921 32.6123 61.4799 32.6227C60.6435 32.6365 59.8071 32.6261 58.969 32.6261V32.6244Z" fill="#E6001E"/>
<path d="M24.7544 31.6087C24.7492 27.8906 27.7447 24.8882 31.4611 24.8848C35.1653 24.883 38.1953 27.8992 38.197 31.5949C38.2005 35.2992 35.1878 38.3085 31.4731 38.3119C27.7413 38.3136 24.7596 35.3388 24.7544 31.6087Z" fill="#E6001E"/>
</svg>
