<svg width="48" height="47" viewBox="0 0 48 47" fill="none" xmlns="http://www.w3.org/2000/svg">
<path d="M42.0093 5.68164H5.29053C4.70642 5.68226 4.14641 5.90964 3.73339 6.31388C3.32036 6.71812 3.08804 7.26621 3.0874 7.83789V32.9941C3.08804 33.5658 3.32036 34.1139 3.73339 34.5182C4.14641 34.9224 4.70642 35.1498 5.29053 35.1504H15.5718C15.7643 35.147 15.9477 35.0698 16.0826 34.9354C16.2175 34.8009 16.2931 34.6201 16.2931 34.4316C16.2931 34.2432 16.2175 34.0623 16.0826 33.9279C15.9477 33.7935 15.7642 33.7163 15.5717 33.7129H5.29053C5.0958 33.7128 4.90908 33.637 4.77139 33.5022C4.6337 33.3675 4.55628 33.1847 4.55615 32.9941V30.1191H42.7437V32.9941C42.7435 33.1847 42.6661 33.3675 42.5284 33.5022C42.3907 33.637 42.204 33.7128 42.0093 33.7129H19.2437C19.1472 33.7128 19.0517 33.7314 18.9626 33.7675C18.8734 33.8036 18.7925 33.8565 18.7242 33.9233C18.656 33.99 18.602 34.0693 18.5651 34.1565C18.5282 34.2438 18.5092 34.3372 18.5093 34.4316V40.1816H16.3062C16.1134 40.1846 15.9295 40.2616 15.7942 40.3961C15.6589 40.5305 15.5831 40.7117 15.5831 40.9004C15.5831 41.0891 15.6589 41.2703 15.7942 41.4047C15.9295 41.5392 16.1134 41.6162 16.3062 41.6191H30.9937C31.186 41.6156 31.3692 41.5383 31.504 41.4039C31.6387 41.2695 31.7142 41.0887 31.7142 40.9004C31.7142 40.7121 31.6387 40.5313 31.504 40.3969C31.3692 40.2625 31.186 40.1852 30.9936 40.1816H28.7905V35.1504H42.0093C42.5934 35.1498 43.1534 34.9224 43.5664 34.5182C43.9794 34.1139 44.2118 33.5658 44.2124 32.9941V14.3066C44.2087 14.1184 44.1298 13.939 43.9924 13.8072C43.8551 13.6753 43.6704 13.6014 43.478 13.6014C43.2856 13.6014 43.1009 13.6753 42.9636 13.8072C42.8263 13.9391 42.7473 14.1184 42.7437 14.3067V28.6816H4.55615V7.83789C4.55628 7.64731 4.6337 7.46456 4.77139 7.3298C4.90908 7.19503 5.0958 7.11927 5.29053 7.11914H42.0093C42.204 7.11927 42.3907 7.19503 42.5284 7.3298C42.6661 7.46456 42.7435 7.64731 42.7437 7.83789V10.7129C42.7464 10.9018 42.825 11.082 42.9624 11.2146C43.0998 11.3472 43.285 11.4215 43.478 11.4215C43.671 11.4215 43.8563 11.3472 43.9937 11.2146C44.1311 11.082 44.2097 10.9018 44.2124 10.7129V7.83789C44.2118 7.26621 43.9794 6.71812 43.5664 6.31388C43.1534 5.90964 42.5934 5.68226 42.0093 5.68164ZM27.3218 40.1816H19.978V35.1504H27.3218V40.1816Z" fill="#E6001E"/>
<path d="M23.0991 11.4316C22.7097 11.4321 22.3365 11.5837 22.0611 11.8532C21.7858 12.1227 21.6309 12.488 21.6304 12.8691V22.9316C21.6309 23.3127 21.7858 23.6781 22.0611 23.9476C22.3365 24.217 22.7097 24.3686 23.0991 24.3691H33.3804C33.7698 24.3686 34.143 24.217 34.4184 23.9476C34.6937 23.6781 34.8486 23.3127 34.8491 22.9316V12.8691C34.8486 12.488 34.6937 12.1227 34.4184 11.8532C34.143 11.5837 33.7698 11.4321 33.3804 11.4316H23.0991ZM23.0991 22.9316V12.8691H27.5054V14.3066C27.5054 14.4973 27.5827 14.6801 27.7205 14.8149C27.8582 14.9497 28.045 15.0254 28.2397 15.0254C28.4345 15.0254 28.6213 14.9497 28.759 14.8149C28.8968 14.6801 28.9741 14.4973 28.9741 14.3066V12.8691H33.3804L33.3818 22.9316H23.0991Z" fill="#E6001E"/>
<path d="M17.072 13.894C17.2106 14.0244 17.396 14.0964 17.5882 14.0945C17.7805 14.0926 17.9643 14.017 18.1003 13.884C18.2362 13.7509 18.3134 13.571 18.3153 13.3828C18.3172 13.1946 18.2436 13.0132 18.1104 12.8776L15.9082 10.7223C15.7696 10.5886 15.5827 10.5137 15.3881 10.5137C15.1934 10.5137 15.0066 10.5886 14.8679 10.7223L12.6657 12.8776C12.5295 13.0127 12.4533 13.195 12.4539 13.3848C12.4545 13.5747 12.5318 13.7565 12.669 13.8908C12.8061 14.025 12.9919 14.1007 13.1859 14.1013C13.3798 14.1019 13.5661 14.0273 13.7042 13.894L14.6537 12.9646V22.8362L13.7042 21.9069C13.5662 21.7731 13.3798 21.6982 13.1856 21.6986C12.9914 21.699 12.8053 21.7747 12.6679 21.9091C12.5306 22.0435 12.4533 22.2257 12.4529 22.4157C12.4525 22.6058 12.529 22.7883 12.6657 22.9233L14.8679 25.0786C15.0065 25.2125 15.1933 25.2876 15.3881 25.2876C15.5828 25.2876 15.7697 25.2125 15.9082 25.0786L18.1104 22.9233C18.2438 22.7876 18.3174 22.6062 18.3156 22.418C18.3137 22.2297 18.2365 22.0497 18.1005 21.9166C17.9645 21.7835 17.7806 21.708 17.5882 21.7061C17.3959 21.7043 17.2105 21.7764 17.0719 21.907L16.1224 22.8362V12.9646L17.072 13.894Z" fill="#E6001E"/>
</svg>
