<svg width="39" height="42" viewBox="0 0 39 42" fill="none" xmlns="http://www.w3.org/2000/svg">
<path d="M2.67281 0.160156C13.9895 0.160156 25.3063 0.160156 36.623 0.160156C36.9226 0.28742 37.2411 0.381531 37.5196 0.547294C38.5512 1.15902 38.9488 2.10975 38.9478 3.29577C38.9393 11.5519 38.9435 19.808 38.9435 28.0641C38.9435 28.1571 38.9435 28.2512 38.9404 28.3443C38.8697 30.0629 37.6883 31.2157 35.9923 31.2168C33.4661 31.2189 30.9409 31.2211 28.4147 31.2125C28.1342 31.2125 27.9285 31.2639 27.8641 31.5066C28.0846 31.7366 28.2797 31.9408 28.4991 32.1697C28.6478 32.0082 28.7902 31.8328 28.9537 31.6777C29.3841 31.2692 29.9093 31.2553 30.327 31.6756C31.9609 33.3193 33.6021 34.9577 35.2033 36.6335C36.2032 37.6795 36.1304 39.3264 35.1136 40.3488C34.1105 41.3573 32.4967 41.4289 31.4778 40.4301C29.8134 38.7992 28.19 37.1244 26.5594 35.4582C26.1628 35.0529 26.1807 34.5182 26.5699 34.0968C26.7302 33.9236 26.9222 33.7781 27.2028 33.5279C27.0171 33.4038 26.8885 33.3311 26.7745 33.2402C26.6638 33.1525 26.5678 33.0456 26.456 32.9397C26.3495 33.0156 26.2619 33.0723 26.1807 33.1365C24.4952 34.4583 22.5965 35.2401 20.4669 35.3919C16.7752 35.655 13.7301 34.3278 11.3241 31.4895C11.1501 31.2842 10.9824 31.2125 10.725 31.2125C8.23888 31.2211 5.75277 31.2264 3.26666 31.2083C2.88166 31.205 2.46924 31.1419 2.118 30.9922C0.927153 30.4821 0.355466 29.5271 0.355466 28.2256C0.353356 19.8625 0.354411 11.4995 0.355466 3.13642C0.355466 3.02947 0.361785 2.92253 0.372333 2.81665C0.491523 1.57931 1.13811 0.753697 2.27622 0.312017C2.40912 0.260684 2.54202 0.21042 2.67493 0.160156H2.67281ZM37.028 10.9166H2.26673V11.3358C2.26673 16.9387 2.26673 22.5415 2.26673 28.1443C2.26673 28.9603 2.60426 29.295 3.42804 29.295C5.44056 29.2961 7.45414 29.295 9.46666 29.295C9.59217 29.295 9.71769 29.2833 9.89489 29.2747C8.82745 26.862 8.55848 24.4087 9.20611 21.8774C9.85902 19.3267 11.244 17.2723 13.3546 15.743C16.9429 13.1443 21.7337 12.9293 25.3527 15.4682C30.287 18.931 31.3259 23.6869 29.3408 29.295C29.4442 29.295 29.5739 29.295 29.7037 29.295C31.7426 29.295 33.7825 29.295 35.8214 29.295C36.7158 29.295 37.027 28.9785 37.027 28.0673C37.027 22.5051 37.027 16.9419 37.027 11.3797V10.9166H37.028ZM19.5672 33.5076C24.4224 33.514 28.3883 29.5164 28.4052 24.5991C28.4221 19.6732 24.4509 15.6265 19.5904 15.6179C14.7395 15.6093 10.7883 19.6026 10.7661 24.536C10.744 29.4811 14.6878 33.5011 19.5672 33.5065V33.5076ZM37.028 8.95526V8.60128C37.028 6.80033 37.0291 4.99939 37.028 3.19738C37.028 2.43059 36.6789 2.07981 35.9132 2.07981C25.07 2.07874 14.2269 2.07874 3.38479 2.07981C2.61797 2.07981 2.26989 2.42952 2.26884 3.19631C2.26673 4.99725 2.26778 6.79819 2.26884 8.60021C2.26884 8.71464 2.28466 8.82907 2.29415 8.95526H37.0291H37.028ZM30.8038 37.0346C31.4504 37.6912 32.0906 38.3586 32.752 39.0034C33.0684 39.3114 33.4882 39.2911 33.7825 39.0056C34.0873 38.7104 34.1137 38.2634 33.7994 37.9318C33.1623 37.2624 32.503 36.6154 31.8628 35.9683C31.5052 36.3288 31.1614 36.6742 30.8038 37.0346ZM29.3714 35.5652C29.7427 35.2005 30.0876 34.8636 30.4072 34.5492C30.1656 34.2883 29.9072 34.0081 29.6794 33.761C29.3155 34.1129 28.9664 34.4497 28.6067 34.7973C28.8788 35.0711 29.1467 35.3395 29.3714 35.5652Z" fill="#E6001E"/>
<path d="M22.1566 22.3593C21.9826 22.3272 21.8107 22.3176 21.6535 22.2641C21.2485 22.1272 20.9816 21.7197 21.008 21.3134C21.0365 20.8781 21.355 20.4856 21.7843 20.4236C22.6165 20.3038 23.4509 20.1969 24.2884 20.1124C24.8084 20.06 25.2503 20.4289 25.3189 20.953C25.4265 21.7722 25.5193 22.5924 25.6026 23.4137C25.6543 23.9282 25.3252 24.3645 24.8347 24.4714C24.359 24.5752 23.9435 24.2918 23.6787 23.633C23.5606 23.7624 23.4561 23.8683 23.3612 23.9816C22.7157 24.7559 22.0723 25.5312 21.4267 26.3055C20.9837 26.837 20.6241 26.9162 20.0038 26.6125C19.2729 26.2542 18.544 25.8917 17.8015 25.5248C17.0304 26.4809 16.2741 27.4188 15.5168 28.3578C15.4504 28.4401 15.385 28.5236 15.3153 28.6048C14.8797 29.115 14.3407 29.1994 13.8988 28.8294C13.4653 28.4658 13.44 27.8819 13.846 27.375C14.5338 26.5151 15.2267 25.6596 15.9176 24.803C16.1919 24.4618 16.463 24.1185 16.7446 23.7827C17.1232 23.3303 17.5198 23.2405 18.043 23.4929C18.7191 23.8191 19.3847 24.1656 20.065 24.4821C20.1726 24.5324 20.392 24.5217 20.4574 24.4479C21.0249 23.7998 21.5702 23.1314 22.1197 22.4684C22.1419 22.4416 22.144 22.3978 22.1556 22.3614L22.1566 22.3593Z" fill="#E6001E"/>
<path d="M28.4538 6.48277C26.7187 6.48277 24.9846 6.48277 23.2495 6.48277C22.5839 6.48277 22.1779 6.1245 22.1736 5.53738C22.1684 4.93421 22.5787 4.56526 23.2664 4.56526C26.7229 4.56419 30.1784 4.56419 33.6349 4.56526C34.2857 4.56526 34.7139 4.94384 34.7213 5.51385C34.7287 6.09991 34.2952 6.4817 33.6191 6.48277C31.8977 6.48277 30.1763 6.48277 28.4549 6.48277H28.4538Z" fill="#E6001E"/>
<path d="M11.6291 6.48197C11.0584 6.48838 10.646 6.09055 10.6428 5.5323C10.6397 4.97298 11.051 4.56339 11.6143 4.56446C12.1649 4.56552 12.6047 5.00186 12.5963 5.53658C12.5879 6.06061 12.1638 6.47555 11.6301 6.48197H11.6291Z" fill="#E6001E"/>
<path d="M5.56174 6.4829C5.00482 6.48504 4.57236 6.06475 4.57447 5.52254C4.57658 4.98247 5.01431 4.56111 5.56912 4.56646C6.10284 4.5718 6.52581 4.98568 6.5353 5.51078C6.5448 6.05512 6.11761 6.48183 5.56174 6.48397V6.4829Z" fill="#E6001E"/>
<path d="M8.59111 6.48288C8.03418 6.48502 7.59961 6.06473 7.59961 5.52466C7.59961 4.98566 8.03946 4.56216 8.59322 4.56644C9.13854 4.57072 9.54251 4.96748 9.5499 5.50862C9.55728 6.07542 9.15752 6.48181 8.59005 6.48395L8.59111 6.48288Z" fill="#E6001E"/>
</svg>
