<svg width="36" height="35" viewBox="0 0 36 35" fill="none" xmlns="http://www.w3.org/2000/svg">
<g clip-path="url(#clip0_2166_25899)">
<path d="M5.40138 25.0176H1.90186C0.935938 25.0186 0.153125 25.779 0.1521 26.7173V34.083C0.1521 34.3959 0.413197 34.6495 0.73533 34.6495H6.56784C6.88998 34.6495 7.15107 34.3959 7.15107 34.083V26.7173C7.15005 25.779 6.3673 25.0186 5.40138 25.0176ZM5.98461 33.5164H1.31856V26.7173C1.31897 26.4046 1.57986 26.1512 1.90179 26.1508H5.40131C5.72324 26.1512 5.98413 26.4046 5.98454 26.7173L5.98461 33.5164Z" fill="#E6001E"/>
<path d="M14.7334 17.0859H11.2339C10.268 17.0869 9.48516 17.8474 9.48413 18.7857V34.0836C9.48413 34.3965 9.74523 34.6502 10.0674 34.6502H15.8999C16.222 34.6502 16.4831 34.3965 16.4831 34.0836V18.7857C16.4821 17.8473 15.6993 17.0869 14.7334 17.0859ZM15.3166 33.517H10.6506V18.7857C10.651 18.473 10.9119 18.2195 11.2338 18.2191H14.7333C15.0553 18.2195 15.3162 18.473 15.3166 18.7857L15.3166 33.517Z" fill="#E6001E"/>
<path d="M24.0654 20.4863H20.5659C19.6 20.4873 18.8172 21.2478 18.8162 22.1861V34.0845C18.8162 34.3974 19.0773 34.651 19.3994 34.651H25.2319C25.554 34.651 25.8151 34.3974 25.8151 34.0845V22.1861C25.8142 21.2477 25.0314 20.4873 24.0654 20.4863ZM24.6487 33.5178H19.9827V22.1861C19.9831 21.8734 20.244 21.6199 20.5659 21.6195H24.0654C24.3874 21.6199 24.6483 21.8734 24.6487 22.1861L24.6487 33.5178Z" fill="#E6001E"/>
<path d="M33.3977 15.9531H29.8982C28.9323 15.9541 28.1495 16.7146 28.1484 17.6529V34.084C28.1484 34.3969 28.4095 34.6506 28.7317 34.6506H34.5642C34.8863 34.6506 35.1474 34.3969 35.1474 34.084V17.6529C35.1464 16.7146 34.3636 15.9541 33.3977 15.9531ZM33.981 33.5174H29.3149V17.6529C29.3153 17.3402 29.5762 17.0867 29.8981 17.0863H33.3977C33.7196 17.0867 33.9805 17.3402 33.9809 17.6529V33.5174H33.981Z" fill="#E6001E"/>
<path d="M29.0357 7.44216C30.1042 8.61049 31.8554 8.92003 33.2791 8.19218C34.7027 7.46434 35.4316 5.88688 35.0452 4.36977C34.6589 2.85266 33.2569 1.78738 31.6481 1.78831C30.4802 1.78745 29.3889 2.35302 28.7393 3.29592C28.0897 4.23883 27.9677 5.43451 28.4139 6.48299L24.9285 8.5994C24.3014 7.9088 23.4115 7.49634 22.4644 7.45717C21.5173 7.41799 20.5946 7.75562 19.9094 8.39197L16.0919 5.61066C16.899 4.09422 16.423 2.23151 14.9796 1.25773C13.5362 0.28395 11.5732 0.501202 10.3923 1.76547C9.2114 3.02974 9.179 4.94875 10.3165 6.24994L5.42665 11.8949C3.8587 10.9987 1.84531 11.419 0.794843 12.8619C-0.255629 14.3048 0.00710854 16.2889 1.3994 17.4265C2.79169 18.5641 4.84896 18.4756 6.13237 17.2231C7.41577 15.9705 7.49711 13.9715 6.31951 12.6244L11.2094 6.97944C12.552 7.75529 14.2625 7.56579 15.3909 6.51619L19.2083 9.2975C18.4654 10.6955 18.8073 12.4061 20.0348 13.4325C21.2623 14.4589 23.0545 14.5326 24.367 13.6107C25.6794 12.6889 26.169 11.0125 25.5504 9.55844L29.0357 7.44216ZM31.6481 2.92151C32.9366 2.92151 33.9811 3.93619 33.9811 5.18785C33.9796 6.4389 32.936 7.45279 31.6481 7.45418C30.3596 7.45418 29.3151 6.4395 29.3151 5.18785C29.3151 3.93619 30.3596 2.92151 31.6481 2.92151ZM3.65194 17.0863C2.36348 17.0863 1.31895 16.0716 1.31895 14.82C1.31895 13.5683 2.36348 12.5536 3.65194 12.5536C4.94041 12.5536 5.98493 13.5683 5.98493 14.82C5.98343 16.071 4.93979 17.0848 3.65194 17.0863ZM12.984 6.32105C11.6955 6.32105 10.651 5.30636 10.651 4.05471C10.651 2.80306 11.6955 1.78838 12.984 1.78838C14.2724 1.78838 15.317 2.80306 15.317 4.05471C15.3155 5.30577 14.2718 6.31965 12.984 6.32105ZM22.316 13.1201C21.0275 13.1201 19.983 12.1054 19.983 10.8538C19.983 9.60213 21.0275 8.58745 22.316 8.58745C23.6045 8.58745 24.649 9.60213 24.649 10.8538C24.6476 12.1048 23.6039 13.1187 22.316 13.1201Z" fill="#E6001E"/>
</g>
<defs>
<clipPath id="clip0_2166_25899">
<rect width="35" height="34" fill="white" transform="translate(0.149902 0.650391)"/>
</clipPath>
</defs>
</svg>
