<svg width="47" height="46" viewBox="0 0 47 46" fill="none" xmlns="http://www.w3.org/2000/svg">
<path d="M33.7124 2.25977H13.5874C11.2093 2.25977 9.2749 4.15216 9.2749 6.47852V38.8223C9.2749 41.1486 11.2093 43.041 13.5874 43.041H33.7124C36.0905 43.041 38.0249 41.1486 38.0249 38.8223V6.47852C38.0249 4.15216 36.0905 2.25977 33.7124 2.25977ZM13.5874 3.66602H33.7124C35.298 3.66602 36.5874 4.92735 36.5874 6.47852V36.0098H10.7124V6.47852C10.7124 4.92735 12.0021 3.66602 13.5874 3.66602ZM33.7124 41.6348H13.5874C12.0021 41.6348 10.7124 40.3734 10.7124 38.8223V37.416H36.5874V38.8223C36.5874 40.3734 35.298 41.6348 33.7124 41.6348ZM23.6499 30.3848C29.595 30.3848 34.4312 25.6538 34.4312 19.8379C34.4312 14.022 29.595 9.29102 23.6499 9.29102C17.7048 9.29102 12.8687 14.022 12.8687 19.8379C12.8687 25.6538 17.7051 30.3848 23.6499 30.3848ZM23.6499 10.6973C28.8019 10.6973 32.9937 14.7979 32.9937 19.8379C32.9937 24.8779 28.8019 28.9785 23.6499 28.9785C18.4979 28.9785 14.3062 24.8779 14.3062 19.8379C14.3062 14.7979 18.4975 10.6973 23.6499 10.6973ZM18.8517 18.3252C18.6123 17.8253 18.6878 17.2519 19.0485 16.8283L21.6603 13.7624C21.9137 13.4644 22.3668 13.4245 22.6725 13.6725C22.9774 13.921 23.0185 14.3646 22.7644 14.6633L20.153 17.7285H28.6811C29.0783 17.7285 29.3998 18.043 29.3998 18.4316C29.3998 18.8203 29.0783 19.1348 28.6811 19.1348H20.1533C19.5897 19.1348 19.0907 18.8244 18.8517 18.3252ZM17.8999 21.2441C17.8999 20.8555 18.2218 20.541 18.6187 20.541H27.1468C27.7104 20.541 28.2094 20.8514 28.4481 21.3506C28.6874 21.8504 28.6116 22.4238 28.2508 22.8482L25.6398 25.9134C25.4973 26.0802 25.293 26.1661 25.0867 26.1661C24.9245 26.1661 24.7617 26.1125 24.627 26.0034C24.3224 25.7548 24.2813 25.3112 24.535 25.0125L27.1461 21.9473H18.6187C18.2218 21.9473 17.8999 21.6328 17.8999 21.2441Z" fill="#E6001E"/>
</svg>
