<svg width="32" height="26" viewBox="0 0 32 26" fill="none" xmlns="http://www.w3.org/2000/svg">
<path d="M31.9675 3.08633C30.7744 3.61371 29.5092 3.96028 28.2138 4.11461C29.5777 3.29697 30.5984 2.01198 31.0862 0.498434C29.8047 1.26105 28.3998 1.79551 26.9371 2.08462C25.9535 1.03223 24.6498 0.334289 23.2286 0.0992865C21.8075 -0.135716 20.3485 0.105391 19.0785 0.785124C17.8085 1.46486 16.7986 2.54513 16.2059 3.858C15.6132 5.17087 15.4709 6.64278 15.801 8.04491C13.202 7.91526 10.6593 7.24023 8.33824 6.06367C6.01716 4.88711 3.9696 3.23535 2.32861 1.21573C1.74787 2.21352 1.44262 3.34768 1.4441 4.50217C1.4441 6.76815 2.59897 8.77002 4.3508 9.94207C3.31344 9.9075 2.29908 9.62739 1.39097 9.12476V9.20446C1.39092 10.7139 1.91298 12.1768 2.86859 13.3452C3.8242 14.5136 5.15454 15.3155 6.63396 15.6148C5.67079 15.8764 4.66066 15.9149 3.68038 15.7273C4.09751 17.0266 4.91059 18.1628 6.00574 18.9769C7.10088 19.791 8.42323 20.2421 9.78757 20.2671C8.43141 21.3316 6.87885 22.1185 5.21855 22.5829C3.55824 23.0473 1.82272 23.1801 0.111084 22.9738C3.09857 24.895 6.57629 25.915 10.1282 25.9117C22.152 25.9117 28.7249 15.9524 28.7249 7.31511C28.7249 7.03277 28.7186 6.75096 28.7061 6.46966C29.985 5.54501 31.0889 4.39985 31.966 3.08789" fill="black"/>
</svg>
