<svg width="34" height="33" viewBox="0 0 34 33" fill="none" xmlns="http://www.w3.org/2000/svg">
<path d="M17.0072 0.793945C14.879 0.793945 12.7716 1.21313 10.8054 2.02757C8.83915 2.84201 7.05259 4.03575 5.54771 5.54063C2.50846 8.57988 0.801025 12.702 0.801025 17.0001C0.801025 24.1633 5.4522 30.2406 11.8861 32.396C12.6964 32.5257 12.9557 32.0233 12.9557 31.5857V28.8469C8.46656 29.8192 7.51039 26.6752 7.51039 26.6752C6.7649 24.7953 5.7115 24.2929 5.7115 24.2929C4.23674 23.2881 5.82495 23.3206 5.82495 23.3206C7.44557 23.434 8.30449 24.9898 8.30449 24.9898C9.71443 27.4531 12.0967 26.7239 13.0205 26.3349C13.1664 25.2815 13.5877 24.5684 14.0415 24.1633C10.4437 23.7581 6.66767 22.3644 6.66767 16.1898C6.66767 14.3909 7.2835 12.9486 8.33691 11.798C8.17484 11.3928 7.60763 9.70735 8.49897 7.51952C8.49897 7.51952 9.86029 7.08195 12.9557 9.17255C14.236 8.81601 15.6297 8.63774 17.0072 8.63774C18.3847 8.63774 19.7785 8.81601 21.0588 9.17255C24.1542 7.08195 25.5155 7.51952 25.5155 7.51952C26.4068 9.70735 25.8396 11.3928 25.6775 11.798C26.7309 12.9486 27.3468 14.3909 27.3468 16.1898C27.3468 22.3806 23.5545 23.7419 19.9405 24.1471C20.524 24.6495 21.0588 25.638 21.0588 27.1452V31.5857C21.0588 32.0233 21.3181 32.5419 22.1446 32.396C28.5784 30.2244 33.2134 24.1633 33.2134 17.0001C33.2134 14.8719 32.7942 12.7645 31.9798 10.7983C31.1654 8.83207 29.9716 7.04551 28.4667 5.54063C26.9618 4.03575 25.1753 2.84201 23.2091 2.02757C21.2428 1.21313 19.1354 0.793945 17.0072 0.793945Z" fill="black"/>
</svg>
