<svg width="28" height="28" viewBox="0 0 28 28" fill="none" xmlns="http://www.w3.org/2000/svg">
<path d="M15.4355 0.109375C16.9983 0.113542 17.7915 0.121877 18.4763 0.141324L18.7458 0.151048C19.0569 0.162161 19.3639 0.176052 19.7348 0.192721C21.2128 0.262176 22.2213 0.495546 23.1062 0.838654C24.023 1.19149 24.7953 1.66934 25.5676 2.44029C26.2743 3.13447 26.8209 3.97451 27.1693 4.90178C27.5124 5.78664 27.7458 6.79512 27.8152 8.27452C27.8319 8.64402 27.8458 8.95101 27.8569 9.26356L27.8652 9.53305C27.8861 10.2165 27.8944 11.0097 27.8972 12.5724L27.8986 13.6087V15.4284C27.9019 16.4416 27.8913 17.4548 27.8666 18.4678L27.8583 18.7372C27.8472 19.0498 27.8333 19.3568 27.8166 19.7263C27.7471 21.2057 27.511 22.2128 27.1693 23.099C26.8209 24.0263 26.2743 24.8663 25.5676 25.5605C24.8735 26.2671 24.0334 26.8137 23.1062 27.1621C22.2213 27.5053 21.2128 27.7386 19.7348 27.8081L18.7458 27.8497L18.4763 27.8581C17.7915 27.8775 16.9983 27.8873 15.4355 27.89L14.3993 27.8914H12.5809C11.5672 27.895 10.5536 27.8843 9.54018 27.8595L9.2707 27.8511C8.94094 27.8386 8.61125 27.8243 8.28166 27.8081C6.80365 27.7386 5.79516 27.5053 4.90892 27.1621C3.98215 26.8136 3.14259 26.267 2.44882 25.5605C1.74169 24.8665 1.19461 24.0264 0.845792 23.099C0.502683 22.2142 0.269314 21.2057 0.199859 19.7263L0.158186 18.7372L0.15124 18.4678C0.125634 17.4548 0.114057 16.4416 0.116513 15.4284V12.5724C0.112668 11.5592 0.122856 10.546 0.147073 9.53305L0.156797 9.26356C0.16791 8.95101 0.181801 8.64402 0.19847 8.27452C0.267925 6.79512 0.501294 5.78802 0.844402 4.90178C1.19403 3.97413 1.74207 3.13406 2.4502 2.44029C3.14358 1.734 3.98265 1.18742 4.90892 0.838654C5.79516 0.495546 6.80226 0.262176 8.28166 0.192721C8.65116 0.176052 8.95954 0.162161 9.2707 0.151048L9.54018 0.142713C10.5531 0.118033 11.5663 0.107382 12.5795 0.110764L15.4355 0.109375ZM14.0075 7.05489C12.1655 7.05489 10.3989 7.78664 9.09632 9.08918C7.79378 10.3917 7.06202 12.1583 7.06202 14.0004C7.06202 15.8425 7.79378 17.6091 9.09632 18.9116C10.3989 20.2142 12.1655 20.9459 14.0075 20.9459C15.8496 20.9459 17.6162 20.2142 18.9188 18.9116C20.2213 17.6091 20.953 15.8425 20.953 14.0004C20.953 12.1583 20.2213 10.3917 18.9188 9.08918C17.6162 7.78664 15.8496 7.05489 14.0075 7.05489ZM14.0075 9.83309C14.5548 9.833 15.0967 9.9407 15.6023 10.15C16.108 10.3594 16.5674 10.6663 16.9545 11.0532C17.3415 11.4401 17.6485 11.8994 17.8581 12.405C18.0676 12.9106 18.1754 13.4524 18.1755 13.9997C18.1756 14.547 18.0679 15.0889 17.8586 15.5945C17.6492 16.1002 17.3424 16.5596 16.9555 16.9466C16.5685 17.3337 16.1092 17.6407 15.6036 17.8502C15.0981 18.0597 14.5562 18.1676 14.0089 18.1677C12.9037 18.1677 11.8437 17.7287 11.0622 16.9471C10.2807 16.1656 9.84162 15.1056 9.84162 14.0004C9.84162 12.8952 10.2807 11.8352 11.0622 11.0537C11.8437 10.2721 12.9037 9.83309 14.0089 9.83309M21.3017 4.97123C20.8412 4.97123 20.3995 5.15417 20.0739 5.47981C19.7483 5.80544 19.5653 6.2471 19.5653 6.70761C19.5653 7.16813 19.7483 7.60978 20.0739 7.93542C20.3995 8.26105 20.8412 8.44399 21.3017 8.44399C21.7622 8.44399 22.2039 8.26105 22.5295 7.93542C22.8552 7.60978 23.0381 7.16813 23.0381 6.70761C23.0381 6.2471 22.8552 5.80544 22.5295 5.47981C22.2039 5.15417 21.7622 4.97123 21.3017 4.97123Z" fill="black"/>
</svg>
